<svg width="182" height="30" viewBox="0 0 182 30" fill="none" xmlns="http://www.w3.org/2000/svg">
<path d="M10.5746 1.40552C5.70612 2.58365 1.79312 6.42615 0.33712 11.4649C-0.34538 13.9118 0.06412 19.7299 1.06512 21.8868C1.88412 23.6811 3.70412 26.1099 4.93262 27.0705C6.07012 27.9405 8.29962 29.0461 10.0286 29.5536C12.1216 30.1518 16.1711 30.1518 18.4461 29.5355C24.3611 27.9224 28.6836 22.4305 28.7746 16.3768C28.8201 12.4799 27.5006 10.2505 24.3611 8.89115C23.4056 8.4924 22.7686 8.40177 21.0851 8.40177C19.2651 8.40177 18.8101 8.4924 17.0356 9.18115C12.8951 10.8305 10.8931 13.368 10.5291 17.283C10.3471 19.7118 10.3926 19.9655 11.2571 20.5093C11.7576 20.8174 12.5311 21.0893 12.8951 21.0893C13.9871 21.0893 14.3966 20.4005 14.8971 17.8811C15.3976 15.2168 16.2621 14.0386 18.2186 13.3861C19.9476 12.8061 20.9941 12.8061 22.1771 13.3861C25.8171 15.253 23.5876 21.8686 18.4916 24.1886C15.1701 25.6749 10.4836 25.0949 7.98112 22.9018C5.70612 20.8899 4.79612 18.7149 4.79612 15.4705C4.79612 10.468 7.38962 7.20552 12.3491 5.97302C13.0771 5.79177 13.9416 5.3749 14.3056 5.04865C15.5341 3.87052 14.7151 1.13365 13.0771 1.00677C12.7131 0.988647 11.6211 1.1699 10.5746 1.40552Z" fill="#FFF334"/>
<path d="M42.8342 1.49763C39.1942 2.54888 36.7827 4.36138 34.7352 7.53326C32.1417 11.6476 32.1417 19.3326 34.7352 23.4108C36.7827 26.6008 39.1942 28.3951 42.8342 29.4464C45.2912 30.1533 48.7037 30.1895 51.2517 29.5189C54.9372 28.5583 58.4407 25.6039 60.3062 21.9064C61.4892 19.532 61.4892 11.412 60.3062 9.03763C58.4407 5.34013 54.9372 2.38576 51.2517 1.42513C48.7037 0.754507 45.2912 0.790758 42.8342 1.49763ZM49.3862 6.22826C54.0727 7.35201 56.5297 10.5964 56.4842 15.5626C56.4842 20.7101 53.6177 24.0633 48.6127 24.897C45.8372 25.3501 42.6977 24.4983 40.6957 22.7039C36.6462 19.1151 36.6007 11.7745 40.6502 8.27638C42.0152 7.08013 42.8342 6.68138 44.7452 6.21013C46.4742 5.77513 47.5662 5.77513 49.3862 6.22826Z" fill="#FFF334"/>
<path d="M118.501 1.47905C116.635 2.04092 115.179 2.9653 113.678 4.54217C111.403 6.9528 111.312 7.51467 111.084 17.9365C110.857 28.2678 110.993 29.1197 112.813 29.3372C115.27 29.6453 115.953 28.5759 115.953 24.4434C115.953 22.1415 116.135 21.0903 116.499 20.9453C116.817 20.8184 118.228 20.7278 119.684 20.7278C123.187 20.7278 123.915 20.329 123.915 18.3715C123.915 16.414 123.187 16.0153 119.684 16.0153C118.228 16.0153 116.817 15.9247 116.499 15.7978C115.68 15.4715 115.771 10.6865 116.681 9.1278C117.591 7.49655 119.684 6.2278 121.367 6.2278C123.415 6.2278 124.871 7.07967 126.281 9.03717C126.918 9.97967 127.055 11.3572 127.191 19.1872C127.282 24.9872 127.51 28.4309 127.828 28.739C128.42 29.319 129.375 29.5003 130.513 29.2465C132.242 28.884 132.424 27.5247 132.196 18.1178C131.969 8.49342 131.696 7.2428 129.284 4.50592C127.874 2.94717 126.418 2.05905 124.188 1.4428C122.004 0.844673 120.639 0.844673 118.501 1.47905Z" fill="#FCFBF3"/>
<path d="M71.1348 1.64297C64.1733 2.31359 61.9893 12.808 68.0408 16.5236C69.5423 17.4298 71.7263 17.8286 75.1843 17.8286C76.7768 17.8286 77.9143 17.9192 78.3238 18.1005C79.5978 18.5898 80.2348 19.7136 80.1893 21.2723C80.1438 22.9398 79.2793 24.0273 77.7778 24.3536C77.2773 24.4442 74.5473 24.5348 71.7263 24.5348C68.9053 24.5348 66.3573 24.6073 66.0388 24.6798C64.4008 25.0967 64.1733 28.0873 65.6748 29.0117L66.4483 29.4648L72.7273 29.3923C78.7333 29.338 79.0973 29.3198 80.2348 28.8848C81.8728 28.2867 83.3288 27.0905 84.3753 25.5317C85.4673 23.9186 85.6038 18.4992 84.6028 16.9223C83.6473 15.4723 82.0548 14.1311 80.5078 13.4967C79.2338 12.9711 78.9153 12.9348 75.7758 12.9348C72.8638 12.9348 72.3178 12.8805 71.4533 12.518C70.1793 11.9742 69.3603 10.2523 69.7698 8.89297C70.4068 6.60922 70.9983 6.40984 77.0043 6.40984C83.0103 6.40984 82.9648 6.42797 82.9648 3.92672C82.9648 1.51609 82.9193 1.51609 76.6403 1.53422C74.0923 1.55234 71.6353 1.58859 71.1348 1.64297Z" fill="#FCFBF3"/>
<path d="M87.6065 1.76781C86.1505 2.34781 86.1505 4.92156 87.561 5.80969C88.198 6.22656 88.3345 6.22656 97.9805 6.22656H107.763L108.491 5.77344C109.993 4.84906 109.72 2.09406 108.036 1.65906C107.763 1.58656 103.213 1.51406 97.8895 1.51406C90.0635 1.51406 88.1525 1.56844 87.6065 1.76781Z" fill="#FCFBF3"/>
<path d="M138.384 2.00187C137.292 2.6725 137.292 5.08313 138.384 5.75375C139.158 6.20687 139.34 6.225 143.48 6.225C147.53 6.225 147.803 6.24313 148.667 6.69625C151.443 8.11 151.397 11.5719 148.622 13.1488C147.803 13.62 147.53 13.6562 144.618 13.6562C141.797 13.6562 141.342 13.7106 140.386 14.1275C137.975 15.1425 137.656 16.0125 137.429 21.74C137.247 27.395 137.565 28.8994 139.158 29.2438C140.295 29.4975 141.251 29.3163 141.842 28.7363C142.115 28.4463 142.388 26.3256 142.434 23.6975C142.57 19.5106 142.661 19.0938 143.435 18.7494C144.026 18.4956 144.845 18.3688 146.028 18.3688C149.077 18.3688 150.26 18.7675 151.716 20.2719C151.898 20.4713 152.171 22.5013 152.307 24.7669C152.58 28.5913 152.626 28.9356 153.445 29.1713C154.537 29.4794 154.719 29.4794 155.811 29.1713C156.63 28.9175 156.675 28.6456 156.675 24.0419C156.675 18.9306 156.311 17.7344 154.173 16.0125C153.399 15.3963 153.399 15.3238 154.264 14.0188C155.401 12.2063 155.856 8.65375 155.083 6.82313C154.355 5.04688 152.671 3.21625 151.079 2.455C149.486 1.73 147.666 1.5125 142.934 1.5125C139.34 1.5125 139.158 1.53063 138.384 2.00187Z" fill="#FCFBF3"/>
<path d="M160.042 1.82219C159.041 2.27531 158.904 4.95781 159.814 5.66469L160.588 6.22656H170.552H180.517L181.29 5.66469C182.382 4.81281 182.064 2.13031 180.835 1.76781C180.107 1.56844 177.923 1.51406 170.279 1.51406C161.862 1.51406 160.588 1.55031 160.042 1.82219Z" fill="#FCFBF3"/>
<path d="M96.1145 10.4876C95.614 10.9951 95.4775 12.5901 95.4775 19.6044C95.4775 25.2413 95.6595 28.2863 95.978 28.6669C96.615 29.4101 98.1165 29.6094 99.163 29.0838C100.392 28.4676 100.528 27.3438 100.392 18.8251C100.255 10.1794 100.164 9.8532 97.889 9.8532C97.07 9.8532 96.615 10.0163 96.1145 10.4876Z" fill="#FCFBF3"/>
<path d="M168.688 10.3413C167.869 11.0119 167.505 26.545 168.278 28.0675C168.824 29.1369 169.598 29.5175 170.917 29.3544C172.737 29.1188 172.828 28.6656 172.828 19.6213C172.828 12.1719 172.737 10.8488 172.146 10.3956C171.236 9.68877 169.598 9.67064 168.688 10.3413Z" fill="#FCFBF3"/>
</svg>
