<svg width="213" height="125" viewBox="0 0 213 125" fill="none" xmlns="http://www.w3.org/2000/svg">
<g clip-path="url(#clip0_434_4135)">
<path d="M30.5022 10.7008L30.5023 10.7007C30.9773 10.205 31.3506 9.81797 31.6577 9.53534C31.9593 9.25784 32.2409 9.0386 32.5371 8.92236C32.8667 8.79301 33.1723 8.80598 33.4774 8.90276C33.7453 8.98775 34.0327 9.14533 34.3355 9.3114L34.3409 9.31438C34.6315 9.46142 35.1864 9.82341 35.8202 10.2682C36.4715 10.7251 37.2376 11.2918 37.9526 11.8594C39.3927 12.97 41.2774 14.1975 42.1176 14.638C43.1317 15.1544 44.9099 15.7671 46.8548 16.2947C48.7955 16.8212 50.8577 17.251 52.423 17.4136L52.4265 17.414L55.0474 17.7052L55.4633 17.7514L55.4911 18.1689L55.7404 21.9083C55.7404 21.9091 55.7405 21.9098 55.7405 21.9106C56.0704 26.2383 56.6014 28.497 58.0174 31.2885L58.0174 31.2884L58.0207 31.295C58.9226 33.1399 59.8152 34.334 60.6865 34.9758C61.5262 35.5943 62.3473 35.7047 63.2181 35.3738L63.2216 35.3725C63.9251 35.1112 64.2364 34.8899 64.4102 34.607C64.5957 34.3051 64.6846 33.8396 64.6846 32.9291C64.6846 32.0603 64.4192 31.4265 64.0576 31.094C63.116 30.2436 62.4031 28.9564 61.9246 27.4028C61.4445 25.8438 61.1903 23.9841 61.19 21.9491C61.19 21.9482 61.19 21.9472 61.19 21.9463L61.1485 18.2077L61.1435 17.7585L61.5895 17.7056L64.0409 17.4148C64.0416 17.4147 64.0422 17.4146 64.0429 17.4145C65.3414 17.252 68.2254 16.6351 70.415 16.0153L70.4206 16.0138C72.9544 15.3285 74.7021 15.0001 76.1117 15.1517C77.5699 15.3086 78.6152 15.9709 79.7617 17.0957C79.762 17.0959 79.7622 17.0962 79.7625 17.0964L81.2381 18.5342H90.0207H98.7375L99.7077 17.4202C100.791 16.1215 101.875 15.3335 103.317 15.0883C104.723 14.8492 106.4 15.1409 108.635 15.8094L108.641 15.8112C111.274 16.6342 115.146 17.4155 117.43 17.5786L117.438 17.5792L117.446 17.58C117.735 17.6099 118.025 17.6423 118.266 17.7272C118.544 17.8249 118.772 17.9952 118.927 18.2819C119.062 18.5334 119.125 18.8459 119.166 19.1939C119.209 19.5507 119.236 20.0101 119.267 20.5883L119.267 20.5897C119.438 23.9773 118.373 27.9556 116.476 30.6741C115.822 31.6445 115.504 32.1657 115.369 32.5798C115.251 32.9387 115.267 33.2321 115.421 33.789C115.844 35.1902 117.267 35.9393 118.609 35.4917C119.284 35.2667 120.007 34.6775 120.72 33.7361C121.427 32.8028 122.092 31.5663 122.666 30.1235C123.813 27.238 124.57 23.5872 124.591 20.0311C124.591 20.0306 124.591 20.0302 124.591 20.0297L124.591 18.1189V17.6722L125.035 17.6221L127.614 17.3309L127.618 17.3304C130.769 17.0009 133.128 16.4894 135.589 15.424C138.058 14.3548 140.653 12.718 144.263 10.1041C144.884 9.63349 145.434 9.30302 145.925 9.11369C146.418 8.92373 146.888 8.862 147.319 8.98506L147.332 8.98883L147.345 8.99332C147.566 9.06979 147.789 9.22376 147.994 9.39201C148.207 9.56772 148.439 9.79146 148.68 10.0467C149.161 10.5578 149.7 11.2207 150.231 11.9411C151.286 13.3744 152.345 15.089 152.846 16.3538L152.846 16.3537L152.85 16.3636C153.625 18.4462 153.627 21.5812 152.999 25.336C152.368 29.1114 151.089 33.5858 149.228 38.3929L149.227 38.3962C147.178 43.5821 141.591 54.8793 138.293 60.4734C138.293 60.4735 138.293 60.4736 138.293 60.4737L136.088 64.2176L135.944 64.4633L135.659 64.4639L89.9389 64.5471L89.9384 64.5471L44.1771 64.6719L43.8872 64.6727L43.7425 64.4214L42.9523 63.0489C36.2476 51.4303 32.0696 42.8703 29.3504 34.9638C27.2611 28.9046 26.4111 24.7689 26.4111 20.5734C26.4111 18.6087 26.6998 16.8981 27.3643 15.2913C28.0283 13.6859 29.0566 12.2101 30.5022 10.7008ZM143.632 71.1528L143.631 71.1563C143.087 73.3558 142.436 75.4558 141.85 76.9917C141.558 77.7567 141.276 78.3982 141.025 78.8454C140.902 79.0651 140.771 79.2645 140.635 79.4094C140.567 79.4813 140.477 79.5622 140.365 79.6193C140.252 79.6769 140.085 79.7248 139.897 79.6734C139.578 79.5959 138.005 79.3529 136.332 79.1021L136.332 79.102C127.187 77.7201 117.784 82.5602 113.471 90.901C113.471 90.9012 113.471 90.9015 113.471 90.9017L112.556 92.6887L112.417 92.9609H112.111H100.088H88.0654H87.6468L87.5732 92.5488L87.3663 91.3899C85.5183 82.3202 81.5141 76.2873 74.2776 71.7083L72.2391 70.4186L70.7809 69.4961H72.5065H107.951H143.396H144.03L143.882 70.1128L143.632 71.1528Z" stroke="white"/>
<path d="M55.0025 73.8984C55.0904 72.6594 56.9096 72.6594 56.9975 73.8984L58.3728 93.2758C58.4167 93.8951 59.0085 94.3251 59.6112 94.1756L78.4652 89.4956C79.6706 89.1963 80.2328 90.9264 79.0816 91.3929L61.0776 98.6888C60.5022 98.922 60.2761 99.6177 60.6046 100.145L70.8817 116.63C71.5388 117.684 70.0671 118.753 69.2677 117.802L56.7654 102.934C56.3658 102.459 55.6342 102.459 55.2346 102.934L42.7323 117.802C41.9329 118.753 40.4612 117.684 41.1183 116.63L51.3954 100.145C51.7239 99.6177 51.4978 98.922 50.9224 98.6888L32.9184 91.3929C31.7672 90.9264 32.3294 89.1963 33.5349 89.4956L52.3888 94.1756C52.9915 94.3251 53.5833 93.8951 53.6272 93.2758L55.0025 73.8984Z" fill="#454648"/>
<circle cx="56" cy="97.8438" r="24.5" stroke="#FFF001" stroke-width="3"/>
<circle cx="56" cy="97.8438" r="6.5" fill="#100F00" stroke="#FFF001"/>
<path d="M134.726 85.7546C134.794 84.7928 136.206 84.7928 136.274 85.7546L137.342 100.798C137.376 101.278 137.836 101.612 138.303 101.496L152.94 97.8629C153.876 97.6306 154.312 98.9737 153.419 99.3359L139.442 105C138.995 105.181 138.82 105.721 139.075 106.13L147.053 118.928C147.563 119.746 146.421 120.576 145.8 119.838L136.094 108.295C135.784 107.926 135.216 107.926 134.906 108.295L125.2 119.838C124.579 120.576 123.437 119.746 123.947 118.928L131.925 106.13C132.18 105.721 132.005 105.181 131.558 105L117.581 99.3359C116.688 98.9737 117.124 97.6306 118.06 97.8629L132.697 101.496C133.164 101.612 133.624 101.278 133.658 100.798L134.726 85.7546Z" fill="#454648"/>
<circle cx="135.5" cy="104.344" r="19.0197" stroke="#FFF001" stroke-width="2.32895"/>
<circle cx="135.5" cy="104.344" r="5.04605" fill="#100F00" stroke="#FFF001" stroke-width="0.776316"/>
<path d="M142 76.8438H201.5V62.3438" stroke="white" stroke-linecap="round"/>
<path d="M27.5522 81.8672L24.6301 69.3438H37.6216H39.1976C36.5843 70.6575 34.0396 72.9045 31.9768 75.249C30.5825 76.8335 29.3875 78.4863 28.5191 79.9727C28.1333 80.6329 27.8048 81.2726 27.5522 81.8672Z" stroke="white" stroke-linecap="round"/>
</g>
<defs>
<clipPath id="clip0_434_4135">
<rect width="213" height="124" fill="white" transform="translate(0 0.421875)"/>
</clipPath>
</defs>
</svg>
