<svg width="25" height="44" viewBox="0 0 25 44" fill="none" xmlns="http://www.w3.org/2000/svg">
<mask id="mask0_434_4901" style="mask-type:luminance" maskUnits="userSpaceOnUse" x="0" y="0" width="25" height="44">
<path d="M19.8369 38.115C19.8369 38.115 11.022 44.1126 7.47087 43.7123C7.08082 43.6921 6.71051 43.5346 6.42555 43.2675C4.11249 40.8803 2.25166 36.6841 2.25166 36.6841C2.25166 36.6841 3.3563 35.1569 6.75917 39.2122L8.91654 37.2328L4.46835 32.7401C4.46835 32.7401 6.98157 30.7458 11.2518 33.2887C11.1036 32.9773 8.3531 26.9871 10.4289 18.8321L0.0498047 8.8162L9.25756 0.794642L9.99893 0.171875C9.99893 0.171875 10.5772 0.742727 11.4817 1.65461C12.3861 2.56649 13.639 3.66371 14.9957 4.85731C18.2429 7.71157 22.1722 10.7882 23.8921 10.7882C26.991 10.6844 19.8369 38.115 19.8369 38.115Z" fill="white"/>
</mask>
<g mask="url(#mask0_434_4901)">
<path opacity="0.4" d="M13.0237 34.1841C13.0237 34.1841 7.99724 39.3736 7.47087 43.7106C7.08083 43.6905 6.71051 43.5329 6.42555 43.2658C4.11249 40.8786 2.25166 36.6825 2.25166 36.6825C2.25166 36.6825 3.3563 35.1552 6.75917 39.2105L8.91654 37.2311L4.46835 32.7384C4.46835 32.7384 6.98157 30.7441 11.2518 33.287C11.1036 32.9756 8.3531 26.9854 10.4289 18.8304L0.0498047 8.81453L9.25756 0.792969L11.4817 1.63069C12.3935 2.49068 13.639 3.6398 14.9957 4.8334C13.0459 7.68766 8.87205 13.5963 8.87205 13.5963L12.4825 18.4894C12.4825 18.4894 10.2584 30.8257 13.0237 34.1841Z" fill="white"/>
</g>
</svg>
