<svg width="67" height="12" viewBox="0 0 67 12" fill="none" xmlns="http://www.w3.org/2000/svg">
<path fill-rule="evenodd" clip-rule="evenodd" d="M46.0894 0.25H60.9106C62.1587 0.25 62.6113 0.379956 63.0676 0.623986C63.5239 0.868016 63.882 1.22612 64.126 1.68242C64.37 2.13871 64.5 2.59131 64.5 3.83944V8.16056C64.5 9.40869 64.37 9.86129 64.126 10.3176C63.882 10.7739 63.5239 11.132 63.0676 11.376C62.6113 11.62 62.1587 11.75 60.9106 11.75H46.0894C44.8413 11.75 44.3887 11.62 43.9324 11.376C43.4761 11.132 43.118 10.7739 42.874 10.3176C42.63 9.86129 42.5 9.40869 42.5 8.16056V3.83944C42.5 2.59131 42.63 2.13871 42.874 1.68242C43.118 1.22612 43.4761 0.868016 43.9324 0.623986C44.3887 0.379956 44.8413 0.25 46.0894 0.25ZM46.0894 1.25C45.1025 1.25 44.7579 1.31654 44.404 1.5058C44.122 1.65663 43.9066 1.87199 43.7558 2.15401C43.5665 2.5079 43.5 2.85246 43.5 3.83944V8.16056C43.5 9.14754 43.5665 9.4921 43.7558 9.84599C43.9066 10.128 44.122 10.3434 44.404 10.4942C44.7579 10.6835 45.1025 10.75 46.0894 10.75H60.9106C61.8975 10.75 62.2421 10.6835 62.596 10.4942C62.878 10.3434 63.0934 10.128 63.2442 9.84599C63.4335 9.4921 63.5 9.14754 63.5 8.16056V3.83944C63.5 2.85246 63.4335 2.5079 63.2442 2.15401C63.0934 1.87199 62.878 1.65663 62.596 1.5058C62.2421 1.31654 61.8975 1.25 60.9106 1.25H46.0894ZM67 5.9375C67 7.17407 65.5 7.9375 65.5 7.9375V3.9375C65.5 3.9375 67 4.70093 67 5.9375Z" fill="#100F00"/>
<rect x="44.5" y="2.16406" width="18" height="7.66667" rx="1.6" fill="#100F00"/>
<path fill-rule="evenodd" clip-rule="evenodd" d="M14.1227 1.65339C14.0996 1.76931 14.0996 1.90871 14.0996 2.1875V9.8875C14.0996 10.1663 14.0996 10.3057 14.1227 10.4216C14.2174 10.8976 14.5895 11.2698 15.0655 11.3644C15.1814 11.3875 15.3208 11.3875 15.5996 11.3875C15.8784 11.3875 16.0178 11.3875 16.1337 11.3644C16.6097 11.2698 16.9819 10.8976 17.0766 10.4216C17.0996 10.3057 17.0996 10.1663 17.0996 9.8875V2.1875C17.0996 1.90871 17.0996 1.76931 17.0766 1.65339C16.9819 1.17736 16.6097 0.805246 16.1337 0.710558C16.0178 0.6875 15.8784 0.6875 15.5996 0.6875C15.3208 0.6875 15.1814 0.6875 15.0655 0.710558C14.5895 0.805246 14.2174 1.17736 14.1227 1.65339ZM9.40039 4.58594C9.40039 4.30714 9.40039 4.16775 9.42345 4.05183C9.51814 3.5758 9.89025 3.20368 10.3663 3.109C10.4822 3.08594 10.6216 3.08594 10.9004 3.08594C11.1792 3.08594 11.3186 3.08594 11.4345 3.109C11.9105 3.20368 12.2826 3.5758 12.3773 4.05183C12.4004 4.16775 12.4004 4.30714 12.4004 4.58594V9.88594C12.4004 10.1647 12.4004 10.3041 12.3773 10.42C12.2826 10.8961 11.9105 11.2682 11.4345 11.3629C11.3186 11.3859 11.1792 11.3859 10.9004 11.3859C10.6216 11.3859 10.4822 11.3859 10.3663 11.3629C9.89025 11.2682 9.51814 10.8961 9.42345 10.42C9.40039 10.3041 9.40039 10.1647 9.40039 9.88594V4.58594ZM4.82384 6.35652C4.80078 6.47244 4.80078 6.61183 4.80078 6.89062V9.89062C4.80078 10.1694 4.80078 10.3088 4.82384 10.4247C4.91853 10.9008 5.29064 11.2729 5.76667 11.3676C5.88259 11.3906 6.02199 11.3906 6.30078 11.3906C6.57957 11.3906 6.71897 11.3906 6.83489 11.3676C7.31092 11.2729 7.68304 10.9008 7.77772 10.4247C7.80078 10.3088 7.80078 10.1694 7.80078 9.89062V6.89062C7.80078 6.61183 7.80078 6.47244 7.77772 6.35652C7.68304 5.88049 7.31092 5.50837 6.83489 5.41368C6.71897 5.39062 6.57957 5.39062 6.30078 5.39062C6.02199 5.39062 5.88259 5.39062 5.76667 5.41368C5.29064 5.50837 4.91853 5.88049 4.82384 6.35652ZM0.0230577 8.35652C0 8.47244 0 8.61183 0 8.89062V9.89062C0 10.1694 0 10.3088 0.0230577 10.4247C0.117746 10.9008 0.489863 11.2729 0.965892 11.3676C1.08181 11.3906 1.22121 11.3906 1.5 11.3906C1.77879 11.3906 1.91819 11.3906 2.03411 11.3676C2.51014 11.2729 2.88225 10.9008 2.97694 10.4247C3 10.3088 3 10.1694 3 9.89062V8.89062C3 8.61183 3 8.47244 2.97694 8.35652C2.88225 7.88049 2.51014 7.50837 2.03411 7.41368C1.91819 7.39062 1.77879 7.39062 1.5 7.39062C1.22121 7.39062 1.08181 7.39062 0.965892 7.41368C0.489863 7.50837 0.117746 7.88049 0.0230577 8.35652Z" fill="#100F00"/>
<path fill-rule="evenodd" clip-rule="evenodd" d="M29.8 2.78855C32.0344 2.78865 34.1834 3.6472 35.8028 5.18676C35.9247 5.30562 36.1196 5.30412 36.2397 5.18339L37.4054 4.00698C37.4662 3.94575 37.5001 3.86281 37.4996 3.77651C37.4991 3.69022 37.4642 3.60768 37.4027 3.54717C33.1524 -0.52614 26.447 -0.52614 22.1967 3.54717C22.1351 3.60764 22.1002 3.69015 22.0996 3.77644C22.099 3.86274 22.1329 3.9457 22.1937 4.00698L23.3597 5.18339C23.4797 5.3043 23.6747 5.3058 23.7966 5.18676C25.4162 3.6471 27.5654 2.78854 29.8 2.78855ZM29.8 6.61831C31.0277 6.61824 32.2116 7.07455 33.1216 7.89859C33.2446 8.01554 33.4385 8.013 33.5585 7.89287L34.7228 6.71646C34.7841 6.65475 34.8182 6.57104 34.8173 6.48406C34.8164 6.39707 34.7807 6.31407 34.7181 6.25362C31.947 3.67588 27.6555 3.67588 24.8843 6.25362C24.8217 6.31407 24.786 6.39711 24.7852 6.48412C24.7843 6.57114 24.8185 6.65484 24.8799 6.71646L26.0439 7.89287C26.1639 8.013 26.3578 8.01554 26.4809 7.89859C27.3903 7.07509 28.5732 6.61882 29.8 6.61831ZM32.0369 9.42518C32.0992 9.36407 32.1335 9.27997 32.1317 9.19274C32.1299 9.10551 32.0922 9.02288 32.0275 8.96436C30.7413 7.87646 28.8575 7.87646 27.5712 8.96436C27.5065 9.02283 27.4687 9.10544 27.4669 9.19267C27.465 9.2799 27.4993 9.36402 27.5615 9.42518L29.5758 11.4577C29.6349 11.5174 29.7154 11.551 29.7994 11.551C29.8834 11.551 29.9638 11.5174 30.0229 11.4577L32.0369 9.42518Z" fill="#100F00"/>
</svg>
