<svg width="24" height="25" viewBox="0 0 24 25" fill="none" xmlns="http://www.w3.org/2000/svg">
<path d="M11.3669 3.69166C8.88 3.97296 6.79264 5.45695 5.71634 7.70739C5.38204 8.40861 5.14558 9.22806 5.0885 9.9089C5.04774 10.3859 5.05997 10.3614 4.78681 10.39C4.29351 10.443 3.84505 10.6998 3.58821 11.079C3.31098 11.4867 3.31098 11.4948 3.32321 13.5169L3.33544 15.3312L3.4659 15.5798C3.70644 16.0405 4.13044 16.3585 4.61559 16.4523C4.93358 16.5135 7.49386 16.5053 7.60802 16.4441C7.80371 16.3422 7.79555 16.4278 7.79963 13.4476C7.79963 11.8984 7.7874 10.5979 7.77517 10.5612C7.74255 10.4837 7.55094 10.3777 7.43679 10.3777C7.36748 10.3777 7.35933 10.3574 7.37564 10.2228C7.60394 8.55945 8.5457 7.21816 10.0011 6.48432C11.5218 5.71787 13.2749 5.82794 14.7507 6.78193C15.1543 7.04285 15.8841 7.793 16.1491 8.22515C16.5038 8.79591 16.7647 9.52975 16.834 10.1291L16.8625 10.3777H16.6709C16.463 10.3777 16.2632 10.4593 16.2225 10.5612C16.2102 10.5979 16.198 11.8984 16.198 13.4476C16.2021 15.6002 16.2143 16.2851 16.251 16.3341C16.3489 16.4645 16.4793 16.4931 16.9482 16.4931C17.2091 16.4931 17.4211 16.5053 17.4211 16.5175C17.4211 16.5868 17.152 16.9986 16.9441 17.2473C16.3489 17.9567 15.4316 18.4989 14.3593 18.772C14.1025 18.8373 13.8212 18.9025 13.7315 18.9188C13.5725 18.9433 13.5684 18.9392 13.4706 18.7557C13.3605 18.5437 13.177 18.3684 12.9243 18.238C12.7775 18.1605 12.6756 18.1442 12.2149 18.132C11.5259 18.1116 11.318 18.1646 11.0081 18.45C10.7024 18.7313 10.5923 18.98 10.5964 19.408C10.5964 19.938 10.8369 20.3335 11.2976 20.5577C11.5177 20.6678 11.5585 20.6719 12.1007 20.6719C12.6307 20.6719 12.6878 20.6637 12.8957 20.5659C13.2463 20.3987 13.5236 20.0767 13.6051 19.7423C13.6214 19.669 13.6581 19.6323 13.7152 19.6323C13.9027 19.6323 14.6529 19.4529 15.0932 19.298C16.2795 18.8903 17.2213 18.1972 17.8165 17.284C17.9348 17.0964 18.0815 16.8437 18.1345 16.7173L18.2365 16.4931H18.7012C18.954 16.4931 19.2638 16.4727 19.3821 16.4523C19.8672 16.3585 20.2912 16.0405 20.5317 15.5798L20.6622 15.3312V13.4354V11.5397L20.548 11.3073C20.332 10.867 19.9406 10.5531 19.4514 10.4348L19.1864 10.3696L19.1578 10.0394C19.0926 9.28106 18.8602 8.4453 18.5014 7.69516C17.5026 5.61187 15.5946 4.15642 13.3483 3.76912C12.806 3.67535 11.8439 3.63866 11.3669 3.69166ZM13.4135 4.50296C14.608 4.76795 15.7169 5.36726 16.5772 6.21117C17.6453 7.25893 18.2731 8.57984 18.4607 10.1617L18.4851 10.3777H18.0367H17.5882L17.5678 10.2432C17.4822 9.67244 17.4007 9.30552 17.2947 8.97937C16.6587 7.09178 14.9749 5.66487 12.9854 5.33872C12.3576 5.2368 11.3832 5.27756 10.7758 5.43656C8.90854 5.92171 7.50202 7.24262 6.90679 9.06091C6.79672 9.40337 6.6581 10.0801 6.6581 10.284C6.6581 10.3777 6.64995 10.3777 6.20557 10.3777H5.75304L5.78157 10.0679C5.82234 9.63168 5.97319 8.99568 6.14849 8.52276C6.9231 6.42317 8.79031 4.86988 11.0081 4.46626C11.6115 4.35619 12.8509 4.37657 13.4135 4.50296ZM5.67965 13.4354L5.67965 15.7592H5.20266C4.66858 15.7592 4.49328 15.7062 4.2772 15.4902C4.01221 15.2252 4.00813 15.2129 4.00813 13.4313L4.00813 11.8128L4.12228 11.5967C4.2079 11.4255 4.28536 11.348 4.45659 11.242C4.67266 11.1157 4.68489 11.1116 5.1782 11.1116H5.67965V13.4354ZM7.10656 13.4354L7.10656 15.7592H6.73964H6.37272L6.37272 13.4354V11.1116H6.73964H7.10656V13.4354ZM17.6249 13.4354V15.7592H17.258L16.8911 15.7592V13.4354V11.1116H17.258H17.6249V13.4354ZM19.5411 11.242C19.7123 11.348 19.7897 11.4255 19.8754 11.5967L19.9895 11.8128V13.4313C19.9895 15.2129 19.9854 15.2252 19.7204 15.4902C19.5044 15.7062 19.3291 15.7592 18.7991 15.7592H18.318V13.4354V11.1116H18.8194C19.3127 11.1116 19.325 11.1157 19.5411 11.242ZM12.594 18.8821C12.7694 18.9677 12.8876 19.1104 12.9202 19.2898C12.9569 19.4937 12.908 19.6282 12.7367 19.8035L12.5777 19.9584H12.1374C11.7705 19.9584 11.6727 19.9462 11.5626 19.8769C11.2894 19.7097 11.2161 19.298 11.4158 19.0574C11.477 18.9881 11.583 18.9025 11.6523 18.874C11.8317 18.7965 12.4228 18.8006 12.594 18.8821Z" fill="white"/>
</svg>
