<svg width="25" height="25" viewBox="0 0 25 25" fill="none" xmlns="http://www.w3.org/2000/svg">
<path d="M5.7161 1.73296C5.07624 1.90933 4.49381 2.39743 4.219 2.98806C4.12876 3.17674 4.03853 3.44335 4.01392 3.5746C3.95239 3.91914 3.95239 20.4242 4.01392 20.7687C4.16978 21.626 4.87936 22.3848 5.73251 22.6104C5.92118 22.6596 6.47491 22.6719 9.02203 22.6719H12.086L12.168 22.5652C12.2787 22.4217 12.2787 22.2576 12.1598 22.1469C12.0696 22.0607 12.0613 22.0607 9.05484 22.0484L6.04013 22.0361L5.78583 21.9336C5.28953 21.7326 4.92858 21.384 4.73991 20.9205L4.64557 20.6826V12.1717V3.66073L4.73991 3.42284C4.93269 2.95115 5.31824 2.582 5.81044 2.40563L6.08115 2.30719H12.5002C18.6978 2.30719 18.9275 2.31129 19.1572 2.38512C19.633 2.54099 20.0678 2.95115 20.2564 3.42284L20.3549 3.66073L20.3672 12.0486C20.3713 17.713 20.3631 20.5021 20.3344 20.6416C20.2646 20.9779 20.1047 21.265 19.8545 21.5193C19.5674 21.8023 19.2392 21.9664 18.8414 22.0156C18.6814 22.0361 17.2827 22.0566 15.7323 22.0566H12.9145L12.8284 22.1469C12.7176 22.2699 12.7217 22.4709 12.8407 22.5816L12.935 22.6719H15.9907C18.5255 22.6719 19.0793 22.6596 19.2679 22.6104C19.9201 22.4381 20.4861 21.9664 20.7774 21.3593C20.8676 21.1666 20.9619 20.9 20.9865 20.7687C21.0481 20.4283 21.0481 3.91504 20.9865 3.5746C20.8348 2.72966 20.117 1.95855 19.2679 1.73296C18.9439 1.64683 6.02783 1.64683 5.7161 1.73296Z" fill="#FFF001"/>
<path d="M10.0394 4.62702C9.90812 4.68445 9.57589 4.98797 8.88271 5.68115L7.90652 6.64914L7.65222 6.39894C7.28717 6.04619 7.18053 5.99697 6.75806 5.99697C6.34789 5.99697 6.17152 6.0708 5.90902 6.35382C5.60139 6.69015 5.52756 7.21106 5.72854 7.62943C5.78186 7.74428 6.08539 8.07241 6.56118 8.5482C7.22564 9.20446 7.33639 9.2947 7.53327 9.36033C7.83679 9.45876 8.19774 9.43005 8.46844 9.28239C8.74325 9.13063 11.4257 6.44405 11.5611 6.18155C11.639 6.03389 11.6595 5.93135 11.6595 5.66884C11.6595 5.38173 11.6431 5.312 11.5406 5.12332C11.4093 4.88953 11.2042 4.70085 10.9663 4.60241C10.749 4.51218 10.265 4.52448 10.0394 4.62702ZM10.7736 5.25868C10.9335 5.34071 11.0402 5.5745 11.0033 5.76318C10.9787 5.89443 10.7859 6.10772 9.67843 7.22337C8.96474 7.94115 8.30438 8.58101 8.21824 8.64664C8.04187 8.77789 7.88191 8.7984 7.70964 8.70816C7.54967 8.62203 6.32328 7.37103 6.28637 7.25618C6.24125 7.10032 6.29867 6.90344 6.43403 6.77219C6.53657 6.67375 6.59399 6.65324 6.75806 6.65324C6.95904 6.65324 6.96724 6.65734 7.31998 7.00598C7.70144 7.37923 7.80398 7.45306 7.95164 7.45306C8.01726 7.45306 8.37 7.12903 9.17803 6.32511C10.3019 5.20536 10.3142 5.19715 10.4865 5.19715C10.5808 5.19715 10.712 5.22586 10.7736 5.25868Z" fill="#FFF001"/>
<path d="M12.8411 5.65038C12.6483 5.72831 12.6032 6.02773 12.7591 6.17539L12.8534 6.26562H16.0363H19.2233L19.3053 6.15898C19.4489 5.97441 19.4119 5.76933 19.2233 5.67089C19.1248 5.61756 18.6531 5.60936 16.0199 5.61346C14.3218 5.61346 12.8903 5.62987 12.8411 5.65038Z" fill="#FFF001"/>
<path d="M12.8411 7.70116C12.6483 7.77909 12.6032 8.07851 12.7591 8.22617C12.8534 8.31641 12.8657 8.31641 14.5187 8.31641H16.188L16.2701 8.20976C16.4136 8.02519 16.3767 7.82011 16.188 7.72167C16.0937 7.67245 15.8025 7.66014 14.5023 7.66424C13.6368 7.66424 12.8903 7.68065 12.8411 7.70116Z" fill="#FFF001"/>
<path d="M10.1999 9.76513C10.0974 9.79384 9.96203 9.85947 9.89231 9.90459C9.82668 9.95381 9.35909 10.4091 8.85049 10.9177L7.93172 11.8406L7.67742 11.5945C7.34108 11.2745 7.1524 11.1884 6.75454 11.1884C6.26645 11.1884 5.95472 11.3771 5.72093 11.8201C5.58968 12.0662 5.59378 12.5707 5.72913 12.8291C5.78245 12.9357 6.11469 13.3049 6.50845 13.7027C7.30827 14.5107 7.46823 14.6133 7.92762 14.6133C8.1409 14.6133 8.26395 14.5887 8.39931 14.523C8.52646 14.4574 9.03506 13.9816 10.0687 12.9439C11.5289 11.4796 11.5535 11.4509 11.6191 11.213C11.8283 10.487 11.3648 9.79384 10.6265 9.73232C10.4911 9.72001 10.3066 9.73642 10.1999 9.76513ZM10.8193 10.487C10.9505 10.5814 11.0408 10.8234 11.008 10.971C10.9751 11.1023 8.29676 13.8176 8.09578 13.9242C7.84558 14.0555 7.74304 13.9898 6.99654 13.2474C6.42641 12.6773 6.30747 12.5378 6.28696 12.4107C6.23364 12.1154 6.45923 11.8447 6.75865 11.8447C6.94732 11.8447 7.02936 11.898 7.41491 12.2753C7.74304 12.5994 7.81277 12.6404 8.00965 12.6281C8.05477 12.624 8.54696 12.1687 9.17862 11.537C9.77746 10.9423 10.3107 10.4337 10.3681 10.4132C10.4993 10.3599 10.688 10.3886 10.8193 10.487Z" fill="#FFF001"/>
<path d="M10.1999 15.6558C10.0974 15.6845 9.96203 15.7501 9.89231 15.7952C9.82668 15.8444 9.35909 16.2997 8.85049 16.8083L7.93172 17.7312L7.67742 17.4851C7.34108 17.1652 7.1524 17.079 6.75454 17.079C6.26645 17.079 5.95472 17.2677 5.72093 17.7107C5.58968 17.9568 5.59378 18.4613 5.72913 18.7197C5.78245 18.8263 6.11469 19.1955 6.50845 19.5933C7.30827 20.4014 7.46823 20.5039 7.92762 20.5039C8.1409 20.5039 8.26395 20.4793 8.39931 20.4137C8.52646 20.348 9.03506 19.8723 10.0687 18.8345C11.5289 17.3702 11.5535 17.3415 11.6191 17.1036C11.8283 16.3776 11.3648 15.6845 10.6265 15.6229C10.4911 15.6106 10.3066 15.627 10.1999 15.6558ZM10.8193 16.3776C10.9505 16.472 11.0408 16.714 11.008 16.8616C10.9751 16.9929 8.29676 19.7082 8.09578 19.8148C7.84558 19.9461 7.74304 19.8805 6.99654 19.1381C6.42641 18.5679 6.30747 18.4285 6.28696 18.3013C6.23364 18.006 6.45923 17.7353 6.75865 17.7353C6.94732 17.7353 7.02936 17.7886 7.41491 18.166C7.74304 18.49 7.81277 18.531 8.00965 18.5187C8.05477 18.5146 8.54696 18.0593 9.17862 17.4277C9.77746 16.8329 10.3107 16.3243 10.3681 16.3038C10.4993 16.2505 10.688 16.2792 10.8193 16.3776Z" fill="#FFF001"/>
<path d="M12.7666 10.9189C12.701 10.9805 12.6641 11.0666 12.6641 11.1445C12.6641 11.2225 12.701 11.3086 12.7666 11.3701L12.865 11.4727H16.0274H19.1898L19.2882 11.3701C19.3539 11.3086 19.3908 11.2225 19.3908 11.1445C19.3908 11.0666 19.3539 10.9805 19.2882 10.9189L19.1898 10.8164H16.0274H12.865L12.7666 10.9189Z" fill="#FFF001"/>
<path d="M12.7666 12.9697C12.701 13.0312 12.6641 13.1174 12.6641 13.1953C12.6641 13.2732 12.701 13.3594 12.7666 13.4209L12.865 13.5234H14.5098H16.1546L16.253 13.4209C16.3186 13.3594 16.3555 13.2732 16.3555 13.1953C16.3555 13.1174 16.3186 13.0312 16.253 12.9697L16.1546 12.8672H14.5098H12.865L12.7666 12.9697Z" fill="#FFF001"/>
<path d="M12.7549 16.1194C12.6032 16.2794 12.6401 16.5214 12.8329 16.6198C13.0051 16.7101 19.051 16.7101 19.2232 16.6198C19.4119 16.5214 19.4488 16.3163 19.3053 16.1317L19.2232 16.0251H16.0322H12.8411L12.7549 16.1194Z" fill="#FFF001"/>
<path d="M12.7549 18.1741C12.6032 18.3341 12.6401 18.5761 12.8329 18.6745C13.0051 18.7647 16.0157 18.7647 16.188 18.6745C16.3767 18.5761 16.4136 18.371 16.2701 18.1864L16.188 18.0798H14.5145H12.8411L12.7549 18.1741Z" fill="#FFF001"/>
</svg>
