<svg width="21" height="22" viewBox="0 0 21 22" fill="none" xmlns="http://www.w3.org/2000/svg">
<path d="M6.81692 0.720875C6.38987 0.857531 5.97137 1.22052 5.78347 1.60913L5.68525 1.81411H5.05322C4.13507 1.81411 3.81906 1.89952 3.48596 2.2497C3.2639 2.47604 3.17422 2.7408 3.14432 3.22337L3.1187 3.65041H2.55927C2.25179 3.65041 1.86745 3.67177 1.7009 3.69312C0.906598 3.80842 0.219053 4.43618 0.0567755 5.18778C0.0226118 5.36287 0.0140709 7.33582 0.0226118 12.8533L0.0354232 20.2839L0.172078 20.5615C0.330085 20.8817 0.663182 21.2362 0.974925 21.4156C1.44468 21.6846 1.15001 21.6718 7.34219 21.6718C12.834 21.6718 12.9963 21.6675 13.2568 21.5864C13.8675 21.3985 14.2902 20.9928 14.5337 20.3693C14.6233 20.1387 14.6361 20.0276 14.6532 19.2419L14.6703 18.3707L16.1308 19.8227C17.0276 20.7195 17.6682 21.3216 17.7963 21.3942C18.2447 21.6547 18.8724 21.7401 19.3721 21.6077C19.7564 21.5095 20.0426 21.3387 20.3415 21.0355C21.0034 20.365 21.1657 19.4383 20.76 18.6184C20.6532 18.4049 20.3671 18.0974 19.0262 16.7522L17.4248 15.1422L17.5785 14.681C17.8176 13.9465 17.8433 13.7842 17.839 12.9387C17.839 12.2682 17.8219 12.1102 17.728 11.696C17.3479 10.086 16.2888 8.6981 14.8881 7.98921L14.6618 7.87817V6.68671C14.6618 6.03333 14.6404 5.39703 14.6191 5.26892C14.4611 4.44899 13.7735 3.79988 12.945 3.69312C12.7742 3.67177 12.3813 3.65041 12.0739 3.65041H11.5102L11.4931 3.18921C11.4803 2.77924 11.4632 2.70664 11.3522 2.50166C11.2838 2.37782 11.16 2.21981 11.0788 2.15148C10.8098 1.92942 10.6176 1.89098 9.75073 1.86963L8.95643 1.84828L8.87956 1.65611C8.75998 1.36572 8.38418 0.985643 8.05536 0.823366C7.81194 0.703793 7.72226 0.68244 7.38489 0.673901C7.14148 0.665359 6.92795 0.682442 6.81692 0.720875ZM7.55144 1.64757C7.74788 1.70308 8.06817 1.99774 8.10233 2.15575C8.11514 2.21554 8.13222 2.33084 8.14931 2.41625C8.16212 2.50166 8.2219 2.61696 8.28169 2.67248C8.38845 2.77497 8.40127 2.77497 9.3792 2.78778C10.0027 2.79205 10.4041 2.8134 10.4639 2.8433C10.6347 2.93298 10.6518 3.06536 10.639 4.2013C10.6262 5.27746 10.6262 5.28173 10.5237 5.36287C10.4297 5.43974 10.3144 5.44401 7.34646 5.44401H4.26745L4.16923 5.35006C4.07101 5.26038 4.07101 5.25611 4.07101 4.13298V3.00558L4.17777 2.90308L4.28027 2.79632H5.25393C6.14646 2.79632 6.24041 2.78778 6.36425 2.71091C6.50091 2.62977 6.51799 2.59561 6.56923 2.26251C6.62048 1.95504 6.76568 1.77995 7.08169 1.65611C7.24824 1.59205 7.34219 1.59205 7.55144 1.64757ZM3.10162 5.04258C3.13151 5.55504 3.20838 5.76002 3.46034 6.01198C3.54575 6.09739 3.70375 6.21269 3.81051 6.26394L4.00696 6.36216L7.29521 6.36216C10.3272 6.36216 10.5963 6.35789 10.7457 6.28956C11.0105 6.16999 11.2198 5.97782 11.3522 5.7344C11.4632 5.53369 11.4803 5.46109 11.4931 5.04686L11.5102 4.58992H12.202C12.834 4.58992 12.9066 4.59846 13.103 4.69241C13.3379 4.79917 13.5728 5.03831 13.6625 5.25611C13.7095 5.36287 13.7223 5.65326 13.7223 6.44757C13.7223 7.02408 13.7137 7.49383 13.7052 7.49383C13.6924 7.49383 13.5557 7.45967 13.3934 7.42123C13.1628 7.36145 12.9151 7.34864 12.1849 7.34864C11.3308 7.34864 11.2369 7.35718 10.8568 7.45967C10.0966 7.66465 9.40482 7.99348 8.85393 8.40771L8.61906 8.5828L5.87742 8.60415L3.13151 8.62551L3.02902 8.73227C2.79841 8.96714 2.87955 9.38565 3.17422 9.48814C3.28098 9.52657 3.93436 9.53939 5.51016 9.53939L7.69237 9.54366L7.51301 9.82124C7.41052 9.9707 7.25678 10.2397 7.1671 10.4191L7.00482 10.7394L5.1429 10.7394C3.37066 10.7394 3.27244 10.7437 3.14432 10.8248C2.94361 10.9444 2.87955 11.1878 2.98631 11.4056C3.03329 11.4995 3.11443 11.5935 3.17422 11.6234C3.25535 11.6661 3.72083 11.6789 5.0276 11.6789L6.77422 11.6789L6.74432 11.8155C6.67173 12.1572 6.63329 12.4433 6.63329 12.6483V12.8703L4.93792 12.8832C3.07172 12.896 3.08881 12.896 2.97777 13.1565C2.89664 13.3486 2.93507 13.5622 3.07599 13.6945L3.18276 13.7928L4.92938 13.8056L6.676 13.8184V13.938C6.676 14.0405 6.77422 14.4632 6.91514 14.9543L6.94077 15.0526H5.06603C2.98631 15.0526 3.0461 15.044 2.96496 15.3344C2.90518 15.5479 2.94788 15.7187 3.09735 15.8426L3.22546 15.9494H5.30518H7.38489L7.57279 16.2355C7.67528 16.3935 7.89308 16.6625 8.05536 16.8333L8.35429 17.1451H5.80909C4.03258 17.1451 3.234 17.1579 3.1614 17.1921C2.98631 17.2732 2.89663 17.5123 2.96069 17.7429C3.0461 18.059 2.83685 18.0419 6.45393 18.0419H9.69522L9.96852 18.1657C10.6475 18.4732 11.4461 18.6397 12.2233 18.6397C12.6461 18.6397 13.2909 18.5671 13.6283 18.4817L13.7223 18.4604V19.2333C13.7223 19.9123 13.7137 20.0276 13.6411 20.1686C13.5386 20.365 13.3721 20.523 13.1244 20.6511L12.9322 20.7536L7.33365 20.7536H1.73934L1.48738 20.6255C1.20553 20.4803 0.983466 20.2284 0.910869 19.9721C0.885246 19.8654 0.868164 17.4611 0.868164 12.6782C0.868164 4.66251 0.842541 5.25184 1.18418 4.9102C1.45322 4.64116 1.62404 4.59846 2.4098 4.59418L3.07599 4.58992L3.10162 5.04258ZM12.7401 8.17711C13.6881 8.29668 14.5123 8.67248 15.3365 9.37711C16.4383 10.3123 17.0788 11.901 16.9251 13.3059C16.7927 14.523 16.3358 15.4753 15.4902 16.2995C14.602 17.1664 13.466 17.6148 12.1635 17.6148C10.0796 17.6148 8.26461 16.2269 7.68383 14.1899C6.96212 11.6618 8.50803 8.96287 11.0532 8.30949C11.681 8.14721 12.1721 8.10878 12.7401 8.17711ZM19.9913 19.1949C20.3458 20.1173 19.4191 21.0397 18.4838 20.6896C18.2447 20.5999 18.1294 20.4931 16.7628 19.1351L15.2938 17.6746L15.5458 17.5081C15.9045 17.2604 16.4511 16.7266 16.7159 16.355L16.9465 16.0348L18.4283 17.5166C19.6283 18.7166 19.9315 19.0412 19.9913 19.1949Z" fill="#FFF001"/>
<path d="M14.7685 10.8828C14.7001 10.917 13.893 11.6942 12.9749 12.6124L11.3094 14.2821L10.5407 13.5134C10.1179 13.0949 9.71649 12.7277 9.64817 12.7021C9.37059 12.5996 9.06738 12.8302 9.06738 13.1419C9.06738 13.3127 9.08874 13.3426 10.0923 14.3462L11.1172 15.3711H11.3094H11.5015L13.4446 13.428C15.3578 11.5106 15.3877 11.4807 15.3877 11.3099C15.3877 11.1049 15.2937 10.9597 15.1058 10.8828C14.935 10.8102 14.9307 10.8102 14.7685 10.8828Z" fill="#FFF001"/>
</svg>
