<svg width="45" height="34" viewBox="0 0 45 34" fill="none" xmlns="http://www.w3.org/2000/svg">
<path d="M13.8892 10.6779C15.5508 6.8636 18.6486 3.8578 22.5112 2.31189C26.3738 0.765983 30.6901 0.804519 34.5244 2.41915C38.3588 4.03377 41.4025 7.0944 42.9957 10.9377C44.589 14.781 44.6035 19.0974 43.0361 22.9513C41.4687 26.8053 38.4457 29.8863 34.6222 31.5266C30.7988 33.167 26.4829 33.2345 22.61 31.7146C18.7371 30.1947 15.6192 27.2098 13.932 23.4068C12.2448 19.6038 12.1242 15.2891 13.5964 11.3978" stroke="#263238" stroke-miterlimit="10"/>
<path d="M13.7105 10.6141C15.3907 6.75411 18.5245 3.71187 22.4326 2.14679C26.3406 0.58172 30.7081 0.619932 34.5881 2.25315C38.4682 3.88637 41.5483 6.98298 43.1607 10.8718C44.7732 14.7605 44.788 19.1281 43.202 23.0277C41.616 26.9274 38.5571 30.0448 34.6881 31.7044C30.8192 33.3639 26.4522 33.4318 22.5336 31.8933C18.615 30.3548 15.4606 27.3339 13.7542 23.4854C12.0478 19.6369 11.9269 15.271 13.4177 11.334" stroke="#263238" stroke-width="0.5" stroke-miterlimit="10"/>
<path d="M17.8918 12.1905C19.1651 9.37716 21.493 7.17691 24.3735 6.06415C27.2541 4.9514 30.4566 5.01528 33.2906 6.24203C36.1245 7.46879 38.3628 9.76013 39.5228 12.622C40.6829 15.4839 40.6717 18.687 39.4918 21.5407C38.3119 24.3945 36.0578 26.6702 33.2154 27.8772C30.373 29.0843 27.1701 29.1259 24.2973 27.9931C21.4245 26.8604 19.112 24.644 17.8583 21.8219C16.6047 18.9998 16.5103 15.798 17.5956 12.907" stroke="#263238" stroke-miterlimit="10"/>
<path d="M17.7133 12.1217C18.9225 9.46011 21.0732 7.33968 23.7517 6.16831C26.4302 4.99693 29.4472 4.85735 32.2223 5.7764C34.9975 6.69546 37.3348 8.60825 38.7846 11.1468C40.2345 13.6853 40.6944 16.6703 40.076 19.5276C39.4575 22.3848 37.8044 24.9125 35.4346 26.6243C33.0648 28.3361 30.1458 29.1111 27.2389 28.8004C24.3321 28.4896 21.6428 27.1149 19.6885 24.9408C17.7342 22.7667 16.6528 19.9467 16.6524 17.0233C16.6496 15.5933 16.9088 14.1748 17.4171 12.8381" stroke="#263238" stroke-width="0.5" stroke-miterlimit="10"/>
<path d="M22.9963 14.1352C23.7458 12.727 25.0138 11.6656 26.532 11.1757C28.0502 10.6858 29.6995 10.8058 31.1307 11.5105C32.562 12.2151 33.6629 13.4489 34.2005 14.9509C34.738 16.4529 34.6701 18.1051 34.0111 19.5579C33.352 21.0107 32.1535 22.15 30.6692 22.7348C29.185 23.3195 27.5315 23.3038 26.0586 22.6909C24.5857 22.0781 23.4091 20.9162 22.7778 19.4511C22.1464 17.9861 22.1099 16.3329 22.676 14.8414V14.8104" stroke="#263238" stroke-miterlimit="10"/>
<path d="M22.7483 14.1956L22.8206 14.0509C23.5481 12.6645 24.7581 11.5925 26.2221 11.0374C27.6861 10.4822 29.3026 10.4823 30.7665 11.0377C32.2304 11.5931 33.4402 12.6653 34.1675 14.0518C34.8948 15.4383 35.0892 17.0432 34.714 18.5632C34.3389 20.0833 33.4201 21.4134 32.1312 22.3022C30.8423 23.1911 29.2725 23.5773 27.7183 23.3878C26.1642 23.1983 24.7332 22.4462 23.6956 21.2737C22.6581 20.1011 22.0858 18.5892 22.0869 17.0235C22.0856 16.2503 22.2257 15.4833 22.5003 14.7605" stroke="#263238" stroke-width="0.5" stroke-miterlimit="10"/>
<path d="M23.1001 14.1549H23.0484L23.0036 14.1377L22.8245 14.0688L17.8953 12.2088L17.7162 12.1399L13.8927 10.6966L13.7136 10.6312L7.55475 8.30607L7.85787 6.03266C7.86366 5.99103 7.85568 5.94864 7.83516 5.91196C7.81464 5.87527 7.7827 5.84629 7.7442 5.82943L2.87014 3.61802C2.83542 3.60283 2.79705 3.59802 2.75965 3.60416C2.72225 3.6103 2.68743 3.62713 2.65939 3.65262C2.63134 3.67812 2.61128 3.71118 2.60161 3.74783C2.59195 3.78447 2.59309 3.82313 2.60491 3.85914L3.5935 6.78702L2.86669 6.51145C2.81832 6.48999 2.76608 6.47863 2.71317 6.47804C2.66025 6.47746 2.60776 6.48767 2.55892 6.50806C2.51009 6.52844 2.46592 6.55857 2.42912 6.59661C2.39232 6.63464 2.36367 6.67978 2.34491 6.72926C2.32615 6.77875 2.31768 6.83153 2.32001 6.8844C2.32234 6.93727 2.33543 6.98911 2.35847 7.03675C2.38152 7.08439 2.41403 7.12683 2.45403 7.16148C2.49404 7.19612 2.54069 7.22225 2.59113 7.23826L3.34894 7.52415L1.07553 9.27055C1.04521 9.2938 1.02248 9.32552 1.01022 9.3617C0.99795 9.39788 0.996698 9.43689 1.00663 9.47378C1.01592 9.51045 1.03599 9.54349 1.06423 9.56866C1.09247 9.59383 1.1276 9.60998 1.16509 9.61501L6.62471 10.4555H6.65228C6.69163 10.4555 6.73008 10.4437 6.76263 10.4216C6.79518 10.3994 6.82034 10.3681 6.83484 10.3315L7.34807 9.02943L13.4174 11.3201L13.5965 11.3855L17.4165 12.8253L17.5957 12.8942L22.5042 14.7474L22.6833 14.8129L22.8279 14.868" stroke="#263238" stroke-miterlimit="10"/>
<path d="M22.9969 14.1355H23.0486H23.1003L26.6103 15.4617L26.9961 14.3043C27.0214 14.2273 27.0703 14.1603 27.1358 14.1127C27.2014 14.0651 27.2802 14.0393 27.3612 14.0391C27.4434 14.0406 27.5229 14.068 27.5885 14.1175C27.6541 14.167 27.7023 14.236 27.7263 14.3146L28.4152 16.5949C28.4415 16.6827 28.4362 16.7769 28.4004 16.8611C28.3645 16.9454 28.3003 17.0145 28.2189 17.0565L26.4622 17.9314C26.4088 17.9585 26.3498 17.9726 26.2899 17.9728C26.1966 17.9733 26.1061 17.9403 26.035 17.8798C25.9778 17.8287 25.9366 17.7622 25.9164 17.6882C25.8962 17.6142 25.898 17.536 25.9214 17.463L26.3485 16.2195L22.8282 14.883C22.7785 14.8647 22.7337 14.8352 22.6973 14.7969" stroke="#263238" stroke-miterlimit="10"/>
</svg>
