<svg width="54" height="42" viewBox="0 0 54 42" fill="none" xmlns="http://www.w3.org/2000/svg">
<g opacity="0.8">
<path d="M31.6864 24.3481C31.6857 23.6852 31.6377 23.0232 31.5428 22.3671L34.0137 21.2689L32.7761 17.4674L30.1869 18.0165C29.5419 16.7262 28.7029 15.5424 27.699 14.5065L29.0507 12.1623L25.8194 9.80111L24.0496 11.7652C22.768 11.0993 21.392 10.6335 19.9694 10.384L19.6779 7.71875H15.6822L15.4034 10.346C13.9772 10.558 12.5915 10.9853 11.2936 11.6132L9.48574 9.61104L6.23759 11.9426L7.55966 14.2362C6.53026 15.2471 5.66138 16.4094 4.9831 17.6828L2.34319 17.1253L1.1056 20.9268L3.52165 22.0039C3.39267 22.7729 3.32768 23.5514 3.32735 24.3312C3.32873 24.9925 3.3753 25.653 3.46674 26.308L1 27.4104L2.23759 31.2119L4.82682 30.6628C5.47178 31.9531 6.31081 33.1369 7.31468 34.1728L5.96726 36.5424L9.20697 38.8951L10.9768 36.931C12.2578 37.5975 13.6341 38.0619 15.057 38.308L15.34 40.9986H19.3442L19.6188 38.3671C21.0473 38.1596 22.4351 37.7322 23.7328 37.0999L25.5406 39.1063L28.7804 36.7536L27.4583 34.46C28.4857 33.4458 29.3543 32.2824 30.0348 31.0091L32.6748 31.5709L33.9123 27.7694L31.4963 26.6923C31.625 25.9176 31.6886 25.1335 31.6864 24.3481ZM9.43506 24.3481C9.43506 22.7516 9.90846 21.1911 10.7954 19.8636C11.6823 18.5362 12.943 17.5017 14.4179 16.8907C15.8928 16.2798 17.5158 16.1199 19.0816 16.4314C20.6474 16.7429 22.0856 17.5116 23.2145 18.6405C24.3434 19.7693 25.1121 21.2076 25.4236 22.7734C25.735 24.3392 25.5752 25.9621 24.9642 27.437C24.3533 28.912 23.3187 30.1726 21.9913 31.0596C20.6639 31.9465 19.1033 32.4199 17.5069 32.4199C15.3664 32.4188 13.314 31.568 11.8005 30.0545C10.287 28.541 9.43618 26.4885 9.43506 24.3481Z" fill="#100F00" stroke="#100F00" stroke-linecap="round" stroke-linejoin="round"/>
<path d="M51.0406 11.5639C51.0392 11.14 51.0096 10.7167 50.9519 10.2967L52.5232 9.59557L51.7333 7.17529L50.086 7.52165C49.6759 6.69992 49.1416 5.94628 48.5021 5.28723L49.3468 3.7962L47.2856 2.30095L46.1578 3.56811C45.3437 3.14347 44.4689 2.84712 43.5644 2.68955L43.3827 1H40.8484L40.6752 2.68955C39.7657 2.82545 38.8824 3.1004 38.0564 3.50476L36.9075 2.2376L34.8463 3.73284L35.6911 5.1943C35.036 5.83704 34.4833 6.57634 34.0522 7.38649L32.3627 7.03168L31.577 9.40972L33.1145 10.094C33.033 10.5825 32.9921 11.077 32.992 11.5723C32.9935 11.9962 33.0231 12.4195 33.0807 12.8395L31.5137 13.5364L32.2993 15.9609L33.9466 15.6146C34.3588 16.4387 34.8943 17.195 35.5348 17.8574L34.69 19.3485L36.7513 20.8437L37.879 19.5766C38.6946 20.0012 39.5708 20.2976 40.4767 20.4551L40.6541 22.1658H43.1884L43.3616 20.4762C44.2712 20.3403 45.1544 20.0654 45.9804 19.661L47.1293 20.9282L49.1948 19.4329L48.35 17.9715C49.0054 17.3291 49.5581 16.5897 49.9889 15.7793L51.6784 16.1341L52.4683 13.7096L50.9308 13.0253C51.007 12.542 51.0438 12.0532 51.0406 11.5639ZM36.878 11.5639C36.878 10.5472 37.1795 9.55335 37.7443 8.70801C38.3091 7.86267 39.112 7.2038 40.0513 6.81474C40.9906 6.42567 42.0241 6.32387 43.0213 6.52222C44.0184 6.72056 44.9344 7.21014 45.6533 7.92904C46.3722 8.64795 46.8617 9.56389 47.0601 10.561C47.2584 11.5582 47.1566 12.5918 46.7676 13.5311C46.3785 14.4703 45.7196 15.2732 44.8743 15.838C44.029 16.4028 43.0351 16.7043 42.0184 16.7043C40.6551 16.7043 39.3476 16.1627 38.3836 15.1987C37.4196 14.2347 36.878 12.9272 36.878 11.5639Z" fill="white" stroke="#100F00" stroke-linecap="round" stroke-linejoin="round"/>
</g>
</svg>
