<svg width="179" height="234" viewBox="0 0 179 234" fill="none" xmlns="http://www.w3.org/2000/svg">
<path d="M54.0719 50.6534C54.0719 50.6534 38.1516 59.637 37.7472 61.4691C37.3429 63.3012 38.1516 82.6961 37.5388 84.1239C36.926 85.5517 28.3593 98.408 28.3593 105.143C28.3593 111.877 28.1572 148.412 28.1572 148.412L16.5518 169.43L44.7155 179.633L58.7974 158.204C58.7974 158.204 68.1854 149.839 70.2259 147.799L66.9282 50.0469L54.0719 50.6534Z" fill="white" stroke="#100F00" stroke-width="0.828007" stroke-linecap="round" stroke-linejoin="round"/>
<path d="M46.7246 66.1641C46.7246 66.1641 54.2741 68.4131 56.9275 71.0665" stroke="#100F00" stroke-width="0.828007" stroke-linecap="round" stroke-linejoin="round"/>
<path d="M48.9668 79.6331C48.9668 79.6331 51.2159 79.0013 55.2844 79.4309" stroke="#100F00" stroke-width="0.828007" stroke-linecap="round" stroke-linejoin="round"/>
<path d="M48.5374 18.9956C48.5374 18.9956 68.3114 153.8 68.6083 158.614C68.9052 163.428 69.2085 169.398 69.2085 169.398C69.2085 169.398 93.4743 163.409 109.35 161.312C125.226 159.214 177.953 154.723 177.953 154.723C177.953 154.723 164.471 62.151 162.677 49.8506C160.883 37.5503 155.184 0.421875 155.184 0.421875C155.184 0.421875 98.2694 5.51384 80.5928 5.51384C69.2589 5.58716 57.9456 6.48877 46.7432 8.21145L48.5374 18.9956Z" fill="white" stroke="#100F00" stroke-width="0.828007" stroke-linecap="round" stroke-linejoin="round"/>
<path d="M131.304 74.8045L154.338 72.347C153.333 68.4048 152.638 65.6125 152.638 65.3977C152.638 64.8796 148.393 63.9573 146.46 63.5592C146.081 62.9275 145.323 61.7903 145 61.664H144.912L144.842 60.8301C145.063 60.4938 145.217 60.1186 145.297 59.7245C145.391 59.0591 145.412 58.3855 145.36 57.7155C145.537 57.4817 146.763 55.8581 146.719 54.9737C146.717 54.7878 146.669 54.6053 146.579 54.4429C146.488 54.2806 146.358 54.1437 146.201 54.045C146.082 53.9847 145.951 53.9518 145.817 53.9485C145.684 53.9452 145.552 53.9717 145.43 54.026L145.19 54.1461L145 51.5622C145.711 51.4876 146.403 51.291 147.047 50.9809C147.129 50.9178 147.123 50.8799 147.123 50.8546C146.853 50.4047 146.514 49.9998 146.119 49.6543C146.706 49.5532 148.69 49.1299 148.702 48.0812C148.679 47.8408 148.594 47.6105 148.457 47.4116C148.32 47.2127 148.135 47.0518 147.919 46.944C147.148 46.4449 145.948 46.1606 145.487 46.3691C145.026 46.5776 144.457 46.7798 144.097 46.8998C144.375 46.5965 144.798 46.0722 144.729 45.6363C144.716 45.557 144.685 45.4819 144.638 45.4171C144.591 45.3523 144.529 45.2997 144.457 45.2635C143.967 45.0751 143.434 45.0261 142.918 45.122C142.401 45.2179 141.922 45.455 141.532 45.8069C141.184 46.1284 140.867 46.4816 140.584 46.8619C140.026 46.4899 139.358 46.3163 138.689 46.3691C137.817 46.426 137.167 46.7798 137.135 47.064C137.129 47.1098 137.141 47.1561 137.168 47.1936C137.195 47.2311 137.235 47.257 137.28 47.2662C137.421 47.3066 137.55 47.3778 137.659 47.4747C137.198 47.6642 135.511 48.4602 135.436 49.7111C135.432 49.7532 135.432 49.7954 135.436 49.8375V50.0333C135.436 50.0649 135.436 50.1028 135.436 50.147C135.436 50.1912 135.436 50.147 135.436 50.1912V50.3555V50.3934V50.5387C135.436 50.5387 135.436 50.5829 135.436 50.6019C135.433 50.6461 135.433 50.6904 135.436 50.7346V50.8041C135.436 50.8546 135.436 50.9051 135.467 50.9557V51.0062L135.505 51.2147V51.2716L135.543 51.4358V51.5116C135.543 51.5622 135.543 51.6127 135.575 51.6632V51.7327C135.575 51.8022 135.575 51.8717 135.625 51.9349L135.682 52.1687V52.2318C135.682 52.2887 135.713 52.3455 135.726 52.4087V52.4782C135.726 52.5351 135.726 52.5982 135.777 52.6614V52.712C135.821 52.8699 135.865 53.0342 135.909 53.1858V53.23L135.966 53.4259V53.4701C135.966 53.5459 136.01 53.6154 136.029 53.6849C136.074 53.8428 136.124 54.0008 136.168 54.1461C136.168 54.2156 136.213 54.2914 136.238 54.3545L136.491 55.1569C136.491 55.1569 136.491 55.1569 136.459 55.1569L136.421 55.1L136.377 55.0558L136.32 54.9863C136.302 54.9711 136.285 54.9542 136.269 54.9358L136.238 54.9042L136.187 54.8599L136.149 54.8284C136.045 54.7405 135.922 54.6778 135.789 54.6451C135.703 54.6219 135.612 54.6194 135.524 54.6381C135.436 54.6568 135.354 54.696 135.284 54.7525C135.16 54.8558 135.062 54.9868 134.998 55.135C134.935 55.2833 134.907 55.4444 134.917 55.6054C134.923 56.3404 135.205 57.0463 135.707 57.5828C136.098 57.8637 136.547 58.0517 137.021 58.1324C137.021 58.5052 137.223 60.3247 138.171 61.0764L138.342 62.4979C137.846 63.0242 137.382 63.579 136.952 64.1594C136.794 64.3869 136.737 64.4816 136.737 64.6459C134.842 65.4798 131.165 67.1729 131.26 67.6657C131.531 67.8615 131.455 70.7423 131.304 74.8045Z" fill="#100F00"/>
<path d="M157.882 68.1646C157.898 67.0914 157.596 66.0376 157.013 65.1363C156.43 64.2351 155.593 63.5268 154.608 63.1012C153.623 62.6756 152.534 62.5517 151.478 62.7451C150.422 62.9386 149.448 63.4408 148.677 64.1881C147.907 64.9355 147.376 65.8944 147.15 66.9438C146.925 67.9931 147.016 69.0857 147.411 70.0834C147.807 71.0811 148.49 71.9391 149.373 72.5489C150.256 73.1587 151.3 73.4929 152.373 73.5092C153.086 73.5201 153.794 73.3905 154.456 73.1277C155.119 72.865 155.723 72.4743 156.235 71.978C156.746 71.4817 157.155 70.8895 157.438 70.2352C157.721 69.5808 157.872 68.8772 157.882 68.1646Z" fill="white" stroke="#100F00" stroke-width="0.828007" stroke-linecap="round" stroke-linejoin="round"/>
<path d="M150.238 67.0918L152.746 70.0042L157.674 61.1406" stroke="#100F00" stroke-width="2.48402" stroke-linecap="round" stroke-linejoin="round"/>
<path d="M76.5811 58.8984L123.982 54.5898" stroke="#100F00" stroke-width="0.828007" stroke-linecap="round" stroke-linejoin="round"/>
<path d="M77.4404 65.7891L124.841 61.4805" stroke="#100F00" stroke-width="0.828007" stroke-linecap="round" stroke-linejoin="round"/>
<path d="M100.253 70.6911L125.7 68.3789" stroke="#100F00" stroke-width="0.828007" stroke-linecap="round" stroke-linejoin="round"/>
<path d="M78.2998 72.6903L95.591 71.1172" stroke="#100F00" stroke-width="0.828007" stroke-linecap="round" stroke-linejoin="round"/>
<path d="M79.165 79.582L126.566 75.2734" stroke="#100F00" stroke-width="0.828007" stroke-linecap="round" stroke-linejoin="round"/>
<path d="M110.975 85.2657L156.727 80.875" stroke="#100F00" stroke-width="0.828007" stroke-linecap="round" stroke-linejoin="round"/>
<path d="M80.4541 88.1981L107.519 85.6016" stroke="#100F00" stroke-width="0.828007" stroke-linecap="round" stroke-linejoin="round"/>
<path d="M139.536 92.1268L158.021 90.3516" stroke="#100F00" stroke-width="0.828007" stroke-linecap="round" stroke-linejoin="round"/>
<path d="M81.749 97.6806L134.292 92.6328" stroke="#100F00" stroke-width="0.828007" stroke-linecap="round" stroke-linejoin="round"/>
<path d="M145.487 101.163L159.316 99.8359" stroke="#100F00" stroke-width="0.828007" stroke-linecap="round" stroke-linejoin="round"/>
<path d="M105.326 105.022L140.793 101.617" stroke="#100F00" stroke-width="0.828007" stroke-linecap="round" stroke-linejoin="round"/>
<path d="M83.0439 107.155L102.035 105.336" stroke="#100F00" stroke-width="0.828007" stroke-linecap="round" stroke-linejoin="round"/>
<path d="M145.538 110.763L160.606 109.316" stroke="#100F00" stroke-width="0.828007" stroke-linecap="round" stroke-linejoin="round"/>
<path d="M84.333 116.639L136.491 111.629" stroke="#100F00" stroke-width="0.828007" stroke-linecap="round" stroke-linejoin="round"/>
<path d="M105.857 124.176L161.901 118.793" stroke="#100F00" stroke-width="0.828007" stroke-linecap="round" stroke-linejoin="round"/>
<path d="M85.6279 126.122L98.6042 124.871" stroke="#100F00" stroke-width="0.828007" stroke-linecap="round" stroke-linejoin="round"/>
<path d="M128.322 131.626L163.195 128.277" stroke="#100F00" stroke-width="0.828007" stroke-linecap="round" stroke-linejoin="round"/>
<path d="M86.9229 135.599L123.54 132.086" stroke="#100F00" stroke-width="0.828007" stroke-linecap="round" stroke-linejoin="round"/>
<path d="M158.508 138.329L164.484 137.754" stroke="#100F00" stroke-width="0.828007" stroke-linecap="round" stroke-linejoin="round"/>
<path d="M123.982 141.643L153.264 138.832" stroke="#100F00" stroke-width="0.828007" stroke-linecap="round" stroke-linejoin="round"/>
<path d="M88.2119 145.081L118.859 142.137" stroke="#100F00" stroke-width="0.828007" stroke-linecap="round" stroke-linejoin="round"/>
<path d="M50.1934 101.27C50.1934 101.27 53.6617 89.8411 55.298 84.7365C56.9342 79.6319 57.9514 75.5507 59.177 71.2674C60.4026 66.9841 59.8087 57.5962 59.8087 55.7578C59.8087 53.9193 70.8329 54.5321 72.2607 54.7343C73.6884 54.9365 77.5674 79.0254 76.3418 83.9215C75.1162 88.8177 70.656 92.8988 70.656 95.7544C70.656 98.6099 70.4475 104.125 70.4475 105.351C70.4475 106.576 73.5116 118.618 73.7137 123.918C73.9159 129.219 70.8582 137.185 70.2454 138C69.6326 138.815 55.3485 155.961 55.3485 155.961" fill="white"/>
<path d="M50.1934 101.27C50.1934 101.27 53.6617 89.8411 55.298 84.7365C56.9342 79.6319 57.9514 75.5507 59.177 71.2674C60.4026 66.9841 59.8087 57.5962 59.8087 55.7578C59.8087 53.9193 70.8329 54.5321 72.2607 54.7343C73.6884 54.9365 77.5674 79.0254 76.3418 83.9215C75.1162 88.8177 70.656 92.8988 70.656 95.7544C70.656 98.6099 70.4475 104.125 70.4475 105.351C70.4475 106.576 73.5116 118.618 73.7137 123.918C73.9159 129.219 70.8582 137.185 70.2454 138C69.6326 138.815 55.3485 155.961 55.3485 155.961" stroke="#100F00" stroke-width="0.828007" stroke-linecap="round" stroke-linejoin="round"/>
<path d="M61.0088 68.4119C61.0088 68.4119 65.7028 66.3713 69.5818 68.0013C69.5818 68.0013 69.9924 58.4112 67.7433 55.7578" stroke="#100F00" stroke-width="0.828007" stroke-linecap="round" stroke-linejoin="round"/>
<path d="M58.7656 76.9854C61.1114 77.4327 63.5381 77.1459 65.715 76.1641" stroke="#100F00" stroke-width="0.828007" stroke-linecap="round" stroke-linejoin="round"/>
<path d="M59.3789 74.9378C59.3789 74.9378 63.6622 72.4929 68.3562 74.3061" stroke="#100F00" stroke-width="0.828007" stroke-linecap="round" stroke-linejoin="round"/>
<path d="M67.3385 72.6931C66.3632 72.2865 65.3118 72.0941 64.2557 72.129C63.1995 72.1639 62.1632 72.4252 61.2168 72.8953" stroke="#100F00" stroke-width="0.828007" stroke-linecap="round" stroke-linejoin="round"/>
<path d="M19.4767 160.09C19.4767 160.09 32.3583 158.593 42.8518 165.486C53.3453 172.378 56.3524 181.059 56.3524 181.059L47.6658 199.038C47.6658 199.038 32.6615 184.356 22.4776 180.762C12.2936 177.167 10.79 176.87 10.79 176.87L19.4767 160.09Z" fill="white" stroke="#100F00" stroke-width="0.828007" stroke-linecap="round" stroke-linejoin="round"/>
<path d="M0.757812 185.071C8.89486 203.878 22.9767 220.323 43.8943 233.154L55.9608 197.637C55.9608 197.637 47.5711 181.464 37.6841 176.068C27.7971 170.673 11.0239 168.582 11.0239 168.582L0.757812 185.071Z" fill="#100F00" stroke="#100F00" stroke-width="0.828007" stroke-linecap="round" stroke-linejoin="round"/>
<path d="M73.1318 45.9708L151.558 39.9375" stroke="white" stroke-width="0.828007" stroke-linecap="round" stroke-linejoin="round"/>
</svg>
