<svg width="34" height="34" viewBox="0 0 34 34" fill="none" xmlns="http://www.w3.org/2000/svg">
<g opacity="0.4">
<path d="M22.4237 26.1447C27.6292 23.1508 29.4221 16.5038 26.4281 11.2983C23.4342 6.09273 16.7872 4.29989 11.5817 7.29383C6.37616 10.2878 4.58332 16.9348 7.57726 22.1403C10.5712 27.3458 17.2182 29.1387 22.4237 26.1447Z" fill="white" stroke="#6A6B6D" stroke-width="0.5" stroke-linecap="round" stroke-linejoin="round"/>
<path d="M26.5302 13.9705C25.0126 8.7074 19.5157 5.6711 14.2526 7.18875C8.98945 8.7064 5.95316 14.2033 7.47081 19.4664C8.98845 24.7295 14.4853 27.7658 19.7485 26.2481C25.0116 24.7305 28.0479 19.2336 26.5302 13.9705Z" fill="white" stroke="#6A6B6D" stroke-width="0.25" stroke-linecap="round" stroke-linejoin="round"/>
<path d="M20.0369 18.93L17.0015 16.7224L13.0273 9.8125" fill="white"/>
<path d="M20.0369 18.93L17.0015 16.7224L13.0273 9.8125" stroke="#6A6B6D" stroke-linecap="round" stroke-linejoin="round"/>
<path d="M17.5254 16.4214C17.5849 16.5248 17.6124 16.6436 17.6044 16.7626C17.5964 16.8817 17.5533 16.9957 17.4805 17.0902C17.4077 17.1848 17.3085 17.2556 17.1954 17.2938C17.0824 17.3319 16.9606 17.3357 16.8453 17.3047C16.7301 17.2736 16.6267 17.209 16.5482 17.1192C16.4697 17.0294 16.4196 16.9183 16.4042 16.7999C16.3888 16.6816 16.4089 16.5614 16.4618 16.4545C16.5148 16.3475 16.5982 16.2587 16.7017 16.1992C16.8404 16.1194 17.0051 16.098 17.1596 16.1397C17.314 16.1814 17.4456 16.2827 17.5254 16.4214Z" fill="#6A6B6D" stroke="#6A6B6D" stroke-linecap="round" stroke-linejoin="round"/>
</g>
</svg>
