<svg width="30" height="29" viewBox="0 0 30 29" fill="none" xmlns="http://www.w3.org/2000/svg">
<g opacity="0.3">
<path d="M16.1505 19.6383L15.458 19.1045C15.6348 18.7897 15.7401 18.4398 15.7665 18.0796C15.9884 18.2424 16.223 18.4177 16.4326 18.5656C16.3614 18.8778 16.2723 19.2447 16.1505 19.6383Z" stroke="#454648" stroke-linecap="round" stroke-linejoin="round"/>
<path d="M17.3749 19.2621C17.5944 19.4313 17.8377 19.5671 18.0969 19.6651C18.0965 21.2169 17.5855 22.7254 16.6426 23.958C16.3728 24.3061 14.4971 22.8537 14.7645 22.5051C15.3879 21.6362 15.8568 20.6663 16.1507 19.6381C16.2725 19.2445 16.3689 18.8789 16.4401 18.5667C16.8357 18.853 17.1809 19.1121 17.3749 19.2621Z" stroke="#454648" stroke-linecap="round" stroke-linejoin="round"/>
<path d="M20.7567 14.8904C21.2801 15.2952 21.641 15.8743 21.7737 16.5225C21.9063 17.1706 21.802 17.8449 21.4797 18.4227C21.1574 19.0004 20.6384 19.4434 20.0171 19.6711C19.3958 19.8987 18.7134 19.8959 18.094 19.6633C17.8347 19.5653 17.5914 19.4294 17.3719 19.2602C17.1779 19.1102 16.8327 18.8511 16.4371 18.5649C16.2148 18.4045 15.9929 18.2417 15.771 18.079C15.2228 17.6909 14.69 17.3284 14.4084 17.1746L17.993 12.547C18.4642 13.0494 20.2012 14.4606 20.7567 14.8904Z" stroke="#454648" stroke-linecap="round" stroke-linejoin="round"/>
<path d="M15.8996 9.64723C16.4626 10.7021 17.1655 11.6762 17.9891 12.5431L14.4045 17.1706C13.3567 16.5955 12.2363 16.1637 11.0734 15.8868L10.0666 15.6424L15.4016 8.73604L15.8996 9.64723Z" stroke="#454648" stroke-linecap="round" stroke-linejoin="round"/>
<path d="M8.84405 15.6324L15.0954 7.55528C15.1435 7.49446 15.2135 7.45496 15.2904 7.44531C15.3673 7.43565 15.4449 7.45663 15.5065 7.5037L15.8105 7.73995C15.8719 7.78762 15.9119 7.85755 15.9221 7.93458C15.9322 8.0116 15.9115 8.0895 15.8646 8.15139L15.4084 8.73967L10.0734 15.646L9.6196 16.2347C9.59601 16.2651 9.56667 16.2906 9.53324 16.3096C9.49981 16.3286 9.46295 16.3409 9.42477 16.3457C9.3866 16.3505 9.34785 16.3477 9.31075 16.3375C9.27364 16.3273 9.23891 16.3099 9.20854 16.2863L8.90208 16.0496C8.87001 16.0267 8.84293 15.9975 8.82252 15.9637C8.80211 15.93 8.78879 15.8925 8.78336 15.8534C8.77793 15.8144 8.78051 15.7747 8.79095 15.7367C8.80138 15.6986 8.81945 15.6632 8.84405 15.6324Z" stroke="#454648" stroke-linecap="round" stroke-linejoin="round"/>
<path d="M10.0264 10.0845L8.43262 8.85156" stroke="#454648" stroke-linecap="round" stroke-linejoin="round"/>
<path d="M12.6219 7.64642L11.875 5.49219" stroke="#454648" stroke-linecap="round" stroke-linejoin="round"/>
<path d="M8.31621 13.2107L6.04547 13.0295" stroke="#454648" stroke-linecap="round" stroke-linejoin="round"/>
<path d="M24.6346 7.56037C23.3629 5.8461 21.6554 4.50346 19.6895 3.67188" stroke="#454648" stroke-linecap="round" stroke-linejoin="round"/>
<path d="M17.5574 26.4394C19.4033 26.0366 21.128 25.2039 22.5912 24.0089C24.0544 22.8138 25.2148 21.2903 25.978 19.5623C26.7411 17.8342 27.0855 15.9504 26.983 14.0641C26.8806 12.1778 26.3342 10.3423 25.3884 8.70696" stroke="#454648" stroke-linecap="round" stroke-linejoin="round"/>
<path d="M5.64648 22.2344C7.43784 24.4706 9.97314 25.989 12.7904 26.5128" stroke="#454648" stroke-linecap="round" stroke-linejoin="round"/>
<path d="M3.00684 14.7109C3.00279 16.9067 3.60381 19.0611 4.74392 20.9378" stroke="#454648" stroke-linecap="round" stroke-linejoin="round"/>
<path d="M17.2164 2.92473C14.0876 2.3376 10.8536 3.01723 8.22607 4.81412C5.59852 6.61101 3.79258 9.37797 3.20556 12.5063" stroke="#454648" stroke-linecap="round" stroke-linejoin="round"/>
</g>
</svg>
