<svg width="58" height="55" viewBox="0 0 58 55" fill="none" xmlns="http://www.w3.org/2000/svg">
<path d="M43.6885 4.59617L57.3601 35.6847L16.1238 53.819L2.45215 22.7305L7.62655 20.4549L8.10345 21.5394C8.18522 21.7253 8.33752 21.8712 8.52683 21.9448C8.71615 22.0185 8.92697 22.014 9.11292 21.9322C9.29888 21.8504 9.44473 21.6981 9.51839 21.5088C9.59206 21.3195 9.5875 21.1087 9.50572 20.9227L9.02883 19.8383L15.0025 17.2112L15.4794 18.2957C15.5612 18.4816 15.7135 18.6275 15.9028 18.7011C16.0921 18.7748 16.3029 18.7703 16.4889 18.6885C16.6749 18.6067 16.8207 18.4544 16.8944 18.2651C16.968 18.0758 16.9635 17.865 16.8817 17.679L16.4048 16.5946L22.3738 13.9696L22.8507 15.054C22.9325 15.24 23.0848 15.3858 23.2741 15.4595C23.4634 15.5332 23.6743 15.5286 23.8602 15.4468C24.0462 15.3651 24.192 15.2128 24.2657 15.0234C24.3393 14.8341 24.3348 14.6233 24.253 14.4374L23.7761 13.3529L29.7311 10.7341L30.208 11.8186C30.2898 12.0045 30.4421 12.1504 30.6314 12.224C30.8207 12.2977 31.0315 12.2931 31.2175 12.2114C31.4034 12.1296 31.5493 11.9773 31.623 11.788C31.6966 11.5987 31.6921 11.3878 31.6103 11.2019L31.1334 10.1174L37.1165 7.48631L37.5933 8.57074C37.6751 8.75669 37.8274 8.90255 38.0167 8.97621C38.206 9.04988 38.4169 9.04532 38.6028 8.96354C38.7888 8.88176 38.9346 8.72947 39.0083 8.54016C39.082 8.35084 39.0774 8.14002 38.9956 7.95406L38.5187 6.86964L43.6885 4.59617Z" fill="white" stroke="#263238" stroke-width="0.510628" stroke-linecap="round" stroke-linejoin="round"/>
<path d="M15.3562 27.2121L10.7754 29.2266L12.7899 33.8073L17.3706 31.7929L15.3562 27.2121Z" fill="white" stroke="#263238" stroke-width="0.510628" stroke-linecap="round" stroke-linejoin="round"/>
<path d="M22.2263 24.1887L17.6455 26.2031L19.66 30.7839L24.2408 28.7694L22.2263 24.1887Z" fill="white" stroke="#263238" stroke-width="0.510628" stroke-linecap="round" stroke-linejoin="round"/>
<path d="M29.1032 21.1652L24.5225 23.1797L26.5369 27.7605L31.1177 25.746L29.1032 21.1652Z" fill="white" stroke="#263238" stroke-width="0.510628" stroke-linecap="round" stroke-linejoin="round"/>
<path d="M35.9734 18.1418L31.3926 20.1562L33.407 24.737L37.9878 22.7226L35.9734 18.1418Z" fill="white" stroke="#263238" stroke-width="0.510628" stroke-linecap="round" stroke-linejoin="round"/>
<path d="M42.8444 15.1223L38.2637 17.1367L40.2781 21.7175L44.8589 19.703L42.8444 15.1223Z" fill="#263238" stroke="#263238" stroke-width="0.510628" stroke-linecap="round" stroke-linejoin="round"/>
<path d="M18.6657 34.7355L14.085 36.75L16.0994 41.3308L20.6802 39.3163L18.6657 34.7355Z" fill="white" stroke="#263238" stroke-width="0.510628" stroke-linecap="round" stroke-linejoin="round"/>
<path d="M25.5359 31.716L20.9551 33.7305L22.9695 38.3112L27.5503 36.2968L25.5359 31.716Z" fill="white" stroke="#263238" stroke-width="0.510628" stroke-linecap="round" stroke-linejoin="round"/>
<path d="M32.4118 28.6887L27.8311 30.7031L29.8455 35.2839L34.4263 33.2694L32.4118 28.6887Z" fill="#263238" stroke="#263238" stroke-width="0.510628" stroke-linecap="round" stroke-linejoin="round"/>
<path d="M39.2839 25.6691L34.7031 27.6836L36.7176 32.2644L41.2984 30.2499L39.2839 25.6691Z" fill="white" stroke="#263238" stroke-width="0.510628" stroke-linecap="round" stroke-linejoin="round"/>
<path d="M46.154 22.6457L41.5732 24.6602L43.5877 29.2409L48.1685 27.2265L46.154 22.6457Z" fill="white" stroke="#263238" stroke-width="0.510628" stroke-linecap="round" stroke-linejoin="round"/>
<path d="M21.9763 42.2668L17.3955 44.2812L19.41 48.862L23.9907 46.8476L21.9763 42.2668Z" fill="white" stroke="#263238" stroke-width="0.510628" stroke-linecap="round" stroke-linejoin="round"/>
<path d="M28.8474 39.2433L24.2666 41.2578L26.2811 45.8386L30.8618 43.8241L28.8474 39.2433Z" fill="#263238" stroke="#263238" stroke-width="0.510628" stroke-linecap="round" stroke-linejoin="round"/>
<path d="M35.7234 36.2199L31.1426 38.2344L33.157 42.8152L37.7378 40.8007L35.7234 36.2199Z" fill="white" stroke="#263238" stroke-width="0.510628" stroke-linecap="round" stroke-linejoin="round"/>
<path d="M42.5944 33.2004L38.0137 35.2148L40.0281 39.7956L44.6089 37.7812L42.5944 33.2004Z" fill="white" stroke="#263238" stroke-width="0.510628" stroke-linecap="round" stroke-linejoin="round"/>
<path d="M49.4655 30.1769L44.8848 32.1914L46.8992 36.7722L51.48 34.7577L49.4655 30.1769Z" fill="#263238" stroke="#263238" stroke-width="0.510628" stroke-linecap="round" stroke-linejoin="round"/>
<path d="M7.73991 16.9204L9.50154 20.9262C9.58332 21.1122 9.58787 21.323 9.51421 21.5123C9.44054 21.7016 9.29469 21.8539 9.10874 21.9357C8.92278 22.0175 8.71197 22.0221 8.52265 21.9484C8.33334 21.8747 8.18104 21.7289 8.09926 21.5429L6.33763 17.5371C6.25586 17.3511 6.2513 17.1403 6.32497 16.951C6.39863 16.7617 6.54448 16.6094 6.73044 16.5276C6.91639 16.4458 7.12721 16.4413 7.31653 16.5149C7.50584 16.5886 7.65814 16.7344 7.73991 16.9204Z" fill="#263238" stroke="#263238" stroke-width="0.510628" stroke-linecap="round" stroke-linejoin="round"/>
<path d="M15.111 13.6782L16.8726 17.6841C16.9544 17.87 16.959 18.0808 16.8853 18.2701C16.8116 18.4595 16.6658 18.6118 16.4798 18.6935C16.2939 18.7753 16.0831 18.7799 15.8937 18.7062C15.7044 18.6325 15.5521 18.4867 15.4704 18.3007L13.7087 14.2949C13.627 14.1089 13.6224 13.8981 13.6961 13.7088C13.7697 13.5195 13.9156 13.3672 14.1015 13.2854C14.2875 13.2036 14.4983 13.1991 14.6876 13.2727C14.8769 13.3464 15.0292 13.4923 15.111 13.6782Z" fill="#263238" stroke="#263238" stroke-width="0.510628" stroke-linecap="round" stroke-linejoin="round"/>
<path d="M22.4821 10.436L24.2437 14.4419C24.3255 14.6278 24.3301 14.8386 24.2564 15.028C24.1827 15.2173 24.0369 15.3696 23.8509 15.4513C23.665 15.5331 23.4541 15.5377 23.2648 15.464C23.0755 15.3903 22.9232 15.2445 22.8415 15.0585L21.0798 11.0527C20.998 10.8667 20.9935 10.6559 21.0672 10.4666C21.1408 10.2773 21.2867 10.125 21.4726 10.0432C21.6586 9.96145 21.8694 9.95689 22.0587 10.0306C22.248 10.1042 22.4003 10.2501 22.4821 10.436Z" fill="#263238" stroke="#263238" stroke-width="0.510628" stroke-linecap="round" stroke-linejoin="round"/>
<path d="M29.8493 7.19775L31.6109 11.2036C31.6927 11.3895 31.6972 11.6004 31.6236 11.7897C31.5499 11.979 31.4041 12.1313 31.2181 12.2131C31.0322 12.2948 30.8213 12.2994 30.632 12.2257C30.4427 12.1521 30.2904 12.0062 30.2086 11.8203L28.447 7.81442C28.4065 7.72235 28.3846 7.6232 28.3824 7.52263C28.3802 7.42207 28.3979 7.32207 28.4343 7.22833C28.4708 7.13459 28.5254 7.04896 28.595 6.97631C28.6645 6.90367 28.7477 6.84544 28.8398 6.80494C28.9319 6.76445 29.031 6.74249 29.1316 6.74032C29.2322 6.73815 29.3322 6.7558 29.4259 6.79228C29.5196 6.82875 29.6053 6.88333 29.6779 6.9529C29.7506 7.02247 29.8088 7.10567 29.8493 7.19775Z" fill="#263238" stroke="#263238" stroke-width="0.510628" stroke-linecap="round" stroke-linejoin="round"/>
<path d="M37.2301 3.95166L38.9918 7.9575C39.0735 8.14345 39.0781 8.35427 39.0044 8.54358C38.9308 8.7329 38.7849 8.88519 38.599 8.96697C38.413 9.04875 38.2022 9.0533 38.0129 8.97964C37.8236 8.90597 37.6713 8.76012 37.5895 8.57417L35.8279 4.56833C35.7461 4.38237 35.7415 4.17155 35.8152 3.98224C35.8889 3.79292 36.0347 3.64063 36.2207 3.55885C36.4066 3.47708 36.6174 3.47252 36.8068 3.54618C36.9961 3.61985 37.1484 3.7657 37.2301 3.95166Z" fill="#263238" stroke="#263238" stroke-width="0.510628" stroke-linecap="round" stroke-linejoin="round"/>
</svg>
