<svg width="26" height="26" viewBox="0 0 26 26" fill="none" xmlns="http://www.w3.org/2000/svg">
<g opacity="0.2">
<path d="M25.0005 6.63672L24.1162 24.2048L12.8027 20.0508L25.0005 6.63672Z" fill="#6A6B6D" stroke="#6A6B6D" stroke-linecap="round" stroke-linejoin="round"/>
<path d="M24.4986 6.87461L21.2679 24.7171L18.0371 23.0372L23.3235 6.55859L24.4986 6.87461Z" fill="white" stroke="#6A6B6D" stroke-linecap="round" stroke-linejoin="round"/>
<path d="M24.4995 6.87699L18.9222 24.6155L2.47363 17.58L10.0134 2.78125L24.4995 6.87699Z" fill="white" stroke="#6A6B6D" stroke-linecap="round" stroke-linejoin="round"/>
<path d="M9.28054 1.23438L1 18.0831L16.0873 24.7028L25 6.63577L9.28054 1.23438Z" fill="white" stroke="#6A6B6D" stroke-linecap="round" stroke-linejoin="round"/>
<path d="M5.94531 8.02042L21.3235 14.0913L25.0003 6.63576L9.2808 1.23438L5.94531 8.02042Z" fill="white"/>
<path d="M9.28054 1.23438L1 18.0831L16.0873 24.7028L25 6.63577L9.28054 1.23438Z" stroke="#6A6B6D" stroke-linecap="round" stroke-linejoin="round"/>
<path d="M10.9941 6.99375L10.7847 7.37213L10.0517 7.0977L9.16737 8.71521L8.81055 8.58215L10.8584 4.83984L12.1228 5.31803L11.9172 5.69641L11.0058 5.35545L10.2611 6.71931L10.9941 6.99375Z" fill="#6A6B6D"/>
<path d="M13.1209 5.69215C13.6212 5.87927 13.6677 6.25766 13.3652 6.81484L13.1984 7.11839C13.1294 7.29313 13.0162 7.44371 12.8716 7.55318C12.727 7.66265 12.5568 7.72664 12.3801 7.73794C12.6167 7.95001 12.574 8.27018 12.3529 8.66936L12.0349 9.2515C11.9442 9.39427 11.8821 9.55569 11.8526 9.72552L11.4919 9.5883C11.5256 9.41845 11.5902 9.25738 11.682 9.11428L12.0039 8.52799C12.2366 8.11218 12.1396 7.90843 11.8449 7.79616L11.5928 7.70052L10.7162 9.29724L10.3633 9.16418L12.4072 5.42188L13.1209 5.69215ZM12.0659 7.42193C12.3452 7.52588 12.574 7.4843 12.7951 7.0768L12.9929 6.7192C13.1752 6.3824 13.1674 6.16618 12.9037 6.06638L12.5546 5.93748L11.7983 7.32213L12.0659 7.42193Z" fill="#6A6B6D"/>
<path d="M14.559 6.219L12.515 9.9613L12.1582 9.82824L14.206 6.08594L14.559 6.219Z" fill="#6A6B6D"/>
<path d="M15.6724 6.63431C16.1688 6.81727 16.2037 7.25803 15.8896 7.83601L14.8579 9.71963C14.5437 10.2935 14.1249 10.5513 13.6284 10.3725L12.8799 10.0939L14.9238 6.35156L15.6724 6.63431ZM13.8301 9.99407C14.0861 10.0897 14.311 9.94833 14.4972 9.60737L15.5521 7.68216C15.7383 7.34119 15.715 7.10418 15.4552 7.00855L15.0673 6.86301L13.4345 9.84854L13.8301 9.99407Z" fill="#6A6B6D"/>
<path d="M15.4509 10.1695L14.9156 10.8764L14.5898 10.7516L17.2466 7.24219L17.7624 7.43346L16.3274 11.4045L15.9706 11.2714L16.2615 10.473L15.4509 10.1695ZM15.6952 9.82854L16.405 10.0947L17.2272 7.79938L15.6952 9.82854Z" fill="#6A6B6D"/>
<path d="M17.9029 10.3755L18.5429 7.72266L18.9114 7.85987L18.4033 9.88487L19.912 8.22163L20.2494 8.35053L18.2559 10.4961L17.5229 11.835L17.1699 11.7061L17.9029 10.3755Z" fill="#6A6B6D"/>
<path d="M7.353 9.1875L19.0543 13.6658L14.9432 21.77L3.73438 16.8509L7.353 9.1875Z" stroke="#6A6B6D" stroke-linecap="round" stroke-linejoin="round"/>
<path d="M8.94317 9.94531L5.23535 17.4174" stroke="#6A6B6D" stroke-linecap="round" stroke-linejoin="round"/>
<path d="M10.8826 10.6055L7.17871 18.0818" stroke="#6A6B6D" stroke-linecap="round" stroke-linejoin="round"/>
<path d="M12.8258 11.2695L8.95508 18.9371" stroke="#6A6B6D" stroke-linecap="round" stroke-linejoin="round"/>
<path d="M14.8543 12.3125L11.1465 19.7846" stroke="#6A6B6D" stroke-linecap="round" stroke-linejoin="round"/>
<path d="M17.0601 13.1641L13.1738 20.9065" stroke="#6A6B6D" stroke-linecap="round" stroke-linejoin="round"/>
<path d="M6.64648 10.9844L17.9406 15.6207" stroke="#6A6B6D" stroke-linecap="round" stroke-linejoin="round"/>
<path d="M5.76758 13.0664L16.7204 17.894" stroke="#6A6B6D" stroke-linecap="round" stroke-linejoin="round"/>
<path d="M4.61914 15.0547L15.7348 20.1609" stroke="#6A6B6D" stroke-linecap="round" stroke-linejoin="round"/>
<path d="M10.8083 3.20887C10.6242 3.08272 10.4738 2.90743 10.3719 2.70018C10.2701 2.49294 10.2202 2.26087 10.2272 2.02673C10.2342 1.79259 10.2979 1.56442 10.412 1.36462C10.5261 1.16482 10.6866 1.00024 10.8779 0.887032C11.0692 0.773822 11.2847 0.715869 11.5032 0.71886C11.7216 0.721851 11.9357 0.785681 12.1242 0.90409C12.3127 1.0225 12.4693 1.19142 12.5786 1.39428C12.6879 1.59714 12.7461 1.82697 12.7475 2.06123C12.7534 2.13038 12.7534 2.19997 12.7475 2.26913" stroke="#6A6B6D" stroke-linecap="round" stroke-linejoin="round"/>
<path d="M13.2517 4.08387C13.0675 3.95772 12.9172 3.78243 12.8153 3.57519C12.7134 3.36794 12.6636 3.13587 12.6706 2.90173C12.6776 2.66759 12.7413 2.43942 12.8553 2.23962C12.9694 2.03982 13.13 1.87524 13.3213 1.76203C13.5126 1.64882 13.728 1.59087 13.9465 1.59386C14.165 1.59685 14.379 1.66068 14.5676 1.77909C14.7561 1.8975 14.9127 2.06642 15.022 2.26928C15.1312 2.47214 15.1895 2.70197 15.1909 2.93623C15.1968 3.00538 15.1968 3.07497 15.1909 3.14413" stroke="#6A6B6D" stroke-linecap="round" stroke-linejoin="round"/>
<path d="M15.695 4.97058C15.5109 4.84444 15.3605 4.66915 15.2587 4.4619C15.1568 4.25466 15.1069 4.02258 15.1139 3.78844C15.121 3.5543 15.1846 3.32614 15.2987 3.12634C15.4128 2.92654 15.5733 2.76196 15.7646 2.64875C15.9559 2.53554 16.1714 2.47759 16.3899 2.48058C16.6084 2.48357 16.8224 2.5474 17.0109 2.66581C17.1995 2.78422 17.356 2.95314 17.4653 3.156C17.5746 3.35886 17.6328 3.58869 17.6343 3.82294C17.6402 3.8921 17.6402 3.96169 17.6343 4.03085" stroke="#6A6B6D" stroke-linecap="round" stroke-linejoin="round"/>
<path d="M18.1384 5.82996C17.9543 5.70381 17.8039 5.52852 17.702 5.32128C17.6001 5.11403 17.5503 4.88196 17.5573 4.64782C17.5643 4.41368 17.628 4.18551 17.7421 3.98571C17.8561 3.78591 18.0167 3.62133 18.208 3.50812C18.3993 3.39491 18.6148 3.33696 18.8332 3.33995C19.0517 3.34294 19.2657 3.40677 19.4543 3.52518C19.6428 3.64359 19.7994 3.81251 19.9087 4.01537C20.018 4.21823 20.0762 4.44806 20.0776 4.68232C20.0835 4.75148 20.0835 4.82107 20.0776 4.89022" stroke="#6A6B6D" stroke-linecap="round" stroke-linejoin="round"/>
<path d="M20.5817 6.70105C20.3976 6.57491 20.2473 6.39961 20.1454 6.19237C20.0435 5.98513 19.9936 5.75305 20.0007 5.51891C20.0077 5.28477 20.0713 5.05661 20.1854 4.85681C20.2995 4.657 20.4601 4.49243 20.6514 4.37922C20.8427 4.26601 21.0581 4.20806 21.2766 4.21105C21.4951 4.21404 21.7091 4.27787 21.8976 4.39628C22.0862 4.51469 22.2428 4.68361 22.352 4.88647C22.4613 5.08932 22.5195 5.31916 22.521 5.55341C22.5269 5.62257 22.5269 5.69216 22.521 5.76132" stroke="#6A6B6D" stroke-linecap="round" stroke-linejoin="round"/>
</g>
</svg>
