<svg width="104" height="157" viewBox="0 0 104 157" fill="none" xmlns="http://www.w3.org/2000/svg">
<path d="M102.662 156.518C100.609 142.714 91.5748 81.7181 91.7328 79.8923C91.9033 77.8265 67.6691 70.2643 67.6691 70.2643L54.0926 69.7463V69.582L51.9446 69.6642L49.7967 69.582V69.7463L36.2202 70.2643C36.2202 70.2643 11.9923 77.8454 12.1628 79.8923C12.3144 81.7181 3.28029 142.714 1.2334 156.518H102.662Z" fill="white" stroke="#100F00" stroke-width="0.828007" stroke-linecap="round" stroke-linejoin="round"/>
<path d="M91.3154 79.293L91.7324 79.8931C91.745 79.7226 91.5934 79.5204 91.3154 79.293Z" fill="#100F00" stroke="#100F00" stroke-width="0.828007" stroke-linecap="round" stroke-linejoin="round"/>
<path d="M67.827 84.052L87.5883 77.3428C80.7085 74.3609 67.669 70.2923 67.669 70.2923L61.5283 70.0586L67.827 84.052Z" fill="#100F00" stroke="#100F00" stroke-width="0.828007" stroke-linecap="round" stroke-linejoin="round"/>
<path d="M91.9414 82.1055L99.1434 156.52H102.688C100.818 144.068 93.3123 93.4139 91.9414 82.1055Z" fill="#100F00" stroke="#100F00" stroke-width="0.828007" stroke-linecap="round" stroke-linejoin="round"/>
<path d="M101.708 156.521L89.831 132.16L83.545 132.305L82.7363 156.521H101.708Z" fill="white" stroke="#100F00" stroke-width="0.828007" stroke-linecap="round" stroke-linejoin="round"/>
<path d="M80.3994 103.766V100.848" stroke="#100F00" stroke-width="0.828007" stroke-linecap="round" stroke-linejoin="round"/>
<path d="M80.3994 130.51V107.109" stroke="#100F00" stroke-width="0.828007" stroke-linecap="round" stroke-linejoin="round"/>
<path d="M21.1397 156.521L20.331 132.305L14.045 132.16L2.16797 156.521H21.1397Z" fill="white" stroke="#100F00" stroke-width="0.828007" stroke-linecap="round" stroke-linejoin="round"/>
<path d="M23.4775 109.888V100.848" stroke="#100F00" stroke-width="0.828007" stroke-linecap="round" stroke-linejoin="round"/>
<path d="M23.4775 130.51V112.113" stroke="#100F00" stroke-width="0.828007" stroke-linecap="round" stroke-linejoin="round"/>
<path d="M45.1593 85.7391L52.0328 94.6721L44.4707 144.341L53.4038 155.51L60.6248 143.482L53.4038 94.1604L60.4542 85.3916L53.7512 77.4883L45.1593 85.7391Z" fill="#100F00" stroke="#100F00" stroke-width="0.828007" stroke-linecap="round" stroke-linejoin="round"/>
<path d="M53.265 82.7848C53.265 82.7848 46.5304 86.5754 44.6415 88.9761C42.7525 91.3767 38.286 96.0202 38.286 96.5572C38.286 97.0941 33.99 80.58 33.99 75.4249C33.99 70.2697 33.472 70.7814 34.8492 69.2336C36.2264 67.6858 40.535 63.3899 41.7227 62.8781C42.9104 62.3664 63.5437 62.7076 64.7503 63.2193C65.957 63.731 69.0463 69.9222 69.9055 71.9881C70.3312 72.9299 70.6758 73.9063 70.9352 74.9068C70.9352 74.9068 69.04 86.0763 68.6988 88.8055C68.3577 91.5347 65.7801 97.3974 65.7801 97.3974C65.7801 97.3974 57.8768 88.1232 57.3587 86.9165C56.8407 85.7099 53.265 82.7848 53.265 82.7848Z" fill="white" stroke="#100F00" stroke-width="0.828007" stroke-linecap="round" stroke-linejoin="round"/>
<path d="M40.6865 56.1758L40.8697 69.0636L53.2648 82.8107L64.0426 70.0934L64.4027 56.6875L40.6865 56.1758Z" fill="white" stroke="#100F00" stroke-width="0.828007" stroke-linecap="round" stroke-linejoin="round"/>
<path d="M47.3835 61.3431L48.1037 62.5498L62.9689 71.3691L64.0429 70.093L64.403 56.6871L45.8799 56.2891L47.3835 61.3431Z" fill="#100F00"/>
<path d="M37.8185 36.9024C37.8185 36.9024 35.8601 30.6227 32.8655 32.2084C29.871 33.7942 31.1219 40.5603 32.9224 42.5314C34.2401 43.8257 35.8501 44.7835 37.6164 45.3237C37.6164 45.3237 36.7003 54.2252 40.6867 57.4977C44.6731 60.7702 46.3725 64.8072 48.7859 64.9146C51.1992 65.0219 57.0429 64.9146 58.0853 64.6429C59.1277 64.3712 64.8325 59.9489 66.0392 56.051C66.7786 53.6073 67.2364 51.0871 67.4038 48.5394C67.4038 48.5394 73.6898 42.6261 74.012 39.202C74.3341 35.7779 71.4849 34.6154 70.0698 35.0703L68.6736 35.5252L69.4822 25.0633C69.4822 25.0633 77.752 24.7474 77.7899 23.8882C77.8278 23.029 74.4163 18.5751 74.4163 18.5751C74.4163 18.5751 84.5623 18.6825 85.2636 14.4181C85.9648 10.1538 77.2213 5.80096 74.6058 6.54644C71.9903 7.29191 67.8334 7.96157 67.8334 7.96157C67.8334 7.96157 73.8603 3.93095 71.2006 1.92196C68.5409 -0.0870293 63.3668 0.19726 60.347 2.2947C58.7836 3.32384 57.3441 4.53006 56.0574 5.8894C54.2319 4.11814 51.8458 3.03903 49.3102 2.83801C45.0269 2.47159 42.5378 4.25315 43.7191 4.82173C44.4009 5.13412 44.9763 5.63924 45.3744 6.27477C45.3744 6.27477 36.694 8.12582 35.6011 13.2241C34.5081 18.3224 37.8185 36.9024 37.8185 36.9024Z" fill="white" stroke="#100F00" stroke-width="0.828007" stroke-linecap="round" stroke-linejoin="round"/>
<path d="M70.0822 35.0708L68.9892 35.4246L68.0732 37.7305L67.4414 48.5399C67.4414 48.5399 73.7274 42.6266 74.0496 39.2025C74.3718 35.7784 71.4657 34.6159 70.0822 35.0708Z" fill="#100F00"/>
<path d="M43.9209 35.9727L48.4885 36.3833" stroke="#100F00" stroke-width="0.828007" stroke-linecap="round" stroke-linejoin="round"/>
<path d="M59.5254 36.8774L63.9098 36.6562" stroke="#100F00" stroke-width="0.828007" stroke-linecap="round" stroke-linejoin="round"/>
<path d="M35.708 32.9492L37.8181 36.904C37.3605 35.4686 36.6455 34.1285 35.708 32.9492Z" stroke="#100F00" stroke-width="0.828007" stroke-linecap="round" stroke-linejoin="round"/>
<path d="M85.2442 14.4181C85.9517 10.1475 77.303 6.54644 74.5864 6.54644C72.2547 6.53845 69.9474 7.02058 67.814 7.96157C67.814 7.96157 73.8409 3.93095 71.1812 1.92196C68.5215 -0.0870294 63.3474 0.19726 60.3276 2.2947C58.7642 3.32384 57.3247 4.53006 56.038 5.8894C54.2125 4.11814 51.8264 3.03903 49.2908 2.83801C45.0075 2.47159 42.5184 4.25315 43.6997 4.82173C44.3815 5.13412 44.9569 5.63924 45.3549 6.27478C45.3549 6.27478 36.6746 8.12583 35.5817 13.2241C34.4887 18.3224 37.7991 36.8898 37.7991 36.8898L39.2016 36.258C39.1381 34.4327 39.5151 32.619 40.3009 30.9702C41.6402 27.9378 43.2386 26.8006 43.3333 24.5705C43.4281 22.3404 41.2296 17.7665 44.0283 16.6925C46.827 15.6185 63.6128 16.6925 65.3438 17.1221C67.0748 17.5517 68.1677 19.3143 67.5297 22.0371C66.8916 24.76 66.342 25.5939 66.9674 27.0028C67.5928 28.4116 68.2309 33.0803 68.1804 34.4512L68.1235 35.8221L68.0414 37.7174L68.8879 35.4367L68.6542 35.5125L69.4628 25.0506C69.4628 25.0506 77.7326 24.7347 77.7705 23.8756C77.8084 23.0164 74.3969 18.5625 74.3969 18.5625C74.3969 18.5625 84.5619 18.6825 85.2442 14.4181Z" fill="#100F00" stroke="#100F00" stroke-width="0.828007" stroke-linecap="round" stroke-linejoin="round"/>
<path d="M69.4502 17.1328C70.0906 17.4829 70.7582 17.7808 71.4466 18.0236" stroke="#454648" stroke-width="0.828007" stroke-linecap="round" stroke-linejoin="round"/>
<path d="M51.0029 12.0934C51.0029 12.0934 60.5425 16.2819 62.4504 15.7449C64.3583 15.2079 63.1327 11.3984 63.1327 11.3984C64.3772 13.1423 65.8863 14.6813 67.6055 15.9597" stroke="#454648" stroke-width="0.828007" stroke-linecap="round" stroke-linejoin="round"/>
<path d="M57.3906 30.0352L56.1271 35.3103C56.1271 35.3103 56.6262 39.461 57.0305 42.0575C57.2933 43.4924 57.1668 44.9715 56.6641 46.3408L49.7969 46.0376L58.294 47.8255L59.3933 45.4816L57.2706 35.0071L57.3906 30.0352Z" fill="#100F00" stroke="#100F00" stroke-width="0.828007" stroke-linecap="round" stroke-linejoin="round"/>
<path d="M46.9033 49.1758C47.7644 50.1556 48.9709 50.7645 50.2706 50.8752L56.4492 51.1469C56.9934 51.1262 57.5268 50.9886 58.013 50.7433C58.4992 50.498 58.9269 50.1508 59.2668 49.7254" stroke="#100F00" stroke-width="0.828007" stroke-linecap="round" stroke-linejoin="round"/>
<path d="M48.4197 33.3318C48.3818 34.0962 48.0344 34.7027 47.6363 34.6838C47.2383 34.6648 46.9414 34.052 47.0046 33.2686C47.0678 32.4853 47.39 31.8977 47.788 31.9104C48.186 31.923 48.4513 32.5674 48.4197 33.3318Z" fill="#100F00" stroke="#100F00" stroke-width="0.828007" stroke-linecap="round" stroke-linejoin="round"/>
<path d="M60.7953 33.8843C60.7637 34.6488 60.4099 35.2552 60.0119 35.2363C59.6139 35.2173 59.3233 34.6045 59.3802 33.8212C59.437 33.0378 59.7655 32.4502 60.1635 32.4692C60.5615 32.4881 60.8269 33.1199 60.7953 33.8843Z" fill="#100F00" stroke="#100F00" stroke-width="0.828007" stroke-linecap="round" stroke-linejoin="round"/>
<path d="M44.4141 27.9056C46.961 27.1196 49.7088 27.3041 52.1278 28.4236" stroke="#100F00" stroke-width="2.48402" stroke-linecap="round" stroke-linejoin="round"/>
<path d="M57.9648 28.6838C57.9648 28.6838 61.3132 26.9401 63.9665 29.1197" stroke="#100F00" stroke-width="2.48402" stroke-linecap="round" stroke-linejoin="round"/>
<path d="M63.3861 123.932C61.4454 122.638 59.6697 121.113 58.0983 119.39C57.7958 119.041 57.3806 118.808 56.9248 118.733C56.4689 118.658 56.0012 118.745 55.6028 118.979L54.4657 119.611C54.1373 119.799 53.8706 120.078 53.6979 120.414C53.5252 120.75 53.4539 121.13 53.4928 121.506C53.6065 122.77 53.9855 124.665 55.2048 125.872C56.3539 127.032 57.6672 128.018 59.1028 128.797L64.7507 126.655L63.3861 123.932Z" fill="white" stroke="#100F00" stroke-width="0.828007" stroke-linecap="round" stroke-linejoin="round"/>
<path d="M38.6336 123.933C38.6336 123.933 42.2409 121.577 44.2499 118.98C44.4397 118.74 44.7102 118.577 45.0111 118.521C45.312 118.465 45.623 118.521 45.8862 118.677L47.9268 119.852C48.1292 119.968 48.2954 120.139 48.407 120.344C48.5185 120.549 48.5709 120.781 48.5585 121.014C48.5017 122.208 48.1984 124.489 46.8086 125.879C45.6595 127.04 44.3461 128.025 42.9106 128.804L37.2627 126.662L38.6336 123.933Z" fill="white" stroke="#100F00" stroke-width="0.828007" stroke-linecap="round" stroke-linejoin="round"/>
<path d="M89.4012 156.521V126.664C89.4012 126.129 89.1888 125.617 88.8109 125.239C88.433 124.861 87.9204 124.648 87.3859 124.648H16.1993C15.9342 124.648 15.6714 124.699 15.4262 124.8C15.181 124.901 14.958 125.049 14.7702 125.236C14.5824 125.424 14.4334 125.646 14.3317 125.891C14.2301 126.136 14.1777 126.399 14.1777 126.664V156.521H89.4012Z" fill="#454648" stroke="#100F00" stroke-width="0.828007" stroke-linecap="round" stroke-linejoin="round"/>
<path d="M88.4035 124.92C88.1026 124.744 87.7604 124.65 87.4116 124.648H16.1998C15.8868 124.648 15.578 124.721 15.2982 124.861C15.0185 125.002 14.7755 125.206 14.5889 125.457C19.4092 129.513 44.6858 150.481 53.0945 150.803C61.7938 151.144 82.9577 130.391 88.4035 124.92Z" stroke="#100F00" stroke-width="0.828007" stroke-linecap="round" stroke-linejoin="round"/>
<path d="M57.0933 143.371H48.9941V156.328H57.0933V143.371Z" fill="#100F00" stroke="#100F00" stroke-width="0.828007" stroke-linecap="round" stroke-linejoin="round"/>
<path d="M39.3477 116.668H36.808C36.009 116.668 35.3613 117.316 35.3613 118.115V126.738C35.3613 127.537 36.009 128.185 36.808 128.185H39.3477C40.1467 128.185 40.7945 127.537 40.7945 126.738V118.115C40.7945 117.316 40.1467 116.668 39.3477 116.668Z" fill="white" stroke="#100F00" stroke-width="0.828007" stroke-linecap="round" stroke-linejoin="round"/>
<path d="M36.2012 128.077C36.3712 128.148 36.5538 128.185 36.7382 128.184H39.4168C39.6366 128.186 39.8534 128.134 40.0486 128.033V124.754H36.2201L36.2012 128.077Z" stroke="#100F00" stroke-width="0.828007" stroke-linecap="round" stroke-linejoin="round"/>
<path d="M36.5869 120.453H39.4551" stroke="#100F00" stroke-width="0.828007" stroke-linecap="round" stroke-linejoin="round"/>
<path d="M37.1611 119.429C37.5608 119.263 37.9938 119.194 38.4252 119.227C38.8565 119.26 39.274 119.394 39.6439 119.618" stroke="#100F00" stroke-width="0.828007" stroke-linecap="round" stroke-linejoin="round"/>
<path d="M27.6847 116.668H25.145C24.346 116.668 23.6982 117.316 23.6982 118.115V126.738C23.6982 127.537 24.346 128.185 25.145 128.185H27.6847C28.4837 128.185 29.1314 127.537 29.1314 126.738V118.115C29.1314 117.316 28.4837 116.668 27.6847 116.668Z" fill="white" stroke="#100F00" stroke-width="0.828007" stroke-linecap="round" stroke-linejoin="round"/>
<path d="M24.5391 128.077C24.7091 128.148 24.8917 128.185 25.0761 128.184H27.7547C27.9747 128.188 28.192 128.136 28.3865 128.033V124.754H24.5959L24.5391 128.077Z" stroke="#100F00" stroke-width="0.828007" stroke-linecap="round" stroke-linejoin="round"/>
<path d="M24.9248 120.453H27.793" stroke="#100F00" stroke-width="0.828007" stroke-linecap="round" stroke-linejoin="round"/>
<path d="M25.4932 119.429C25.8939 119.263 26.3279 119.194 26.7603 119.227C27.1927 119.26 27.6112 119.394 27.9823 119.618" stroke="#100F00" stroke-width="0.828007" stroke-linecap="round" stroke-linejoin="round"/>
<path d="M21.4689 118.859H19.9653C19.1663 118.859 18.5186 119.507 18.5186 120.306V126.737C18.5186 127.536 19.1663 128.184 19.9653 128.184H21.4689C22.2679 128.184 22.9156 127.536 22.9156 126.737V120.306C22.9156 119.507 22.2679 118.859 21.4689 118.859Z" fill="white" stroke="#100F00" stroke-width="0.828007" stroke-linecap="round" stroke-linejoin="round"/>
<path d="M19.2002 128.098C19.3359 128.156 19.4821 128.186 19.6298 128.186H21.803C21.974 128.182 22.1422 128.141 22.2958 128.066V125.406H19.2002V128.098Z" stroke="#100F00" stroke-width="0.828007" stroke-linecap="round" stroke-linejoin="round"/>
<path d="M19.5098 121.918H21.8283" stroke="#100F00" stroke-width="0.828007" stroke-linecap="round" stroke-linejoin="round"/>
<path d="M19.9717 121.07C20.2959 120.935 20.6473 120.878 20.9974 120.905C21.3476 120.931 21.6866 121.039 21.987 121.221" stroke="#100F00" stroke-width="0.828007" stroke-linecap="round" stroke-linejoin="round"/>
<path d="M33.3262 115.156H30.7866C29.9876 115.156 29.3398 115.804 29.3398 116.603V126.736C29.3398 127.535 29.9876 128.183 30.7866 128.183H33.3262C34.1252 128.183 34.7729 127.535 34.7729 126.736V116.603C34.7729 115.804 34.1252 115.156 33.3262 115.156Z" fill="white" stroke="#100F00" stroke-width="0.828007" stroke-linecap="round" stroke-linejoin="round"/>
<path d="M30.1807 128.077C30.3485 128.148 30.529 128.185 30.7113 128.184H33.3963C33.6163 128.188 33.8336 128.136 34.0281 128.033V124.754H30.2059L30.1807 128.077Z" stroke="#100F00" stroke-width="0.828007" stroke-linecap="round" stroke-linejoin="round"/>
<path d="M30.5596 120.453H33.4341" stroke="#100F00" stroke-width="0.828007" stroke-linecap="round" stroke-linejoin="round"/>
<path d="M31.1348 119.429C31.5355 119.263 31.9695 119.194 32.4019 119.227C32.8343 119.26 33.2529 119.394 33.6239 119.618" stroke="#100F00" stroke-width="0.828007" stroke-linecap="round" stroke-linejoin="round"/>
<path d="M63.5566 128.184H66.0963C66.8953 128.184 67.543 127.536 67.543 126.737V118.113C67.543 117.314 66.8953 116.667 66.0963 116.667H63.5566C62.7576 116.667 62.1099 117.314 62.1099 118.113V126.737C62.1099 127.536 62.7576 128.184 63.5566 128.184Z" fill="white" stroke="#100F00" stroke-width="0.828007" stroke-linecap="round" stroke-linejoin="round"/>
<path d="M66.7019 128.077C66.5318 128.148 66.3493 128.185 66.1649 128.184H63.4863C63.2663 128.188 63.049 128.136 62.8545 128.033V124.754H66.645L66.7019 128.077Z" stroke="#100F00" stroke-width="0.828007" stroke-linecap="round" stroke-linejoin="round"/>
<path d="M66.3174 120.453H63.4492" stroke="#100F00" stroke-width="0.828007" stroke-linecap="round" stroke-linejoin="round"/>
<path d="M65.7489 119.429C65.3482 119.263 64.9141 119.194 64.4817 119.227C64.0494 119.26 63.6308 119.394 63.2598 119.618" stroke="#100F00" stroke-width="0.828007" stroke-linecap="round" stroke-linejoin="round"/>
<path d="M75.2187 128.184H77.7583C78.5574 128.184 79.2051 127.536 79.2051 126.737V118.113C79.2051 117.314 78.5574 116.667 77.7583 116.667H75.2187C74.4197 116.667 73.772 117.314 73.772 118.113V126.737C73.772 127.536 74.4197 128.184 75.2187 128.184Z" fill="white" stroke="#100F00" stroke-width="0.828007" stroke-linecap="round" stroke-linejoin="round"/>
<path d="M78.3649 128.077C78.1971 128.148 78.0166 128.185 77.8342 128.184H75.1366C74.9167 128.187 74.6996 128.135 74.5049 128.033V124.754H78.327L78.3649 128.077Z" stroke="#100F00" stroke-width="0.828007" stroke-linecap="round" stroke-linejoin="round"/>
<path d="M77.9854 120.453H75.1172" stroke="#100F00" stroke-width="0.828007" stroke-linecap="round" stroke-linejoin="round"/>
<path d="M77.411 119.429C77.0103 119.263 76.5762 119.194 76.1438 119.227C75.7115 119.26 75.2929 119.394 74.9219 119.618" stroke="#100F00" stroke-width="0.828007" stroke-linecap="round" stroke-linejoin="round"/>
<path d="M81.4413 128.18H82.9449C83.7439 128.18 84.3916 127.532 84.3916 126.733V120.302C84.3916 119.503 83.7439 118.855 82.9449 118.855H81.4413C80.6423 118.855 79.9946 119.503 79.9946 120.302V126.733C79.9946 127.532 80.6423 128.18 81.4413 128.18Z" fill="white" stroke="#100F00" stroke-width="0.828007" stroke-linecap="round" stroke-linejoin="round"/>
<path d="M83.7089 128.098C83.5711 128.156 83.4228 128.187 83.273 128.186H81.1061C80.9349 128.184 80.7664 128.143 80.6133 128.066V125.406H83.7089V128.098Z" stroke="#100F00" stroke-width="0.828007" stroke-linecap="round" stroke-linejoin="round"/>
<path d="M83.4001 121.918H81.0752" stroke="#100F00" stroke-width="0.828007" stroke-linecap="round" stroke-linejoin="round"/>
<path d="M82.9318 121.069C82.6087 120.935 82.2583 120.878 81.9092 120.905C81.5601 120.931 81.2221 121.039 80.9229 121.221" stroke="#100F00" stroke-width="0.828007" stroke-linecap="round" stroke-linejoin="round"/>
<path d="M69.5771 128.18H72.1168C72.9158 128.18 73.5635 127.532 73.5635 126.733V116.6C73.5635 115.801 72.9158 115.153 72.1168 115.153H69.5771C68.7781 115.153 68.1304 115.801 68.1304 116.6V126.733C68.1304 127.532 68.7781 128.18 69.5771 128.18Z" fill="white" stroke="#100F00" stroke-width="0.828007" stroke-linecap="round" stroke-linejoin="round"/>
<path d="M72.7229 128.077C72.5551 128.148 72.3746 128.185 72.1922 128.184H69.5136C69.2937 128.187 69.0767 128.135 68.8818 128.033V124.754H72.704L72.7229 128.077Z" stroke="#100F00" stroke-width="0.828007" stroke-linecap="round" stroke-linejoin="round"/>
<path d="M72.3438 120.453H69.4756" stroke="#100F00" stroke-width="0.828007" stroke-linecap="round" stroke-linejoin="round"/>
<path d="M71.769 119.429C71.3693 119.263 70.9362 119.194 70.5049 119.227C70.0736 119.26 69.656 119.394 69.2861 119.618" stroke="#100F00" stroke-width="0.828007" stroke-linecap="round" stroke-linejoin="round"/>
</svg>
