<svg width="24" height="25" viewBox="0 0 24 25" fill="none" xmlns="http://www.w3.org/2000/svg">
<g opacity="0.4">
<path d="M4.92843 24.7198H0.220019C0.161666 24.7198 0.105704 24.7005 0.064442 24.666C0.0231804 24.6315 0 24.5848 0 24.536V15.4455C0 15.3968 0.0231804 15.35 0.064442 15.3156C0.105704 15.2811 0.161666 15.2617 0.220019 15.2617H4.92843C4.98678 15.2617 5.04275 15.2811 5.08401 15.3156C5.12527 15.35 5.14845 15.3968 5.14845 15.4455V24.536C5.14845 24.5848 5.12527 24.6315 5.08401 24.666C5.04275 24.7005 4.98678 24.7198 4.92843 24.7198ZM0.453241 24.3522H4.70841V15.6293H0.440038L0.453241 24.3522Z" fill="#454648"/>
<path d="M11.2033 24.7177H6.50811C6.44975 24.7177 6.39379 24.6984 6.35253 24.6639C6.31127 24.6294 6.28809 24.5827 6.28809 24.5339V10.7971C6.28809 10.7483 6.31127 10.7016 6.35253 10.6671C6.39379 10.6326 6.44975 10.6133 6.50811 10.6133H11.2033C11.2617 10.6133 11.3176 10.6326 11.3589 10.6671C11.4002 10.7016 11.4233 10.7483 11.4233 10.7971V24.5339C11.4233 24.5827 11.4002 24.6294 11.3589 24.6639C11.3176 24.6984 11.2617 24.7177 11.2033 24.7177ZM6.72812 24.3501H10.9833V10.9809H6.72812V24.3501Z" fill="#454648"/>
<path d="M17.4919 24.7182H12.7923C12.7339 24.7182 12.678 24.6989 12.6367 24.6644C12.5954 24.6299 12.5723 24.5832 12.5723 24.5344V4.94551C12.5723 4.89677 12.5954 4.85002 12.6367 4.81555C12.678 4.78109 12.7339 4.76172 12.7923 4.76172H17.4919C17.5502 4.76172 17.6062 4.78109 17.6475 4.81555C17.6887 4.85002 17.7119 4.89677 17.7119 4.94551V24.5418C17.7096 24.5892 17.6855 24.6341 17.6444 24.667C17.6034 24.6999 17.5488 24.7183 17.4919 24.7182ZM13.0123 24.3506H17.2719V5.12196H13.0123V24.3506Z" fill="#454648"/>
<path d="M23.78 24.7188H19.0804C19.022 24.7188 18.9661 24.6994 18.9248 24.6649C18.8835 24.6305 18.8604 24.5837 18.8604 24.535V0.902545C18.8604 0.8538 18.8835 0.807051 18.9248 0.772582C18.9661 0.738114 19.022 0.71875 19.0804 0.71875H23.78C23.8383 0.71875 23.8943 0.738114 23.9356 0.772582C23.9768 0.807051 24 0.8538 24 0.902545V24.5386C23.9988 24.5867 23.9752 24.6325 23.934 24.6662C23.8929 24.6999 23.8376 24.7188 23.78 24.7188ZM19.3004 24.3512H23.56V1.08266H19.3004V24.3512Z" fill="#454648"/>
</g>
</svg>
