<svg width="68" height="73" viewBox="0 0 68 73" fill="none" xmlns="http://www.w3.org/2000/svg">
<g opacity="0.2">
<path d="M1.60986 32.2383C1.39487 33.6098 1.24659 35.0036 1.16504 36.3899" stroke="white" stroke-linecap="round" stroke-linejoin="round"/>
<path d="M33.3776 5.78072C18.8913 5.40263 5.42811 14.6326 2.24023 29.1263" stroke="white" stroke-linecap="round" stroke-linejoin="round"/>
<path d="M30.7898 1.6435C30.7898 1.6435 9.89816 -3.27176 2.06934 10.5844" stroke="white" stroke-linecap="round" stroke-linejoin="round"/>
<path d="M47.7373 25.7812C48.9971 27.5745 50.5133 29.1731 52.2374 30.526" stroke="white" stroke-linecap="round" stroke-linejoin="round"/>
<path d="M39.4492 4.34766C40.5168 10.9839 42.7613 17.376 46.077 23.2228" stroke="white" stroke-linecap="round" stroke-linejoin="round"/>
<path d="M60.437 67.1875C60.0664 68.8482 59.6289 70.494 59.1396 72.125" stroke="white" stroke-linecap="round" stroke-linejoin="round"/>
<path d="M59.2285 39.5781C62.6166 47.103 62.3867 56.4664 60.993 64.3842" stroke="white" stroke-linecap="round" stroke-linejoin="round"/>
<path d="M56.7454 52.6562C56.9107 55.5062 56.471 58.359 55.4552 61.0269C54.4394 63.6949 52.8705 66.1176 50.8516 68.136" stroke="white" stroke-linecap="round" stroke-linejoin="round"/>
<path d="M47.1152 6.77344C50.6664 11.5775 53.3056 16.73 57.4202 21.1189C61.7572 25.7376 66.0942 31.0309 66.9097 37.5401" stroke="white" stroke-linecap="round" stroke-linejoin="round"/>
<path d="M42.1035 1.77734C43.1207 2.44422 44.0563 3.228 44.8911 4.11265" stroke="white" stroke-linecap="round" stroke-linejoin="round"/>
</g>
</svg>
