<svg width="67" height="68" viewBox="0 0 67 68" fill="none" xmlns="http://www.w3.org/2000/svg">
<g clip-path="url(#clip0_434_5422)">
<path d="M0 34.4414V67.9414H33.5H67V34.4414V0.941406H33.5H0V34.4414ZM45.7074 25.3227C48.9904 25.8855 51.5431 28.0228 52.5615 31.0579C52.9568 32.2237 53.0238 32.7396 53.0238 34.4079C53.0238 36.0762 52.9501 36.6055 52.5615 37.7579C51.3622 41.3357 48.0323 43.6204 44.019 43.6204C39.9253 43.6204 36.6222 41.3156 35.4095 37.6239C34.8065 35.7747 34.8065 33.0411 35.4095 31.1919C36.4279 28.0831 38.9739 25.9123 42.277 25.3294C43.2552 25.1552 44.7091 25.1552 45.7074 25.3227ZM22.8269 25.3361C23.316 25.517 23.6108 26.0329 23.6108 26.7029C23.6108 27.6543 23.182 28.0831 21.9693 28.3511C20.9174 28.5789 20.2809 28.8469 19.5238 29.3829C16.9979 31.1852 16.3346 35.2588 18.1302 37.9656C19.2089 39.587 20.837 40.4446 22.981 40.525C24.857 40.5853 26.3779 40.056 27.5839 38.9036C28.7564 37.7981 29.3661 36.4916 29.3661 35.1114C29.3661 34.0394 29.0043 33.3694 28.2204 32.9875C27.8854 32.8267 27.7782 32.8066 27.1752 32.8066C25.3595 32.8133 24.1267 33.6575 23.6912 35.1784C23.6309 35.3794 23.5572 35.8819 23.5237 36.2906C23.4835 36.6993 23.4165 37.1214 23.3763 37.2286C23.2423 37.5368 22.9743 37.7847 22.6996 37.8651C22.1703 38.0058 21.2859 37.6976 20.9777 37.2621C20.5422 36.6457 20.6628 35.1114 21.2457 33.8518C21.5874 33.1081 21.976 32.5721 22.6192 31.9624C24.0128 30.6425 25.7012 29.9591 27.6241 29.9524C28.5688 29.9524 29.2388 30.0931 29.9825 30.4549C32.1667 31.5068 32.9774 34.2404 32.026 37.3224C31.6307 38.6088 30.8937 39.8416 29.9021 40.8801C28.5219 42.3139 26.7933 43.205 24.7565 43.5333C23.8654 43.674 21.9425 43.6204 21.0715 43.4328C17.8086 42.7226 15.4435 40.5183 14.5122 37.309C13.9494 35.366 14.0231 32.9741 14.7065 31.0914C15.477 28.9675 17.018 27.2054 18.9744 26.2138C20.3345 25.5237 22.1971 25.0949 22.8269 25.3361Z" fill="#FFF001"/>
<path d="M43.0471 28.3246C42.5781 28.3916 41.7406 28.6395 41.2984 28.8405C39.6167 29.6177 38.4911 31.0515 38.0824 32.9342C37.9283 33.6645 37.9283 35.1519 38.0824 35.8822C38.5715 38.1468 40.1192 39.7615 42.3436 40.3377C43.0471 40.5253 44.3134 40.5856 45.0169 40.4784C46.2631 40.2841 47.4289 39.728 48.2798 38.9106C49.5059 37.7448 50.0687 36.3378 50.0687 34.4082C50.0687 33.363 49.9615 32.7198 49.6399 31.8957C49.2245 30.817 48.2932 29.7249 47.2681 29.1286C46.7053 28.7936 45.7539 28.4586 45.0906 28.3514C44.6752 28.2844 43.4625 28.2643 43.0471 28.3246Z" fill="#FFF001"/>
<path d="M43.1417 25.2592C40.9307 25.4669 38.9542 26.3647 37.5204 27.8052C36.2742 29.0581 35.4702 30.646 35.1352 32.5287C34.9744 33.4533 34.9744 35.3561 35.1352 36.2807C35.5774 38.7396 36.8437 40.7496 38.7599 42.0226C40.3344 43.0745 42.0228 43.5703 44.0194 43.5703C45.1584 43.5703 46.0227 43.4363 47.021 43.108C50.572 41.9489 52.7361 39.0746 52.9974 35.1685C53.2989 30.579 51.0477 27.0146 47.0076 25.6947C45.8351 25.3128 44.341 25.1453 43.1417 25.2592ZM45.6207 28.4082C45.9289 28.4819 46.4314 28.6628 46.7329 28.8035C48.3275 29.5539 49.366 30.7532 49.8886 32.4684C50.0628 33.0312 50.0762 33.1384 50.0762 34.3712C50.0762 35.9122 49.9891 36.3276 49.4464 37.4331C48.7295 38.887 47.3158 39.9791 45.5872 40.4146C44.6961 40.6357 43.2355 40.6223 42.331 40.3811C39.5371 39.6374 37.9224 37.4465 37.9224 34.4047C37.9224 31.0413 39.8587 28.7767 43.1819 28.2474C43.6375 28.1804 45.0713 28.2675 45.6207 28.4082Z" fill="#454648"/>
<path d="M21.5338 25.3947C20.2675 25.6493 19.028 26.1518 18.023 26.8218C17.3798 27.2506 16.2609 28.3695 15.8321 29.0127C13.6345 32.2957 13.6211 36.6306 15.7919 39.9203C16.5222 41.0191 17.9091 42.205 19.1084 42.741C21.5271 43.8197 24.6292 43.8666 26.9943 42.8482C30.15 41.5015 32.361 38.2185 32.361 34.902C32.361 31.6458 30.2505 29.7162 27.0211 30.0244C25.3327 30.1852 23.8855 30.8284 22.6795 31.9741C21.3931 33.1868 20.7097 34.7613 20.7834 36.3157C20.8035 36.8115 20.837 36.9455 20.9911 37.1733C21.2457 37.5686 21.8018 37.8232 22.3914 37.8232C22.7934 37.8232 22.8604 37.8031 23.0413 37.6289C23.3026 37.381 23.4299 36.9723 23.4835 36.2152C23.5438 35.4514 23.6778 34.9087 23.9324 34.4263C24.321 33.6893 25.1585 33.0796 26.0764 32.8652C26.6459 32.7312 27.6911 32.7379 28.0931 32.8719C28.5152 33.0126 28.9641 33.4347 29.1919 33.8903C29.3661 34.2521 29.3795 34.3258 29.3795 35.1432C29.3795 35.9472 29.3661 36.0611 29.1718 36.5971C28.8904 37.3877 28.4884 38.0376 27.9122 38.6406C26.7531 39.8667 25.3528 40.4898 23.5773 40.5836C20.5288 40.7377 18.1838 39.123 17.3061 36.2688C17.1386 35.7261 17.1252 35.5854 17.1252 34.4732C17.1185 33.4146 17.1386 33.2002 17.2726 32.6977C17.9091 30.3661 19.5506 28.7916 21.842 28.3293C22.6125 28.1752 22.9877 28.0077 23.2423 27.6995C23.8855 26.9089 23.5706 25.5823 22.6795 25.3344C22.3445 25.2406 22.2909 25.2473 21.5338 25.3947Z" fill="#454648"/>
</g>
<defs>
<clipPath id="clip0_434_5422">
<rect y="0.941406" width="67" height="67" rx="33.5" fill="white"/>
</clipPath>
</defs>
</svg>
