<svg width="344" height="43" viewBox="0 0 344 43" fill="none" xmlns="http://www.w3.org/2000/svg">
<path d="M288.829 36.6615C288.334 36.3264 288.205 35.6538 288.54 35.159L293.999 27.0964C294.334 26.6016 295.007 26.4722 295.502 26.8072C295.997 27.1422 296.126 27.8149 295.791 28.3097L290.938 35.4764L298.105 40.3295C298.6 40.6645 298.729 41.3372 298.394 41.832C298.059 42.3267 297.386 42.4562 296.891 42.1212L288.829 36.6615ZM341.187 1.30004C341.34 0.722446 341.932 0.378276 342.51 0.531314C343.088 0.684352 343.432 1.27664 343.279 1.85424L341.187 1.30004ZM292.401 34.0298C292.983 33.8954 293.564 34.2583 293.698 34.8405C293.833 35.4227 293.47 36.0037 292.888 36.1381L292.401 34.0298ZM299.296 34.4524C298.723 34.6208 298.122 34.2925 297.953 33.7192C297.785 33.1459 298.113 32.5446 298.687 32.3763L299.296 34.4524ZM304.885 30.3728C305.448 30.1737 306.066 30.4691 306.265 31.0324C306.464 31.5958 306.169 32.2139 305.606 32.413L304.885 30.3728ZM311.792 30.0303C311.241 30.261 310.607 30.0013 310.376 29.4502C310.145 28.899 310.405 28.2651 310.956 28.0343L311.792 30.0303ZM316.867 25.3378C317.402 25.0719 318.051 25.2901 318.317 25.8252C318.583 26.3603 318.365 27.0096 317.83 27.2755L316.867 25.3378ZM323.671 24.0938C323.158 24.4006 322.494 24.2335 322.187 23.7207C321.88 23.2079 322.047 22.5436 322.56 22.2368L323.671 24.0938ZM327.942 18.6638C328.422 18.3082 329.1 18.4092 329.455 18.8894C329.811 19.3696 329.71 20.0471 329.23 20.4027L327.942 18.6638ZM334.361 16.0889C333.931 16.5035 333.246 16.4909 332.831 16.0606C332.417 15.6304 332.429 14.9455 332.859 14.5308L334.361 16.0889ZM337.062 9.74625C337.414 9.26292 338.09 9.15589 338.574 9.5072C339.057 9.85852 339.164 10.5351 338.813 11.0185L337.062 9.74625ZM342.175 5.10048C341.944 5.65194 341.311 5.91251 340.759 5.68247C340.208 5.45242 339.947 4.81888 340.177 4.26742L342.175 5.10048ZM289.231 34.7032C290.22 34.5129 291.28 34.2886 292.401 34.0298L292.888 36.1381C291.743 36.4025 290.656 36.6324 289.64 36.828L289.231 34.7032ZM298.687 32.3763C300.677 31.7918 302.758 31.1244 304.885 30.3728L305.606 32.413C303.44 33.1781 301.323 33.8574 299.296 34.4524L298.687 32.3763ZM310.956 28.0343C312.935 27.2057 314.916 26.3071 316.867 25.3378L317.83 27.2755C315.834 28.2674 313.81 29.1853 311.792 30.0303L310.956 28.0343ZM322.56 22.2368C324.432 21.1172 326.237 19.9263 327.942 18.6638L329.23 20.4027C327.461 21.7123 325.596 22.9421 323.671 24.0938L322.56 22.2368ZM332.859 14.5308C334.432 13.0156 335.845 11.4208 337.062 9.74625L338.813 11.0185C337.512 12.8083 336.012 14.4977 334.361 16.0889L332.859 14.5308ZM340.177 4.26742C340.581 3.30078 340.919 2.31178 341.187 1.30004L343.279 1.85424C342.985 2.9645 342.614 4.04657 342.175 5.10048L340.177 4.26742Z" fill="white" fill-opacity="0.8"/>
<path d="M54.4002 36.8629C54.8962 36.5298 55.0282 35.8576 54.695 35.3616L49.2654 27.2787C48.9322 26.7827 48.26 26.6507 47.764 26.9839C47.268 27.317 47.136 27.9892 47.4692 28.4852L52.2955 35.67L45.1107 40.4963C44.6147 40.8295 44.4827 41.5017 44.8159 41.9977C45.1491 42.4937 45.8213 42.6257 46.3173 42.2925L54.4002 36.8629ZM2.17419 1.30652C2.02331 0.728357 1.4323 0.381981 0.85414 0.532864C0.275982 0.683747 -0.0703978 1.27475 0.0804853 1.85291L2.17419 1.30652ZM50.8383 34.218C50.2567 34.0814 49.6743 34.4421 49.5377 35.0238C49.4011 35.6055 49.7618 36.1879 50.3435 36.3245L50.8383 34.218ZM43.941 34.6149C44.5137 34.7854 45.1162 34.4594 45.2867 33.8867C45.4572 33.314 45.1311 32.7115 44.5584 32.541L43.941 34.6149ZM38.3681 30.5145C37.8054 30.3133 37.1862 30.6063 36.9851 31.1689C36.7839 31.7316 37.0769 32.3508 37.6395 32.552L38.3681 30.5145ZM31.4623 30.1462C32.0125 30.379 32.6474 30.1216 32.8802 29.5713C33.1131 29.021 32.8557 28.3862 32.3054 28.1534L31.4623 30.1462ZM26.4047 25.4348C25.8706 25.1669 25.2204 25.3827 24.9525 25.9168C24.6846 26.4509 24.9004 27.101 25.4345 27.3689L26.4047 25.4348ZM19.6054 24.1655C20.117 24.4741 20.782 24.3095 21.0906 23.7979C21.3993 23.2862 21.2347 22.6213 20.723 22.3126L19.6054 24.1655ZM15.3544 18.7195C14.8756 18.3621 14.1976 18.4606 13.8403 18.9395C13.4829 19.4184 13.5814 20.0963 14.0603 20.4537L15.3544 18.7195ZM8.94515 16.1207C9.37383 16.5369 10.0588 16.5269 10.475 16.0982C10.8913 15.6695 10.8812 14.9845 10.4525 14.5683L8.94515 16.1207ZM6.26737 9.76805C5.91786 9.28341 5.24165 9.17386 4.75701 9.52337C4.27236 9.87288 4.16282 10.5491 4.51233 11.0337L6.26737 9.76805ZM1.17263 5.10325C1.40062 5.65557 2.03318 5.91849 2.5855 5.69051C3.13782 5.46252 3.40074 4.82996 3.17276 4.27764L1.17263 5.10325ZM54.0053 34.9032C53.0174 34.7092 51.9578 34.481 50.8383 34.218L50.3435 36.3245C51.4873 36.5932 52.5729 36.8271 53.5884 37.0265L54.0053 34.9032ZM44.5584 32.541C42.5703 31.9491 40.4921 31.2739 38.3681 30.5145L37.6395 32.552C39.8018 33.3251 41.9171 34.0123 43.941 34.6149L44.5584 32.541ZM32.3054 28.1534C30.3296 27.3174 28.3517 26.4114 26.4047 25.4348L25.4345 27.3689C27.4268 28.3683 29.4474 29.2936 31.4623 30.1462L32.3054 28.1534ZM20.723 22.3126C18.8553 21.186 17.0547 19.9884 15.3544 18.7195L14.0603 20.4537C15.8239 21.7698 17.6842 23.0066 19.6054 24.1655L20.723 22.3126ZM10.4525 14.5683C8.88597 13.0472 7.47823 11.4471 6.26737 9.76805L4.51233 11.0337C5.80658 12.8284 7.3001 14.5233 8.94515 16.1207L10.4525 14.5683ZM3.17276 4.27764C2.77314 3.30951 2.43848 2.31925 2.17419 1.30652L0.0804853 1.85291C0.370513 2.96426 0.736925 4.04771 1.17263 5.10325L3.17276 4.27764Z" fill="white" fill-opacity="0.8"/>
</svg>
