<svg width="65" height="286" viewBox="0 0 65 286" fill="none" xmlns="http://www.w3.org/2000/svg">
<path d="M30.7269 173.918L33.3048 261.778L36.0708 261.028L36.7394 193.818L38.458 193.068L49.2449 195.698C49.8119 195.196 50.3857 194.819 50.9634 194.568C51.3448 194.568 51.8227 190.438 49.5321 186.688C47.2415 182.938 31.3853 170.918 31.0142 170.918C30.643 170.918 30.7269 173.918 30.7269 173.918Z" fill="white" stroke="white" stroke-linecap="round" stroke-linejoin="round"/>
<path d="M45.7137 161.49C45.7137 161.49 35.7988 148.58 26.1381 156.99C25.3475 157.68 23.6543 236.99 23.6543 236.99L26.2322 239.99L30.2413 177.28C30.2413 177.28 47.0407 196.43 50.4779 194.55C53.9151 192.67 45.7137 161.49 45.7137 161.49Z" fill="white" stroke="white" stroke-linecap="round" stroke-linejoin="round"/>
<path d="M48.4824 29.0002C48.4824 29.0002 47.7198 36.8802 47.7198 40.6302C47.7429 43.1751 47.8941 45.6767 48.1647 47.9902C48.1647 47.9902 46.6673 54.3802 46.9444 56.8002C47.1147 58.3102 47.8774 58.8702 47.8774 58.8702C47.8774 58.8702 48.546 72.7502 49.118 73.5002C49.69 74.2502 52.0772 72.3702 52.0772 72.3702L51.6705 91.3702L56.4067 75.5502L56.0254 63.5502C56.0254 63.5502 57.1694 57.1602 58.5067 49.6602C59.8439 42.1602 59.0787 30.1302 58.316 24.5002C57.5533 18.8702 51.7289 7.23018 47.8164 26.3802L48.4824 29.0002Z" fill="#100F00" stroke="white" stroke-linecap="round" stroke-linejoin="round"/>
<path d="M63.9262 35.3197C63.8041 33.6297 65.1515 33.1497 64.6609 29.0497C64.1702 24.9497 62.7008 25.1997 62.7643 22.3097C62.8279 19.4197 63.3135 19.6597 62.4567 16.5197C61.6 13.3797 60.9313 15.0797 60.6771 11.9497C60.4229 8.81973 60.25 5.67973 60.25 5.67973L59.6983 3.99972C59.3348 2.88972 58.9992 3.99972 58.8111 4.82972C58.3026 5.47972 57.8348 8.07972 57.362 7.82972C56.6603 7.48972 56.4849 0.249732 55.0739 0.589732C53.663 0.929732 54.1994 9.89973 53.6731 9.20973C53.1469 8.51973 52.0944 5.75972 50.6936 7.13972C49.2928 8.51972 50.6936 13.6897 50.1673 13.3497C49.6411 13.0097 46.5751 10.5897 46.3107 13.6897C46.0463 16.7897 47.9759 20.9297 47.9759 20.9297C47.9759 20.9297 45.609 18.1697 46.3107 23.3397C46.5332 24.8756 46.8441 26.1849 47.2185 27.1626C47.5929 28.1403 48.0203 28.7593 48.4665 28.9697C48.4665 28.9697 47.5259 30.3397 47.9072 32.0297C48.2377 33.4897 49.3182 33.8297 49.6004 33.8897L49.6512 34.0997C49.5597 34.9997 49.2572 38.7497 50.386 39.9097C50.691 40.2197 50.9402 40.4197 51.1486 40.5497L51.319 41.2897C51.2104 42.2885 51.1212 43.3181 51.052 44.3697C50.8766 47.4697 52.2774 49.1997 52.8037 49.1997C53.3299 49.1997 53.7672 56.0897 53.3299 58.1997C53.2831 58.4239 53.2481 58.6828 53.2272 58.9611C53.2062 59.2393 53.1997 59.5313 53.2079 59.8197C53.1265 60.1697 53.0579 60.4497 53.0223 60.6397C52.7681 61.8397 52.5317 65.9397 52.8367 66.6397C53.1418 67.3397 54.3621 66.6397 54.3621 66.6397C54.3621 66.6397 54.5451 72.4197 55.0968 72.9097C55.6485 73.3997 56.0756 71.2197 56.2612 69.5297C56.4468 67.8397 56.9349 71.9397 57.6696 71.4597C58.4043 70.9797 58.7094 68.8097 58.956 67.1197C59.2026 65.4297 59.4441 68.5697 60.6085 67.5997C61.7728 66.6297 61.2822 59.8897 61.2822 59.8897C61.2822 59.8897 62.3855 62.2997 62.9982 60.3797C63.6109 58.4597 63.794 54.1097 63.855 51.2197C63.916 48.3297 64.8973 51.9397 64.8973 46.6397C64.8973 41.3397 64.0533 36.9997 63.9262 35.3197Z" fill="white"/>
<path d="M52.0738 72.3678L53.4034 71.0078L51.9746 80.9978L52.0738 72.3678Z" fill="white" stroke="white" stroke-linecap="round" stroke-linejoin="round"/>
<path d="M49.3229 48.0405C49.3229 49.3205 49.2085 50.3605 49.0687 50.3605C48.9289 50.3605 48.8145 49.3605 48.8145 48.0405C48.8145 46.7205 48.9289 45.7305 49.0687 45.7305C49.2085 45.7305 49.3229 46.7705 49.3229 48.0405Z" fill="white"/>
<path d="M48.7363 42.26C48.7363 42.26 49.2448 41.4 49.8371 43.42" stroke="white" stroke-linecap="round" stroke-linejoin="round"/>
<path d="M48.7007 124.551L38.4273 127.821L35.1223 126.611C35.1223 126.611 30.5742 132.691 31.4615 133.861C32.091 134.526 32.755 134.498 33.3809 133.781C34.2359 135.116 35.1457 135.828 36.0655 135.881C36.8131 135.852 37.5568 135.459 38.2798 134.711L49.7405 141.491L48.7007 124.551Z" fill="white" stroke="white" stroke-linecap="round" stroke-linejoin="round"/>
<path d="M56.2134 73.2986C56.2134 73.2986 50.295 95.8286 49.3492 101.459C48.4035 107.089 48.0146 111.969 48.0146 116.849C48.0146 121.729 48.8738 132.619 48.8738 132.619L47.7273 148.769L44.3867 160.769L49.6365 193.769C49.6365 193.769 52.0237 195.649 53.6457 191.899C55.2677 188.149 56.2998 172.049 56.2998 164.159C56.2998 156.269 55.9185 139.379 55.9185 139.379C55.9185 139.379 58.115 112.379 58.7836 102.209C59.4523 92.0386 59.5463 83.0586 58.8777 78.2086C58.2091 73.3586 57.1668 70.6686 56.2134 73.2986Z" fill="#100F00" stroke="white" stroke-linecap="round" stroke-linejoin="round"/>
<path d="M49.3388 101.488C49.148 102.608 48.9724 103.766 48.8125 104.958C51.3217 106.328 54.7564 108.438 58.1401 111.268C58.2723 109.508 58.3944 107.838 58.5062 106.268C55.3131 103.588 52.0768 101.548 49.5854 100.148C49.4862 100.658 49.4023 101.088 49.3388 101.488Z" fill="#100F00" stroke="white" stroke-linecap="round" stroke-linejoin="round"/>
<path d="M58.8701 100.941C58.9769 99.2206 59.0658 97.5306 59.137 95.8906L52.2246 88.8906C51.8636 90.3406 51.5127 91.7806 51.1797 93.1506L58.8701 100.941Z" fill="#100F00" stroke="white" stroke-linecap="round" stroke-linejoin="round"/>
<path d="M56.0914 137.35L56.4956 132.3C53.989 131.58 51.2357 130.77 48.668 130C48.7798 131.58 48.8637 132.62 48.8637 132.62L48.6832 135.17C51.1111 135.9 53.7017 136.66 56.0914 137.35Z" fill="#100F00" stroke="white" stroke-linecap="round" stroke-linejoin="round"/>
<path d="M59.2996 90.9183C59.3401 89.1262 59.3494 87.3254 59.3276 85.5283L54.6117 79.4883L53.5693 83.5683L59.2996 90.9183Z" fill="#100F00" stroke="white" stroke-linecap="round" stroke-linejoin="round"/>
<path d="M53.1389 192.891C51.0339 186.281 48.3416 177.891 45.835 169.961L47.9247 183.121L51.4687 194.241C52.0401 194.141 52.6038 193.686 53.1389 192.891Z" fill="#100F00" stroke="white" stroke-linecap="round" stroke-linejoin="round"/>
<path d="M56.0021 142.889C53.2946 142.719 50.5184 142.429 48.1999 141.969L47.8389 147.059C50.2795 147.569 53.2361 147.879 56.1038 148.059C56.0657 146.109 56.0301 144.329 56.0021 142.889Z" fill="#100F00" stroke="white" stroke-linecap="round" stroke-linejoin="round"/>
<path d="M48.1386 111.961C48.049 113.567 48.0039 115.207 48.0039 116.851V117.101C50.6987 117.421 54.08 118.561 57.4688 119.991C57.601 118.301 57.723 116.611 57.8578 114.991C54.4079 113.491 50.9377 112.301 48.1386 111.961Z" fill="#100F00" stroke="white" stroke-linecap="round" stroke-linejoin="round"/>
<path d="M47.925 163.49C46.931 161.68 45.9725 159.94 45.07 158.32L44.376 160.81L44.8056 163.51L47.3733 168.16C50.0351 172.773 52.7605 176.796 55.5366 180.21C55.679 178.59 55.8061 176.91 55.9103 175.21C53.218 171.82 50.2131 167.63 47.925 163.49Z" fill="#100F00" stroke="white" stroke-linecap="round" stroke-linejoin="round"/>
<path d="M56.2992 164.159C56.2992 162.979 56.2992 161.589 56.2763 160.079C53.1205 157.996 50.0003 155.15 46.9335 151.559L45.8047 155.609C49.2417 159.754 52.7451 162.994 56.2916 165.309C56.2992 164.909 56.2992 164.489 56.2992 164.159Z" fill="#100F00" stroke="white" stroke-linecap="round" stroke-linejoin="round"/>
<path d="M33.3041 261.779L30.0576 276.049C30.0576 276.049 27.5764 279.049 27.195 280.559C26.8137 282.069 27.5764 282.809 28.5297 284.309C29.4831 285.809 33.0168 283.559 34.1634 283.179C35.31 282.799 36.3574 283.179 36.7387 279.429C37.1201 275.679 36.7387 271.539 36.6447 270.039C36.5506 268.539 36.0701 261.039 36.0701 261.039L33.3041 261.779Z" fill="#100F00" stroke="white" stroke-linecap="round" stroke-linejoin="round"/>
<path d="M29.8949 276.249C29.3458 276.939 27.5179 279.249 27.195 280.559C26.8137 282.059 27.5764 282.809 28.5297 284.309C29.4831 285.809 33.0168 283.559 34.1634 283.179C35.31 282.799 36.3574 283.179 36.7387 279.429C37.1201 275.679 36.7387 271.539 36.6447 270.039C36.6447 269.869 36.6167 269.619 36.5989 269.309C34.9312 273.419 32.0965 277.929 31.4889 277.929C30.9389 277.692 30.4013 277.125 29.8949 276.249Z" fill="#100F00" stroke="white" stroke-linecap="round" stroke-linejoin="round"/>
<path d="M23.6615 237C23.6615 237 19.9447 253.15 19.4616 255.4C18.9786 257.65 17.5549 258.4 17.649 261.03C17.743 263.66 19.271 262.91 19.937 262.53C20.6031 262.15 24.8055 258.03 25.3775 257.28C25.9495 256.53 26.7148 255.4 26.8114 252.02C26.908 248.64 26.2368 240.02 26.2368 240.02L23.6615 237Z" fill="#100F00" stroke="white" stroke-linecap="round" stroke-linejoin="round"/>
<path d="M26.809 252.02C26.8675 249.91 26.6285 245.76 26.4429 242.93C25.5048 244.73 24.5998 249.6 24.1345 250.52C23.5625 251.64 19.172 257.28 19.172 257.28L18.9712 256.83C18.3712 258.13 17.5729 259.05 17.6441 261.03C17.7407 263.66 19.2661 262.91 19.9321 262.53C20.5982 262.15 24.8006 258.03 25.3726 257.28C25.9446 256.53 26.7175 255.4 26.809 252.02Z" fill="#100F00" stroke="white" stroke-linecap="round" stroke-linejoin="round"/>
<path d="M58.2724 77.0311C57.4436 75.2211 55.786 78.481 55.2344 82.101L54.4996 92.9611L51.8303 128.081L38.4273 127.821C38.4273 127.821 34.6343 124.531 34.0826 124.581C33.5309 124.631 30.7166 131.761 30.7217 132.841C30.7268 133.921 31.464 133.841 31.464 133.841L32.7504 133.371L34.1258 132.161C34.1258 132.161 35.3283 133.501 35.8825 133.451C36.3464 133.33 36.8066 133.049 37.2579 132.611C37.2579 132.611 51.7362 145.491 52.6565 145.491C53.5768 145.491 54.5912 144.401 54.9598 141.871C55.3284 139.341 59.1927 101.681 59.3757 93.351C59.5588 85.021 59.0961 78.8411 58.2724 77.0311Z" fill="#100F00" stroke="white" stroke-linecap="round" stroke-linejoin="round"/>
<path d="M31.5498 133.26C31.5498 133.26 33.6853 128.77 33.9218 128.59" stroke="white" stroke-linecap="round" stroke-linejoin="round"/>
<path d="M33.5915 126.16C33.5915 126.16 31.1687 131.58 31.0264 133.63" stroke="white" stroke-linecap="round" stroke-linejoin="round"/>
<path d="M62.401 82.4884L60.8757 82.1484C60.8757 82.1484 56.9478 126.818 56.4343 143.608C55.9208 160.398 56.0936 174.498 56.3504 179.198C56.6072 183.898 57.9724 192.968 57.9724 192.968L59.6783 194.648C59.6783 194.648 57.8987 176.508 57.802 171.478C57.7054 166.448 57.9368 146.478 58.0563 143.938C58.9918 124.488 62.401 82.4884 62.401 82.4884Z" fill="#454648" stroke="white" stroke-linecap="round" stroke-linejoin="round"/>
<path d="M48.6724 253.77C48.6724 253.77 40.2092 270.56 40.0287 274.25C39.9332 277.034 39.9332 279.855 40.0287 282.64L40.3286 281.47L41.1396 273.91L48.736 259.81L48.6724 253.77Z" fill="#454648" stroke="white" stroke-linecap="round" stroke-linejoin="round"/>
<path d="M41.5766 281.299C41.5771 282.032 41.5224 282.748 41.4193 283.358C41.3163 283.967 41.1695 284.443 40.9977 284.725C40.8259 285.006 40.6366 285.081 40.454 284.94C40.2714 284.798 40.1035 284.446 39.9717 283.929C39.8399 283.412 39.7501 282.753 39.7136 282.035C39.6771 281.317 39.6956 280.572 39.7667 279.896C39.8378 279.219 39.9584 278.641 40.1131 278.234C40.2678 277.827 40.4498 277.609 40.636 277.609C40.885 277.609 41.1239 277.998 41.3002 278.69C41.4765 279.381 41.5759 280.32 41.5766 281.299Z" fill="white" stroke="white" stroke-linecap="round" stroke-linejoin="round"/>
<path d="M51.1357 253.77C51.1357 253.77 59.5887 270.56 59.7591 274.25C59.8546 277.034 59.8546 279.855 59.7591 282.64L59.4591 281.49L58.6481 273.93L51.0518 259.83L51.1357 253.77Z" fill="#454648" stroke="white" stroke-linecap="round" stroke-linejoin="round"/>
<path d="M58.2236 281.299C58.2236 282.029 58.2786 282.743 58.3817 283.349C58.4848 283.956 58.6313 284.429 58.8027 284.708C58.9742 284.988 59.1628 285.061 59.3447 284.918C59.5267 284.776 59.6939 284.425 59.8251 283.909C59.9563 283.393 60.0456 282.735 60.0818 282.019C60.118 281.303 60.0994 280.562 60.0284 279.887C59.9574 279.213 59.8372 278.637 59.6829 278.231C59.5286 277.826 59.3473 277.609 59.1617 277.609C58.9131 277.612 58.6749 278.002 58.4991 278.693C58.3234 279.385 58.2243 280.322 58.2236 281.299Z" fill="white" stroke="white" stroke-linecap="round" stroke-linejoin="round"/>
<path d="M50.455 199.031H49.0898V257.461H50.455V199.031Z" fill="white" stroke="white" stroke-linecap="round" stroke-linejoin="round"/>
<path d="M51.8203 204.738H47.8086V215.488H51.8203V204.738Z" fill="white" stroke="white" stroke-linecap="round" stroke-linejoin="round"/>
<path d="M59.3497 193.919C56.393 192.699 46.8697 189.449 38.3301 193.919C38.2576 193.962 38.1897 194.085 38.134 194.272C38.0783 194.46 38.0371 194.705 38.0151 194.98C37.9931 195.255 37.9912 195.549 38.0096 195.828C38.028 196.108 38.0659 196.361 38.1191 196.559C39.0267 199.929 41.5461 206.049 48.0671 207.729C54.8041 209.469 58.2362 201.329 59.5861 196.949C59.6499 196.728 59.696 196.439 59.7191 196.117C59.7422 195.795 59.7412 195.454 59.7162 195.135C59.6913 194.815 59.6434 194.53 59.5784 194.315C59.5134 194.099 59.434 193.962 59.3497 193.919Z" fill="#454648" stroke="white" stroke-linecap="round" stroke-linejoin="round"/>
<path d="M38.1098 196.56L38.1276 196.62C38.1968 196.873 38.2874 197.015 38.3818 197.02H59.5616H59.5768C59.6434 196.802 59.6921 196.511 59.7167 196.184C59.7413 195.857 59.7409 195.508 59.7153 195.182C59.6898 194.856 59.6403 194.567 59.5732 194.352C59.506 194.136 59.4241 194.003 59.3379 193.97C56.3786 192.75 46.8578 189.5 38.3208 193.97C38.2504 194.017 38.1845 194.138 38.1305 194.322C38.0765 194.506 38.0364 194.745 38.0146 195.012C37.9929 195.28 37.9902 195.566 38.007 195.839C38.0238 196.112 38.0593 196.361 38.1098 196.56Z" fill="white" stroke="white" stroke-linecap="round" stroke-linejoin="round"/>
<path d="M51.3929 248.391H48.2354V261.491H51.3929V248.391Z" fill="white" stroke="white" stroke-linecap="round" stroke-linejoin="round"/>
<path d="M49.944 254.941H49.4736V284.991H49.944V254.941Z" fill="#454648" stroke="white" stroke-linecap="round" stroke-linejoin="round"/>
<path d="M50.1163 277.16H49.29V285.03H50.1163V277.16Z" fill="white" stroke="white" stroke-linecap="round" stroke-linejoin="round"/>
<path d="M53.015 197.02H51.1363L49.9414 152.02H51.2227L53.015 197.02Z" fill="#454648" stroke="white" stroke-linecap="round" stroke-linejoin="round"/>
<path d="M56.2585 155.041H43.3691C43.3691 155.041 44.3072 148.331 44.8945 147.661C45.4818 146.991 55.2238 147.661 55.2238 147.661C55.2238 147.661 56.2585 149.001 56.2585 155.041Z" fill="white" stroke="white" stroke-linecap="round" stroke-linejoin="round"/>
<path d="M43.3691 155.039H56.2585C56.258 154.477 56.2478 153.916 56.228 153.359H43.6208C43.4683 154.339 43.3691 155.039 43.3691 155.039Z" fill="#454648" stroke="white" stroke-linecap="round" stroke-linejoin="round"/>
<path d="M3.4199 145.981L4.87409 160.711C5.38254 164.891 5.59101 172.001 5.45373 176.611L2.04199 283.011C2.03306 283.296 2.03949 283.586 2.06085 283.861C2.08221 284.136 2.11803 284.39 2.16598 284.607C2.21392 284.823 2.27293 284.998 2.33916 285.12C2.4054 285.241 2.47738 285.306 2.55044 285.311C2.67194 285.318 2.79002 285.153 2.88329 284.846C2.97656 284.54 3.03886 284.113 3.0589 283.641L9.57731 147.401H7.18756L6.76808 155.241C6.75197 155.525 6.71265 155.78 6.65615 155.968C6.59965 156.155 6.52907 156.265 6.45524 156.279C6.3814 156.294 6.30837 156.213 6.24733 156.049C6.18629 155.885 6.1406 155.647 6.11726 155.371L5.31136 145.371L3.4199 145.981Z" fill="#100F00" stroke="white" stroke-linecap="round" stroke-linejoin="round"/>
<path d="M6.95312 151.782H9.36575L9.57676 147.402H7.18702L6.95312 151.782Z" fill="white" stroke="white" stroke-linecap="round" stroke-linejoin="round"/>
<path d="M5.3114 145.391L3.40723 145.981L3.97924 151.781H5.82748L5.3114 145.391Z" fill="white" stroke="white" stroke-linecap="round" stroke-linejoin="round"/>
<path d="M40.1223 145.981L38.6681 160.711C38.1596 164.891 37.9486 172.001 38.0859 176.611L41.5002 283.011C41.5091 283.296 41.5027 283.586 41.4813 283.861C41.46 284.136 41.4241 284.39 41.3762 284.607C41.3282 284.823 41.2692 284.998 41.203 285.12C41.1368 285.241 41.0648 285.306 40.9917 285.311C40.8702 285.318 40.7521 285.153 40.6589 284.846C40.5656 284.54 40.5033 284.113 40.4833 283.641L33.9521 147.401H36.3419L36.7614 155.241C36.7765 155.527 36.8153 155.784 36.8717 155.974C36.928 156.164 36.9987 156.274 37.0728 156.289C37.1468 156.304 37.22 156.222 37.281 156.056C37.3419 155.89 37.3872 155.649 37.4097 155.371L38.2181 145.371L40.1223 145.981Z" fill="#100F00" stroke="white" stroke-linecap="round" stroke-linejoin="round"/>
<path d="M36.3419 147.402H33.9521L34.1632 151.782H36.5758L36.3419 147.402Z" fill="white" stroke="white" stroke-linecap="round" stroke-linejoin="round"/>
<path d="M37.7031 151.781H39.5514L40.1234 145.981L38.2192 145.391L37.7031 151.781Z" fill="white" stroke="white" stroke-linecap="round" stroke-linejoin="round"/>
<path d="M42.8555 138.621H0.854492V147.351H42.8555V138.621Z" fill="#100F00" stroke="white" stroke-linecap="round" stroke-linejoin="round"/>
<path d="M39.7413 136.16H29.0078V138.68H39.7413V136.16Z" fill="#100F00" stroke="white" stroke-linecap="round" stroke-linejoin="round"/>
<path d="M22.54 138.12H17.8571C17.46 138.12 17.078 137.52 16.79 136.445C16.5019 135.369 16.3297 133.9 16.3089 132.34C16.2996 131.665 16.3194 130.989 16.3673 130.34L19.3011 97.1502C19.3308 96.8133 19.3933 96.5367 19.4748 96.381C19.5563 96.2254 19.6502 96.2035 19.7359 96.3202C19.8215 96.4368 19.8918 96.6826 19.9314 97.0033C19.971 97.3239 19.9765 97.6934 19.9469 98.0302L17.0182 131.15C16.9938 131.498 16.9844 131.86 16.9902 132.22C17.0025 133.092 17.0992 133.913 17.2604 134.513C17.4216 135.114 17.6351 135.449 17.8571 135.45H22.54C22.6256 135.479 22.7053 135.634 22.7634 135.883C22.8215 136.132 22.8537 136.457 22.8537 136.795C22.8537 137.133 22.8215 137.459 22.7634 137.708C22.7053 137.957 22.6256 138.111 22.54 138.14V138.12Z" fill="white" stroke="white" stroke-linecap="round" stroke-linejoin="round"/>
<path d="M21.3295 51.7109L26.5005 129.591L25.9362 131.261C25.9362 131.261 19.4355 111.231 19.4355 94.4909C19.4355 77.7509 20.5669 52.2009 20.5669 52.2009L21.3295 51.7109Z" fill="#100F00" stroke="white" stroke-linecap="round" stroke-linejoin="round"/>
<path d="M21.3299 51.7109L20.5596 52.2409L25.9365 131.261L26.5009 129.591L21.3299 51.7109Z" fill="white" stroke="white" stroke-linecap="round" stroke-linejoin="round"/>
<path d="M7.01425 122.892C7.01425 122.892 5.17872 111.332 6.64816 104.832C8.1176 98.3322 10.5048 101.492 10.9929 107.492C11.481 113.492 10.4438 123.622 10.4438 123.622L7.01425 122.892Z" fill="#100F00" stroke="white" stroke-linecap="round" stroke-linejoin="round"/>
<path d="M7.07822 109.649C6.7706 109.649 5.60878 107.959 5.24015 105.789C4.87152 103.619 4.81305 98.7891 5.85284 98.7891C6.89263 98.7891 7.26126 106.019 7.26126 106.019L7.32228 108.659" fill="#100F00"/>
<path d="M7.07822 109.649C6.7706 109.649 5.60878 107.959 5.24015 105.789C4.87152 103.619 4.81305 98.7891 5.85284 98.7891C6.89263 98.7891 7.26126 106.019 7.26126 106.019L7.32228 108.659" stroke="white" stroke-linecap="round" stroke-linejoin="round"/>
<path d="M8.01854 105.153C7.74398 104.613 6.89485 101.063 6.81096 98.4826C6.72706 95.9026 7.22027 91.4826 8.15328 93.3026C9.0863 95.1226 8.5931 102.243 8.5931 102.243L8.33887 104.723" fill="#100F00"/>
<path d="M8.01854 105.153C7.74398 104.613 6.89485 101.063 6.81096 98.4826C6.72706 95.9026 7.22027 91.4826 8.15328 93.3026C9.0863 95.1226 8.5931 102.243 8.5931 102.243L8.33887 104.723" stroke="white" stroke-linecap="round" stroke-linejoin="round"/>
<path d="M9.13028 106.361C8.97774 105.361 8.77181 100.511 9.06672 98.1814C9.36162 95.8514 10.3963 93.2514 10.9124 96.8014C11.4285 100.351 10.0302 105.191 10.0302 105.191L9.47603 106.721" fill="#100F00"/>
<path d="M9.13028 106.361C8.97774 105.361 8.77181 100.511 9.06672 98.1814C9.36162 95.8514 10.3963 93.2514 10.9124 96.8014C11.4285 100.351 10.0302 105.191 10.0302 105.191L9.47603 106.721" stroke="white" stroke-linecap="round" stroke-linejoin="round"/>
<path d="M9.49523 114.989C9.44439 113.799 9.6732 108.989 10.1562 107.229C10.6393 105.469 11.8367 104.409 12.0095 108.449C12.1824 112.489 10.4308 115.099 10.4308 115.099L9.77743 115.779" fill="#100F00"/>
<path d="M9.49523 114.989C9.44439 113.799 9.6732 108.989 10.1562 107.229C10.6393 105.469 11.8367 104.409 12.0095 108.449C12.1824 112.489 10.4308 115.099 10.4308 115.099L9.77743 115.779" stroke="white" stroke-linecap="round" stroke-linejoin="round"/>
<path d="M5.375 102.891L5.58092 104.171" stroke="#100F00" stroke-linecap="round" stroke-linejoin="round"/>
<path d="M5.96387 106.031L6.28928 107.071" stroke="#100F00" stroke-linecap="round" stroke-linejoin="round"/>
<path d="M5.61133 100.449L5.93674 102.309" stroke="#100F00" stroke-linecap="round" stroke-linejoin="round"/>
<path d="M6.37891 103.82L6.73482 106.37" stroke="#100F00" stroke-linecap="round" stroke-linejoin="round"/>
<path d="M7.20508 97.6602L7.32396 99.0602" stroke="#100F00" stroke-linecap="round" stroke-linejoin="round"/>
<path d="M7.61914 101.609L7.82506 102.769" stroke="#100F00" stroke-linecap="round" stroke-linejoin="round"/>
<path d="M7.53027 94.8711L7.79721 97.2011" stroke="#100F00" stroke-linecap="round" stroke-linejoin="round"/>
<path d="M6.49805 111.25L6.58426 113.35" stroke="#100F00" stroke-linecap="round" stroke-linejoin="round"/>
<path d="M6.7627 115.32L6.88157 117.06" stroke="#100F00" stroke-linecap="round" stroke-linejoin="round"/>
<path d="M7.05762 111.371L7.1765 113.691" stroke="#100F00" stroke-linecap="round" stroke-linejoin="round"/>
<path d="M7.44141 115.32L7.53016 117.06" stroke="#100F00" stroke-linecap="round" stroke-linejoin="round"/>
<path d="M7.65039 108.352L7.82581 111.602" stroke="#100F00" stroke-linecap="round" stroke-linejoin="round"/>
<path d="M8.06152 114.742L8.09157 116.252" stroke="#100F00" stroke-linecap="round" stroke-linejoin="round"/>
<path d="M8.3877 107.301L8.53515 110.321" stroke="#100F00" stroke-linecap="round" stroke-linejoin="round"/>
<path d="M8.53516 113.461L8.59274 116.601" stroke="#100F00" stroke-linecap="round" stroke-linejoin="round"/>
<path d="M9.24414 108.473V111.023" stroke="#100F00" stroke-linecap="round" stroke-linejoin="round"/>
<path d="M9.15527 114.27L9.18531 116.25" stroke="#100F00" stroke-linecap="round" stroke-linejoin="round"/>
<path d="M9.98398 96.3828L9.83398 97.7828" stroke="#100F00" stroke-linecap="round" stroke-linejoin="round"/>
<path d="M9.77538 99.4023L9.62793 101.382" stroke="#100F00" stroke-linecap="round" stroke-linejoin="round"/>
<path d="M10.6319 99.0625L10.3955 100.913" stroke="#100F00" stroke-linecap="round" stroke-linejoin="round"/>
<path d="M9.89487 103.012L9.62793 104.172" stroke="#100F00" stroke-linecap="round" stroke-linejoin="round"/>
<path d="M9.33289 98.9414L9.24414 100.451" stroke="#100F00" stroke-linecap="round" stroke-linejoin="round"/>
<path d="M10.6321 107.301L10.3066 109.401" stroke="#100F00" stroke-linecap="round" stroke-linejoin="round"/>
<path d="M10.1008 110.672L9.92285 112.532" stroke="#100F00" stroke-linecap="round" stroke-linejoin="round"/>
<path d="M10.3682 113.461L10.8995 112.301" stroke="#100F00" stroke-linecap="round" stroke-linejoin="round"/>
<path d="M11.2214 107.301L10.957 109.051" stroke="#100F00" stroke-linecap="round" stroke-linejoin="round"/>
<path d="M11.4891 109.281L11.1357 110.321" stroke="#100F00" stroke-linecap="round" stroke-linejoin="round"/>
<path d="M11.1079 118.859H6.08691V138.609H11.1079V118.859Z" fill="white" stroke="white" stroke-linecap="round" stroke-linejoin="round"/>
</svg>
