<svg width="67" height="67" viewBox="0 0 67 67" fill="none" xmlns="http://www.w3.org/2000/svg">
<g clip-path="url(#clip0_434_5657)">
<path d="M0 33.5V67H33.5H67V33.5V0H33.5H0V33.5ZM45.7074 24.3813C48.9904 24.9441 51.5431 27.0814 52.5615 30.1165C52.9568 31.2823 53.0238 31.7982 53.0238 33.4665C53.0238 35.1348 52.9501 35.6641 52.5615 36.8165C51.3622 40.3943 48.0323 42.679 44.019 42.679C39.9253 42.679 36.6222 40.3742 35.4095 36.6825C34.8065 34.8333 34.8065 32.0997 35.4095 30.2505C36.4279 27.1417 38.9739 24.9709 42.277 24.388C43.2552 24.2138 44.7091 24.2138 45.7074 24.3813ZM22.8269 24.3947C23.316 24.5756 23.6108 25.0915 23.6108 25.7615C23.6108 26.7129 23.182 27.1417 21.9693 27.4097C20.9174 27.6375 20.2809 27.9055 19.5238 28.4415C16.9979 30.2438 16.3346 34.3174 18.1302 37.0242C19.2089 38.6456 20.837 39.5032 22.981 39.5836C24.857 39.6439 26.3779 39.1146 27.5839 37.9622C28.7564 36.8567 29.3661 35.5502 29.3661 34.17C29.3661 33.098 29.0043 32.428 28.2204 32.0461C27.8854 31.8853 27.7782 31.8652 27.1752 31.8652C25.3595 31.8719 24.1267 32.7161 23.6912 34.237C23.6309 34.438 23.5572 34.9405 23.5237 35.3492C23.4835 35.7579 23.4165 36.18 23.3763 36.2872C23.2423 36.5954 22.9743 36.8433 22.6996 36.9237C22.1703 37.0644 21.2859 36.7562 20.9777 36.3207C20.5422 35.7043 20.6628 34.17 21.2457 32.9104C21.5874 32.1667 21.976 31.6307 22.6192 31.021C24.0128 29.7011 25.7012 29.0177 27.6241 29.011C28.5688 29.011 29.2388 29.1517 29.9825 29.5135C32.1667 30.5654 32.9774 33.299 32.026 36.381C31.6307 37.6674 30.8937 38.9002 29.9021 39.9387C28.5219 41.3725 26.7933 42.2636 24.7565 42.5919C23.8654 42.7326 21.9425 42.679 21.0715 42.4914C17.8086 41.7812 15.4435 39.5769 14.5122 36.3676C13.9494 34.4246 14.0231 32.0327 14.7065 30.15C15.477 28.0261 17.018 26.264 18.9744 25.2724C20.3345 24.5823 22.1971 24.1535 22.8269 24.3947Z" fill="#FFF001"/>
<path d="M43.0471 27.3832C42.5781 27.4502 41.7406 27.6981 41.2984 27.8991C39.6167 28.6763 38.4911 30.1101 38.0824 31.9928C37.9283 32.7231 37.9283 34.2105 38.0824 34.9408C38.5715 37.2054 40.1192 38.8201 42.3436 39.3963C43.0471 39.5839 44.3134 39.6442 45.0169 39.537C46.2631 39.3427 47.4289 38.7866 48.2798 37.9692C49.5059 36.8034 50.0687 35.3964 50.0687 33.4668C50.0687 32.4216 49.9615 31.7784 49.6399 30.9543C49.2245 29.8756 48.2932 28.7835 47.2681 28.1872C46.7053 27.8522 45.7539 27.5172 45.0906 27.41C44.6752 27.343 43.4625 27.3229 43.0471 27.3832Z" fill="#ECEC15"/>
<path d="M43.1417 24.3178C40.9307 24.5255 38.9542 25.4233 37.5204 26.8638C36.2742 28.1167 35.4702 29.7046 35.1352 31.5873C34.9744 32.5119 34.9744 34.4147 35.1352 35.3393C35.5774 37.7982 36.8437 39.8082 38.7599 41.0812C40.3344 42.1331 42.0228 42.6289 44.0194 42.6289C45.1584 42.6289 46.0227 42.4949 47.021 42.1666C50.572 41.0075 52.7361 38.1332 52.9974 34.2271C53.2989 29.6376 51.0477 26.0732 47.0076 24.7533C45.8351 24.3714 44.341 24.2039 43.1417 24.3178ZM45.6207 27.4668C45.9289 27.5405 46.4314 27.7214 46.7329 27.8621C48.3275 28.6125 49.366 29.8118 49.8886 31.527C50.0628 32.0898 50.0762 32.197 50.0762 33.4298C50.0762 34.9708 49.9891 35.3862 49.4464 36.4917C48.7295 37.9456 47.3158 39.0377 45.5872 39.4732C44.6961 39.6943 43.2355 39.6809 42.331 39.4397C39.5371 38.696 37.9224 36.5051 37.9224 33.4633C37.9224 30.0999 39.8587 27.8353 43.1819 27.306C43.6375 27.239 45.0713 27.3261 45.6207 27.4668Z" fill="#454648"/>
<path d="M21.5338 24.4532C20.2675 24.7078 19.028 25.2103 18.023 25.8803C17.3798 26.3091 16.2609 27.428 15.8321 28.0712C13.6345 31.3542 13.6211 35.6891 15.7919 38.9789C16.5222 40.0777 17.9091 41.2636 19.1084 41.7996C21.5271 42.8783 24.6292 42.9252 26.9943 41.9068C30.15 40.5601 32.361 37.2771 32.361 33.9605C32.361 30.7043 30.2505 28.7747 27.0211 29.0829C25.3327 29.2437 23.8855 29.8869 22.6795 31.0326C21.3931 32.2453 20.7097 33.8198 20.7834 35.3742C20.8035 35.87 20.837 36.0041 20.9911 36.2319C21.2457 36.6272 21.8018 36.8818 22.3914 36.8818C22.7934 36.8818 22.8604 36.8617 23.0413 36.6875C23.3026 36.4396 23.4299 36.0308 23.4835 35.2737C23.5438 34.5099 23.6778 33.9672 23.9324 33.4848C24.321 32.7478 25.1585 32.1381 26.0764 31.9237C26.6459 31.7897 27.6911 31.7964 28.0931 31.9304C28.5152 32.0711 28.9641 32.4932 29.1919 32.9488C29.3661 33.3106 29.3795 33.3843 29.3795 34.2017C29.3795 35.0057 29.3661 35.1196 29.1718 35.6556C28.8904 36.4462 28.4884 37.0962 27.9122 37.6992C26.7531 38.9253 25.3528 39.5484 23.5773 39.6422C20.5288 39.7963 18.1838 38.1816 17.3061 35.3273C17.1386 34.7846 17.1252 34.6439 17.1252 33.5317C17.1185 32.4731 17.1386 32.2587 17.2726 31.7562C17.9091 29.4246 19.5506 27.8501 21.842 27.3878C22.6125 27.2337 22.9877 27.0662 23.2423 26.758C23.8855 25.9674 23.5706 24.6408 22.6795 24.3929C22.3445 24.2991 22.2909 24.3058 21.5338 24.4532Z" fill="#454648"/>
</g>
<defs>
<clipPath id="clip0_434_5657">
<rect width="67" height="67" rx="33.5" fill="white"/>
</clipPath>
</defs>
</svg>
