<svg width="2924" height="2802" viewBox="0 0 2924 2802" fill="none" xmlns="http://www.w3.org/2000/svg">
<path d="M2894.98 1121.87C2907.74 1182.34 2916.44 1244.22 2920.78 1307.24L2920.66 1307.25C2922.79 1338.21 2923.87 1369.44 2923.87 1400.92C2923.87 1432.4 2922.79 1463.64 2920.66 1494.6L2920.78 1494.61C2916.44 1557.63 2907.74 1619.51 2894.98 1679.98L2894.86 1679.95C2881.87 1741.53 2864.66 1801.64 2843.54 1860L2843.65 1860.04C2822.31 1919 2796.98 1976.17 2767.95 2031.25L2767.84 2031.2C2738.7 2086.51 2705.84 2139.72 2669.58 2190.53L2669.68 2190.6C2633.43 2241.38 2593.78 2289.77 2551.05 2335.44L2550.96 2335.36C2508.41 2380.84 2462.8 2423.64 2414.44 2463.45L2414.52 2463.55C2366.51 2503.09 2315.78 2539.69 2262.65 2573.06L2262.59 2572.95C2209.99 2605.99 2155.04 2635.86 2098.03 2662.29L2098.08 2662.4C2041.84 2688.47 1983.59 2711.18 1923.62 2730.28L1923.59 2730.16C1864.63 2748.93 1804 2764.2 1741.98 2775.71L1742 2775.83C1681.31 2787.1 1619.28 2794.76 1556.16 2798.59L1556.15 2798.47C1525.18 2800.34 1493.94 2801.3 1462.46 2801.3C1430.99 2801.3 1399.75 2800.34 1368.77 2798.47L1368.76 2798.59C1305.65 2794.76 1243.61 2787.1 1182.92 2775.83L1182.95 2775.71C1120.92 2764.2 1060.3 2748.93 1001.34 2730.16L1001.3 2730.28C941.331 2711.18 883.086 2688.47 826.848 2662.4L826.9 2662.29C769.884 2635.86 714.932 2605.99 662.338 2572.95L662.272 2573.06C609.142 2539.69 558.418 2503.09 510.403 2463.55L510.483 2463.45C462.126 2423.64 416.518 2380.84 373.969 2335.36L373.877 2335.44C331.144 2289.77 291.495 2241.38 255.246 2190.6L255.348 2190.53C219.086 2139.72 186.225 2086.51 157.082 2031.2L156.971 2031.25C127.949 1976.17 102.612 1919 81.271 1860.04L81.3886 1860C60.2649 1801.64 43.0561 1741.53 30.0632 1679.95L29.9409 1679.98C17.1817 1619.51 8.48777 1557.63 4.14405 1494.61L4.26876 1494.6C2.13471 1463.64 1.05078 1432.4 1.05078 1400.92C1.05078 1369.44 2.13471 1338.21 4.26875 1307.25L4.14405 1307.24C8.48777 1244.22 17.1817 1182.34 29.9409 1121.87L30.0632 1121.89C43.0561 1060.32 60.265 1000.2 81.3886 941.846L81.2711 941.803C102.612 882.843 127.949 825.673 156.971 770.589L157.082 770.648C186.225 715.333 219.086 662.122 255.348 611.318L255.246 611.245C291.495 560.459 331.144 512.078 373.878 466.401L373.969 466.486C416.518 421.006 462.126 378.208 510.483 338.39L510.404 338.293C558.418 298.757 609.142 262.157 662.272 228.784L662.338 228.89C714.932 195.855 769.885 165.982 826.9 139.555L826.848 139.442C883.086 113.375 941.331 90.6594 1001.3 71.5662L1001.34 71.6853C1060.3 52.9145 1120.92 37.6447 1182.95 26.1332L1182.92 26.0103C1243.61 14.7463 1305.65 7.0804 1368.76 3.25361L1368.77 3.37838C1399.75 1.50021 1430.99 0.546875 1462.46 0.546875C1493.94 0.546875 1525.18 1.50021 1556.15 3.37837L1556.16 3.2536C1619.28 7.08039 1681.31 14.7463 1742 26.0103L1741.98 26.1332C1804 37.6447 1864.63 52.9145 1923.59 71.6853L1923.62 71.5662C1983.59 90.6595 2041.84 113.375 2098.08 139.442L2098.03 139.555C2155.04 165.982 2209.99 195.855 2262.59 228.89L2262.65 228.785C2315.78 262.157 2366.51 298.757 2414.52 338.293L2414.44 338.39C2462.8 378.209 2508.41 421.006 2550.96 466.486L2551.05 466.401C2593.78 512.078 2633.43 560.46 2669.68 611.246L2669.58 611.318C2705.84 662.122 2738.7 715.333 2767.84 770.648L2767.95 770.589C2796.98 825.673 2822.31 882.843 2843.65 941.803L2843.54 941.846C2864.66 1000.2 2881.87 1060.32 2894.86 1121.89L2894.98 1121.87Z" fill="#B6B4A0" fill-opacity="0.01" stroke="#FCFBF3" stroke-width="0.25" stroke-dasharray="184 184"/>
<path d="M2670.14 1369.79C2672.36 1392.99 2673.86 1416.4 2674.61 1439.99L2674.32 1440C2674.69 1451.71 2674.88 1463.47 2674.88 1475.26C2674.88 1487.06 2674.69 1498.81 2674.32 1510.52L2674.61 1510.53C2673.86 1534.12 2672.36 1557.53 2670.14 1580.74L2669.86 1580.71C2667.61 1604.18 2664.63 1627.44 2660.92 1650.47L2661.2 1650.52C2657.45 1673.79 2652.97 1696.84 2647.77 1719.63L2647.5 1719.57C2642.27 1742.53 2636.32 1765.22 2629.67 1787.64L2629.94 1787.72C2623.25 1810.27 2615.85 1832.54 2607.77 1854.51L2607.5 1854.41C2599.39 1876.46 2590.59 1898.21 2581.12 1919.62L2581.38 1919.73C2571.88 1941.23 2561.7 1962.38 2550.89 1983.18L2550.64 1983.05C2539.81 2003.88 2528.33 2024.34 2516.23 2044.42L2516.47 2044.57C2504.36 2064.67 2491.63 2084.39 2478.3 2103.69L2478.06 2103.53C2464.74 2122.83 2450.81 2141.72 2436.32 2160.17L2436.54 2160.35C2422.05 2178.79 2407 2196.79 2391.4 2214.34L2391.19 2214.15C2375.62 2231.67 2359.5 2248.72 2342.87 2265.3L2343.07 2265.5C2326.46 2282.04 2309.35 2298.1 2291.74 2313.66L2291.55 2313.45C2274 2328.96 2255.96 2343.97 2237.46 2358.46L2237.63 2358.68C2219.2 2373.12 2200.3 2387.03 2180.97 2400.4L2180.81 2400.17C2161.56 2413.48 2141.87 2426.26 2121.78 2438.48L2121.93 2438.72C2101.93 2450.88 2081.52 2462.48 2060.74 2473.51L2060.6 2473.26C2039.94 2484.22 2018.89 2494.61 1997.5 2504.4L1997.61 2504.66C1976.36 2514.39 1954.75 2523.53 1932.81 2532.07L1932.71 2531.81C1910.93 2540.28 1888.83 2548.16 1866.43 2555.41L1866.52 2555.68C1844.29 2562.88 1821.76 2569.46 1798.96 2575.42L1798.88 2575.14C1776.28 2581.04 1753.41 2586.32 1730.29 2590.96L1730.35 2591.23C1707.46 2595.82 1684.33 2599.78 1660.97 2603.09L1660.93 2602.81C1637.85 2606.08 1614.54 2608.71 1591.05 2610.69L1591.07 2610.97C1567.84 2612.93 1544.41 2614.25 1520.82 2614.91L1520.81 2614.62C1509.1 2614.95 1497.34 2615.12 1485.54 2615.12C1473.74 2615.12 1461.99 2614.95 1450.27 2614.62L1450.26 2614.91C1426.67 2614.25 1403.24 2612.93 1380.01 2610.97L1380.04 2610.69C1356.54 2608.71 1333.23 2606.08 1310.15 2602.81L1310.11 2603.09C1286.76 2599.78 1263.62 2595.82 1240.74 2591.23L1240.79 2590.96C1217.67 2586.32 1194.8 2581.04 1172.2 2575.14L1172.13 2575.42C1149.33 2569.46 1126.8 2562.88 1104.56 2555.68L1104.65 2555.41C1082.25 2548.16 1060.15 2540.28 1038.37 2531.81L1038.27 2532.07C1016.33 2523.53 994.727 2514.39 973.468 2504.66L973.586 2504.4C952.189 2494.61 931.145 2484.22 910.478 2473.26L910.346 2473.51C889.559 2462.48 869.153 2450.88 849.151 2438.72L849.298 2438.48C829.207 2426.26 809.525 2413.49 790.276 2400.17L790.115 2400.4C770.782 2387.03 751.885 2373.12 733.448 2358.68L733.622 2358.46C715.119 2343.97 697.08 2328.96 679.53 2313.45L679.343 2313.66C661.734 2298.1 644.617 2282.04 628.016 2265.5L628.216 2265.3C611.582 2248.72 595.467 2231.67 579.895 2214.15L579.684 2214.34C564.083 2196.79 549.028 2178.79 534.543 2160.35L534.765 2160.17C520.269 2141.72 506.345 2122.83 493.018 2103.53L492.786 2103.69C479.455 2084.39 466.721 2064.67 454.609 2044.57L454.85 2044.42C442.752 2024.34 431.275 2003.88 420.442 1983.05L420.192 1983.18C409.378 1962.38 399.207 1941.23 389.704 1919.73L389.962 1919.62C380.496 1898.21 371.693 1876.46 363.579 1854.41L363.314 1854.51C355.234 1832.54 347.837 1810.28 341.145 1787.72L341.416 1787.64C334.766 1765.22 328.813 1742.53 323.583 1719.57L323.307 1719.63C318.114 1696.84 313.632 1673.79 309.885 1650.52L310.163 1650.47C306.456 1627.44 303.468 1604.18 301.222 1580.71L300.941 1580.74C298.72 1557.53 297.224 1534.12 296.476 1510.53L296.758 1510.52C296.387 1498.81 296.2 1487.06 296.2 1475.26C296.2 1463.47 296.387 1451.71 296.758 1440L296.476 1439.99C297.224 1416.4 298.72 1393 300.941 1369.79L301.222 1369.81C303.468 1346.35 306.456 1323.09 310.163 1300.06L309.885 1300.01C313.632 1276.73 318.114 1253.69 323.307 1230.89L323.582 1230.96C328.813 1208 334.765 1185.3 341.416 1162.89L341.145 1162.81C347.837 1140.25 355.234 1117.98 363.314 1096.02L363.579 1096.12C371.693 1074.06 380.496 1052.32 389.962 1030.91L389.704 1030.79C399.206 1009.3 409.378 988.145 420.192 967.35L420.442 967.48C431.274 946.651 442.752 926.184 454.85 906.104L454.609 905.959C466.721 885.855 479.455 866.14 492.785 846.835L493.018 846.995C506.345 827.695 520.269 808.807 534.765 790.354L534.543 790.18C549.028 771.74 564.083 753.734 579.684 736.188L579.895 736.376C595.467 718.862 611.582 701.805 628.215 685.229L628.016 685.029C644.617 668.487 661.734 652.423 679.342 636.863L679.529 637.074C697.08 621.565 715.119 606.555 733.622 592.069L733.448 591.846C751.885 577.412 770.782 563.497 790.115 550.125L790.275 550.357C809.525 537.042 829.207 524.266 849.298 512.052L849.151 511.81C869.153 499.65 889.559 488.045 910.346 477.02L910.478 477.269C931.145 466.308 952.189 455.918 973.585 446.124L973.468 445.868C994.727 436.136 1016.33 426.992 1038.27 418.457L1038.37 418.72C1060.15 410.245 1082.25 402.371 1104.65 395.118L1104.56 394.85C1126.8 387.651 1149.33 381.065 1172.13 375.112L1172.2 375.385C1194.8 369.484 1217.67 364.206 1240.79 359.572L1240.73 359.295C1263.62 354.706 1286.76 350.748 1310.11 347.44L1310.15 347.719C1333.23 344.449 1356.54 341.814 1380.04 339.835L1380.01 339.553C1403.24 337.596 1426.67 336.279 1450.26 335.621L1450.27 335.903C1461.99 335.576 1473.74 335.411 1485.54 335.411C1497.34 335.411 1509.1 335.576 1520.81 335.903L1520.82 335.621C1544.41 336.279 1567.84 337.596 1591.07 339.553L1591.05 339.835C1614.54 341.814 1637.85 344.449 1660.93 347.719L1660.97 347.44C1684.33 350.748 1707.46 354.706 1730.35 359.295L1730.29 359.571C1753.41 364.206 1776.28 369.484 1798.88 375.385L1798.96 375.112C1821.76 381.065 1844.29 387.651 1866.52 394.85L1866.43 395.118C1888.83 402.371 1910.93 410.245 1932.71 418.72L1932.81 418.457C1954.75 426.992 1976.35 436.136 1997.61 445.868L1997.5 446.124C2018.89 455.918 2039.94 466.307 2060.6 477.269L2060.74 477.02C2081.52 488.045 2101.93 499.65 2121.93 511.81L2121.78 512.051C2141.87 524.266 2161.56 537.042 2180.81 550.357L2180.97 550.125C2200.3 563.497 2219.2 577.412 2237.63 591.846L2237.46 592.068C2255.96 606.555 2274 621.564 2291.55 637.074L2291.74 636.862C2309.35 652.423 2326.46 668.486 2343.07 685.029L2342.87 685.229C2359.5 701.805 2375.62 718.861 2391.19 736.375L2391.4 736.188C2407 753.734 2422.05 771.739 2436.54 790.179L2436.32 790.354C2450.81 808.807 2464.74 827.695 2478.06 846.995L2478.3 846.835C2491.63 866.139 2504.36 885.855 2516.47 905.959L2516.23 906.104C2528.33 926.184 2539.81 946.651 2550.64 967.479L2550.89 967.349C2561.7 988.144 2571.88 1009.3 2581.38 1030.79L2581.12 1030.91C2590.59 1052.32 2599.39 1074.06 2607.5 1096.12L2607.77 1096.02C2615.85 1117.98 2623.25 1140.25 2629.94 1162.81L2629.67 1162.89C2636.32 1185.3 2642.27 1208 2647.5 1230.96L2647.77 1230.89C2652.97 1253.69 2657.45 1276.73 2661.2 1300.01L2660.92 1300.06C2664.63 1323.09 2667.61 1346.35 2669.86 1369.81L2670.14 1369.79Z" fill="#B6B4A0" fill-opacity="0.01" stroke="#FCFBF3" stroke-width="0.564387" stroke-dasharray="72.24 72.24"/>
<path d="M1992.76 1367.71C1996.47 1391.39 1998.99 1415.45 2000.24 1439.83L1999.96 1439.85C2000.58 1451.85 2000.89 1463.94 2000.89 1476.09C2000.89 1488.25 2000.58 1500.33 1999.96 1512.34L2000.24 1512.35C1998.99 1536.73 1996.47 1560.79 1992.76 1584.48L1992.48 1584.43C1988.7 1608.48 1983.7 1632.14 1977.52 1655.35L1977.79 1655.42C1971.54 1678.9 1964.09 1701.92 1955.5 1724.42L1955.24 1724.32C1946.6 1746.97 1936.81 1769.09 1925.94 1790.61L1926.19 1790.74C1915.27 1812.35 1903.27 1833.37 1890.24 1853.71L1890 1853.56C1876.97 1873.92 1862.92 1893.61 1847.91 1912.57L1848.13 1912.74C1833.14 1931.68 1817.19 1949.89 1800.37 1967.3L1800.17 1967.1C1783.4 1984.45 1765.76 2001.01 1747.32 2016.71L1747.5 2016.92C1729.14 2032.55 1709.98 2047.33 1690.08 2061.2L1689.92 2060.97C1670.16 2074.74 1649.68 2087.62 1628.55 2099.54L1628.68 2099.78C1607.72 2111.6 1586.1 2122.48 1563.9 2132.35L1563.78 2132.09C1541.82 2141.86 1519.28 2150.64 1496.23 2158.38L1496.32 2158.65C1473.55 2166.3 1450.29 2172.93 1426.58 2178.48L1426.51 2178.21C1403.16 2183.68 1379.39 2188.11 1355.24 2191.44L1355.28 2191.72C1331.54 2195 1307.45 2197.22 1283.05 2198.32L1283.04 2198.04C1271.02 2198.59 1258.93 2198.86 1246.78 2198.86C1234.62 2198.86 1222.53 2198.59 1210.52 2198.04L1210.51 2198.32C1186.11 2197.22 1162.02 2195 1138.28 2191.72L1138.32 2191.44C1114.17 2188.11 1090.4 2183.68 1067.05 2178.21L1066.98 2178.48C1043.27 2172.93 1020 2166.3 997.233 2158.65L997.323 2158.38C974.275 2150.64 951.738 2141.86 929.774 2132.09L929.659 2132.35C907.458 2122.48 885.842 2111.6 864.874 2099.78L865.013 2099.54C843.874 2087.62 823.395 2074.74 803.64 2060.97L803.479 2061.2C783.582 2047.33 764.42 2032.55 746.06 2016.92L746.242 2016.71C727.794 2001.01 710.155 1984.45 693.392 1967.1L693.189 1967.3C676.363 1949.89 660.42 1931.68 645.428 1912.74L645.649 1912.57C630.64 1893.61 616.586 1873.92 603.554 1853.56L603.316 1853.71C590.29 1833.37 578.284 1812.35 567.368 1790.74L567.62 1790.61C556.749 1769.09 546.958 1746.97 538.317 1724.32L538.053 1724.42C529.47 1701.92 522.019 1678.9 515.768 1655.42L516.041 1655.35C509.861 1632.14 504.853 1608.48 501.082 1584.43L500.803 1584.48C497.088 1560.79 494.572 1536.73 493.316 1512.35L493.598 1512.34C492.979 1500.33 492.666 1488.25 492.666 1476.09C492.666 1463.94 492.979 1451.85 493.598 1439.85L493.316 1439.83C494.572 1415.45 497.088 1391.39 500.803 1367.71L501.082 1367.75C504.853 1343.7 509.861 1320.04 516.041 1296.83L515.768 1296.76C522.019 1273.28 529.47 1250.26 538.053 1227.76L538.317 1227.86C546.958 1205.21 556.749 1183.09 567.62 1161.57L567.368 1161.44C578.284 1139.83 590.29 1118.82 603.316 1098.47L603.554 1098.62C616.586 1078.27 630.64 1058.58 645.649 1039.62L645.428 1039.44C660.42 1020.5 676.363 1002.3 693.189 984.885L693.392 985.081C710.155 967.735 727.794 951.179 746.243 935.477L746.06 935.262C764.42 919.635 783.582 904.853 803.479 890.981L803.64 891.213C823.395 877.44 843.874 864.564 865.013 852.648L864.874 852.402C885.842 840.582 907.458 829.706 929.659 819.834L929.774 820.092C951.738 810.326 974.275 801.543 997.323 793.802L997.233 793.535C1020 785.888 1043.27 779.258 1066.98 773.702L1067.05 773.976C1090.4 768.505 1114.17 764.075 1138.32 760.741L1138.28 760.462C1162.02 757.185 1186.11 754.967 1210.51 753.86L1210.52 754.142C1222.53 753.597 1234.62 753.321 1246.78 753.321C1258.93 753.321 1271.02 753.597 1283.04 754.142L1283.05 753.86C1307.45 754.967 1331.54 757.185 1355.28 760.462L1355.24 760.741C1379.39 764.075 1403.16 768.505 1426.51 773.976L1426.58 773.702C1450.29 779.258 1473.55 785.888 1496.32 793.535L1496.23 793.802C1519.28 801.543 1541.82 810.326 1563.78 820.092L1563.9 819.834C1586.1 829.706 1607.72 840.582 1628.68 852.402L1628.55 852.648C1649.68 864.564 1670.16 877.44 1689.92 891.213L1690.08 890.982C1709.98 904.853 1729.14 919.635 1747.5 935.262L1747.32 935.477C1765.76 951.179 1783.4 967.735 1800.17 985.081L1800.37 984.885C1817.19 1002.3 1833.14 1020.5 1848.13 1039.44L1847.91 1039.62C1862.92 1058.58 1876.97 1078.27 1890 1098.62L1890.24 1098.47C1903.27 1118.82 1915.27 1139.83 1926.19 1161.44L1925.94 1161.57C1936.81 1183.09 1946.6 1205.21 1955.24 1227.86L1955.5 1227.76C1964.09 1250.26 1971.54 1273.28 1977.79 1296.76L1977.52 1296.83C1983.7 1320.04 1988.7 1343.7 1992.48 1367.75L1992.76 1367.71Z" fill="#B6B4A0" fill-opacity="0.01" stroke="#FCFBF3" stroke-width="0.564387" stroke-dasharray="72.24 72.24"/>
<path d="M1517.92 1321.88C1532.68 1355.2 1543 1390.74 1548.18 1427.85L1547.78 1427.91C1550.29 1445.92 1551.59 1464.31 1551.59 1482.99C1551.59 1501.66 1550.29 1520.05 1547.78 1538.07L1548.18 1538.12C1543 1575.23 1532.68 1610.78 1517.92 1644.09L1517.56 1643.93C1502.59 1677.7 1483.05 1709.18 1459.69 1737.64L1460 1737.89C1436.73 1766.24 1409.66 1791.61 1379.53 1813.29L1379.3 1812.96C1349.74 1834.24 1317.22 1851.96 1282.44 1865.46L1282.59 1865.83C1248.84 1878.93 1212.97 1888.07 1175.61 1892.63L1175.56 1892.24C1157.51 1894.44 1139.11 1895.58 1120.43 1895.58C1101.75 1895.58 1083.35 1894.44 1065.3 1892.24L1065.25 1892.63C1027.89 1888.07 992.019 1878.93 958.275 1865.83L958.419 1865.46C923.642 1851.96 891.124 1834.24 861.558 1812.96L861.326 1813.29C831.198 1791.61 804.132 1766.24 780.86 1737.89L781.167 1737.64C757.805 1709.18 738.27 1677.7 723.304 1643.93L722.941 1644.09C708.18 1610.78 697.858 1575.23 692.684 1538.12L693.078 1538.07C690.566 1520.05 689.269 1501.66 689.269 1482.99C689.269 1464.31 690.566 1445.92 693.078 1427.91L692.684 1427.85C697.858 1390.74 708.18 1355.2 722.941 1321.88L723.304 1322.04C738.27 1288.27 757.805 1256.8 781.167 1228.34L780.86 1228.08C804.132 1199.73 831.198 1174.37 861.326 1152.69L861.558 1153.01C891.124 1131.74 923.642 1114.02 958.419 1100.51L958.275 1100.14C992.019 1087.04 1027.89 1077.91 1065.25 1073.34L1065.3 1073.74C1083.35 1071.53 1101.75 1070.4 1120.43 1070.4C1139.11 1070.4 1157.51 1071.53 1175.56 1073.74L1175.61 1073.34C1212.97 1077.91 1248.84 1087.04 1282.59 1100.14L1282.44 1100.51C1317.22 1114.02 1349.74 1131.74 1379.3 1153.01L1379.53 1152.69C1409.66 1174.37 1436.73 1199.73 1460 1228.08L1459.69 1228.34C1483.05 1256.8 1502.59 1288.27 1517.56 1322.04L1517.92 1321.88Z" fill="#B6B4A0" fill-opacity="0.01" stroke="#FCFBF3" stroke-width="0.794067" stroke-dasharray="101.64 101.64"/>
<path d="M1303.31 1336.39C1315.65 1351.69 1326 1368.77 1333.87 1387.38L1333.67 1387.47C1337.5 1396.51 1340.74 1405.91 1343.35 1415.64C1345.96 1425.37 1347.85 1435.13 1349.05 1444.87L1349.27 1444.85C1351.75 1464.9 1351.33 1484.87 1348.29 1504.29L1348.08 1504.26C1345 1523.95 1339.21 1543.08 1331.01 1561.17L1331.2 1561.26C1323.03 1579.28 1312.47 1596.28 1299.8 1611.78L1299.63 1611.65C1287.2 1626.86 1272.72 1640.64 1256.49 1652.53L1256.61 1652.7C1240.86 1664.24 1223.44 1674.01 1204.61 1681.61L1204.53 1681.41C1195.43 1685.08 1186 1688.24 1176.27 1690.85C1166.54 1693.46 1156.79 1695.44 1147.07 1696.81L1147.1 1697.02C1127 1699.86 1107.03 1700.11 1087.62 1697.99L1087.64 1697.78C1067.64 1695.6 1048.22 1690.91 1029.84 1683.95L1029.77 1684.15C1011.04 1677.07 993.396 1667.63 977.311 1656.1L977.436 1655.93C961.289 1644.36 946.716 1630.69 934.202 1615.18L934.036 1615.31C921.693 1600.02 911.352 1582.93 903.476 1564.32L903.673 1564.24C899.849 1555.2 896.607 1545.8 894 1536.07C891.392 1526.33 889.501 1516.57 888.295 1506.83L888.083 1506.86C885.598 1486.8 886.015 1466.83 889.057 1447.41L889.268 1447.45C892.352 1427.76 898.139 1408.63 906.339 1390.53L906.144 1390.45C914.314 1372.42 924.877 1355.42 937.55 1339.92L937.716 1340.06C950.153 1324.84 964.624 1311.07 980.861 1299.17L980.734 1299C996.489 1287.46 1013.9 1277.69 1032.74 1270.1L1032.82 1270.3C1041.92 1266.63 1051.35 1263.46 1061.08 1260.85C1070.81 1258.25 1080.56 1256.27 1090.27 1254.9L1090.24 1254.68C1110.35 1251.84 1130.31 1251.6 1149.73 1253.71L1149.7 1253.92C1169.71 1256.1 1189.13 1260.79 1207.51 1267.75L1207.58 1267.55C1226.31 1274.64 1243.95 1284.08 1260.04 1295.6L1259.91 1295.77C1276.06 1307.34 1290.63 1321.01 1303.15 1336.52L1303.31 1336.39Z" fill="#B6B4A0" fill-opacity="0.01" stroke="#FCFBF3" stroke-width="0.428378" stroke-dasharray="54.83 54.83"/>
</svg>
