<svg width="313" height="234" viewBox="0 0 313 234" fill="none" xmlns="http://www.w3.org/2000/svg">
<path d="M269.012 172.402L271.63 228.265" stroke="#100F00" stroke-width="3.49143" stroke-linecap="round" stroke-linejoin="round"/>
<path d="M257.263 172.402L260.172 228.265" stroke="#100F00" stroke-width="3.49143" stroke-linecap="round" stroke-linejoin="round"/>
<path d="M219.812 172.402L216.029 228.265" stroke="#100F00" stroke-width="3.49143" stroke-linecap="round" stroke-linejoin="round"/>
<path d="M211.252 172.402L202.232 228.265" stroke="#100F00" stroke-width="3.49143" stroke-linecap="round" stroke-linejoin="round"/>
<path d="M270.746 111.473L270.938 170.443H217.455L219.364 111.473H270.746Z" fill="#454648" stroke="#100F00" stroke-width="0.581904" stroke-linecap="round" stroke-linejoin="round"/>
<path d="M207.184 173.629H270.938V170.271H207.184V173.629Z" fill="#454648" stroke="#100F00" stroke-width="0.581904" stroke-linecap="round" stroke-linejoin="round"/>
<path d="M207.185 173.629H261.186V170.271H207.185V173.629Z" fill="#454648" stroke="#100F00" stroke-width="0.581904" stroke-linecap="round" stroke-linejoin="round"/>
<path d="M220.702 139.816C220.702 139.816 215.75 147.381 214.97 153.095C214.19 158.81 215.494 165.315 219.137 167.678C221.51 169.129 224.182 170.021 226.952 170.285H257.938C257.938 170.285 263.408 168.981 265.753 163.773C268.098 158.565 266.533 151.792 264.973 148.405C263.414 145.019 262.099 142.144 262.099 142.144L220.702 139.816Z" fill="#100F00" stroke="#100F00" stroke-width="0.581904" stroke-linecap="round" stroke-linejoin="round"/>
<path d="M235.284 79.8808C235.284 79.8808 217.053 86.6542 216.012 88.4756C214.97 90.2969 224.088 126.235 224.088 126.235L219.398 141.08C226.539 142.592 233.755 143.724 241.016 144.472C251.95 145.514 262.628 142.389 262.628 142.389L258.462 124.932L265.235 88.4756C265.235 88.4756 251.851 82.127 248.907 81.0039C245.962 79.8808 237.367 79.6422 235.284 79.8808Z" fill="white" stroke="#100F00" stroke-width="0.581904" stroke-linecap="round" stroke-linejoin="round"/>
<path d="M254.563 83.5157C252.096 82.3868 249.908 81.4034 248.907 81.0251C245.962 79.9021 237.368 79.6402 235.285 79.9021C235.285 79.9021 230.816 81.5605 226.178 83.4575L236.588 126.78L245.701 128.078L254.563 83.5157Z" fill="white" stroke="#100F00" stroke-width="0.581904" stroke-linecap="round" stroke-linejoin="round"/>
<path d="M245.014 144.697L248.209 80.804C244.787 79.8672 237.222 79.6402 235.285 79.9021L233.795 80.484L237.205 144.092C238.462 144.243 239.736 144.383 241.016 144.505C242.297 144.627 243.699 144.68 245.014 144.697Z" fill="white" stroke="#100F00" stroke-width="0.581904" stroke-linecap="round" stroke-linejoin="round"/>
<path d="M216.011 88.4961C216.011 88.4961 199.346 134.333 202.209 135.892C205.072 137.452 238.409 137.975 238.409 137.975V134.333L216.297 126.256L220.725 111.935L216.011 88.4961Z" fill="white" stroke="#100F00" stroke-width="0.581904" stroke-linecap="round" stroke-linejoin="round"/>
<path d="M238.409 134.335C238.409 134.335 247.266 133.293 248.045 133.293C248.825 133.293 255.855 138.239 255.855 138.239L238.397 137.977L238.409 134.335Z" fill="white" stroke="#100F00" stroke-width="0.581904" stroke-linecap="round" stroke-linejoin="round"/>
<path d="M265.159 88.4961C265.159 88.4961 281.831 134.333 278.962 135.892C276.093 137.452 242.768 137.975 242.768 137.975V134.333L264.88 126.256L260.679 112.703L265.159 88.4961Z" fill="white" stroke="#100F00" stroke-width="0.581904" stroke-linecap="round" stroke-linejoin="round"/>
<path d="M272.363 125.27C272.907 125.272 273.45 125.318 273.987 125.409" stroke="#100F00" stroke-width="0.581904" stroke-linecap="round" stroke-linejoin="round"/>
<path d="M264.903 126.257C267.006 125.753 269.147 125.424 271.304 125.273" stroke="#100F00" stroke-width="0.581904" stroke-linecap="round" stroke-linejoin="round"/>
<path d="M242.768 134.335C242.768 134.335 233.911 133.293 233.131 133.293C232.352 133.293 225.316 138.239 225.316 138.239L242.774 137.977L242.768 134.335Z" fill="white" stroke="#100F00" stroke-width="0.581904" stroke-linecap="round" stroke-linejoin="round"/>
<path d="M266.073 151.175C263.99 142.633 255.907 141.038 248.761 140.451C241.615 139.863 236.85 141.981 236.85 141.981C236.85 141.981 248.488 142.563 249.96 150.523L245.223 162.004C245.223 162.004 244.327 164.658 248.796 168.778" fill="#100F00"/>
<path d="M266.073 151.175C263.99 142.633 255.907 141.038 248.761 140.451C241.615 139.863 236.85 141.981 236.85 141.981C236.85 141.981 248.488 142.563 249.96 150.523L245.223 162.004C245.223 162.004 244.327 164.658 248.796 168.778" stroke="#100F00" stroke-width="0.581904" stroke-linecap="round" stroke-linejoin="round"/>
<path d="M247.103 154.696C247.587 160.273 248.387 165.818 249.501 171.303C251.369 180.527 259.632 213.998 260.167 215.319C260.702 216.64 266.83 225.333 265.765 228.493C264.7 231.653 263.368 231.403 260.964 229.023C258.561 226.643 256.169 216.634 255.902 215.581C255.634 214.527 241.773 190.803 237.508 179.997C233.242 169.191 230.571 163.122 231.91 155.225C233.248 147.329 238.037 147.079 241.802 148.109C245.567 149.139 247.103 154.696 247.103 154.696Z" fill="white" stroke="#100F00" stroke-width="0.581904" stroke-linecap="round" stroke-linejoin="round"/>
<path d="M246.893 157.504L237.507 179.995L234.993 173.303L246.893 157.504Z" fill="#100F00" stroke="#100F00" stroke-width="0.581904" stroke-miterlimit="10"/>
<path d="M265.765 228.492C266.347 226.787 264.817 223.464 263.211 220.566C261.273 223.476 259.23 223.179 257.799 222.312C258.707 225.088 259.835 227.904 260.964 229.021C263.368 231.396 264.7 231.658 265.765 228.492Z" fill="#100F00" stroke="#100F00" stroke-width="0.581904" stroke-linecap="round" stroke-linejoin="round"/>
<path d="M249.088 147.38C249.088 147.38 244.642 139.542 237.659 141.881C230.676 144.22 215.779 195.271 211.095 202.562C209.887 204.45 208.584 206.276 207.19 208.032C204.727 208.716 202.182 209.066 199.626 209.074C195.459 209.074 191.811 209.074 194.935 211.675C198.06 214.276 204.572 216.103 207.959 216.621C211.345 217.139 213.167 210.633 213.167 210.633C213.167 210.633 233.219 176.522 236.862 172.873C240.504 169.225 247.284 157.511 248.581 155.166C249.879 152.821 249.605 149.708 249.088 147.38Z" fill="white" stroke="#100F00" stroke-width="0.581904" stroke-linecap="round" stroke-linejoin="round"/>
<path d="M212.852 211.522C209.134 211.917 203.251 212.453 203.251 212.453L201.191 209.02C200.679 209.049 200.149 209.072 199.608 209.072C195.442 209.072 191.793 209.072 194.918 211.673C198.043 214.274 204.554 216.101 207.941 216.619C210.536 217.021 212.212 213.285 212.852 211.522Z" fill="#100F00" stroke="#100F00" stroke-width="0.581904" stroke-linecap="round" stroke-linejoin="round"/>
<path d="M229.972 59.7204C229.972 59.7204 227.342 61.8269 227.865 64.1952C228.389 66.5636 227.08 70.2412 225.235 70.7708C223.39 71.3003 225.235 73.6803 226.55 73.9247L227.865 74.1865C227.865 74.1865 229.18 80.7621 230.234 81.5534C231.287 82.3448 235.232 81.5534 235.232 81.5534C235.232 81.5534 236.547 90.2296 238.386 92.8598C240.225 95.4901 241.296 96.0138 243.623 92.598C245.951 89.1822 248.86 81.0239 248.86 81.0239C248.86 81.0239 249.652 72.3477 247.545 66.2959C245.439 60.2441 237.6 52.3593 229.972 59.7204Z" fill="white" stroke="#100F00" stroke-width="0.581904" stroke-linecap="round" stroke-linejoin="round"/>
<path d="M230.379 68.5892C230.379 69.2642 230.141 69.8112 229.844 69.8112C229.547 69.8112 229.309 69.2642 229.309 68.5892C229.309 67.9142 229.553 67.3672 229.844 67.3672C230.135 67.3672 230.379 67.9142 230.379 68.5892Z" fill="#100F00"/>
<path d="M229.006 65.6854C229.006 65.6854 230.228 64.3121 231.299 66.1451" stroke="#100F00" stroke-width="0.581904" stroke-linecap="round" stroke-linejoin="round"/>
<path d="M229.617 75.8051C229.617 75.8051 230.379 76.1077 232.212 74.7344" stroke="#100F00" stroke-width="0.581904" stroke-linecap="round" stroke-linejoin="round"/>
<path d="M232.206 50.9414C232.206 50.9414 226.684 53.2224 227.999 58.0813C229.314 62.9402 236.943 66.9321 239.306 70.9298C241.668 74.9275 241.15 79.2161 239.306 80.9269C237.461 82.6377 236.152 82.9286 236.152 82.9286C240.175 85.1658 244.7 86.3451 249.303 86.3561C256.932 86.3561 260.045 78.4829 259.515 73.3447C258.986 68.2065 257.612 56.1319 252.09 52.3961C246.568 48.6603 237.467 48.3693 232.206 50.9414Z" fill="#100F00" stroke="#100F00" stroke-width="0.581904" stroke-linecap="round" stroke-linejoin="round"/>
<path d="M115.621 172.406L113.003 228.269" stroke="#100F00" stroke-width="3.49143" stroke-linecap="round" stroke-linejoin="round"/>
<path d="M144.135 172.406L141.226 228.269" stroke="#100F00" stroke-width="3.49143" stroke-linecap="round" stroke-linejoin="round"/>
<path d="M158.392 172.406L162.174 228.269" stroke="#100F00" stroke-width="3.49143" stroke-linecap="round" stroke-linejoin="round"/>
<path d="M173.521 172.406L182.541 228.269" stroke="#100F00" stroke-width="3.49143" stroke-linecap="round" stroke-linejoin="round"/>
<path d="M111.176 111.473L113.69 170.443H160.748L156.134 111.473H111.176Z" fill="#454648" stroke="#100F00" stroke-width="0.581904" stroke-linecap="round" stroke-linejoin="round"/>
<path d="M177.588 170.273H113.689V173.631H177.588V170.273Z" fill="#454648" stroke="#100F00" stroke-width="0.581904" stroke-linecap="round" stroke-linejoin="round"/>
<path d="M177.589 170.273H139.684V173.631H177.589V170.273Z" fill="#454648" stroke="#100F00" stroke-width="0.581904" stroke-linecap="round" stroke-linejoin="round"/>
<path d="M119.532 140.712C119.532 140.712 117.169 162.039 117.955 164.827C118.293 166.056 118.941 167.178 119.837 168.086C120.732 168.993 121.845 169.656 123.07 170.011C125.235 170.593 155.278 170.011 156.11 170.011C160.894 170.104 161.848 167.649 162.011 162.836C162.191 157.599 161.429 139.234 161.429 139.234L119.532 140.712Z" fill="#100F00" stroke="#100F00" stroke-width="0.581904" stroke-linecap="round" stroke-linejoin="round"/>
<path d="M129.756 82.5857C129.756 82.5857 112.107 89.5686 112.689 90.7324C113.271 91.8962 118.508 125.85 118.723 126.81C118.939 127.771 119.305 139.03 119.305 139.996C119.305 140.962 120.469 142.714 121.633 142.906C127.708 143.918 134.312 143.395 140.457 143.488C144.612 143.538 148.763 143.552 152.91 143.529C155.354 143.529 161.057 144.692 161.97 141.963C162.36 139.828 162.343 91.9195 162.552 89.5918C162.762 87.2642 160.423 86.6823 157.897 85.3265C155.372 83.9706 143.739 80.8633 142.576 80.8633C141.412 80.8633 129.756 82.5857 129.756 82.5857Z" fill="white" stroke="#100F00" stroke-width="0.581904" stroke-linecap="round" stroke-linejoin="round"/>
<path d="M134.818 93.6606L138.752 99.1713L134.26 132.846L141.336 140.324L147.038 131.671L141.312 98.5777L143.867 93.0729L136.587 88.9414L134.818 93.6606Z" fill="#100F00" stroke="#100F00" stroke-width="0.581904" stroke-linecap="round" stroke-linejoin="round"/>
<path d="M131.112 80.8413C131.112 80.8413 128.785 81.6152 128.593 83.1689C128.401 84.7226 128.982 96.9426 128.982 96.9426L136.547 94.0331L139.841 93.2649L148.389 94.8535C148.389 94.8535 148.185 87.8358 146.824 84.3443C145.462 80.8529 143.914 79.6891 142.75 79.4971C141.586 79.3051 131.112 80.8413 131.112 80.8413Z" fill="white" stroke="#100F00" stroke-width="0.581904" stroke-linecap="round" stroke-linejoin="round"/>
<path d="M129.948 80.2583C129.948 80.2583 132.084 88.2129 132.858 89.5688C133.632 90.9246 138.677 94.9979 139.841 93.2522C141.004 91.5065 142.168 86.8513 142.366 86.2694C142.564 85.6875 142.75 79.4844 142.75 79.4844C142.75 79.4844 133.44 82.7896 129.948 80.2583Z" fill="white" stroke="#100F00" stroke-width="0.581904" stroke-linecap="round" stroke-linejoin="round"/>
<path d="M133.754 85.3244C133.754 85.3244 133.969 85.6502 136.826 86.8606C138.378 87.5634 140.058 87.9359 141.761 87.9546L142.308 85.8714L142.64 80.2734L133.754 85.3244Z" fill="#100F00" stroke="#100F00" stroke-width="0.581904" stroke-miterlimit="10"/>
<path d="M148.325 65.5206C148.325 65.5206 149.006 59.1662 148.325 55.5351C147.644 51.904 143.786 50.7751 140.836 50.298C137.885 49.8208 125.409 50.9788 123.821 54.3713C122.232 57.7638 125.636 60.4929 125.636 60.4929C125.636 60.4929 123.594 61.8546 124.502 63.6701C125.409 65.4857 126.544 67.982 126.544 67.982L127.906 62.7449L137.432 62.9718L141.063 63.8796L144.921 68.6454C144.921 68.6454 146.963 69.0993 147.644 68.1915C148.325 67.2837 148.325 65.5206 148.325 65.5206Z" fill="#100F00" stroke="#100F00" stroke-width="0.581904" stroke-linecap="round" stroke-linejoin="round"/>
<path d="M126.847 67.0781C126.847 67.0781 124.909 64.9483 124.909 67.2759C124.909 69.6035 127.237 71.9311 127.237 71.9311L126.847 67.0781Z" stroke="#100F00" stroke-width="0.581904" stroke-linecap="round" stroke-linejoin="round"/>
<path d="M126.544 61.21C126.544 61.21 126.771 73.9129 127.225 76.4093C127.679 78.9057 133.125 85.487 134.26 85.487C135.395 85.487 136.977 85.9409 138.333 84.8062C139.689 83.6715 145.369 78.4518 145.822 76.8632C146.168 75.2958 146.395 73.7047 146.503 72.1032C146.503 72.1032 150.134 70.2877 149.68 67.5644C149.227 64.8411 147.865 64.6141 147.184 65.2949C146.535 66.0154 145.929 66.7732 145.369 67.5644C145.369 67.5644 144.915 65.2949 144.007 64.3872C143.099 63.4794 140.376 63.0255 140.83 62.1177L143.326 57.125C143.326 57.125 139.014 60.7561 134.935 61.4369C132.144 61.8161 129.31 61.7394 126.544 61.21Z" fill="white" stroke="#100F00" stroke-width="0.581904" stroke-linecap="round" stroke-linejoin="round"/>
<path d="M130.774 67.4451C130.774 68.0793 130.454 68.6089 130.053 68.6089C129.651 68.6089 129.331 68.1026 129.331 67.4451C129.331 66.7875 129.657 66.2812 130.053 66.2812C130.448 66.2812 130.774 66.8166 130.774 67.4451Z" fill="#100F00"/>
<path d="M138.1 67.4451C138.1 68.0793 137.78 68.6089 137.379 68.6089C136.977 68.6089 136.657 68.1026 136.657 67.4451C136.657 66.7875 136.983 66.2812 137.379 66.2812C137.774 66.2812 138.1 66.8166 138.1 67.4451Z" fill="#100F00"/>
<path d="M132.695 67.1484C132.695 67.1484 131.013 73.6309 131.735 73.9916C132.456 74.3524 136.541 72.7929 136.541 72.7929" stroke="#100F00" stroke-width="0.581904" stroke-linecap="round" stroke-linejoin="round"/>
<path d="M131.752 73.9928C130.771 74.3494 129.842 74.8347 128.988 75.4359C127.912 76.2739 129.832 76.9954 132.352 76.9954C134.871 76.9954 138.118 76.879 139.562 76.1575C141.005 75.4359 139.8 74.8365 138.601 74.3536C137.505 73.9843 136.38 73.7041 135.238 73.5156C135.238 73.5156 132.916 73.8764 131.752 73.9928Z" fill="#100F00" stroke="#100F00" stroke-width="0.581904" stroke-linecap="round" stroke-linejoin="round"/>
<path d="M128.493 64.8697C128.493 64.8697 129.576 63.6652 131.618 64.6253" stroke="#100F00" stroke-width="0.581904" stroke-linecap="round" stroke-linejoin="round"/>
<path d="M135.098 64.7532C135.799 64.387 136.6 64.2593 137.38 64.3895C138.161 64.5197 138.877 64.9007 139.421 65.4748" stroke="#100F00" stroke-width="0.581904" stroke-linecap="round" stroke-linejoin="round"/>
<path d="M112.689 90.7344C112.689 90.7344 100.469 125.649 100.469 126.231C100.469 126.812 98.7235 130.106 100.469 132.242C102.215 134.377 105.317 135.151 107.062 134.377C108.808 133.603 117.926 117.502 117.926 117.502C117.926 117.502 113.271 92.6838 112.689 90.7344Z" fill="white" stroke="#100F00" stroke-width="0.581904" stroke-linecap="round" stroke-linejoin="round"/>
<path d="M113.759 103.732L113.148 101.754" stroke="#100F00" stroke-width="0.581904" stroke-linecap="round" stroke-linejoin="round"/>
<path d="M117.106 114.567L114.365 105.699" stroke="#100F00" stroke-width="0.581904" stroke-linecap="round" stroke-linejoin="round"/>
<path d="M103.204 121.586L138.316 106.648L139.09 110.332C139.09 110.332 112.514 130.896 110.577 132.444C108.639 133.992 107.859 135.162 105.34 135.162C102.82 135.162 99.5205 132.834 99.5205 129.733C99.567 127.72 100.029 125.739 100.876 123.914" fill="white"/>
<path d="M103.204 121.586L138.316 106.648L139.09 110.332C139.09 110.332 112.514 130.896 110.577 132.444C108.639 133.992 107.859 135.162 105.34 135.162C102.82 135.162 99.5205 132.834 99.5205 129.733C99.567 127.72 100.029 125.739 100.876 123.914" stroke="#100F00" stroke-width="0.581904" stroke-linecap="round" stroke-linejoin="round"/>
<path d="M134.383 108.676L135.704 111.981" stroke="#100F00" stroke-width="0.581904" stroke-linecap="round" stroke-linejoin="round"/>
<path d="M138.316 106.648C138.316 106.648 139.48 102.383 139.864 101.801C140.248 101.219 142.582 99.6654 143.554 98.8915C144.525 98.1175 146.073 96.7559 146.265 97.7277C146.457 98.6994 143.938 101.603 143.938 101.603C143.938 101.603 147.819 99.6654 149.175 99.4734C150.501 99.2185 151.856 99.148 153.202 99.2639C154.173 99.4559 153.167 100.003 153.056 101.411C152.87 103.739 148.791 105.874 147.627 107.038C146.463 108.202 139.09 110.332 139.09 110.332L138.316 106.648Z" fill="white" stroke="#100F00" stroke-width="0.581904" stroke-linecap="round" stroke-linejoin="round"/>
<path d="M152.869 100.586L145.938 102.896" stroke="#100F00" stroke-width="0.581904" stroke-linecap="round" stroke-linejoin="round"/>
<path d="M152.544 102.734L146.597 104.882" stroke="#100F00" stroke-width="0.581904" stroke-linecap="round" stroke-linejoin="round"/>
<path d="M148.581 106.363L147.091 106.858" stroke="#100F00" stroke-width="0.581904" stroke-linecap="round" stroke-linejoin="round"/>
<path d="M143.937 101.605L141.645 101.745" stroke="#100F00" stroke-width="0.581904" stroke-linecap="round" stroke-linejoin="round"/>
<path d="M162.15 88.2148C162.15 88.2148 165.892 97.6417 166.806 99.6551C167.894 102.07 172.84 112.079 172.84 112.079L182.15 91.9099L187.196 94.0397C187.196 94.0397 179.241 119.062 177.495 122.751C175.749 126.44 176.139 129.344 173.422 129.152C170.704 128.96 162.366 120.423 162.366 120.423L162.15 88.2148Z" fill="white" stroke="#100F00" stroke-width="0.581904" stroke-linecap="round" stroke-linejoin="round"/>
<path d="M172.84 112.078L169.052 118.91" stroke="#100F00" stroke-width="0.581904" stroke-linecap="round" stroke-linejoin="round"/>
<path d="M171.362 114.621L168.226 117.094" stroke="#100F00" stroke-width="0.581904" stroke-linecap="round" stroke-linejoin="round"/>
<path d="M180.94 95.1406L185.892 97.6137" stroke="#100F00" stroke-width="0.581904" stroke-linecap="round" stroke-linejoin="round"/>
<path d="M182.15 91.9093C182.15 91.9093 181.958 86.4743 182.54 85.3105C183.122 84.1467 185.252 81.0451 185.45 80.2712C185.648 79.4972 186.614 78.1356 186.806 79.4914C186.896 80.531 186.831 81.5782 186.614 82.5988C186.614 82.5988 189.133 80.2712 189.325 79.4914C189.517 78.7117 189.325 76 190.105 76C190.885 76 191.653 76.5819 192.433 78.9095C193.212 81.2371 192.433 84.9264 192.043 86.2823C191.653 87.6381 187.777 92.8752 187.777 92.8752L187.196 94.039L182.15 91.9093Z" fill="white" stroke="#100F00" stroke-width="0.581904" stroke-linecap="round" stroke-linejoin="round"/>
<path d="M192.497 80.4626C192.497 80.4626 192.165 79.1417 191.839 80.1368C191.513 81.1318 190.518 84.92 190.518 84.92C190.518 84.92 185.397 88.4114 185.397 89.3832V90.355" stroke="#100F00" stroke-width="0.581904" stroke-linecap="round" stroke-linejoin="round"/>
<path d="M163.367 220.749L167.783 226.626C167.783 226.626 173.678 228.168 173.719 228.779C173.76 229.39 171.612 230.286 171.612 230.286L165.898 231.176C165.898 231.176 159.13 228.523 157.501 228.145C155.872 227.766 154.371 228.185 154.848 226.306C155.325 224.426 156.087 220.539 156.087 220.539L163.367 220.749Z" fill="white" stroke="#100F00" stroke-width="0.581904" stroke-linecap="round" stroke-linejoin="round"/>
<path d="M147.83 160.563C147.83 160.563 152.351 152.504 158.648 149.355C164.944 146.207 170.449 147.383 175.558 147.383C180.667 147.383 189.326 148.168 190.309 149.35C191.292 150.531 163.367 220.743 163.367 220.743L156.087 220.546C156.087 220.546 161.4 196.944 162.186 191.45C162.971 185.957 164.92 170.007 164.92 170.007C164.92 170.007 151.281 170.007 144.99 169.786" fill="#100F00"/>
<path d="M147.83 160.563C147.83 160.563 152.351 152.504 158.648 149.355C164.944 146.207 170.449 147.383 175.558 147.383C180.667 147.383 189.326 148.168 190.309 149.35C191.292 150.531 163.367 220.744 163.367 220.744L156.087 220.546C156.087 220.546 161.4 196.944 162.186 191.45C162.971 185.957 164.92 170.007 164.92 170.007C164.92 170.007 151.281 170.007 144.99 169.786" stroke="#100F00" stroke-width="0.581904" stroke-linecap="round" stroke-linejoin="round"/>
<path d="M121.278 149.761C121.278 149.761 121.476 146.811 127.767 146.613C134.057 146.415 140.749 145.828 141.534 149.563C142.32 153.299 142.518 210.535 142.518 212.502C142.518 214.469 143.1 219.188 143.1 219.188L135.82 219.77C135.82 219.77 126.393 188.115 124.816 181.033C123.239 173.951 123.443 156.843 123.443 155.464" fill="#100F00"/>
<path d="M121.278 149.761C121.278 149.761 121.476 146.811 127.767 146.613C134.057 146.415 140.749 145.828 141.534 149.563C142.32 153.299 142.518 210.535 142.518 212.502C142.518 214.469 143.1 219.188 143.1 219.188L135.82 219.77C135.82 219.77 126.393 188.115 124.816 181.033C123.239 173.951 123.443 156.843 123.443 155.464" stroke="#100F00" stroke-width="0.581904" stroke-linecap="round" stroke-linejoin="round"/>
<path d="M143.111 219.191C143.111 219.191 145.665 227.844 146.253 228.828C146.841 229.811 147.236 230.405 145.467 231.58C143.698 232.756 140.161 233.547 137.996 232.959C135.831 232.372 135.435 228.63 135.831 225.488C136.07 223.592 136.07 221.674 135.831 219.779L143.111 219.191Z" fill="white" stroke="#100F00" stroke-width="0.581904" stroke-linecap="round" stroke-linejoin="round"/>
<path d="M26.0078 172.406L16.9883 228.269" stroke="#100F00" stroke-width="3.49143" stroke-linecap="round" stroke-linejoin="round"/>
<path d="M56.2666 172.406L47.2471 228.269" stroke="#100F00" stroke-width="3.49143" stroke-linecap="round" stroke-linejoin="round"/>
<path d="M68.7783 172.406L77.7978 228.269" stroke="#100F00" stroke-width="3.49143" stroke-linecap="round" stroke-linejoin="round"/>
<path d="M100.201 172.406L109.221 228.269" stroke="#100F00" stroke-width="3.49143" stroke-linecap="round" stroke-linejoin="round"/>
<path d="M11.0879 111.473L24.076 170.443H66.4794L51.3906 111.473H11.0879Z" fill="#454648" stroke="#100F00" stroke-width="0.581904" stroke-linecap="round" stroke-linejoin="round"/>
<path d="M104.268 170.273H24.0762V173.631H104.268V170.273Z" fill="#454648" stroke="#100F00" stroke-width="0.581904" stroke-linecap="round" stroke-linejoin="round"/>
<path d="M104.268 170.273H77.1279V173.631H104.268V170.273Z" fill="#454648" stroke="#100F00" stroke-width="0.581904" stroke-linecap="round" stroke-linejoin="round"/>
<path d="M35.5105 85.1201L19.4092 93.8487L27.9457 146.22C27.9457 146.22 27.5558 147.576 28.5276 148.158C29.4994 148.74 32.2111 148.938 32.2111 148.938H63.8318C64.9669 148.58 65.9763 147.906 66.7413 146.994C67.7072 145.638 67.7072 144.864 67.7072 143.503C67.7072 142.141 71.0066 93.0747 70.4247 92.1029C69.9761 91.4045 69.4553 90.755 68.8711 90.1652L52.1937 83.5664L35.5105 85.1201Z" fill="white" stroke="#100F00" stroke-width="0.581904" stroke-linecap="round" stroke-linejoin="round"/>
<path d="M46.9912 96.9433L50.7852 99.5502L49.7262 136.28L56.8079 143.757L62.5106 135.105L53.3398 98.9566L55.9002 93.4518L48.6205 89.3203L46.9912 96.9433Z" fill="#100F00" stroke="#100F00" stroke-width="0.581904" stroke-linecap="round" stroke-linejoin="round"/>
<path d="M58.9784 54.4698L61.306 61.4526L60.34 64.1701L63.4416 69.4073L61.306 70.7631C61.306 70.7631 62.4698 77.9438 62.0857 78.5257C61.7017 79.1076 53.5492 79.6895 53.5492 79.6895L52.3854 91.3276L39.3915 83.7629V72.3168C39.3915 72.3168 35.1203 56.2155 36.0921 54.8597C37.0638 53.5038 43.6568 50.7863 51.6115 49.8145C59.5661 48.8428 60.7241 48.0688 61.114 50.3965C61.5038 52.7241 58.9784 54.4698 58.9784 54.4698Z" fill="white" stroke="#100F00" stroke-width="0.581904" stroke-linecap="round" stroke-linejoin="round"/>
<path d="M61.114 50.3982C60.7241 48.0706 59.5603 48.8504 51.6115 49.8163C43.6626 50.7823 37.0638 53.5056 36.0921 54.8614C35.1203 56.2173 39.3915 72.3186 39.3915 72.3186V75.426C39.9042 75.5077 40.4266 75.5077 40.9393 75.426C43.0749 75.0419 45.9844 72.1324 45.9844 72.1324C45.9844 72.1324 43.0749 73.8781 41.9111 72.1324C40.7726 70.4214 40.3544 68.3306 40.7473 66.3133C41.1372 64.3698 44.0467 64.9517 44.0467 65.9234C44.0467 66.8952 45.2105 68.833 46.1765 68.4431C47.1424 68.0532 47.3403 63.5958 47.3403 63.5958C47.3403 63.5958 51.4136 60.8783 51.6115 59.5225C51.8093 58.1667 50.4476 56.0311 50.4476 56.0311L58.9784 54.4774C58.9784 54.4774 61.5038 52.7259 61.114 50.3982Z" fill="#100F00" stroke="#100F00" stroke-width="0.581904" stroke-linecap="round" stroke-linejoin="round"/>
<path d="M59.1766 62.2322C59.1766 62.2322 56.849 61.4524 55.4873 63.1981" stroke="#100F00" stroke-width="0.581904" stroke-linecap="round" stroke-linejoin="round"/>
<path d="M59.3689 64.8526C59.3689 65.545 59.107 66.1095 58.787 66.1095C58.4669 66.1095 58.2051 65.5276 58.2051 64.8526C58.2051 64.1776 58.4669 63.5898 58.787 63.5898C59.107 63.5898 59.3689 64.1717 59.3689 64.8526Z" fill="#100F00"/>
<path d="M60.5324 72.7063C60.5324 72.7063 58.0128 73.2882 57.041 72.3164" stroke="#100F00" stroke-width="0.581904" stroke-linecap="round" stroke-linejoin="round"/>
<path d="M53.5491 79.6914H49.0859L52.7752 85.7025L53.5491 79.6914Z" fill="#100F00" stroke="#100F00" stroke-width="0.581904" stroke-linecap="round" stroke-linejoin="round"/>
<path d="M39.3921 81.6289L34.5391 85.5102L46.375 99.086L52.3861 91.3293L39.3921 81.6289Z" fill="white" stroke="#100F00" stroke-width="0.581904" stroke-linecap="round" stroke-linejoin="round"/>
<path d="M52.3857 91.3288L56.8489 97.1478L55.4873 84.9278L53.3575 82.4023L52.3857 91.3288Z" fill="white" stroke="#100F00" stroke-width="0.581904" stroke-linecap="round" stroke-linejoin="round"/>
<path d="M70.4248 92.1016L86.3282 130.315L75.6619 134.581L68.8711 122.553L70.4248 92.1016Z" fill="white" stroke="#100F00" stroke-width="0.581904" stroke-linecap="round" stroke-linejoin="round"/>
<path d="M58.5947 130.118C58.5947 130.118 72.5604 127.988 76.6338 127.208C80.7071 126.429 84.0007 127.016 85.9442 129.152C87.8878 131.287 87.4921 135.355 86.9102 136.327C86.3283 137.299 81.0912 137.683 77.5997 137.683C74.1083 137.683 63.442 134.971 61.3064 134.389L59.1766 133.807L58.5947 130.118Z" fill="white" stroke="#100F00" stroke-width="0.581904" stroke-linecap="round" stroke-linejoin="round"/>
<path d="M71.5886 135.746C71.5886 135.746 76.8258 136.52 77.2156 137.102C77.6055 137.684 81.8709 142.537 82.4528 143.119C83.0347 143.701 83.4187 149.13 83.4187 149.13C83.4187 149.13 82.0629 150.102 81.673 149.52C81.2832 148.938 76.8258 143.311 76.8258 143.311C76.8258 143.311 71.1987 141.373 70.8147 140.209L70.4248 139.045L71.5886 135.746Z" fill="white" stroke="#100F00" stroke-width="0.581904" stroke-linecap="round" stroke-linejoin="round"/>
<path d="M19.4092 93.8477C19.4092 93.8477 29.1095 138.072 29.8835 138.264C30.6574 138.456 70.4247 139.044 70.4247 139.044L71.5885 135.745L38.612 127.406L36.4823 97.921" fill="white"/>
<path d="M19.4092 93.8477C19.4092 93.8477 29.1095 138.072 29.8835 138.264C30.6574 138.456 70.4247 139.044 70.4247 139.044L71.5885 135.745L38.612 127.406L36.4823 97.921" stroke="#100F00" stroke-width="0.581904" stroke-linecap="round" stroke-linejoin="round"/>
<path d="M87.1078 152.348C87.1078 152.348 108.056 157.3 109.604 158.248C111.152 159.197 110.384 162.63 109.412 165.487C108.44 168.344 78.7633 219.179 78.7633 219.179L74.3059 218.016L87.8817 169.846H70.8145L87.1078 152.348Z" fill="#100F00" stroke="#100F00" stroke-width="0.581904" stroke-linecap="round" stroke-linejoin="round"/>
<path d="M78.7633 219.18L82.2547 227.175C82.2547 227.175 87.1078 230.789 86.9099 231.365C86.7121 231.941 84.3903 231.947 84.3903 231.947L78.7633 230.596C78.7633 230.596 73.5261 225.644 72.1703 224.69C70.8144 223.736 69.2608 223.526 70.4246 222.025C71.6314 220.611 72.9279 219.275 74.3059 218.027L78.7633 219.18Z" fill="white" stroke="#100F00" stroke-width="0.581904" stroke-linecap="round" stroke-linejoin="round"/>
<path d="M28.5274 148.156C28.5274 148.156 27.5557 158.631 27.5557 161.296C27.5557 163.961 29.6913 168.15 33.5726 169.675C37.4539 171.2 82.6446 169.675 82.6446 169.675L100.492 224.508L105.729 222.599C105.729 222.599 99.1299 162.82 99.1299 161.499C99.1299 160.178 98.548 155.407 96.6103 154.452C94.6725 153.498 63.8316 148.93 63.8316 148.93L28.5274 148.156Z" fill="#100F00" stroke="#100F00" stroke-width="0.581904" stroke-linecap="round" stroke-linejoin="round"/>
<path d="M105.729 222.598C105.729 222.598 115.814 223.93 116.978 223.761C118.141 223.593 121.825 222.807 120.661 224.71C119.497 226.613 111.932 228.708 108.831 230.04C105.729 231.373 102.622 233.468 101.656 231.949C100.69 230.43 100.492 224.524 100.492 224.524L105.729 222.598Z" fill="white" stroke="#100F00" stroke-width="0.581904" stroke-linecap="round" stroke-linejoin="round"/>
<path d="M51.2217 127.207H47.5382L43.6569 131.67C43.6569 131.67 42.4931 134.388 43.6569 134.388C44.8207 134.388 47.5382 134.97 49.2839 134.388C51.0296 133.806 55.8769 131.862 55.8769 131.862C55.6324 130.72 55.0628 129.673 54.2369 128.847C53.4109 128.021 52.3638 127.452 51.2217 127.207Z" fill="white" stroke="#100F00" stroke-width="0.581904" stroke-linecap="round" stroke-linejoin="round"/>
<path d="M53.1592 127.988L58.5942 130.118L59.3681 132.446L55.8767 131.864L53.1592 127.988Z" fill="white" stroke="#100F00" stroke-width="0.581904" stroke-linecap="round" stroke-linejoin="round"/>
<path d="M43.4414 132.834C43.4414 132.834 48.568 128.348 49.8947 127.789" stroke="#100F00" stroke-width="0.581904" stroke-linecap="round" stroke-linejoin="round"/>
<path d="M44.3789 134.103C44.3789 134.103 51.1872 128.359 52.5954 128.359" stroke="#100F00" stroke-width="0.581904" stroke-linecap="round" stroke-linejoin="round"/>
<path d="M46.9619 134.693C46.9619 134.693 51.8906 130.119 54.1193 129.887" stroke="#100F00" stroke-width="0.581904" stroke-linecap="round" stroke-linejoin="round"/>
<path d="M305.316 139.57H9.9707V153.169H305.316V139.57Z" fill="white" stroke="#100F00" stroke-width="0.581904" stroke-linecap="round" stroke-linejoin="round"/>
<path d="M12.5434 230.12H8.56313L5.69434 139.57H15.4121L12.5434 230.12Z" fill="white" stroke="#100F00" stroke-width="0.581904" stroke-linecap="round" stroke-linejoin="round"/>
<path d="M305.945 230.12H301.964L299.096 139.57H308.814L305.945 230.12Z" fill="white" stroke="#100F00" stroke-width="0.581904" stroke-linecap="round" stroke-linejoin="round"/>
<path d="M308.605 143.993H5.8457V140.793H308.814L308.605 143.993Z" fill="#100F00" stroke="#100F00" stroke-width="0.581904" stroke-miterlimit="10"/>
<path d="M311.723 138.07H1.27734V141.271H311.723V138.07Z" fill="white" stroke="#100F00" stroke-width="0.581904" stroke-linecap="round" stroke-linejoin="round"/>
<path d="M182.825 126.927C182.825 126.927 184.228 126.345 185.025 126.828C185.822 127.311 186.026 132.921 185.025 134.62C184.792 135.085 184.454 135.489 184.038 135.801C183.622 136.114 183.139 136.325 182.628 136.418L182.43 133.718C182.43 133.718 183.326 134.219 183.826 132.322C184.327 130.425 184.228 128.83 183.925 128.725C183.582 128.711 183.241 128.779 182.93 128.923L182.825 126.927Z" fill="white" stroke="#100F00" stroke-width="0.581904" stroke-linecap="round" stroke-linejoin="round"/>
<path d="M183.047 124.203H171.77V138.431H183.047V124.203Z" fill="white" stroke="#100F00" stroke-width="0.581904" stroke-linecap="round" stroke-linejoin="round"/>
<path d="M18.6876 126.927C18.6876 126.927 17.291 126.345 16.4938 126.828C15.6966 127.311 15.4929 132.921 16.4938 134.62C16.7269 135.085 17.0648 135.489 17.4808 135.801C17.8968 136.114 18.3797 136.325 18.8913 136.418L19.0891 133.718C19.0891 133.718 18.193 134.219 17.6925 132.322C17.1921 130.425 17.291 128.83 17.5936 128.725C17.9363 128.711 18.2774 128.779 18.5887 128.923L18.6876 126.927Z" fill="white" stroke="#100F00" stroke-width="0.581904" stroke-linecap="round" stroke-linejoin="round"/>
<path d="M18.4727 138.438H29.75V124.21H18.4727V138.438Z" fill="white" stroke="#100F00" stroke-width="0.581904" stroke-linecap="round" stroke-linejoin="round"/>
<path d="M286.363 126.927C286.363 126.927 284.967 126.345 284.17 126.828C283.372 127.311 283.169 132.921 284.17 134.62C284.403 135.085 284.741 135.489 285.157 135.801C285.573 136.114 286.055 136.325 286.567 136.418L286.765 133.718C286.765 133.718 285.869 134.219 285.368 132.322C284.868 130.425 284.967 128.83 285.269 128.725C285.612 128.711 285.953 128.779 286.264 128.923L286.363 126.927Z" fill="white" stroke="#100F00" stroke-width="0.581904" stroke-linecap="round" stroke-linejoin="round"/>
<path d="M286.149 138.438H297.426V124.21H286.149V138.438Z" fill="white" stroke="#100F00" stroke-width="0.581904" stroke-linecap="round" stroke-linejoin="round"/>
<path d="M239.311 112.059H193.282V138.262H239.311V112.059Z" fill="#100F00" stroke="#100F00" stroke-width="0.581904" stroke-miterlimit="10"/>
<path d="M105.176 6.94532H59.9912C59.2516 6.94379 58.5189 7.08825 57.8352 7.37042C57.1515 7.65259 56.5301 8.06692 56.0069 8.58967C55.4836 9.11241 55.0686 9.73329 54.7857 10.4167C54.5029 11.1001 54.3576 11.8327 54.3584 12.5723V34.1028C54.3576 34.8415 54.5025 35.5731 54.7846 36.2557C55.0668 36.9384 55.4807 37.5588 56.0028 38.0814C56.5248 38.6039 57.1447 39.0185 57.8271 39.3014C58.5095 39.5842 59.2409 39.7298 59.9796 39.7298H65.4961L62.8717 50.5125L72.3974 39.7298H105.164C105.903 39.7298 106.635 39.5843 107.318 39.3015C108.001 39.0187 108.621 38.6042 109.143 38.0817C109.666 37.5592 110.08 36.9389 110.363 36.2562C110.646 35.5735 110.792 34.8418 110.792 34.1028V12.5723C110.792 11.082 110.2 9.65249 109.147 8.59755C108.095 7.54261 106.666 6.94841 105.176 6.94532Z" fill="#100F00"/>
<path d="M91.6006 16.2305H102.389" stroke="white" stroke-width="0.581904" stroke-linecap="round" stroke-linejoin="round"/>
<path d="M74.0264 16.2305H89.0337" stroke="white" stroke-width="0.581904" stroke-linecap="round" stroke-linejoin="round"/>
<path d="M62.668 16.2305H71.2336" stroke="white" stroke-width="0.581904" stroke-linecap="round" stroke-linejoin="round"/>
<path d="M95.4697 20.9648H102.4" stroke="white" stroke-width="0.581904" stroke-linecap="round" stroke-linejoin="round"/>
<path d="M82.1738 20.9648H93.969" stroke="white" stroke-width="0.581904" stroke-linecap="round" stroke-linejoin="round"/>
<path d="M62.668 20.9648H81.126" stroke="white" stroke-width="0.581904" stroke-linecap="round" stroke-linejoin="round"/>
<path d="M89.4648 25.6953H102.401" stroke="white" stroke-width="0.581904" stroke-linecap="round" stroke-linejoin="round"/>
<path d="M72.5254 25.6953H87.3232" stroke="white" stroke-width="0.581904" stroke-linecap="round" stroke-linejoin="round"/>
<path d="M62.668 25.6953H70.8146" stroke="white" stroke-width="0.581904" stroke-linecap="round" stroke-linejoin="round"/>
<path d="M98.6875 30.418H102.4" stroke="white" stroke-width="0.581904" stroke-linecap="round" stroke-linejoin="round"/>
<path d="M86.6777 30.418H96.541" stroke="white" stroke-width="0.581904" stroke-linecap="round" stroke-linejoin="round"/>
<path d="M81.3184 30.418H85.1997" stroke="white" stroke-width="0.581904" stroke-linecap="round" stroke-linejoin="round"/>
<path d="M65.0186 30.418H78.5304" stroke="white" stroke-width="0.581904" stroke-linecap="round" stroke-linejoin="round"/>
<path d="M62.668 30.418H63.9482" stroke="white" stroke-width="0.581904" stroke-linecap="round" stroke-linejoin="round"/>
<path d="M167.638 11.7969H125.351C124.612 11.7969 123.88 11.9424 123.197 12.2252C122.515 12.508 121.894 12.9225 121.372 13.445C120.849 13.9675 120.435 14.5878 120.152 15.2705C119.869 15.9532 119.724 16.6849 119.724 17.4239V37.2785C119.724 38.0174 119.869 38.7491 120.152 39.4318C120.435 40.1145 120.849 40.7349 121.372 41.2574C121.894 41.7799 122.515 42.1944 123.197 42.4772C123.88 42.7599 124.612 42.9055 125.351 42.9055H155.295V51.7912L160.626 42.9055H167.643C168.382 42.9055 169.114 42.7599 169.797 42.4772C170.48 42.1944 171.1 41.7799 171.622 41.2574C172.145 40.7349 172.559 40.1145 172.842 39.4318C173.125 38.7491 173.27 38.0174 173.27 37.2785V17.4006C173.264 15.9113 172.668 14.4851 171.612 13.4347C170.556 12.3843 169.127 11.7953 167.638 11.7969Z" fill="white" stroke="#100F00" stroke-width="0.581904" stroke-linecap="round" stroke-linejoin="round"/>
<path d="M155.941 20.5273H166.73" stroke="#100F00" stroke-width="0.581904" stroke-linecap="round" stroke-linejoin="round"/>
<path d="M138.356 20.5273H153.364" stroke="#100F00" stroke-width="0.581904" stroke-linecap="round" stroke-linejoin="round"/>
<path d="M126.997 20.5273H135.569" stroke="#100F00" stroke-width="0.581904" stroke-linecap="round" stroke-linejoin="round"/>
<path d="M159.8 25.25H166.73" stroke="#100F00" stroke-width="0.581904" stroke-linecap="round" stroke-linejoin="round"/>
<path d="M146.503 25.25H158.298" stroke="#100F00" stroke-width="0.581904" stroke-linecap="round" stroke-linejoin="round"/>
<path d="M126.997 25.25H145.432" stroke="#100F00" stroke-width="0.581904" stroke-linecap="round" stroke-linejoin="round"/>
<path d="M153.794 29.9844H166.73" stroke="#100F00" stroke-width="0.581904" stroke-linecap="round" stroke-linejoin="round"/>
<path d="M136.854 29.9844H151.652" stroke="#100F00" stroke-width="0.581904" stroke-linecap="round" stroke-linejoin="round"/>
<path d="M126.997 29.9844H135.144" stroke="#100F00" stroke-width="0.581904" stroke-linecap="round" stroke-linejoin="round"/>
<path d="M163.018 34.7148H166.73" stroke="#100F00" stroke-width="0.581904" stroke-linecap="round" stroke-linejoin="round"/>
<path d="M151.007 34.7148H160.899" stroke="#100F00" stroke-width="0.581904" stroke-linecap="round" stroke-linejoin="round"/>
<path d="M145.647 34.7148H149.505" stroke="#100F00" stroke-width="0.581904" stroke-linecap="round" stroke-linejoin="round"/>
<path d="M129.349 34.7148H142.86" stroke="#100F00" stroke-width="0.581904" stroke-linecap="round" stroke-linejoin="round"/>
<path d="M126.997 34.7148H128.26" stroke="#100F00" stroke-width="0.581904" stroke-linecap="round" stroke-linejoin="round"/>
<path d="M225.985 0.421875H183.687C182.194 0.421875 180.763 1.01472 179.708 2.06999C178.652 3.12526 178.06 4.55651 178.06 6.04889V25.9035C178.06 26.6424 178.205 27.3741 178.488 28.0568C178.771 28.7395 179.185 29.3599 179.708 29.8824C180.23 30.4049 180.851 30.8194 181.533 31.1022C182.216 31.3849 182.948 31.5305 183.687 31.5305H214.667L221.836 43.5701L220.672 31.5305H225.974C226.713 31.5305 227.444 31.3849 228.127 31.1022C228.81 30.8194 229.43 30.4049 229.953 29.8824C230.475 29.3599 230.89 28.7395 231.172 28.0568C231.455 27.3741 231.601 26.6424 231.601 25.9035V6.04889C231.601 4.55853 231.009 3.12903 229.957 2.0741C228.904 1.01916 227.476 0.424957 225.985 0.421875Z" fill="white" stroke="#100F00" stroke-width="0.581904" stroke-linecap="round" stroke-linejoin="round"/>
<path d="M213.835 8.51172H224.629" stroke="#100F00" stroke-width="0.581904" stroke-linecap="round" stroke-linejoin="round"/>
<path d="M196.25 8.51172H211.263" stroke="#100F00" stroke-width="0.581904" stroke-linecap="round" stroke-linejoin="round"/>
<path d="M184.892 8.51172H193.463" stroke="#100F00" stroke-width="0.581904" stroke-linecap="round" stroke-linejoin="round"/>
<path d="M217.693 13.2422H224.63" stroke="#100F00" stroke-width="0.581904" stroke-linecap="round" stroke-linejoin="round"/>
<path d="M204.402 13.2422H216.192" stroke="#100F00" stroke-width="0.581904" stroke-linecap="round" stroke-linejoin="round"/>
<path d="M184.892 13.2422H203.326" stroke="#100F00" stroke-width="0.581904" stroke-linecap="round" stroke-linejoin="round"/>
<path d="M211.693 17.9727H224.629" stroke="#100F00" stroke-width="0.581904" stroke-linecap="round" stroke-linejoin="round"/>
<path d="M194.749 17.9727H209.547" stroke="#100F00" stroke-width="0.581904" stroke-linecap="round" stroke-linejoin="round"/>
<path d="M184.892 17.9727H193.038" stroke="#100F00" stroke-width="0.581904" stroke-linecap="round" stroke-linejoin="round"/>
<path d="M220.911 22.7031H224.63" stroke="#100F00" stroke-width="0.581904" stroke-linecap="round" stroke-linejoin="round"/>
<path d="M208.906 22.7031H218.77" stroke="#100F00" stroke-width="0.581904" stroke-linecap="round" stroke-linejoin="round"/>
<path d="M203.541 22.7031H207.399" stroke="#100F00" stroke-width="0.581904" stroke-linecap="round" stroke-linejoin="round"/>
<path d="M187.248 22.7031H200.754" stroke="#100F00" stroke-width="0.581904" stroke-linecap="round" stroke-linejoin="round"/>
<path d="M184.892 22.7031H186.172" stroke="#100F00" stroke-width="0.581904" stroke-linecap="round" stroke-linejoin="round"/>
</svg>
