<svg width="239" height="235" viewBox="0 0 239 235" fill="none" xmlns="http://www.w3.org/2000/svg">
<path d="M79.5092 43.3711H117.051C120.344 43.3711 123.502 44.6792 125.83 47.0075C128.158 49.3359 129.466 52.4938 129.466 55.7866V164.177H67.0938V55.7799C67.0955 52.4882 68.4044 49.332 70.7325 47.0051C73.0607 44.6782 76.2176 43.3711 79.5092 43.3711Z" fill="#100F00" stroke="#100F00" stroke-linecap="round" stroke-linejoin="round"/>
<path d="M136.822 227.605L103.877 217.914V207.129H102.018V167.312H96.1659V207.129H94.307V217.625L61.3623 227.605V229.182H61.8052C61.551 229.647 61.4194 230.169 61.4227 230.699C61.4207 231.256 61.5637 231.803 61.8376 232.288C62.1116 232.773 62.507 233.178 62.9851 233.464C63.4632 233.75 64.0075 233.906 64.5643 233.918C65.1211 233.929 65.6713 233.795 66.1608 233.53C66.6503 233.264 67.0622 232.876 67.3559 232.402C67.6497 231.929 67.8152 231.388 67.8362 230.831C67.8572 230.275 67.7329 229.722 67.4756 229.228C67.2183 228.734 66.8369 228.316 66.3688 228.014L66.4359 227.947L96.6357 224.316V228.665C96.2491 229.135 96.004 229.704 95.9288 230.308C95.8536 230.911 95.9515 231.524 96.2111 232.073C96.4706 232.623 96.8811 233.088 97.3948 233.414C97.9084 233.739 98.504 233.912 99.1121 233.912C99.7202 233.912 100.316 233.739 100.829 233.414C101.343 233.088 101.754 232.623 102.013 232.073C102.273 231.524 102.371 230.911 102.295 230.308C102.22 229.704 101.975 229.135 101.588 228.665V224.316L131.721 227.94C131.179 228.26 130.743 228.731 130.467 229.296C130.191 229.862 130.088 230.495 130.169 231.119C130.25 231.743 130.513 232.329 130.925 232.804C131.337 233.279 131.879 233.623 132.485 233.793C133.09 233.963 133.732 233.95 134.331 233.758C134.93 233.566 135.459 233.202 135.852 232.711C136.246 232.22 136.487 231.625 136.544 230.999C136.602 230.372 136.474 229.743 136.177 229.189H136.848L136.822 227.605Z" fill="#100F00" stroke="#100F00" stroke-linecap="round" stroke-linejoin="round"/>
<path d="M127.533 164.109H70.1806C67.4823 164.109 65.2949 166.297 65.2949 168.995V173.914C65.2949 176.613 67.4823 178.8 70.1806 178.8H127.533C130.232 178.8 132.419 176.613 132.419 173.914V168.995C132.419 166.297 130.232 164.109 127.533 164.109Z" fill="white" stroke="#100F00" stroke-linecap="round" stroke-linejoin="round"/>
<path d="M122.728 140.285H76.1064V166.21H122.728V140.285Z" fill="white" stroke="#100F00" stroke-linecap="round" stroke-linejoin="round"/>
<path d="M95.1455 65.6719L88.0049 68.4704C88.0049 68.4704 90.5886 84.5166 94.0448 92.798C97.5011 101.079 110.091 114.226 110.091 114.226C110.091 114.226 116.614 104.703 118.889 97.1468C121.164 89.5901 118.789 68.363 118.789 68.363C117.161 67.4153 115.369 66.7824 113.507 66.4973C110.266 65.9806 95.1455 65.6719 95.1455 65.6719Z" fill="white" stroke="#100F00" stroke-linecap="round" stroke-linejoin="round"/>
<path d="M102.085 76.9611L105.386 83.303L99.9102 95.3897L108.708 108.637L114.091 96.5238L107.567 83.0681L110.983 77.1624L106.118 72.2969L102.085 76.9611Z" fill="#100F00" stroke="#100F00" stroke-linecap="round" stroke-linejoin="round"/>
<path d="M96.1856 64.9492L93.9039 65.5733L91.7295 69.3987L97.0984 84.6194L105.903 75.5125L115.527 85.3442C115.527 85.3442 116.668 70.0228 116.668 68.2645C116.668 66.5062 115.118 65.8821 113.983 65.5801C112.849 65.2781 96.1856 64.9492 96.1856 64.9492Z" fill="white" stroke="#100F00" stroke-linecap="round" stroke-linejoin="round"/>
<path d="M93.904 65.5742C93.904 65.5742 94.8905 79.3386 100.615 91.4521C103.575 97.6934 109.105 106.465 109.105 106.156C109.105 105.847 114.587 89.5931 114.796 84.1035C115.004 78.6138 116.037 66.9164 116.037 66.9164C116.037 66.9164 126.654 71.1444 129.191 72.6141C133.123 74.8892 138.09 75.4059 137.989 78.0971C137.949 79.0769 138.62 85.4793 139.472 93.2842C139.606 94.5258 146.27 105.176 146.411 106.465C147.841 119.464 142.989 124.94 142.747 125.001C142.338 125.101 133.741 125.001 133.741 125.001C133.741 125.001 138.405 146.221 139.11 147.362L139.835 148.496H102.85L101.306 143.839L99.9305 148.496H61.9123L66.9859 125.41H61.3955C61.3955 125.41 59.9459 122.511 61.9123 111.639C63.8786 100.767 70.5092 73.5403 70.5092 72.6141C70.5092 71.688 91.7296 67.8493 93.904 65.5742Z" fill="white" stroke="#100F00" stroke-linecap="round" stroke-linejoin="round"/>
<path d="M101.81 119.363L101.307 143.839" stroke="#100F00" stroke-linecap="round" stroke-linejoin="round"/>
<path d="M116.057 110.088C122.171 104.397 124.862 93.0086 124.862 93.0086L119.373 90.6262L124.654 88.0357L120.091 68.5736C117.507 66.3455 115.99 66.4059 116.064 66.8958C116.064 66.8958 115.031 78.5932 114.823 84.0829C114.615 89.5725 109.118 105.847 109.118 106.156C109.118 106.464 103.031 97.9278 100.629 91.4516C95.0316 76.3786 93.9578 67.2918 93.7968 65.5536C93.795 65.5248 93.7856 65.497 93.7694 65.4732C93.7533 65.4493 93.731 65.4302 93.705 65.4179C93.6789 65.4055 93.65 65.4004 93.6213 65.403C93.5926 65.4056 93.5651 65.4159 93.5418 65.4328C92.77 65.8892 90.8573 66.265 89.5151 67.4461C89.1393 70.1306 88.6561 74.023 88.3205 78.3046C87.7031 86.2774 87.7031 89.794 87.7031 89.794L94.8437 91.559L89.7701 94.4582C89.7701 94.4582 95.3605 100.149 100.018 104.397C104.675 108.645 107.776 110.189 107.776 110.189L101.81 119.363C101.81 119.363 109.95 115.786 116.057 110.088Z" fill="white" stroke="#100F00" stroke-linecap="round" stroke-linejoin="round"/>
<path d="M95.1455 58.1172V67.0228C95.1455 67.0228 97.4273 74.4721 105.501 74.9888C113.99 75.5391 115.44 67.3315 115.44 67.3315V59.4594C115.44 59.4594 99.7225 63.2914 95.1455 58.1172Z" fill="white" stroke="#100F00" stroke-linecap="round" stroke-linejoin="round"/>
<path d="M117.406 46.1048C117.406 46.1048 117.715 42.0781 120.198 42.0781C122.681 42.0781 122.688 46.7356 122.064 48.6013C121.44 50.467 118.232 51.8092 117.198 50.3596" fill="white"/>
<path d="M117.406 46.1048C117.406 46.1048 117.715 42.0781 120.198 42.0781C122.681 42.0781 122.688 46.7356 122.064 48.6013C121.44 50.467 118.232 51.8092 117.198 50.3596" stroke="#100F00" stroke-linecap="round" stroke-linejoin="round"/>
<path d="M107.105 25.9502C107.105 25.9502 97.9578 25.6146 94.7969 27.9635C91.636 30.3124 92.3004 36.6141 92.3004 38.6072C92.3004 40.6004 93.797 57.7338 94.7969 60.2303C95.7969 62.7268 103.078 66.5253 109.427 65.0623C115.776 63.5993 117.742 59.076 118.071 56.7473C118.4 54.4185 118.406 36.6141 118.071 31.97C117.735 27.3259 111.588 26.4468 107.105 25.9502Z" fill="white" stroke="#100F00" stroke-linecap="round" stroke-linejoin="round"/>
<path d="M118.165 33.7887C118.165 33.0505 118.111 32.4465 118.071 31.9364C117.742 27.279 111.588 26.4468 107.098 25.9502C107.098 25.9502 97.951 25.6146 94.7901 27.9635C91.6292 30.3124 92.2935 36.6141 92.2935 38.6072C92.2935 39.4059 92.5352 42.6339 92.8908 46.3652C93.051 46.4555 93.2299 46.5072 93.4135 46.5161C93.5971 46.5251 93.7802 46.4911 93.9484 46.4168C94.1165 46.3425 94.265 46.23 94.382 46.0882C94.499 45.9465 94.5812 45.7793 94.6223 45.6002C95.2934 43.7681 94.2934 42.1104 95.1256 39.7817C95.9578 37.4529 96.2866 35.9564 98.2865 34.7886C99.5402 34.0703 100.88 33.5133 102.273 33.131C102.273 33.131 98.1188 37.9496 107.266 37.7818C113.205 37.6476 116.554 36.4127 118.165 33.7887Z" fill="#100F00" stroke="#100F00" stroke-linecap="round" stroke-linejoin="round"/>
<path d="M108.917 42.2773C108.917 42.2773 110.467 49.626 109.018 50.3306C107.568 51.0353 106.642 51.2635 105.394 48.7804" stroke="#100F00" stroke-linecap="round" stroke-linejoin="round"/>
<path d="M100.843 50.2461C100.843 50.2461 100.528 53.6687 107.467 53.1453" stroke="#100F00" stroke-linecap="round" stroke-linejoin="round"/>
<path d="M103.018 42.432C103.018 43.1433 102.716 43.7272 102.347 43.7272C101.978 43.7272 101.676 43.1433 101.676 42.432C101.676 41.7206 101.978 41.1367 102.347 41.1367C102.716 41.1367 103.018 41.7139 103.018 42.432Z" fill="#100F00"/>
<path d="M113.42 42.432C113.42 43.1433 113.118 43.7272 112.749 43.7272C112.38 43.7272 112.078 43.1433 112.078 42.432C112.078 41.7206 112.38 41.1367 112.749 41.1367C113.118 41.1367 113.42 41.7139 113.42 42.432Z" fill="#100F00"/>
<path d="M104.602 45.4846H98.9781C98.6868 45.4835 98.4049 45.3812 98.1809 45.1951C97.9568 45.0089 97.8044 44.7507 97.7499 44.4645L97.0117 40.5117H106.327L105.843 44.3907C105.804 44.6926 105.657 44.97 105.429 45.1713C105.2 45.3725 104.906 45.4839 104.602 45.4846Z" stroke="#100F00" stroke-width="2" stroke-linecap="round" stroke-linejoin="round"/>
<path d="M116.615 45.4846H110.991C110.699 45.4848 110.416 45.3829 110.192 45.1966C109.968 45.0103 109.816 44.7513 109.763 44.4645L109.018 40.5117H118.339L117.843 44.3907C117.804 44.6903 117.658 44.9659 117.433 45.1669C117.207 45.3678 116.917 45.4807 116.615 45.4846Z" stroke="#100F00" stroke-width="2" stroke-linecap="round" stroke-linejoin="round"/>
<path d="M106.326 40.5117H109.017" stroke="#100F00" stroke-width="2" stroke-linecap="round" stroke-linejoin="round"/>
<path d="M97.0119 40.5117L92.5625 42.4781" stroke="#100F00" stroke-width="2" stroke-linecap="round" stroke-linejoin="round"/>
<path d="M93.5951 46.1048C93.5951 46.1048 93.2864 42.0781 90.7966 42.0781C88.3068 42.0781 88.3135 46.7356 88.9376 48.6013C89.5617 50.467 92.7629 51.8092 93.8031 50.3596" fill="white"/>
<path d="M93.5951 46.1048C93.5951 46.1048 93.2864 42.0781 90.7966 42.0781C88.3068 42.0781 88.3135 46.7356 88.9376 48.6013C89.5617 50.467 92.7629 51.8092 93.8031 50.3596" stroke="#100F00" stroke-linecap="round" stroke-linejoin="round"/>
<path d="M120.406 97.7654C119.006 96.4443 117.3 95.4918 115.44 94.9937C114.839 94.7862 114.194 94.7354 113.568 94.8461C112.736 94.8461 108.608 93.3562 107.575 93.0475C106.541 92.7388 105.917 93.7723 106.233 94.9132C106.548 96.054 108.756 97.0204 109.588 97.2285C110.42 97.4365 110.065 97.4567 110.065 97.4567C110.065 97.4567 111.407 100.772 110.789 102.013C110.172 103.255 107.991 106.04 108.716 108.02C109.44 110 110.581 111.02 112.856 111.02C115.131 111.02 116.48 111.12 116.997 111.02C117.514 110.919 126.728 115.469 125.721 115.577C124.715 115.684 125.305 106.362 125.305 106.362L120.406 97.7654Z" fill="white" stroke="#100F00" stroke-linecap="round" stroke-linejoin="round"/>
<path d="M99.4941 103.255C99.4941 103.255 104.36 100.872 106.742 98.4897C109.125 96.1073 109.95 95.4898 110.769 95.2818C111.587 95.0738 114.909 94.1409 115.735 93.4161C116.56 92.6913 117.185 94.0403 115.943 95.0738C115.035 95.8117 114.065 96.4696 113.044 97.0401C112.527 97.3555 112.01 98.8051 112.01 98.8051C112.01 98.8051 117.084 96.6307 118.842 97.1475C120.6 97.6642 122.345 99.2346 122.238 100.161C122.131 101.087 121.808 100.644 120.668 100.537C119.527 100.429 117.909 99.9393 116.641 100.456C115.373 100.973 113.956 102.221 113.956 102.738C113.956 103.255 115.406 103.563 116.547 103.463C117.688 103.362 118.513 103.047 119.647 103.255C120.782 103.463 121.721 104.08 121.822 104.704C121.923 105.328 121.412 105.322 120.164 105.429C118.916 105.536 116.748 105.637 116.024 106.154C115.299 106.67 111.574 108.429 112.198 109.053C112.822 109.677 113.191 109.677 114.433 109.677C115.675 109.677 117.003 108.724 117.728 108.778C118.701 108.852 119.225 108.925 119.225 108.925C119.225 108.925 120.949 108.999 120.795 109.677C120.553 110.764 119.976 110.798 117.473 110.912C115.513 111.006 114.99 110.811 113.232 111.227C111.724 111.713 110.157 111.99 108.574 112.053C105.568 112.261 100.185 110.811 100.185 110.811L99.4941 103.255Z" fill="white" stroke="#100F00" stroke-linecap="round" stroke-linejoin="round"/>
<path d="M119.031 96.4985C119.031 96.4985 116.937 94.5456 115.735 94.4852C114.534 94.4248 110.87 97.6327 110.367 98.834C109.863 100.035 111.038 99.5789 112.011 99.2836C112.984 98.9884 115.608 97.7804 116.507 97.4112C117.242 97.0492 118.082 96.9612 118.876 97.1629" fill="white"/>
<path d="M119.031 96.4985C119.031 96.4985 116.937 94.5456 115.735 94.4852C114.534 94.4248 110.87 97.6327 110.367 98.834C109.863 100.035 111.038 99.5789 112.011 99.2836C112.984 98.9884 115.608 97.7804 116.507 97.4112C117.242 97.0492 118.082 96.9612 118.876 97.1629" stroke="#100F00" stroke-linecap="round" stroke-linejoin="round"/>
<path d="M121.728 100.767C121.728 100.767 118.735 99.2706 116.862 100.096C114.99 100.921 112.668 102.572 112.668 103.317C112.668 104.062 113.044 103.921 114.681 103.841C116.319 103.76 119.278 103.284 119.674 103.264C120.267 103.332 120.853 103.451 121.426 103.619" fill="white"/>
<path d="M121.728 100.767C121.728 100.767 118.735 99.2706 116.862 100.096C114.99 100.921 112.668 102.572 112.668 103.317C112.668 104.062 113.044 103.921 114.681 103.841C116.319 103.76 119.278 103.284 119.674 103.264C120.267 103.332 120.853 103.451 121.426 103.619" stroke="#100F00" stroke-linecap="round" stroke-linejoin="round"/>
<path d="M79.7237 91.7647L77.1332 105.636C77.1332 105.636 99.6019 101.18 100.427 101.804C101.253 102.429 102.004 118.891 102.004 118.891C102.004 118.891 72.9925 123.958 69.5766 125.099C66.1606 126.239 62.6373 126.441 61.3958 125.407C60.1542 124.374 60.0536 121.783 60.9797 116.683C61.9058 111.582 70.8181 74.5508 70.8181 74.5508" fill="white"/>
<path d="M79.7237 91.7647L77.1332 105.636C77.1332 105.636 99.6019 101.18 100.427 101.804C101.253 102.429 102.004 118.891 102.004 118.891C102.004 118.891 72.9925 123.958 69.5766 125.099C66.1606 126.239 62.6373 126.441 61.3958 125.407C60.1542 124.374 60.0536 121.783 60.9797 116.683C61.9058 111.582 70.8181 74.5508 70.8181 74.5508" stroke="#100F00" stroke-linecap="round" stroke-linejoin="round"/>
<path d="M131.795 90.832L132.728 106.67L125.272 106.361L124.554 119.488C124.554 119.488 145.103 124.273 146.244 124.857C147.385 125.441 147.177 124.24 148.519 122.267C149.861 120.294 151.009 116.059 150.901 114.213C150.794 112.368 146.553 106.16 146.452 106.449" fill="white"/>
<path d="M131.795 90.832L132.728 106.67L125.272 106.361L124.554 119.488C124.554 119.488 145.103 124.273 146.244 124.857C147.385 125.441 147.177 124.24 148.519 122.267C149.861 120.294 151.009 116.059 150.901 114.213C150.794 112.368 146.553 106.16 146.452 106.449" stroke="#100F00" stroke-linecap="round" stroke-linejoin="round"/>
<path d="M132.728 106.672H139.667" stroke="#100F00" stroke-linecap="round" stroke-linejoin="round"/>
<path d="M77.1332 105.637L67.9189 108.845" stroke="#100F00" stroke-linecap="round" stroke-linejoin="round"/>
<path d="M79.3344 217.881C79.3344 217.881 77.8311 224.343 75.7306 226.605C73.63 228.867 71.7039 230.363 71.8247 232.162L71.9724 233.967H93.5955V228.544C93.5955 225.39 92.2532 219.82 92.2532 217.585C92.2532 215.35 78.7371 217.733 78.7371 217.733" fill="#100F00"/>
<path d="M79.3344 217.881C79.3344 217.881 77.8311 224.343 75.7306 226.605C73.63 228.867 71.7039 230.363 71.8247 232.162L71.9724 233.967H93.5955V228.544C93.5955 225.39 92.2532 219.82 92.2532 217.585C92.2532 215.35 78.7371 217.733 78.7371 217.733" stroke="#100F00" stroke-linecap="round" stroke-linejoin="round"/>
<path d="M72.3417 230.348C71.9745 230.873 71.7926 231.506 71.825 232.146L71.9726 233.951H93.5957V230.348H72.3417Z" fill="#586166" stroke="#100F00" stroke-linecap="round" stroke-linejoin="round"/>
<path d="M98.1052 160.523C98.1052 160.523 100.206 147.161 96.6019 141.007C92.9981 134.853 80.3813 134.698 73.3279 138.9C66.2746 143.101 63.5298 149.993 66.08 158.852C68.6302 167.71 74.5292 167.885 74.5292 167.885C74.5292 167.885 73.0259 180.045 73.0259 184.85C73.0259 189.655 78.1331 219.54 78.1331 219.54H93.0115C93.0115 219.54 97.8032 166.831 98.1052 160.523Z" fill="#586166" stroke="#100F00" stroke-linecap="round" stroke-linejoin="round"/>
<path d="M74.5293 167.881L76.0259 155.566" stroke="#100F00" stroke-linecap="round" stroke-linejoin="round"/>
<path d="M123.043 217.881C123.043 217.881 124.547 224.343 126.647 226.605C128.748 228.867 130.674 230.363 130.553 232.162L130.405 233.967H108.782V228.544C108.782 225.39 110.124 219.82 110.124 217.585C110.124 215.35 123.641 217.733 123.641 217.733" fill="#100F00"/>
<path d="M123.043 217.881C123.043 217.881 124.547 224.343 126.647 226.605C128.748 228.867 130.674 230.363 130.553 232.162L130.405 233.967H108.782V228.544C108.782 225.39 110.124 219.82 110.124 217.585C110.124 215.35 123.641 217.733 123.641 217.733" stroke="#100F00" stroke-linecap="round" stroke-linejoin="round"/>
<path d="M130.029 230.348C130.399 230.873 130.583 231.505 130.553 232.146L130.405 233.951H108.782V230.348H130.029Z" fill="#586166" stroke="#100F00" stroke-linecap="round" stroke-linejoin="round"/>
<path d="M104.273 160.523C104.273 160.523 102.172 147.161 105.776 141.007C109.38 134.853 121.997 134.698 129.05 138.9C136.103 143.101 138.908 149.993 136.352 158.852C133.795 167.71 127.849 167.885 127.849 167.885C127.849 167.885 129.352 180.045 129.352 184.85C129.352 189.655 124.245 219.54 124.245 219.54H109.38C109.38 219.54 104.575 166.831 104.273 160.523Z" fill="#586166" stroke="#100F00" stroke-linecap="round" stroke-linejoin="round"/>
<path d="M127.849 167.881L126.346 155.566" stroke="#100F00" stroke-linecap="round" stroke-linejoin="round"/>
<path d="M135.036 1.42188H164.739C165.579 1.42187 166.385 1.75561 166.979 2.34966C167.573 2.9437 167.907 3.7494 167.907 4.5895V18.374C167.907 19.2142 167.573 20.0199 166.979 20.6139C166.385 21.2079 165.579 21.5417 164.739 21.5417H155.82L158.149 27.8501L150.814 21.5417H135.036C134.62 21.5417 134.208 21.4597 133.824 21.3006C133.439 21.1414 133.09 20.908 132.796 20.6139C132.502 20.3198 132.268 19.9706 132.109 19.5862C131.95 19.2019 131.868 18.79 131.868 18.374V4.5895C131.868 4.17352 131.95 3.76162 132.109 3.3773C132.268 2.99299 132.502 2.6438 132.796 2.34966C133.09 2.05551 133.439 1.82219 133.824 1.663C134.208 1.50381 134.62 1.42188 135.036 1.42188Z" fill="#100F00" stroke="#100F00" stroke-linecap="round" stroke-linejoin="round"/>
<path d="M157.323 12.8323C158.276 12.8323 159.048 12.0601 159.048 11.1076C159.048 10.155 158.276 9.38281 157.323 9.38281C156.371 9.38281 155.599 10.155 155.599 11.1076C155.599 12.0601 156.371 12.8323 157.323 12.8323Z" fill="white"/>
<path d="M149.062 12.8323C150.014 12.8323 150.786 12.0601 150.786 11.1076C150.786 10.155 150.014 9.38281 149.062 9.38281C148.109 9.38281 147.337 10.155 147.337 11.1076C147.337 12.0601 148.109 12.8323 149.062 12.8323Z" fill="white"/>
<path d="M140.808 12.8323C141.76 12.8323 142.533 12.0601 142.533 11.1076C142.533 10.155 141.76 9.38281 140.808 9.38281C139.855 9.38281 139.083 10.155 139.083 11.1076C139.083 12.0601 139.855 12.8323 140.808 12.8323Z" fill="white"/>
<path d="M19.6393 113.586L14.4248 124.599H29.2093L34.4238 114.123L19.6393 113.586Z" fill="#100F00" stroke="#100F00" stroke-linecap="round" stroke-linejoin="round"/>
<path d="M52.1001 113.586H19.6387L24.8599 124.599H57.3146L52.1001 113.586Z" fill="white" stroke="#100F00" stroke-linecap="round" stroke-linejoin="round"/>
<path d="M21.4508 139.766H14.1357V233.915H21.4508V139.766Z" fill="#454648" stroke="#100F00" stroke-linecap="round" stroke-linejoin="round"/>
<path d="M228.561 140.004H221.246V234.154H228.561V140.004Z" fill="#454648" stroke="#100F00" stroke-linecap="round" stroke-linejoin="round"/>
<path d="M231.575 124.234H14.1357V214.834H231.575V124.234Z" fill="#F9F9F9" stroke="#100F00" stroke-linecap="round" stroke-linejoin="round"/>
<path d="M232.246 124.234H6.75391V133.63H232.246V124.234Z" fill="#100F00" stroke="#100F00" stroke-linecap="round" stroke-linejoin="round"/>
<path d="M238.286 124.234H0.713867V129.603H238.286V124.234Z" fill="white" stroke="#100F00" stroke-linecap="round" stroke-linejoin="round"/>
<path d="M172.732 36.9978C172.732 36.9978 169.725 41.9573 169.276 44.2055C168.826 46.4537 169.578 47.3597 168.974 49.0106C168.37 50.6615 165.826 50.6682 165.826 52.3192C165.826 53.9701 167.625 55.4734 168.229 55.923C168.833 56.3727 167.772 58.3256 168.826 61.1778C169.88 64.03 170.329 67.6338 172.128 67.6338C173.99 67.5356 175.845 67.3339 177.685 67.0298L178.584 72.5128L190.993 71.3853C190.993 71.3853 190.845 66.0165 194.147 63.728C197.449 61.4395 203.985 48.561 200.079 40.152C196.174 31.743 179.785 30.0921 172.732 36.9978Z" fill="white" stroke="#100F00" stroke-linecap="round" stroke-linejoin="round"/>
<path d="M168.618 30.7708C168.212 32.0904 168.048 33.473 168.135 34.8511C168.321 37.5005 169.145 40.0655 170.538 42.3272C172.068 44.8573 175.732 46.468 176.638 49.1658C176.933 50.0651 177.685 52.4677 179.785 53.0717C181.886 53.6757 181.443 53.669 180.839 57.7224C180.235 61.7759 182.04 65.8294 185.644 66.8831C187.342 67.3758 189.135 67.4419 190.864 67.0755C192.593 66.709 194.205 65.9214 195.557 64.7825C198.409 62.5276 203.811 53.2193 203.965 44.8103C204.227 29.9319 189.564 22.6638 176.336 24.4758C174.573 24.6506 172.901 25.3409 171.529 26.4605C170.156 27.58 169.144 29.0792 168.618 30.7708Z" fill="#100F00" stroke="#100F00" stroke-linecap="round" stroke-linejoin="round"/>
<path d="M184.523 68.668C182.522 68.7009 180.55 69.1584 178.739 70.0102C177.061 70.8961 171.229 76.4663 169.726 77.3924C168.222 78.3186 165.37 77.8421 167.041 78.5937C168.712 79.3454 169.893 79.493 172.746 78.4461C175.598 77.3991 181.604 75.2919 183.403 75.2919C185.201 75.2919 191.812 76.1911 192.416 76.3455C193.02 76.4999 196.919 78.2917 196.919 78.2917C196.919 78.2917 194.966 74.0906 192.718 71.99C190.47 69.8895 187.678 68.5137 184.523 68.668Z" fill="white" stroke="#100F00" stroke-linecap="round" stroke-linejoin="round"/>
<path d="M179.644 49.9861C179.326 50.1129 179.059 50.342 178.885 50.6372C178.711 50.9325 178.641 51.2771 178.685 51.6169C178.94 53.5978 178.906 55.6052 178.584 57.5763C177.987 60.1265 181.174 60.1265 181.872 55.9455C182.329 53.1806 181.282 49.4022 179.644 49.9861Z" fill="white" stroke="#100F00" stroke-linecap="round" stroke-linejoin="round"/>
<path d="M154.558 84.6016C154.558 84.6016 152.76 85.5008 152.612 89.8563C152.464 94.2118 144.948 124.848 144.498 129.653C144.049 134.458 146.605 137.606 150.954 139.263C155.303 140.921 163.571 143.612 165.048 142.867C166.524 142.122 169.403 126.646 170.45 119.888C171.497 113.13 158.887 89.6886 158.289 88.8094C157.692 87.9303 155.612 84.7559 154.558 84.6016Z" fill="white" stroke="#100F00" stroke-linecap="round" stroke-linejoin="round"/>
<path d="M164.323 120.492L156.062 132.807" stroke="#100F00" stroke-linecap="round" stroke-linejoin="round"/>
<path d="M180.255 175.158L190.684 232.874C190.717 233.054 190.789 233.226 190.893 233.377C190.998 233.527 191.133 233.654 191.291 233.749C191.448 233.843 191.624 233.903 191.806 233.925C191.988 233.946 192.173 233.929 192.348 233.874C192.636 233.779 192.882 233.588 193.043 233.332C193.205 233.076 193.273 232.771 193.234 232.471L185.536 173.91L180.255 175.158Z" fill="white" stroke="#100F00" stroke-linecap="round" stroke-linejoin="round"/>
<path d="M168.679 162.55C168.679 162.55 164.773 215.252 164.773 216.755C164.773 218.258 160.746 234.023 160.746 234.023H171.531C171.531 234.023 172.578 231.922 172.578 227.567C172.578 223.211 173.034 213.903 173.034 213.004C173.034 212.104 185.047 165.55 185.047 165.55C185.047 165.55 184.443 160.892 178.584 158.168C172.725 155.443 169.578 161.349 168.679 162.55Z" fill="white" stroke="#100F00" stroke-linecap="round" stroke-linejoin="round"/>
<path d="M172.578 227.566C172.578 223.586 172.954 215.486 173.021 213.419C168.021 210.613 164.921 214.352 164.921 214.352C164.833 215.694 164.78 216.566 164.78 216.741C164.78 218.244 160.753 234.008 160.753 234.008H171.531C171.531 234.008 172.578 231.921 172.578 227.566Z" fill="#100F00" stroke="#100F00" stroke-linecap="round" stroke-linejoin="round"/>
<path d="M171.53 234.021C171.53 234.021 172.577 231.921 172.577 227.565C172.577 225.948 172.644 223.639 172.718 221.337C171.678 220.123 169.43 218.264 167.027 221.109C165.974 222.351 163.202 230.189 161.88 234.021H171.53Z" fill="#4F4F4F" stroke="#100F00" stroke-linecap="round" stroke-linejoin="round"/>
<path d="M167.027 221.111L167.927 234.023H170.611L172.873 220.809C172.873 220.809 169.88 217.205 167.027 221.111Z" fill="#100F00" stroke="#100F00" stroke-linecap="round" stroke-linejoin="round"/>
<path d="M146.753 155.666C146.753 155.666 142.096 160.773 141.646 165.128C141.196 169.484 157.263 215.582 157.263 215.582C156.866 217.519 155.989 219.326 154.712 220.837C152.458 223.689 149.303 227.742 148.854 230.447C148.404 233.152 148.854 234.051 148.854 234.051H159.518C159.518 234.051 163.269 224.441 164.772 222.038C166.276 219.636 165.37 214.978 164.92 212.877C164.47 210.777 160.417 162.276 160.417 162.276C160.417 162.276 157.263 152.035 146.753 155.666Z" fill="white" stroke="#100F00" stroke-linecap="round" stroke-linejoin="round"/>
<path d="M164.773 222.011C166.075 219.924 165.571 216.146 165.115 213.81C164.554 213.343 163.892 213.013 163.182 212.847C162.471 212.68 161.731 212.681 161.021 212.85C157.867 213.602 157.263 215.535 157.263 215.535C156.866 217.472 155.989 219.279 154.713 220.79C152.458 223.642 149.304 227.695 148.854 230.4C148.404 233.104 148.854 234.004 148.854 234.004H159.518C159.518 234.004 163.27 224.414 164.773 222.011Z" fill="#100F00" stroke="#100F00" stroke-linecap="round" stroke-linejoin="round"/>
<path d="M154.035 234.023H159.518C159.518 234.023 162.874 225.473 164.498 222.486C163.692 221.748 161.256 219.862 158.914 221.708C156.062 223.963 155.76 229.52 155.015 231.62C154.659 232.607 154.304 233.425 154.035 234.023Z" fill="#4F4F4F" stroke="#100F00" stroke-linecap="round" stroke-linejoin="round"/>
<path d="M158.914 221.707L159.518 234.022H161.464L164.766 222.009C164.766 222.009 161.766 219.01 158.914 221.707Z" fill="#100F00" stroke="#100F00" stroke-linecap="round" stroke-linejoin="round"/>
<path d="M158.874 104.953C161.37 113.382 163.612 129.187 163.612 130.663C163.612 133.348 155.76 148.87 155.76 148.87C155.76 148.87 147.035 153.374 144.948 156.528C143.979 157.922 143.411 159.555 143.306 161.249C143.201 162.944 143.562 164.635 144.351 166.138C145.854 169.138 148.103 170.494 153.075 171.393C158.048 172.292 204.127 171.393 204.127 171.393C204.127 171.393 208.932 165.534 206.677 156.226C205.63 151.89 204.489 148.126 203.227 142.864C203.227 142.864 208.18 143.012 211.784 140.005C215.388 136.999 215.542 132.348 215.542 128.898C215.542 125.449 213.274 96.6046 213.274 93.7591C213.274 90.9136 213.14 87.3031 210.455 85.1958C207.771 83.0885 201.409 79.8269 195.691 76.7935C191.194 74.4245 187.886 74.8406 184.282 74.8406C180.678 74.8406 176.323 77.525 176.323 77.525C176.323 77.525 156.35 82.7798 154.847 83.6791C153.344 84.5784 153.881 85.4911 154.431 88.8064" fill="white"/>
<path d="M158.874 104.953C161.37 113.382 163.612 129.187 163.612 130.663C163.612 133.348 155.76 148.87 155.76 148.87C155.76 148.87 147.035 153.374 144.948 156.528C143.979 157.922 143.411 159.555 143.306 161.249C143.201 162.944 143.562 164.635 144.351 166.138C145.854 169.138 148.103 170.494 153.075 171.393C158.048 172.292 204.127 171.393 204.127 171.393C204.127 171.393 208.932 165.534 206.677 156.226C205.63 151.89 204.489 148.126 203.227 142.864C203.227 142.864 208.18 143.012 211.784 140.005C215.388 136.999 215.542 132.348 215.542 128.898C215.542 125.449 213.274 96.6046 213.274 93.7591C213.274 90.9136 213.14 87.3031 210.455 85.1958C207.771 83.0885 201.409 79.8269 195.691 76.7935C191.194 74.4245 187.886 74.8406 184.282 74.8406C180.678 74.8406 176.323 77.525 176.323 77.525C176.323 77.525 156.35 82.7798 154.847 83.6791C153.344 84.5784 153.881 85.4911 154.431 88.8064" stroke="#100F00" stroke-linecap="round" stroke-linejoin="round"/>
<path d="M205.616 93.0078C205.616 93.0078 199.469 128.724 199.469 130.677C199.469 132.63 203.214 142.864 203.214 142.864" stroke="#100F00" stroke-linecap="round" stroke-linejoin="round"/>
<path d="M163.29 132.176C161.813 136.921 155.76 148.873 155.76 148.873C155.76 148.873 147.035 153.376 144.948 156.53C143.979 157.924 143.411 159.557 143.306 161.252C143.201 162.946 143.562 164.637 144.351 166.141C145.854 169.14 148.103 170.496 153.075 171.395C158.048 172.295 204.127 171.395 204.127 171.395C204.127 171.395 208.932 165.537 206.677 156.228C205.63 151.893 204.489 148.128 203.227 142.867L199.469 132.176H163.29Z" fill="#100F00" stroke="#100F00" stroke-miterlimit="10"/>
<path d="M150.357 174.551L142.592 232.702C142.568 232.884 142.583 233.07 142.637 233.245C142.69 233.421 142.781 233.583 142.902 233.721C143.024 233.859 143.173 233.97 143.341 234.045C143.508 234.12 143.69 234.159 143.874 234.159C144.175 234.16 144.468 234.055 144.7 233.863C144.932 233.67 145.089 233.402 145.142 233.105L155.759 175L150.357 174.551Z" fill="white" stroke="#100F00" stroke-linecap="round" stroke-linejoin="round"/>
<path d="M201.73 174.551L209.495 232.702C209.519 232.884 209.504 233.07 209.45 233.245C209.396 233.421 209.306 233.583 209.185 233.721C209.063 233.859 208.914 233.97 208.746 234.045C208.579 234.12 208.397 234.159 208.213 234.159C207.911 234.16 207.619 234.055 207.387 233.863C207.155 233.67 206.998 233.402 206.945 233.105L196.361 175L201.73 174.551Z" fill="white" stroke="#100F00" stroke-linecap="round" stroke-linejoin="round"/>
<path d="M171.531 174.551L163.766 232.702C163.742 232.884 163.757 233.07 163.811 233.245C163.864 233.421 163.955 233.583 164.076 233.721C164.198 233.859 164.347 233.97 164.515 234.045C164.682 234.12 164.864 234.159 165.048 234.159C165.349 234.159 165.641 234.054 165.872 233.861C166.104 233.669 166.261 233.401 166.316 233.105L176.933 175L171.531 174.551Z" fill="white" stroke="#100F00" stroke-linecap="round" stroke-linejoin="round"/>
<path d="M210.119 108.016H161.618C161.618 108.016 160.276 119.424 161.021 129.189C161.766 138.954 163.423 151.409 163.121 159.389C162.819 167.368 158.316 171.704 158.316 171.704H147.505C147.249 171.703 146.995 171.752 146.758 171.85C146.521 171.947 146.306 172.091 146.124 172.271C145.943 172.452 145.799 172.667 145.701 172.904C145.602 173.14 145.552 173.394 145.552 173.65C145.552 173.906 145.602 174.16 145.7 174.397C145.799 174.634 145.942 174.849 146.124 175.031C146.305 175.212 146.52 175.356 146.757 175.454C146.994 175.552 147.248 175.603 147.505 175.603H205.891C209.43 169.894 211.157 163.246 210.844 156.537C210.394 145.128 205.891 132.209 207.388 123.048C208.884 113.888 210.119 108.016 210.119 108.016Z" fill="white" stroke="#100F00" stroke-linecap="round" stroke-linejoin="round"/>
<path d="M197.28 38.2797C197.28 38.2797 194.281 39.481 194.126 42.3064C193.972 45.1317 193.079 54.9165 189.475 60.4732C185.872 66.03 189.475 74.8886 198.334 76.2375C207.193 77.5865 214.4 64.2247 211.085 50.4133C207.77 36.6019 200.287 37.0784 197.28 38.2797Z" fill="#100F00" stroke="#100F00" stroke-linecap="round" stroke-linejoin="round"/>
</svg>
