<svg width="394" height="1435" viewBox="0 0 394 1435" fill="none" xmlns="http://www.w3.org/2000/svg">
<circle cx="9" cy="1132.84" r="4" transform="rotate(90 9 1132.84)" fill="white" fill-opacity="0.4"/>
<ellipse cx="60" cy="1274.84" rx="2" ry="2" transform="rotate(90 60 1274.84)" fill="white" fill-opacity="0.4"/>
<circle cx="316" cy="1042.84" r="4" transform="rotate(90 316 1042.84)" fill="white" fill-opacity="0.4"/>
<ellipse cx="346" cy="1362.84" rx="2" ry="2" transform="rotate(90 346 1362.84)" fill="white" fill-opacity="0.4"/>
<circle cx="308" cy="602.844" r="4" transform="rotate(90 308 602.844)" fill="white" fill-opacity="0.4"/>
<circle cx="11" cy="664.844" r="4" transform="rotate(90 11 664.844)" fill="white" fill-opacity="0.4"/>
<circle cx="97" cy="889.844" r="4" transform="rotate(90 97 889.844)" fill="white" fill-opacity="0.4"/>
<circle cx="61" cy="343.422" r="1" transform="rotate(90 61 343.422)" fill="white" fill-opacity="0.4"/>
<circle cx="333" cy="376.422" r="2" transform="rotate(90 333 376.422)" fill="white" fill-opacity="0.4"/>
<ellipse cx="390" cy="223.422" rx="4" ry="4" transform="rotate(90 390 223.422)" fill="white" fill-opacity="0.4"/>
<ellipse cx="259" cy="4.42188" rx="4" ry="4" transform="rotate(90 259 4.42188)" fill="white" fill-opacity="0.4"/>
<ellipse cx="4" cy="36.4219" rx="4" ry="4" transform="rotate(90 4 36.4219)" fill="white" fill-opacity="0.4"/>
<ellipse cx="73" cy="941.422" rx="2" ry="2" transform="rotate(90 73 941.422)" fill="white" fill-opacity="0.4"/>
<ellipse cx="140" cy="1430.42" rx="4" ry="4" transform="rotate(90 140 1430.42)" fill="white" fill-opacity="0.4"/>
</svg>
