<svg width="25" height="25" viewBox="0 0 25 25" fill="none" xmlns="http://www.w3.org/2000/svg">
<g clip-path="url(#clip0_434_3446)">
<path d="M3.3875 4.79062C3.28438 4.82344 3.15313 4.90781 3.09219 4.96875C3.01719 5.03906 2.55313 6.15469 1.74219 8.21719C0.70625 10.8328 0.5 11.3906 0.5 11.5875C0.5 11.8453 0.6125 12.075 0.790625 12.1875C1.02969 12.3375 2.97969 13.0641 3.14844 13.0641C3.24219 13.0641 3.38281 13.0312 3.45781 12.9891L3.59844 12.9187L4.45625 13.4578L5.31406 14.0016L5.22031 14.2687C4.94844 15.0797 5.47344 15.8859 6.35 15.9984C6.56094 16.0266 6.59375 16.0406 6.59375 16.1344C6.59375 16.6078 7.23594 17.1891 7.76563 17.1891H7.97656L8.0375 17.4328C8.06563 17.5687 8.14531 17.7562 8.21094 17.8594C8.4125 18.1547 8.88125 18.4078 9.24219 18.4078C9.37344 18.4078 9.3875 18.4266 9.4625 18.6797C9.62656 19.2422 10.1141 19.5938 10.7234 19.5938C11.1781 19.5938 11.4313 19.4578 11.8344 18.9984L11.9891 18.825L12.2891 19.0406C12.7391 19.3594 12.9359 19.4391 13.325 19.4391C13.7422 19.4391 14.0328 19.3406 14.3 19.1062C14.5203 18.9141 14.75 18.5109 14.75 18.3234C14.75 18.2297 14.7641 18.2203 14.8578 18.2484C14.9141 18.2672 15.0969 18.2812 15.2656 18.2812C15.9406 18.2766 16.4844 17.8453 16.6344 17.1844L16.6953 16.9312L16.9672 16.9266C17.6141 16.9125 18.1719 16.4578 18.3031 15.8437C18.3406 15.6703 18.3453 15.6656 18.5422 15.6797C19.0156 15.7078 19.5781 15.4547 19.8266 15.0938C20.0797 14.7234 20.1359 14.3812 20.0375 13.7484C20.0281 13.6828 20.1734 13.5656 20.6703 13.2469L21.3125 12.8344L21.4813 12.9469C21.7578 13.1344 21.9125 13.1062 23.0609 12.6609C24.1719 12.225 24.3219 12.15 24.4297 11.9391C24.575 11.6531 24.5281 11.4281 24.05 10.2094C23.75 9.44531 23.5625 9.01875 23.4828 8.94844C23.2719 8.75625 22.9531 8.85469 22.8781 9.14531C22.8594 9.22031 22.9859 9.59531 23.3047 10.3922C23.5484 11.0203 23.7359 11.55 23.7172 11.5687C23.6797 11.6016 22.0625 12.2437 21.9313 12.2766C21.8938 12.2859 21.4625 11.2547 20.6797 9.27187C20.0234 7.60781 19.4891 6.24844 19.4984 6.24375C19.5594 6.19687 21.3641 5.50781 21.3734 5.52187C21.3828 5.53125 21.5984 6.06562 21.8516 6.7125C22.1047 7.35469 22.3391 7.92188 22.3813 7.96406C22.4234 8.01562 22.5172 8.04844 22.6344 8.04844C22.8594 8.04844 23 7.91719 23 7.70625C23 7.62656 22.7797 6.99375 22.5031 6.30469C21.9734 4.95937 21.9172 4.86562 21.5563 4.77187C21.4531 4.74375 21.3172 4.73906 21.2188 4.7625C20.9938 4.81875 19.1703 5.54531 19.0297 5.63437C18.8563 5.74687 18.7344 5.98594 18.7344 6.20625C18.7344 6.39844 18.7344 6.40312 18.4672 6.50156C17.3609 6.91875 17.1875 6.9375 16.1938 6.77812C15.6313 6.68906 15.5797 6.68906 15.4719 6.75937C15.2328 6.91406 15.2094 7.22812 15.4203 7.36406C15.5609 7.45781 16.6297 7.62656 17.0844 7.62656C17.5016 7.62656 17.7734 7.56562 18.4813 7.30312C18.7625 7.2 18.9969 7.125 19.0063 7.13437C19.0531 7.18125 20.975 12.1031 20.9563 12.1312C20.9469 12.15 20.6234 12.3656 20.2344 12.6141C19.8078 12.8906 19.5078 13.0547 19.4703 13.0312C19.4422 13.0125 18.7625 12.5203 17.9703 11.9344L16.5219 10.8656L15.8516 10.8937C15.2656 10.9172 15.125 10.9078 14.7359 10.8187C14.0047 10.65 13.4 10.3172 12.7531 9.73125C12.3734 9.38437 12.2375 9.33281 11.8625 9.375C11.7172 9.38906 11.5953 9.44062 11.4781 9.54375C10.4328 10.425 9.57031 10.8187 8.99844 10.6781C8.72188 10.6078 8.39375 10.4203 8.32344 10.2937C8.25781 10.1672 8.30938 10.1109 8.72656 9.82969C9.47188 9.32344 10.2219 8.70469 11.3094 7.6875C11.6469 7.36875 11.9984 7.07812 12.0922 7.04062C12.3219 6.94687 12.4672 6.95156 13.3484 7.09219C14.1031 7.21406 14.1078 7.21406 14.2297 7.125C14.4172 6.98437 14.4266 6.60469 14.2391 6.50625C14.1219 6.44062 12.7063 6.22031 12.4203 6.22031C11.9516 6.22031 11.5906 6.39375 11.0328 6.88594L10.7891 7.10625L10.475 7.01719C10.0109 6.89062 9.44844 6.83437 8.35156 6.80156C7.27344 6.77344 7.10938 6.75 6.60781 6.53906L6.26562 6.39844V6.21562C6.26562 5.99531 6.17188 5.79375 6.00781 5.66719C5.87656 5.56406 3.94063 4.79062 3.71094 4.74844C3.63594 4.73437 3.48594 4.75312 3.3875 4.79062ZM4.5875 5.87344C5.08438 6.07031 5.49688 6.23437 5.50156 6.23906C5.51094 6.24375 4.97656 7.60781 4.32031 9.27187C3.5375 11.2594 3.10625 12.2859 3.06875 12.2766C2.86719 12.2391 1.27344 11.5734 1.27344 11.5266C1.27344 11.4375 3.6125 5.51719 3.65 5.51719C3.66406 5.51719 4.08594 5.67656 4.5875 5.87344ZM6.73438 7.40625C6.95 7.48125 7.175 7.50469 8.14063 7.5375C9.28906 7.575 10.0391 7.65 10.0859 7.725C10.1328 7.79531 8.99844 8.71875 8.20625 9.2625C7.925 9.45 7.74688 9.60938 7.68594 9.72656C7.3625 10.2984 7.60625 10.8703 8.31406 11.2312C9.26562 11.7094 10.4234 11.4094 11.6984 10.3453C11.8531 10.2141 11.9938 10.1109 12.0125 10.1109C12.0266 10.1109 12.1672 10.2281 12.3219 10.3687C12.6969 10.7156 13.0813 10.9734 13.5969 11.2172C14.2813 11.5406 14.6516 11.6203 15.5422 11.6437L16.3109 11.6625L17.5297 12.5578C18.2 13.05 18.8516 13.5375 18.9781 13.6406C19.325 13.9125 19.4234 14.2172 19.2688 14.5453C19.1188 14.8594 18.6969 14.9953 18.3828 14.8312C18.3031 14.7937 17.8813 14.4844 17.4453 14.1469C16.7516 13.6125 16.625 13.5328 16.475 13.5328C16.25 13.5328 16.1094 13.6641 16.1094 13.8703C16.1094 13.9547 16.1281 14.0531 16.1516 14.0906C16.175 14.1234 16.4844 14.3766 16.8406 14.6531C17.3656 15.0562 17.5016 15.1828 17.5484 15.3187C17.6984 15.7781 17.2625 16.2797 16.7984 16.1766C16.6203 16.1391 16.4703 16.0406 15.6922 15.4359C15.1906 15.0516 15.0828 14.9859 14.9328 14.9859C14.7125 14.9859 14.5625 15.1266 14.5625 15.3375C14.5625 15.5203 14.6141 15.5766 15.2563 16.0641C15.9359 16.5797 16.0578 16.8328 15.8188 17.1891C15.65 17.4328 15.4859 17.5312 15.2516 17.5312C15.0031 17.5312 14.9094 17.4797 14.1406 16.8844C13.6766 16.5281 13.5313 16.4391 13.4047 16.4391C13.175 16.4391 13.0531 16.5844 13.0719 16.8281C13.0859 17.0109 13.1094 17.0437 13.5172 17.3672C13.8781 17.6531 13.9625 17.7469 14 17.8969C14.0656 18.1406 13.9344 18.4594 13.7094 18.5953C13.4375 18.7594 13.1844 18.7266 12.8188 18.4734C12.6406 18.3562 12.5 18.2391 12.5 18.2203C12.5 18.2016 12.5328 18.1594 12.575 18.1219C12.7156 18.0047 12.8422 17.6812 12.8609 17.3766C12.8938 16.9594 12.7578 16.6125 12.4719 16.3453C12.2234 16.1203 12.0453 16.0359 11.7125 15.9891L11.4734 15.9609L11.4031 15.7172C11.2438 15.1687 10.7656 14.7984 10.2219 14.7984C10.0297 14.7984 10.0156 14.7891 10.0156 14.6672C10.0156 14.4562 9.80938 14.0766 9.58906 13.8937C9.37813 13.7109 9.03125 13.5797 8.76406 13.5797C8.63281 13.5797 8.60938 13.5609 8.60938 13.4719C8.60938 13.2891 8.39375 12.9047 8.1875 12.7219C7.92031 12.4781 7.70938 12.3937 7.34375 12.3891C6.85625 12.3797 6.65938 12.4828 6.19531 12.9844C5.84844 13.3594 5.7875 13.4062 5.71719 13.3594C5.67031 13.3266 5.25781 13.0641 4.79844 12.7781C4.33906 12.4875 3.97344 12.225 3.98281 12.2016C4.07188 11.9766 5.76875 7.67344 5.86719 7.42969L5.99375 7.11562L6.23281 7.21406C6.36875 7.26562 6.59375 7.35469 6.73438 7.40625ZM7.50313 13.1766C7.80781 13.3031 7.94844 13.65 7.80313 13.9219C7.72813 14.0672 6.88906 15.0375 6.74844 15.1453C6.34531 15.45 5.72656 14.9578 5.94688 14.5031C6.06406 14.2594 6.96406 13.2469 7.12813 13.1766C7.31094 13.0969 7.31563 13.0969 7.50313 13.1766ZM9.01719 14.4234C9.09688 14.4703 9.19063 14.5594 9.21875 14.6156C9.28906 14.7422 9.28906 14.9906 9.22344 15.1172C9.13438 15.2859 8.27656 16.275 8.15 16.3547C7.7375 16.6266 7.16563 16.1719 7.35781 15.7266C7.42344 15.5812 7.90156 14.9859 8.27656 14.5969C8.54375 14.3109 8.75469 14.2594 9.01719 14.4234ZM10.4328 15.6187C10.5688 15.6844 10.7188 15.9375 10.7188 16.0969C10.7188 16.2281 10.5594 16.4578 10.1188 16.9734C9.62656 17.5453 9.56563 17.6016 9.37344 17.6391C9.18125 17.6766 8.90938 17.5453 8.82031 17.3719C8.72656 17.1984 8.73125 16.9547 8.82969 16.8141C8.99375 16.575 9.8 15.6656 9.89375 15.6094C10.0297 15.5297 10.2734 15.5344 10.4328 15.6187ZM11.8906 16.8562C12.2 17.0812 12.1906 17.3953 11.8625 17.7891C11.3047 18.4547 11.0141 18.7547 10.8734 18.8109C10.4375 18.9937 9.96875 18.4172 10.2359 18.0328C10.4563 17.7141 11.2109 16.875 11.3422 16.8C11.5156 16.7016 11.7125 16.725 11.8906 16.8562Z" fill="#FFF001"/>
</g>
<defs>
<clipPath id="clip0_434_3446">
<rect width="24" height="24" fill="white" transform="translate(0.5 0.171875)"/>
</clipPath>
</defs>
</svg>
