<svg width="133" height="49" viewBox="0 0 133 49" fill="none" xmlns="http://www.w3.org/2000/svg">
<mask id="mask0_445_604" style="mask-type:alpha" maskUnits="userSpaceOnUse" x="0" y="0" width="133" height="49">
<path fill-rule="evenodd" clip-rule="evenodd" d="M108.5 1.17188H24.5C11.7975 1.17188 1.5 11.4693 1.5 24.1719C1.5 36.8744 11.7975 47.1719 24.5 47.1719H108.5C121.203 47.1719 131.5 36.8744 131.5 24.1719C131.5 11.4693 121.203 1.17188 108.5 1.17188ZM24.5 0.171875C11.2452 0.171875 0.5 10.917 0.5 24.1719C0.5 37.4267 11.2452 48.1719 24.5 48.1719H108.5C121.755 48.1719 132.5 37.4267 132.5 24.1719C132.5 10.917 121.755 0.171875 108.5 0.171875H24.5Z" fill="white"/>
</mask>
<g mask="url(#mask0_445_604)">
<path d="M0.5 24.1719C0.5 10.917 11.2452 0.171875 24.5 0.171875H108.5C121.755 0.171875 132.5 10.917 132.5 24.1719V24.1719C132.5 37.4267 121.755 48.1719 108.5 48.1719H24.5C11.2452 48.1719 0.5 37.4267 0.5 24.1719V24.1719Z" fill="white"/>
</g>
</svg>
