<svg width="157" height="57" viewBox="0 0 157 57" fill="none" xmlns="http://www.w3.org/2000/svg">
<mask id="mask0_445_610" style="mask-type:alpha" maskUnits="userSpaceOnUse" x="0" y="0" width="157" height="57">
<path fill-rule="evenodd" clip-rule="evenodd" d="M128.136 1.58854H28.8636C13.8515 1.58854 1.68182 13.6022 1.68182 28.4219C1.68182 43.2415 13.8515 55.2552 28.8636 55.2552H128.136C143.148 55.2552 155.318 43.2415 155.318 28.4219C155.318 13.6022 143.148 1.58854 128.136 1.58854ZM28.8636 0.421875C13.1988 0.421875 0.5 12.9579 0.5 28.4219C0.5 43.8859 13.1988 56.4219 28.8636 56.4219H128.136C143.801 56.4219 156.5 43.8859 156.5 28.4219C156.5 12.9579 143.801 0.421875 128.136 0.421875H28.8636Z" fill="white"/>
</mask>
<g mask="url(#mask0_445_610)">
<path d="M0.5 28.7887C0.5 13.1221 13.2003 0.421875 28.8668 0.421875H128.151C143.817 0.421875 156.518 13.1221 156.518 28.7887V28.7887C156.518 44.4553 143.817 57.1555 128.151 57.1555H28.8668C13.2003 57.1555 0.5 44.4553 0.5 28.7887V28.7887Z" fill="#FFF001"/>
</g>
</svg>
