<svg width="361" height="361" viewBox="0 0 361 361" fill="none" xmlns="http://www.w3.org/2000/svg">
<g style="mix-blend-mode:lighten" opacity="0.4" clip-path="url(#clip0_434_4273)">
<path d="M142.426 25.8764C128.959 26.8635 110.627 31.094 98.0061 36.1C63.1047 49.9196 33.5619 76.783 16.64 109.992C9.80078 123.459 5.21777 136.856 1.90391 153.355C0.423242 161.04 0.352734 161.674 0.141211 248.329L-0.0703125 335.617H77.5588H155.117V258.059V180.5H103.506H51.9645L52.3875 172.885C54.5027 138.548 75.8666 106.044 107.243 89.6154C119.722 83.0582 131.497 79.6033 146.374 78.1932L155.117 77.3471V51.3297V25.3828L150.393 25.5238C147.714 25.5944 144.189 25.7354 142.426 25.8764Z" fill="#FCFBF3"/>
<path d="M345.488 26.2289C328.707 27.7801 308.965 33.4207 292.96 41.2471C244.38 64.9377 211.523 112.53 206.658 166.398C206.165 171.475 205.883 204.473 205.883 255.027V335.617H283.441H361V258.059V180.5H309.459H257.918L258.411 174.295C259.892 155.47 265.744 138.477 275.968 123.036C281.326 114.998 294.441 101.743 302.761 96.0316C317.708 85.7375 335.758 79.3918 354.866 77.9111L361 77.4176V51.4002V25.3828L356.629 25.4533C354.161 25.5238 349.155 25.8764 345.488 26.2289Z" fill="#FCFBF3"/>
</g>
<defs>
<clipPath id="clip0_434_4273">
<rect width="361" height="361" fill="white"/>
</clipPath>
</defs>
</svg>
