<svg width="352" height="352" viewBox="0 0 352 352" fill="none" xmlns="http://www.w3.org/2000/svg">
<path fill-rule="evenodd" clip-rule="evenodd" d="M118.108 1H174.957V57.8485H118.108V1ZM117.108 0H118.108H174.957H175.957L176.663 2.97914e-05H233.512L234.217 0H235.217H292.065H293.065L293.771 2.97914e-05H350.62H351.62V1.00003V57.8485V58.5547V58.8485V59.5547V116.403V117.109V117.403V118.109V174.958V175.664V175.958V176.664V233.513V234.219V234.513V235.219V292.067V292.77V293.067V293.77V350.618V351.618H350.62H293.771L293.065 351.618H292.065H235.217H234.217L233.512 351.618H176.663L175.957 351.618H174.957H118.108H117.108L116.402 351.618H59.5537H58.8485H58.5537H57.8485H1H0V350.618V293.77V293.067V292.77V292.067V235.219V234.513V234.219V233.513V176.664V175.958V175.664V174.958V118.109V117.403V117.109V116.403V59.5547V58.8485V58.5547V57.8485V1.00003V2.97914e-05H1H57.8485H58.5537H58.8485H59.5537H116.402L117.108 0ZM57.8485 1.00003H1V57.8485H57.8485V1.00003ZM116.402 1.00003H59.5537V57.8485H116.402V1.00003ZM233.512 1.00003H176.663V57.8485H233.512V1.00003ZM235.217 1H292.065V57.8485H235.217V1ZM350.62 1.00003H293.771V57.8485H350.62V1.00003ZM1 59.5547H57.8485V116.403H1V59.5547ZM59.5537 59.5547H116.402V116.403H59.5537V59.5547ZM174.957 59.5547H118.108V116.403H174.957V59.5547ZM176.663 59.5547H233.512V116.403H176.663V59.5547ZM292.065 59.5547H235.217V116.403H292.065V59.5547ZM293.771 59.5547H350.62V116.403H293.771V59.5547ZM118.108 118.109H174.957V174.958H118.108V118.109ZM57.8485 118.109H1V174.958H57.8485V118.109ZM116.402 118.109H59.5537V174.958H116.402V118.109ZM233.512 118.109H176.663V174.958H233.512V118.109ZM235.217 118.109H292.065V174.958H235.217V118.109ZM350.62 118.109H293.771V174.958H350.62V118.109ZM57.8485 176.664H1V233.513H57.8485V176.664ZM116.402 176.664H59.5537V233.513H116.402V176.664ZM118.108 176.664H174.957V233.513H118.108V176.664ZM233.512 176.664H176.663V233.513H233.512V176.664ZM235.217 176.664H292.065V233.513H235.217V176.664ZM350.62 176.664H293.771V233.513H350.62V176.664ZM118.108 235.219H174.957V292.067H118.108V235.219ZM57.8485 235.219H1V292.067H57.8485V235.219ZM116.402 235.219H59.5537V292.067H116.402V235.219ZM233.512 235.219H176.663V292.067H233.512V235.219ZM235.217 235.219H292.065V292.067H235.217V235.219ZM350.62 235.219H293.771V292.067H350.62V235.219ZM1 293.77H57.8485V350.618H1V293.77ZM59.5537 293.77H116.402V350.618H59.5537V293.77ZM174.957 293.77H118.108V350.618H174.957V293.77ZM176.663 293.77H233.512V350.618H176.663V293.77ZM292.065 293.77H235.217V350.618H292.065V293.77ZM293.771 293.77H350.62V350.618H293.771V293.77Z" fill="url(#paint0_radial_434_3308)" fill-opacity="0.2"/>
<defs>
<radialGradient id="paint0_radial_434_3308" cx="0" cy="0" r="1" gradientUnits="userSpaceOnUse" gradientTransform="translate(55 176) scale(276.5 276.5)">
<stop stop-color="white" stop-opacity="0.61"/>
<stop offset="1" stop-color="white" stop-opacity="0"/>
</radialGradient>
</defs>
</svg>
