<svg width="802" height="802" viewBox="0 0 802 802" fill="none" xmlns="http://www.w3.org/2000/svg">
<path fill-rule="evenodd" clip-rule="evenodd" d="M133.19 1H1.04102V133.149H133.19V1ZM1.04102 0H0.0410156V1V133.149V133.477V134.149V134.477V266.625V266.957V267.625V267.957V400.106V400.434V401.106V401.434V533.582V533.91V534.582V534.91V667.059V667.391V668.059V668.391V800.539V801.539H1.04102H133.19H133.519H134.19H134.519H266.667H266.997H267.667H267.997H400.146L400.475 801.539L401.146 801.539L401.475 801.539H533.623L533.952 801.539L534.623 801.539L534.952 801.539H667.101L667.431 801.539L668.101 801.539L668.431 801.539H800.579H801.579V800.539V668.391V668.059V667.391V667.059V534.91V534.583V533.91V533.583V401.434V401.106V400.434V400.106V267.957V267.625V266.957V266.625V134.477V134.149V133.477V133.149V1V0H800.579H668.431H668.101H667.431H667.101H534.952H534.623H533.952H533.623H401.475H401.146H400.475H400.146H267.997H267.667H266.997H266.667H134.519H134.19H133.519H133.19H1.04102ZM266.667 1H134.519V133.149H266.667V1ZM267.997 1H400.146V133.149H267.997V1ZM533.623 1H401.475V133.149H533.623V1ZM534.952 1H667.101V133.149H534.952V1ZM800.579 1H668.431V133.149H800.579V1ZM1.04102 134.477H133.19V266.625H1.04102V134.477ZM134.519 134.477H266.667V266.625H134.519V134.477ZM400.146 134.477H267.997V266.625H400.146V134.477ZM401.475 134.477H533.623V266.625H401.475V134.477ZM667.101 134.477H534.952V266.625H667.101V134.477ZM668.431 134.477H800.579V266.625H668.431V134.477ZM133.19 267.957H1.04102V400.106H133.19V267.957ZM266.667 267.957H134.519V400.106H266.667V267.957ZM267.997 267.957H400.146V400.106H267.997V267.957ZM533.623 267.957H401.475V400.106H533.623V267.957ZM534.952 267.957H667.101V400.106H534.952V267.957ZM800.579 267.957H668.431V400.106H800.579V267.957ZM133.19 401.434H1.04102V533.582H133.19V401.434ZM266.667 401.434H134.519V533.582H266.667V401.434ZM267.997 401.434H400.146V533.582H267.997V401.434ZM533.623 401.434H401.475V533.583H533.623V401.434ZM534.952 401.434H667.101V533.582H534.952V401.434ZM800.579 401.434H668.431V533.583H800.579V401.434ZM133.19 534.91H1.04102V667.059H133.19V534.91ZM266.667 534.91H134.519V667.059H266.667V534.91ZM267.997 534.91H400.146V667.059H267.997V534.91ZM533.623 534.91H401.475V667.059H533.623V534.91ZM534.952 534.91H667.101V667.059H534.952V534.91ZM800.579 534.91H668.431V667.059H800.579V534.91ZM401.475 668.391H533.623V800.539H401.475V668.391ZM1.04102 668.391H133.19V800.539H1.04102V668.391ZM134.519 668.391H266.667V800.539H134.519V668.391ZM400.146 668.391H267.997V800.539H400.146V668.391ZM667.101 668.391H534.952V800.539H667.101V668.391ZM668.431 668.391H800.579V800.539H668.431V668.391Z" fill="url(#paint0_radial_434_4085)" fill-opacity="0.8"/>
<defs>
<radialGradient id="paint0_radial_434_4085" cx="0" cy="0" r="1" gradientUnits="userSpaceOnUse" gradientTransform="translate(400.81 400.769) rotate(90) scale(532.906 532.906)">
<stop stop-color="white" stop-opacity="0.61"/>
<stop offset="0.742708" stop-color="white" stop-opacity="0"/>
</radialGradient>
</defs>
</svg>
