<svg width="352" height="352" viewBox="0 0 352 352" fill="none" xmlns="http://www.w3.org/2000/svg">
<path fill-rule="evenodd" clip-rule="evenodd" d="M233.892 351L177.043 351L177.043 294.151L233.892 294.151L233.892 351ZM234.892 352L233.892 352L177.043 352L176.043 352L175.337 352L118.488 352L117.783 352L116.783 352L59.9347 352L58.9347 352L58.2285 352L1.38004 352L0.380035 352L0.380035 351L0.38004 294.151L0.380041 293.445L0.380041 293.151L0.380041 292.445L0.380046 235.597L0.380046 234.891L0.380046 234.597L0.380046 233.891L0.380051 177.042L0.38002 176.336L0.380051 176.042L0.38002 175.336L0.380025 118.487L0.380025 117.781L0.380025 117.487L0.380025 116.781L0.38003 59.9327L0.38003 59.2304L0.380031 58.9327L0.380031 58.2304L0.380036 1.38196L0.380036 0.381958L1.38004 0.381958L58.2285 0.381963L58.9349 0.381902L59.9349 0.381902L116.783 0.381907L117.783 0.381907L118.488 0.381938L175.337 0.381943L176.043 0.381912L177.043 0.381912L233.892 0.381917L234.892 0.381917L235.598 0.381948L292.446 0.381953L293.152 0.381953L293.446 0.381953L294.152 0.381953L351 0.381958L352 0.381958L352 1.38196L352 58.2304L352 58.9327L352 59.9327L352 116.781L352 117.487L352 118.487L352 175.336L352 176.042L352 177.042L352 233.891L352 234.597L352 235.597L352 292.445L352 293.151L352 294.151L352 351L352 352L351 352L294.152 352L293.446 352L292.446 352L235.598 352L234.892 352ZM235.598 351L292.446 351L292.446 294.151L235.598 294.151L235.598 351ZM294.152 351L351 351L351 294.151L294.152 294.151L294.152 351ZM118.488 351L175.337 351L175.337 294.151L118.488 294.151L118.488 351ZM116.783 351L59.9347 351L59.9347 294.151L116.783 294.151L116.783 351ZM1.38004 351L58.2285 351L58.2285 294.151L1.38004 294.151L1.38004 351ZM58.2285 292.445L1.38004 292.445L1.38005 235.597L58.2285 235.597L58.2285 292.445ZM175.337 292.445L118.488 292.445L118.488 235.597L175.337 235.597L175.337 292.445ZM292.446 292.445L235.598 292.445L235.598 235.597L292.446 235.597L292.446 292.445ZM351 292.445L294.152 292.445L294.152 235.597L351 235.597L351 292.445ZM177.043 292.445L233.892 292.445L233.892 235.597L177.043 235.597L177.043 292.445ZM59.9347 292.445L116.783 292.445L116.783 235.597L59.9347 235.597L59.9347 292.445ZM233.892 233.891L177.043 233.891L177.043 177.042L233.892 177.042L233.892 233.891ZM235.598 233.891L292.446 233.891L292.446 177.042L235.598 177.042L235.598 233.891ZM294.152 233.891L351 233.891L351 177.042L294.152 177.042L294.152 233.891ZM118.488 233.891L175.337 233.891L175.337 177.042L118.488 177.042L118.488 233.891ZM116.783 233.891L59.9347 233.891L59.9347 177.042L116.783 177.042L116.783 233.891ZM1.38005 233.891L58.2285 233.891L58.2285 177.042L1.38005 177.042L1.38005 233.891ZM1.38002 175.336L58.2285 175.336L58.2285 118.487L1.38003 118.487L1.38002 175.336ZM118.488 175.336L175.337 175.336L175.337 118.487L118.488 118.487L118.488 175.336ZM235.598 175.336L292.446 175.336L292.446 118.487L235.598 118.487L235.598 175.336ZM294.152 175.336L351 175.336L351 118.487L294.152 118.487L294.152 175.336ZM233.892 175.336L177.043 175.336L177.043 118.487L233.892 118.487L233.892 175.336ZM116.783 175.336L59.9346 175.336L59.9347 118.487L116.783 118.487L116.783 175.336ZM233.892 116.781L177.043 116.781L177.043 59.9328L233.892 59.9328L233.892 116.781ZM235.598 116.781L292.446 116.781L292.446 59.9327L235.598 59.9327L235.598 116.781ZM294.152 116.781L351 116.781L351 59.9327L294.152 59.9327L294.152 116.781ZM118.488 116.781L175.337 116.781L175.337 59.9327L118.488 59.9327L118.488 116.781ZM116.783 116.781L59.9347 116.781L59.9347 59.9327L116.783 59.9327L116.783 116.781ZM1.38003 116.781L58.2285 116.781L58.2285 59.9327L1.38003 59.9327L1.38003 116.781ZM58.2285 58.2304L1.38003 58.2304L1.38004 1.38196L58.2285 1.38196L58.2285 58.2304ZM175.337 58.2305L118.488 58.2304L118.488 1.38194L175.337 1.38194L175.337 58.2305ZM292.446 58.2304L235.598 58.2304L235.598 1.38195L292.446 1.38195L292.446 58.2304ZM351 58.2304L294.152 58.2304L294.152 1.38195L351 1.38196L351 58.2304ZM177.043 58.2304L233.892 58.2304L233.892 1.38192L177.043 1.38191L177.043 58.2304ZM59.9349 58.2304L116.783 58.2304L116.783 1.38191L59.9349 1.3819L59.9349 58.2304Z" fill="url(#paint0_radial_434_3351)" fill-opacity="0.2"/>
<defs>
<radialGradient id="paint0_radial_434_3351" cx="0" cy="0" r="1" gradientUnits="userSpaceOnUse" gradientTransform="translate(297 176) rotate(-180) scale(276.5 276.5)">
<stop stop-color="white" stop-opacity="0.61"/>
<stop offset="1" stop-color="white" stop-opacity="0"/>
</radialGradient>
</defs>
</svg>
