<svg width="213" height="137" viewBox="0 0 213 137" fill="none" xmlns="http://www.w3.org/2000/svg">
<path d="M53.6632 134.466C53.6632 134.466 53.0479 127.275 53.5076 125.748C53.8931 124.458 55.7317 122.783 55.7317 122.783C55.7317 122.783 54.7605 108.207 55.3832 104.449C55.917 101.224 58.8973 91.8454 58.8973 91.8454L54.8791 54.2285L40.7042 58.5655C40.7042 58.5655 46.7389 71.91 47.673 75.8689C48.6071 79.8278 54.1674 83.631 54.1674 83.631L40.7412 99.3109L36.7749 96.5456C36.7749 96.5456 25.0614 105.709 14.4821 92.0085C3.90278 78.308 -0.641796 67.1505 0.840936 54.0135C2.32367 40.8765 61.2993 0.494263 72.9981 0.909428L90.3979 4.75712C90.7686 4.44574 91.7917 3.64506 92.5701 3.68213C95.7357 3.84523 95.8173 7.52242 95.8173 7.52242L134.813 13.8537C134.813 13.8537 138.861 11.8298 139.565 11.8594C140.073 11.8949 140.564 12.0565 140.994 12.3297C141.424 12.6028 141.779 12.9788 142.027 13.4237C142.027 13.4237 152.124 7.38155 155.371 8.78273C166.047 13.394 219.24 39.2455 211.352 51.2408C200.15 68.2922 152.784 76.677 152.784 76.677C152.784 76.677 137.03 100.401 130.825 99.3035L140.974 136.438" stroke="#100F00" stroke-linecap="round" stroke-linejoin="round"/>
</svg>
