<svg width="27" height="46" viewBox="0 0 27 46" fill="none" xmlns="http://www.w3.org/2000/svg">
<path d="M20.8369 39.115C20.8369 39.115 12.022 45.1126 8.47087 44.7123C8.08082 44.6921 7.71051 44.5346 7.42555 44.2675C5.11249 41.8803 3.25166 37.6841 3.25166 37.6841C3.25166 37.6841 4.3563 36.1569 7.75917 40.2122L9.91654 38.2328L5.46835 33.7401C5.46835 33.7401 7.98157 31.7458 12.2518 34.2887C12.1036 33.9773 9.3531 27.9871 11.4289 19.8321L1.0498 9.8162L10.2576 1.79464L10.9989 1.17188C10.9989 1.17188 11.5772 1.74273 12.4817 2.65461C13.3861 3.56649 14.639 4.66371 15.9957 5.85731C19.2429 8.71157 23.1722 11.7882 24.8921 11.7882C27.991 11.6844 20.8369 39.115 20.8369 39.115Z" stroke="#100F00" stroke-linecap="round" stroke-linejoin="round"/>
</svg>
