<svg width="26" height="31" viewBox="0 0 26 31" fill="none" xmlns="http://www.w3.org/2000/svg">
<path d="M0.949198 27.8678C1.13701 28.3097 1.48191 28.6665 1.91729 28.8691C2.35266 29.0717 2.84767 29.1059 3.30676 28.965L10.5351 26.8817C10.5511 27.0373 10.5808 27.1911 10.624 27.3414C10.7336 27.7191 10.9164 28.0716 11.1622 28.3787C11.4079 28.6858 11.7117 28.9414 12.0563 29.1311C12.4008 29.3207 12.7794 29.4407 13.1703 29.4841C13.5612 29.5274 13.9568 29.4934 14.3346 29.3838C14.7123 29.2743 15.0648 29.0915 15.3719 28.8457C15.6789 28.6 15.9346 28.2961 16.1243 27.9516C16.3139 27.607 16.4339 27.2285 16.4772 26.8376C16.5206 26.4467 16.4865 26.0511 16.377 25.6733C16.3312 25.5235 16.2742 25.3773 16.2065 25.2359L23.4274 23.1527C23.899 23.0265 24.3061 22.728 24.5683 22.3162C24.8305 21.9044 24.9287 21.4093 24.8434 20.9286C24.7978 20.6672 24.6975 20.4184 24.5491 20.1985C24.4006 19.9786 24.2073 19.7925 23.9819 19.6525C23.7565 19.5125 23.5041 19.4218 23.2412 19.3861C22.9782 19.3505 22.7107 19.3709 22.4562 19.4458L21.8483 19.0752C20.5307 18.2871 19.561 17.0287 19.1349 15.5537L17.7634 10.8015C17.1988 8.84448 15.9446 7.15807 14.2329 6.05415C12.5211 4.95022 10.4675 4.50345 8.45181 4.79645C8.79789 4.43135 9.01417 3.9625 9.06725 3.46225C9.12034 2.96201 9.00729 2.45819 8.74555 2.02859C8.48381 1.59899 8.08793 1.2675 7.61905 1.08527C7.15016 0.903044 6.63433 0.880224 6.15118 1.02034C5.66803 1.16045 5.24443 1.4557 4.94578 1.86052C4.64713 2.26533 4.49005 2.75718 4.49876 3.26016C4.50747 3.76314 4.68149 4.24927 4.99397 4.6435C5.30646 5.03773 5.74001 5.31815 6.22772 5.44145C4.34765 6.26248 2.83154 7.74096 1.96353 9.59981C1.09552 11.4587 0.935214 13.5703 1.51264 15.5388L2.89899 20.3429C3.14554 21.1821 3.20695 22.0649 3.07895 22.9302C2.95095 23.7954 2.63659 24.6226 2.15763 25.3545C1.90654 25.4303 1.67397 25.5575 1.4747 25.7281C1.27544 25.8986 1.11385 26.1088 1.00019 26.3451C0.886539 26.5815 0.823313 26.8389 0.814536 27.1011C0.805758 27.3632 0.851609 27.6243 0.949198 27.8678ZM8.07373 2.91339C8.14689 3.16693 8.14322 3.43646 8.06321 3.68792C7.98321 3.93938 7.83046 4.16147 7.62425 4.32613C7.41804 4.49079 7.16765 4.5906 6.90472 4.61298C6.64179 4.63535 6.37812 4.57928 6.14706 4.45183C5.916 4.32439 5.72792 4.13129 5.60658 3.89696C5.48524 3.66264 5.43609 3.3976 5.46536 3.13535C5.49462 2.8731 5.60096 2.6254 5.77097 2.42359C5.94098 2.22177 6.16701 2.07489 6.42048 2.00151C6.5889 1.95173 6.76553 1.93586 6.94012 1.95485C7.11472 1.97384 7.28379 2.02729 7.43757 2.11211C7.59135 2.19693 7.72677 2.31144 7.83597 2.44898C7.94517 2.58653 8.02599 2.74438 8.07373 2.91339Z" fill="white" stroke="#100F00" stroke-linecap="round" stroke-linejoin="round"/>
</svg>
