<svg width="213" height="143" viewBox="0 0 213 143" fill="none" xmlns="http://www.w3.org/2000/svg">
<path d="M211.374 51.292C209.983 53.3207 208.302 55.1341 206.384 56.6743C190.178 70.093 152.813 76.6912 152.813 76.6912C152.813 76.6912 151.56 78.5669 149.633 81.2358C146.178 86.0324 140.521 93.4016 135.91 97.0936C133.96 98.6579 132.203 99.5623 130.861 99.3177L137.875 125.214L141.011 136.453C141.011 136.453 108.791 150.539 53.6853 134.436C53.6853 134.436 53.0551 127.245 53.5222 125.71C53.5222 125.636 53.5667 125.562 53.5963 125.48C54.1574 124.459 54.8896 123.541 55.7611 122.767C55.7611 122.767 55.4497 118.141 55.294 113.433C55.1162 110.432 55.1534 107.422 55.4053 104.426C55.7982 102.053 57.533 96.3152 58.4078 93.498L58.9193 91.8595L56.1763 66.1786L55.3904 58.765L55.3459 58.3795C55.3459 58.3276 55.3459 58.2683 55.3459 58.1941L54.916 54.2278L40.741 58.5574C40.741 58.5574 41.4824 60.2181 42.5055 62.546C44.3663 66.8088 47.102 73.2958 47.695 75.8905C47.7396 76.1021 47.7991 76.3102 47.873 76.5133C49.1852 80.2572 54.182 83.66 54.182 83.66L40.7559 99.3473L36.7896 96.5746C36.2818 96.9504 35.7465 97.2874 35.1882 97.5829C32.5786 98.9989 27.1073 101.082 21.1023 97.9017C18.5 96.4388 16.2404 94.4369 14.4745 92.0301C3.94706 78.3593 -0.634572 67.1721 0.855573 54.0721C2.34572 40.9722 61.2991 0.545554 72.9979 0.968132L90.3977 4.8084C90.7758 4.49703 91.7915 3.69634 92.5773 3.73341C95.743 3.89651 95.8245 7.57368 95.8245 7.57368L134.82 13.9049C134.82 13.9049 138.861 11.881 139.565 11.9107C140.074 11.945 140.567 12.1061 140.998 12.3793C141.429 12.6525 141.785 13.0291 142.034 13.475C142.034 13.475 152.131 7.42542 155.378 8.83401C166.069 13.4453 219.269 39.2967 211.374 51.292Z" fill="white"/>
</svg>
