<svg width="93" height="105" viewBox="0 0 93 105" fill="none" xmlns="http://www.w3.org/2000/svg">
<path d="M1.32812 21.4782C2.44759 18.3423 10.4988 19.395 13.0565 29.181C15.6142 38.967 25.6597 62.7575 25.6597 62.7575C25.6597 62.7575 65.6935 3.88563 72.8402 1.61705C79.987 -0.651532 77.1772 9.54965 67.5914 23.7023C67.5914 23.7023 76.5693 22.1232 78.9269 23.7023C81.2844 25.2814 80.1353 34.8228 81.3882 38.1293C83.4937 43.7118 78.8157 44.8906 78.8157 44.8906C81.1105 44.942 83.3175 45.7824 85.0654 47.2703C87.6379 49.6798 86.3479 59.6363 87.0819 62.4535C87.8158 65.2707 82.908 67.6431 82.908 67.6431C82.908 67.6431 94.7031 74.0707 92.0416 75.6869C87.5489 78.4003 84.9912 75.6202 84.9912 75.6202C84.9912 75.6202 66.8648 98.3801 53.1941 103.451C39.5233 108.522 12.9157 88.3717 10.054 77.3994C7.19232 66.4272 10.61 67.1019 8.43782 48.842C6.26562 30.5822 1.32812 21.4782 1.32812 21.4782Z" fill="white" stroke="#100F00" stroke-linecap="round" stroke-linejoin="round"/>
</svg>
