<svg width="47" height="68" viewBox="0 0 47 68" fill="none" xmlns="http://www.w3.org/2000/svg">
<path d="M44.949 36.933C47.996 19.8 44.6079 -0.758044 18.5267 0.947097C-0.103813 2.16294 0.0518885 22.5876 1.28256 28.689C3.35838 38.9421 0.385496 42.9751 3.58078 51.5898C5.87902 57.7802 11.2094 64.7046 17.4888 67.2993C21.3513 68.8933 36.9867 57.9211 38.1433 52.902" fill="white"/>
<path d="M44.949 36.933C47.996 19.8 44.6079 -0.758044 18.5267 0.947097C-0.103813 2.16294 0.0518885 22.5876 1.28256 28.689C3.35838 38.9421 0.385496 42.9751 3.58078 51.5898C5.87902 57.7802 11.2094 64.7046 17.4888 67.2993C21.3513 68.8933 36.9867 57.9211 38.1433 52.902" stroke="#100F00" stroke-linecap="round" stroke-linejoin="round"/>
</svg>
