<svg width="83" height="115" viewBox="0 0 83 115" fill="none" xmlns="http://www.w3.org/2000/svg">
<path d="M57.3801 2.79952L82.0898 97.6054C82.2275 98.1372 82.1487 98.7019 81.8708 99.1758C81.5928 99.6496 81.1384 99.994 80.6071 100.133L28.5706 113.693C28.0388 113.831 27.4741 113.752 27.0002 113.474C26.5263 113.196 26.182 112.742 26.0426 112.21L1.33285 17.4044C1.19518 16.8726 1.27393 16.3079 1.55185 15.834C1.82978 15.3602 2.28421 15.0158 2.81558 14.8764L13.4986 12.0888C13.8413 11.9989 14.2034 12.016 14.536 12.138C14.8687 12.2599 15.1561 12.4808 15.3595 12.7709L16.1379 13.8755C16.3413 14.1656 16.6287 14.3865 16.9613 14.5084C17.294 14.6304 17.656 14.6475 17.9987 14.5576L41.4481 8.44873C41.7874 8.3601 42.092 8.17116 42.3221 7.90662C42.5523 7.64208 42.6973 7.31425 42.7381 6.966L42.879 5.62412C42.9178 5.27516 43.0621 4.94633 43.2925 4.68143C43.523 4.41653 43.8287 4.22814 44.1689 4.14139L54.852 1.35386C55.3788 1.21485 55.9391 1.28854 56.4121 1.55899C56.885 1.82945 57.2327 2.275 57.3801 2.79952Z" fill="white" stroke="#100F00" stroke-linecap="round" stroke-linejoin="round"/>
</svg>
