<svg width="26" height="26" viewBox="0 0 26 26" fill="none" xmlns="http://www.w3.org/2000/svg">
<path opacity="0.3" d="M20.458 16.8445L24.1461 17.7043L25 13.8816L21.4572 13.0528C21.4572 12.9476 21.4572 12.8363 21.4572 12.7311C21.4597 11.5691 21.2331 10.4184 20.7911 9.34763L23.6616 7.00948L21.2392 3.9167L18.5625 6.1806C17.5994 5.32674 16.4581 4.70896 15.2256 4.37442V0.71875H11.3558V4.22598C10.0904 4.48108 8.89913 5.02914 7.87356 5.82804L5.09387 3.56412L2.67147 6.6569L5.38455 8.86515C4.81265 10.0166 4.50412 11.2856 4.48221 12.5765L1 13.3806L1.85388 17.2033L5.34215 16.393C5.87071 17.5396 6.63742 18.5549 7.58895 19.3682L5.96594 22.8074L9.4239 24.5084L11.0227 21.1188C11.6723 21.2852 12.3394 21.3704 13.0091 21.3724C13.5498 21.3694 14.089 21.3156 14.62 21.2115L16.2733 24.7188L19.7373 23.0177L18.1264 19.6095C19.0847 18.8648 19.879 17.9228 20.458 16.8445ZM9.21802 12.7621C9.21802 12.0011 9.43895 11.2572 9.85286 10.6245C10.2668 9.99183 10.8551 9.49871 11.5434 9.2075C12.2317 8.9163 12.989 8.8401 13.7197 8.98855C14.4504 9.137 15.1216 9.50345 15.6484 10.0415C16.1752 10.5796 16.534 11.2651 16.6793 12.0115C16.8247 12.7578 16.7501 13.5314 16.465 14.2344C16.1799 14.9374 15.6971 15.5383 15.0776 15.9611C14.4582 16.3838 13.7299 16.6095 12.9848 16.6095C11.9858 16.6095 11.0277 16.2041 10.3213 15.4826C9.61487 14.7611 9.21802 13.7825 9.21802 12.7621Z" stroke="#454648" stroke-linecap="round" stroke-linejoin="round"/>
</svg>
