<svg width="3" height="3" viewBox="0 0 3 3" fill="none" xmlns="http://www.w3.org/2000/svg">
<path d="M2.35395 1.46136C2.37175 1.52952 2.37588 1.60052 2.36612 1.67029C2.35635 1.74005 2.33288 1.80719 2.29705 1.86783C2.26121 1.92848 2.21371 1.98143 2.15732 2.02364C2.10092 2.06585 2.03674 2.09647 1.96844 2.11375C1.86627 2.13961 1.75872 2.13464 1.65937 2.09947C1.56001 2.06429 1.47329 2.00049 1.41013 1.9161C1.34698 1.83172 1.31023 1.73054 1.3045 1.6253C1.29877 1.52006 1.32432 1.41547 1.37794 1.32473C1.43156 1.23399 1.51084 1.16115 1.60579 1.1154C1.70074 1.06966 1.80712 1.05304 1.9115 1.06766C2.01588 1.08227 2.1136 1.12745 2.19234 1.19751C2.27108 1.26757 2.3273 1.35938 2.35395 1.46136Z" fill="white" stroke="#100F00" stroke-linecap="round" stroke-linejoin="round"/>
</svg>
