<svg width="44" height="22" viewBox="0 0 44 22" fill="none" xmlns="http://www.w3.org/2000/svg">
<path d="M38.8743 13.7822L9.21971 21.5073C8.37171 21.7308 7.48796 21.785 6.619 21.6668C5.75004 21.5485 4.91294 21.2601 4.15553 20.8181C3.39813 20.376 2.73528 19.789 2.20492 19.0905C1.67457 18.3921 1.28711 17.596 1.06469 16.7477C0.841254 15.8992 0.787369 15.015 0.906109 14.1456C1.02485 13.2763 1.31387 12.4389 1.75666 11.6814C2.19945 10.9239 2.7873 10.2612 3.48654 9.73122C4.18579 9.20121 4.9827 8.81431 5.83166 8.59269L35.4863 0.867662C37.1937 0.427324 39.0061 0.680775 40.5272 1.57262C42.0484 2.46447 43.1546 3.9222 43.6042 5.62723C44.0568 7.33581 43.8129 9.15414 42.9261 10.6831C42.0393 12.212 40.5821 13.3266 38.8743 13.7822Z" fill="#100F00"/>
</svg>
