<svg width="25" height="44" viewBox="0 0 25 44" fill="none" xmlns="http://www.w3.org/2000/svg">
<path d="M19.8369 38.115C19.8369 38.115 11.022 44.1126 7.47087 43.7123C7.08082 43.6921 6.71051 43.5346 6.42555 43.2675C4.11249 40.8803 2.25166 36.6841 2.25166 36.6841C2.25166 36.6841 3.3563 35.1569 6.75917 39.2122L8.91654 37.2328L4.46835 32.7401C4.46835 32.7401 6.98157 30.7458 11.2518 33.2887C11.1036 32.9773 8.3531 26.9871 10.4289 18.8321L0.0498047 8.8162L9.25756 0.794642L9.99893 0.171875C9.99893 0.171875 10.5772 0.742727 11.4817 1.65461C12.3861 2.56649 13.639 3.66371 14.9957 4.85731C18.2429 7.71157 22.1722 10.7882 23.8921 10.7882C26.991 10.6844 19.8369 38.115 19.8369 38.115Z" fill="white"/>
</svg>
