<svg width="42" height="40" viewBox="0 0 42 40" fill="none" xmlns="http://www.w3.org/2000/svg">
<path opacity="0.8" d="M33.13 26.6794L39.22 28.0694L40.63 21.8894L34.78 20.5494C34.78 20.3794 34.78 20.1994 34.78 20.0294C34.7841 18.1507 34.41 16.2904 33.68 14.5594L38.42 10.7794L34.42 5.77939L30 9.43936C28.4098 8.05895 26.5251 7.06022 24.49 6.51938V0.609375H18.1V6.27939C16.0105 6.69181 14.0434 7.57784 12.35 8.86938L7.76001 5.20938L3.76001 10.2094L8.23999 13.7794C7.29563 15.6408 6.78618 17.6924 6.75 19.7794L1 21.0794L2.40997 27.2594L8.16998 25.9494C9.04276 27.803 10.3088 29.4444 11.88 30.7594L9.20001 36.3194L14.91 39.0694L17.55 33.5894C18.6227 33.8585 19.7241 33.9962 20.83 33.9994C21.7228 33.9946 22.6132 33.9075 23.49 33.7394L26.22 39.4094L31.94 36.6594L29.28 31.1494C30.8623 29.9456 32.174 28.4226 33.13 26.6794ZM14.57 20.0794C14.57 18.8492 14.9348 17.6466 15.6183 16.6237C16.3017 15.6008 17.2732 14.8036 18.4097 14.3329C19.5463 13.8621 20.7969 13.7389 22.0035 13.9789C23.21 14.2189 24.3183 14.8113 25.1882 15.6812C26.0581 16.5511 26.6505 17.6593 26.8905 18.8659C27.1305 20.0725 27.0073 21.3231 26.5366 22.4597C26.0658 23.5962 25.2685 24.5677 24.2457 25.2511C23.2228 25.9346 22.0202 26.2994 20.79 26.2994C19.1403 26.2994 17.5583 25.644 16.3918 24.4776C15.2253 23.3111 14.57 21.729 14.57 20.0794Z" stroke="#454648" stroke-linecap="round" stroke-linejoin="round"/>
</svg>
