<svg width="29" height="16" viewBox="0 0 29 16" fill="none" xmlns="http://www.w3.org/2000/svg">
<path d="M28.5 0.875C28.5 0.598858 28.2761 0.375 28 0.375C27.7239 0.375 27.5 0.598858 27.5 0.875H28.5ZM28 11.875V12.375H28.5V11.875H28ZM0.646447 11.5214C0.451184 11.7167 0.451184 12.0333 0.646447 12.2286L3.82843 15.4105C4.02369 15.6058 4.34027 15.6058 4.53553 15.4105C4.7308 15.2153 4.7308 14.8987 4.53553 14.7034L1.70711 11.875L4.53553 9.04657C4.7308 8.85131 4.7308 8.53473 4.53553 8.33947C4.34027 8.1442 4.02369 8.1442 3.82843 8.33947L0.646447 11.5214ZM27.5 0.875V11.875H28.5V0.875H27.5ZM28 11.375H1V12.375H28V11.375Z" fill="#100F00" fill-opacity="0.4"/>
</svg>
