<svg width="84" height="86" viewBox="0 0 84 86" fill="none" xmlns="http://www.w3.org/2000/svg">
<path d="M30.1614 77.8925C48.058 89.7099 62.4849 87.5303 73.7759 72.3174C73.7759 72.3174 83.1765 60.1961 82.5092 47.111C81.842 34.0259 78.7208 -8.60264 37.9828 2.29544C31.2734 4.08954 15.6232 25.0479 14.311 30.8084C13.7031 33.4402 7.4237 46.8367 1.32227 60.7076" fill="white"/>
<path d="M30.1614 77.8925C48.058 89.7099 62.4849 87.5303 73.7759 72.3174C73.7759 72.3174 83.1765 60.1961 82.5092 47.111C81.842 34.0259 78.7209 -8.60263 37.9828 2.29544C31.2734 4.08954 15.6232 25.0479 14.311 30.8084C13.7031 33.4402 7.4237 46.8367 1.32227 60.7076" stroke="#100F00" stroke-linecap="round" stroke-linejoin="round"/>
</svg>
