<svg width="4" height="3" viewBox="0 0 4 3" fill="none" xmlns="http://www.w3.org/2000/svg">
<path d="M2.49256 1.29457C2.52079 1.40312 2.52736 1.51618 2.5119 1.62728C2.49645 1.73837 2.45926 1.84533 2.40247 1.94205C2.34567 2.03878 2.27039 2.12337 2.1809 2.19099C2.09142 2.25862 1.98948 2.30795 1.88092 2.33619C1.77237 2.36442 1.65932 2.371 1.54823 2.35554C1.43713 2.34009 1.33017 2.3029 1.23345 2.24611C1.13673 2.18931 1.05214 2.11402 0.984511 2.02453C0.916884 1.93505 0.867539 1.83312 0.839305 1.72456C0.809206 1.61599 0.801128 1.5025 0.815527 1.39076C0.829926 1.27902 0.866513 1.17128 0.923152 1.07389C0.979792 0.976496 1.05533 0.891412 1.14533 0.823638C1.23533 0.755863 1.33798 0.706766 1.44723 0.679235C1.66742 0.622842 1.90097 0.655912 2.09685 0.771216C2.29273 0.88652 2.435 1.07468 2.49256 1.29457Z" fill="white" stroke="#100F00" stroke-linecap="round" stroke-linejoin="round"/>
</svg>
