<svg width="213" height="124" viewBox="0 0 213 124" fill="none" xmlns="http://www.w3.org/2000/svg">
<path d="M121.608 22.3278L121.608 22.3277L121.62 22.3301C122.877 22.5901 124.638 23.2755 125.568 23.8507L125.577 23.8565L125.586 23.8628C125.745 23.9712 125.961 24.1724 126.209 24.4218C126.467 24.6812 126.787 25.0228 127.163 25.4377C127.916 26.268 128.903 27.4039 130.075 28.7893C132.419 31.5608 135.512 35.3402 138.967 39.6905C142.19 43.7041 145.194 47.4259 147.434 50.1752C148.554 51.5502 149.483 52.6809 150.151 53.4829C150.485 53.8841 150.753 54.2013 150.947 54.4249C151.044 54.5371 151.12 54.6232 151.176 54.6838C151.202 54.7121 151.22 54.7303 151.23 54.7411C151.234 54.7423 151.237 54.7435 151.241 54.7449C151.285 54.759 151.355 54.7769 151.46 54.7963C151.67 54.835 151.98 54.8724 152.411 54.907C153.273 54.976 154.574 55.0303 156.444 55.0719C160.182 55.155 166.157 55.1862 175.351 55.1862C183.505 55.1862 189.562 55.2174 193.696 55.2903C195.762 55.3267 197.352 55.3736 198.486 55.4326C199.052 55.462 199.509 55.4947 199.857 55.5313C200.184 55.5657 200.466 55.6078 200.646 55.6727C201.666 56.0295 202.5 56.8367 202.888 57.5824C203.075 57.9415 203.212 58.3906 203.086 58.8003C203.018 59.0231 202.875 59.216 202.661 59.345C202.457 59.4682 202.218 59.5144 201.976 59.5144C201.978 59.5144 201.974 59.5143 201.963 59.5161C201.958 59.5169 201.952 59.5181 201.944 59.5199C201.919 59.5254 201.885 59.5349 201.843 59.5501C201.759 59.5806 201.656 59.6286 201.542 59.6935C201.313 59.824 201.068 60.0054 200.874 60.2C200.71 60.3639 200.605 60.4985 200.524 60.6646C200.441 60.8353 200.371 61.0676 200.318 61.4405C200.21 62.2036 200.188 63.4317 200.188 65.6709C200.188 67.9101 200.21 69.1382 200.318 69.9014C200.371 70.2742 200.441 70.5065 200.524 70.6773C200.605 70.8434 200.71 70.9779 200.874 71.1418C201.068 71.3364 201.313 71.5179 201.542 71.6483C201.656 71.7132 201.759 71.7612 201.843 71.7918C201.885 71.8069 201.919 71.8165 201.944 71.8219C201.966 71.8269 201.977 71.8274 201.977 71.8274H201.976C202.141 71.8274 202.334 71.8498 202.512 71.9458C202.709 72.0523 202.839 72.2227 202.904 72.4231C202.963 72.6042 202.964 72.7961 202.948 72.9712C202.931 73.1488 202.892 73.3473 202.838 73.5629C202.726 74.0917 202.633 74.5248 202.525 74.8606C202.417 75.1982 202.274 75.5072 202.019 75.7361C201.757 75.972 201.44 76.0669 201.105 76.1111C200.78 76.1539 200.375 76.1557 199.896 76.1557C198.726 76.1557 197.994 76.4056 197.551 76.8249C197.114 77.2384 196.86 77.9097 196.86 78.9839C196.86 80.7124 197.875 81.8121 198.898 81.8121C199.092 81.8121 199.294 81.8216 199.472 81.87C199.665 81.9226 199.874 82.0339 200.003 82.2633C200.12 82.4685 200.128 82.6936 200.116 82.8724C200.104 83.0581 200.062 83.2722 200.009 83.5046L200.006 83.518L200.002 83.5312C199.827 84.1439 199.318 85.4996 198.851 86.4775C198.383 87.4798 197.763 88.2401 196.945 88.7443C196.128 89.2476 195.156 89.4686 194.03 89.4686C193.802 89.4686 193.558 89.4605 193.342 89.3949C193.093 89.3189 192.885 89.1673 192.748 88.9155C192.63 88.6976 192.585 88.4361 192.561 88.1703C192.537 87.8959 192.532 87.5531 192.532 87.1381C192.532 83.101 190.114 78.0264 186.534 74.6902L186.533 74.689C182.595 70.9951 178.685 69.4992 173.021 69.4992C167.119 69.4992 162.595 71.4031 158.785 75.4971L158.784 75.4984C155.13 79.3966 153.594 83.3502 153.594 88.8438V92.2969V92.7969H153.094H109.829H66.5631H66.0631V92.2969V88.8022C66.0631 83.0288 64.1205 78.5025 60.064 74.689C56.1262 70.9947 52.2152 69.4992 46.5943 69.4992C40.9735 69.4992 37.0625 70.9947 33.1247 74.689L33.1235 74.6902C29.5438 78.0259 27.1256 83.1004 27.1256 87.1797V89.0518V89.5654L26.6122 89.5517L20.4153 89.3853C20.415 89.3853 20.4147 89.3853 20.4144 89.3853C18.629 89.3437 17.2479 89.3019 16.1717 89.2073C15.1007 89.1132 14.2833 88.9636 13.6466 88.6823C12.2921 88.0838 11.8902 86.9433 11.3783 85.2437L11.3782 85.2438L11.3763 85.2369C11.2095 84.653 11.0521 84.0867 10.9362 83.6387C10.8783 83.4151 10.8297 83.217 10.7952 83.0591C10.7655 82.9228 10.733 82.7611 10.733 82.645C10.733 82.4233 10.8647 82.2867 10.9254 82.2346C10.9919 82.1775 11.0614 82.1435 11.1052 82.1244C11.1973 82.0844 11.3044 82.056 11.404 82.0343C11.611 81.9891 11.8922 81.9504 12.2193 81.9185C12.8786 81.8542 13.7793 81.8121 14.7692 81.8121C15.8219 81.8121 16.6489 81.7731 17.2992 81.6777C17.9521 81.5818 18.3903 81.4339 18.6904 81.2413C19.2305 80.8946 19.4693 80.303 19.4693 78.9839C19.4693 78.2797 19.4138 77.7861 19.2811 77.4256C19.1581 77.0915 18.9652 76.8613 18.6351 76.6835C18.281 76.4929 17.7532 76.3546 16.9504 76.2692C16.1533 76.1844 15.1303 76.1557 13.8123 76.1557H9.27775H8.87755L8.78989 75.7652L7.87544 71.6916C7.26621 69.1486 6.86706 66.4598 6.70922 64.1395C6.55327 61.8469 6.62653 59.8349 7.01427 58.6907C7.23946 57.9948 7.46272 57.3626 7.89993 56.8654C8.35488 56.348 8.9898 56.0284 9.92454 55.8126C10.8503 55.599 12.124 55.4755 13.9115 55.3883C15.705 55.3008 18.0476 55.2486 21.1241 55.1863L21.1245 55.1863C26.4827 55.082 29.202 55.0197 30.6696 54.8765C31.4075 54.8045 31.7708 54.7163 31.9795 54.622C32.1528 54.5438 32.2343 54.4575 32.3839 54.2612C32.7765 53.7388 38.7288 46.2879 45.5801 37.7339L58.0599 22.0919L58.2101 21.9037H58.4508H88.8615C98.327 21.9037 106.15 21.9453 111.78 22.0182C114.595 22.0546 116.863 22.0989 118.514 22.1497C120.142 22.1998 121.219 22.257 121.608 22.3278Z" stroke="#FCFBF3"/>
<path d="M52.4863 50.8875L52.483 50.8938L52.4795 50.9C51.8839 51.9511 52.0072 53.2296 52.8522 54.2951L52.8523 54.2951L52.8568 54.301L53.5387 55.1875H72.4292C81.713 55.1875 86.4829 55.177 89.033 55.0683C90.3149 55.0137 90.9954 54.9353 91.3961 54.8341C91.5885 54.7855 91.7005 54.7353 91.7767 54.6895C91.8527 54.6439 91.9145 54.5902 92.0028 54.5019C92.1669 54.3378 92.2639 54.2165 92.3463 53.9733C92.4394 53.6988 92.5158 53.2591 92.5699 52.4507C92.6777 50.839 92.6884 47.9385 92.6884 42.3745C92.6884 36.8106 92.6777 33.91 92.5699 32.2983C92.5158 31.4899 92.4394 31.0503 92.3463 30.7757C92.2639 30.5326 92.1669 30.4113 92.0028 30.2472C91.8385 30.0828 91.717 29.9858 91.475 29.9035C91.2019 29.8105 90.7649 29.7341 89.9619 29.68C88.3608 29.5723 85.4813 29.5615 79.9591 29.5615C75.6531 29.5615 72.7294 29.5928 70.8219 29.6703C69.8668 29.7092 69.1783 29.7592 68.7031 29.8207C68.4651 29.8515 68.2918 29.8838 68.1705 29.9155C68.0925 29.936 68.0511 29.9524 68.0337 29.9599C68.0086 29.9871 67.944 30.0586 67.8282 30.1979C67.689 30.3652 67.5026 30.597 67.2745 30.886C66.8188 31.4635 66.204 32.2603 65.4821 33.2066C64.0387 35.0988 62.1718 37.5829 60.303 40.0937C58.4343 42.6045 56.5648 45.1405 55.1162 47.1366C54.3917 48.1349 53.7735 48.9967 53.3137 49.6521C52.8434 50.3225 52.5617 50.7451 52.4863 50.8875Z" stroke="#FCFBF3"/>
<path d="M138.201 52.5435L138.201 52.5346V52.5257C138.201 51.9428 138.056 51.356 137.066 49.7924C136.074 48.2247 134.288 45.7557 131.101 41.4237C127.115 36.0671 123.446 31.2023 122.856 30.5227L121.931 29.5615H111.826C106.927 29.5615 104.362 29.5723 102.919 29.6798C102.196 29.7336 101.8 29.8092 101.547 29.9004C101.322 29.9819 101.197 30.0801 101.03 30.2472C100.866 30.4113 100.769 30.5326 100.687 30.7757C100.594 31.0503 100.517 31.4899 100.463 32.2983C100.355 33.91 100.345 36.8106 100.345 42.3745C100.345 47.9385 100.355 50.839 100.463 52.4507C100.517 53.2591 100.594 53.6988 100.687 53.9733C100.769 54.2165 100.866 54.3378 101.03 54.5019C101.119 54.5905 101.182 54.6456 101.258 54.6921C101.333 54.7383 101.44 54.7879 101.62 54.8357C101.996 54.9356 102.63 55.0138 103.82 55.0684C106.187 55.177 110.592 55.1875 119.148 55.1875C127.495 55.1875 131.901 55.177 134.337 55.0735C135.559 55.0217 136.252 54.9473 136.688 54.8488C137.092 54.7574 137.256 54.6502 137.427 54.5103C137.736 54.2557 137.925 54.0165 138.041 53.7375C138.16 53.4524 138.22 53.0838 138.201 52.5435Z" stroke="#FCFBF3"/>
<circle cx="46.501" cy="89.5781" r="14.5" stroke="#FFF001" stroke-width="3"/>
<circle cx="173.501" cy="89.5781" r="14.5" stroke="#FFF001" stroke-width="3"/>
</svg>
