<svg width="213" height="124" viewBox="0 0 213 124" fill="none" xmlns="http://www.w3.org/2000/svg">
<path d="M111.896 37.1154L111.901 37.1167C119.422 39.638 130.624 46.2485 139.554 53.4681C139.555 53.4681 139.555 53.4682 139.555 53.4682L141.585 55.1079L151.523 55.3124L151.524 55.3124C165.003 55.6045 172.635 56.9424 182.313 60.713L182.318 60.715L186.561 62.4206L186.875 62.5467V62.8846V64.8814C186.875 65.4048 186.905 65.9607 186.951 66.4297C186.992 66.8566 187.042 67.1721 187.082 67.3289C187.09 67.3372 187.101 67.348 187.115 67.3616C187.169 67.4141 187.251 67.4834 187.364 67.5692C187.589 67.74 187.904 67.9532 188.294 68.1964C189.069 68.6811 190.106 69.2667 191.22 69.8442C193.141 70.8049 194.178 71.2899 195.094 71.5448C195.994 71.795 196.796 71.8281 198.273 71.8281H201.393H201.591L201.736 71.9638L203.816 73.9191L203.819 73.9224C204.316 74.3989 204.705 74.7762 204.994 75.0904C205.281 75.4015 205.502 75.6821 205.637 75.9688C205.937 76.6094 205.746 77.1554 205.527 77.7749C205.526 77.7762 205.526 77.7774 205.525 77.7787L205.071 79.1425L204.957 79.4844H204.596H201.31C200.332 79.4844 199.559 79.5259 198.948 79.6237C198.336 79.7218 197.92 79.8716 197.631 80.0651C197.106 80.418 196.859 81.0209 196.859 82.3125C196.859 83.3867 197.113 84.0579 197.55 84.4714C197.994 84.8907 198.725 85.1406 199.895 85.1406C200.427 85.1406 200.911 85.1618 201.267 85.1947C201.443 85.211 201.601 85.2312 201.723 85.2563C201.779 85.268 201.852 85.2856 201.921 85.3139C201.952 85.327 202.013 85.3542 202.074 85.4041C202.126 85.4467 202.267 85.5797 202.267 85.807C202.267 85.8682 202.256 85.9193 202.253 85.9357L202.253 85.9358C202.247 85.9609 202.241 85.9853 202.235 86.006C202.223 86.0479 202.207 86.0964 202.19 86.1471C202.155 86.2498 202.106 86.3831 202.048 86.5356C201.932 86.8416 201.774 87.2402 201.608 87.6568L201.605 87.6634L200.981 89.1611L200.853 89.4688H200.519H192.99C189.49 89.4688 187.573 89.4591 186.574 89.357C186.32 89.3311 186.106 89.2975 185.931 89.2508C185.763 89.2061 185.581 89.137 185.437 89.0082C185.267 88.8561 185.188 88.6568 185.19 88.4516C185.191 88.2814 185.248 88.1287 185.289 88.0295L185.3 88.0026L185.312 87.9804C185.311 87.9802 185.324 87.951 185.344 87.8723C185.365 87.7884 185.388 87.6755 185.413 87.5331C185.461 87.2491 185.509 86.8735 185.555 86.431C185.648 85.5483 185.73 84.4245 185.792 83.2862C185.936 80.1262 185.647 77.5852 184.838 75.3089C184.029 73.0344 182.69 70.9911 180.686 68.8433C176.833 64.747 172.349 62.8437 166.406 62.8437C160.463 62.8437 155.98 64.747 152.127 68.8433C150.122 70.9911 148.783 73.0344 147.975 75.3089C147.166 77.5852 146.877 80.1263 147.02 83.2863C147.082 84.4245 147.165 85.5483 147.257 86.431C147.303 86.8735 147.352 87.2491 147.4 87.5331C147.424 87.6755 147.447 87.7884 147.468 87.8722C147.488 87.951 147.501 87.9802 147.5 87.9804L147.513 88.0026L147.524 88.0295C147.56 88.1165 147.613 88.2821 147.56 88.4766C147.503 88.6824 147.36 88.8101 147.235 88.8846C147.018 89.0138 146.691 89.0806 146.286 89.1314C145.429 89.2387 143.838 89.3102 140.96 89.3595C135.187 89.4584 124.136 89.4688 103.172 89.4688C82.2073 89.4688 71.1563 89.4584 65.3838 89.3595C62.5056 89.3102 60.9141 89.2387 60.0578 89.1314C59.6525 89.0806 59.3251 89.0138 59.1084 88.8846C58.9834 88.8101 58.8402 88.6824 58.784 88.4766C58.7309 88.2821 58.784 88.1165 58.8198 88.0295L58.8309 88.0026L58.8439 87.9792C58.8434 87.98 58.8432 87.9804 58.8431 87.9804C58.8427 87.9802 58.8554 87.951 58.8753 87.8723C58.8966 87.7884 58.9197 87.6755 58.9439 87.5331C58.992 87.2491 59.0401 86.8735 59.0864 86.431C59.1788 85.5483 59.2614 84.4245 59.3235 83.2862C59.467 80.1262 59.178 77.5852 58.369 75.3089C57.5604 73.0339 56.2207 70.9902 54.2156 68.8419L54.2151 68.8414C50.4051 64.7476 45.8812 62.8437 39.979 62.8437C34.3159 62.8437 30.4051 64.3396 26.4678 68.0334L26.466 68.035C22.4514 71.7658 20.4686 76.3747 20.4686 81.9381V85.2246V86.0336L19.745 85.6718L18.1642 84.8814L18.1642 84.8814L18.1612 84.8799C16.8744 84.2256 15.4299 83.1083 14.1706 81.8861C12.9136 80.666 11.7995 79.301 11.2028 78.1297L11.2028 78.1297L11.2011 78.1263C10.7113 77.1467 10.4236 76.4849 10.2785 75.3066C10.1384 74.17 10.1292 72.5418 10.1499 69.6222C10.15 63.8846 10.5291 60.1927 12.0294 51.6077L12.0299 51.605L12.4875 49.0673L12.5593 48.6693L12.9635 48.6563L20.7002 48.4067C20.7003 48.4067 20.7004 48.4067 20.7006 48.4067C36.2894 47.8677 45.9367 46.0889 63.5392 40.4428C67.5455 39.1492 73.1381 37.6462 76.0313 37.0592L76.0316 37.0591C83.482 35.5523 98.136 34.7994 105.184 35.6381C107.094 35.8505 110.08 36.5238 111.896 37.1154Z" stroke="white"/>
<path d="M33.6017 48.6643C33.386 48.2153 33.1398 47.7664 32.9161 47.3786C32.7548 47.0989 32.6073 46.8545 32.494 46.6683C32.4767 46.6399 32.4596 46.6118 32.4428 46.5843C32.3607 46.4497 32.2885 46.3313 32.261 46.2763C32.2024 46.1591 32.1847 46.0185 32.2255 45.8801C32.2621 45.756 32.334 45.6729 32.3843 45.6258C32.4787 45.5374 32.59 45.4894 32.6578 45.4635C32.8096 45.4054 33.0084 45.3627 33.2188 45.3299C33.6514 45.2625 34.2503 45.2199 34.9131 45.2199C36.3942 45.2199 37.231 45.0989 37.7618 44.8082C38.2428 44.5448 38.5432 44.0988 38.7988 43.1757C39.1741 41.7717 39.2129 40.246 38.9819 38.9876C38.8664 38.3587 38.6865 37.8126 38.4599 37.3881C38.2326 36.9622 37.9758 36.6905 37.7211 36.5545C37.7209 36.5548 37.7015 36.5468 37.6502 36.5319C37.5884 36.5139 37.5026 36.4921 37.3912 36.4668C37.1691 36.4163 36.865 36.3562 36.4866 36.2876C35.731 36.1506 34.6982 35.9836 33.4724 35.7976C31.0218 35.4258 27.813 34.9804 24.5362 34.5517C21.2596 34.1229 17.9178 33.7112 15.2013 33.4068C12.469 33.1006 10.4063 32.9074 9.66094 32.9074C8.25469 32.9074 7.62857 33.15 7.18558 33.593C7.02174 33.7568 6.91655 33.8914 6.83605 34.0575C6.75328 34.2283 6.68316 34.4605 6.63024 34.8334C6.52193 35.5965 6.5 36.8246 6.5 39.0637C6.5 40.7392 6.50065 41.9561 6.59481 42.86C6.68964 43.7704 6.87134 44.2542 7.1448 44.5459C7.41201 44.831 7.84986 45.0196 8.69145 45.1194C9.53255 45.2191 10.6672 45.2199 12.2402 45.2199H16.8164H17.1526L17.2795 45.5313L17.7371 46.6545L17.7373 46.6544L17.7422 46.6676C17.9668 47.2666 18.3195 48.3481 18.5745 49.2923C19.5838 49.2812 20.534 49.2776 21.4527 49.2742C25.3615 49.2596 28.701 49.2471 33.6017 48.6643Z" stroke="white"/>
<path d="M76.7477 40.6721L76.7512 40.6713C78.8996 40.2239 81.9642 39.6947 83.6057 39.49C85.2651 39.2831 90.7651 39.1216 95.7473 39.0811L95.7494 39.0811C101.109 39.0609 104.249 39.1299 106.936 39.6576C109.638 40.1881 111.859 41.178 115.388 42.9414L115.389 42.9418C117.591 44.0469 120.916 46.0223 123.883 47.9192C125.368 48.8688 126.769 49.8023 127.9 50.6016C129.018 51.3921 129.907 52.0749 130.339 52.5173C131.016 53.2086 131.323 54.2949 131.334 55.3122C131.344 56.3285 131.06 57.4212 130.379 58.1176C129.638 58.875 128.748 59.0781 127.169 59.0781C125.161 59.0781 108.259 57.7482 91.7726 56.3727C83.5189 55.684 75.3551 54.9827 69.1874 54.4281C66.1037 54.1509 63.5178 53.9102 61.6687 53.7261C60.7445 53.6341 60.0023 53.556 59.4732 53.4944C59.2091 53.4637 58.9949 53.4366 58.8365 53.4138C58.7576 53.4024 58.6887 53.3914 58.6326 53.381C58.5898 53.3731 58.5158 53.3588 58.4515 53.3345L58.4445 53.3318L58.4376 53.329C57.2793 52.8503 56.6038 51.5635 56.4018 50.33C56.2 49.0973 56.4301 47.6638 57.396 46.8536L57.3985 46.8514C57.5047 46.7636 57.6618 46.6825 57.8078 46.6133C57.9696 46.5366 58.1748 46.4488 58.4145 46.3523C58.8946 46.1589 59.5336 45.922 60.2842 45.6564C61.7867 45.1249 63.7533 44.4725 65.8263 43.8134C69.9646 42.4975 74.562 41.1436 76.7477 40.6721Z" stroke="#FCFBF3"/>
<circle cx="39.834" cy="82.5781" r="15.5" stroke="#FFF001"/>
<circle cx="39.834" cy="82.5781" r="11.5" stroke="#FFF001"/>
<circle cx="165.834" cy="82.5781" r="15.5" stroke="#FFF001"/>
<circle cx="165.834" cy="82.5781" r="11.5" stroke="#FFF001"/>
</svg>
