<svg width="612" height="612" viewBox="0 0 612 612" fill="none" xmlns="http://www.w3.org/2000/svg">
<path fill-rule="evenodd" clip-rule="evenodd" d="M50.8154 0.425H0.425V50.8154H50.8154V0.425ZM0.425 0H0V0.425V50.8154V50.9842V51.2404V51.4092V101.8V101.969V102.225V102.394V152.784V152.953V153.209V153.378V203.768V203.937V204.193V204.362V254.752V254.921V255.177V255.346V305.737V305.838V306.162V306.263V356.654V356.823V357.079V357.248V407.638V407.807V408.063V408.232V458.622V458.791V459.047V459.216V509.606V509.775V510.031V510.2V560.591V560.76V561.016V561.185V611.575V612H0.425H50.8154L50.9842 612H51.4092H101.8H101.968H102.225H102.393H152.784H152.953H153.209H153.378H203.768H203.937H204.193H204.362H254.752H255.177L255.346 612H305.736L305.838 612L306.161 612L306.263 612H356.654L356.823 612H357.248H407.638H407.807H408.063H408.232H458.622H458.791H459.047H459.216H509.606H509.775H510.031H510.2H560.591H560.76H561.016H561.185H611.575H612V611.575V561.185V561.016V560.76V560.591V510.2V510.031V509.775V509.606V459.216V459.047V458.791V458.622V408.232V408.063V407.807V407.638V357.248V357.079V356.823V356.654V306.263L612 306.162L612 305.838L612 305.737V255.346V254.921L612 254.752V204.362V204.193V203.937V203.768V153.378V153.209V152.953V152.784V102.394V102.225V101.969V101.8V51.4093V51.2404V50.9843V50.8154V0.425V0H611.575H561.185H561.016H560.76H560.591H510.2H510.031H509.775H509.606H459.216H459.047H458.791H458.622H408.232H408.063H407.807H407.638H357.248H357.079H356.823H356.654H306.263H306.161H305.838H305.736H255.346H255.177H254.921H254.752H204.362H204.193H203.937H203.768H153.378H153.209H152.953H152.784H102.393H102.225H101.968H101.8H51.4092H51.2404H50.9842H50.8154H0.425ZM101.8 0.425H51.4092V50.8154H101.8V0.425ZM102.393 0.425H152.784V50.8154H102.393V0.425ZM203.768 0.425H153.378V50.8154H203.768V0.425ZM204.362 0.425H254.752V50.8154H204.362V0.425ZM305.736 0.425H255.346V50.8154H305.736V0.425ZM0.425 51.4092H50.8154V101.8H0.425V51.4092ZM51.4092 51.4093H101.8V101.8H51.4092V51.4093ZM152.784 51.4093H102.393V101.8H152.784V51.4093ZM153.378 51.4093H203.768V101.8H153.378V51.4093ZM254.752 51.4093H204.362V101.8H254.752V51.4093ZM255.346 51.4092H305.736V101.8H255.346V51.4092ZM50.8154 102.394H0.425V152.784H50.8154V102.394ZM101.8 102.394H51.4092V152.784H101.8V102.394ZM102.393 102.394H152.784V152.784H102.393V102.394ZM203.768 102.394H153.378V152.784H203.768V102.394ZM204.362 102.394H254.752V152.784H204.362V102.394ZM305.736 102.394H255.346V152.784H305.736V102.394ZM50.8154 153.378H0.425V203.768H50.8154V153.378ZM101.8 153.378H51.4092V203.768H101.8V153.378ZM102.393 153.378H152.784V203.768H102.393V153.378ZM203.768 153.378H153.378V203.768H203.768V153.378ZM204.362 153.378H254.752V203.768H204.362V153.378ZM305.736 153.378H255.346V203.768H305.736V153.378ZM101.8 204.362H51.4092V254.752H101.8V204.362ZM50.8154 204.362H0.425V254.752H50.8154V204.362ZM102.393 204.362H152.784V254.752H102.393V204.362ZM203.768 204.362H153.378V254.752H203.768V204.362ZM204.362 204.362H254.752V254.752H204.362V204.362ZM305.736 204.362H255.346V254.752H305.736V204.362ZM51.4092 255.346H101.8V305.737H51.4092V255.346ZM0.425 255.346H50.8154V305.737H0.425V255.346ZM152.784 255.346H102.393V305.737H152.784V255.346ZM153.378 255.346H203.768V305.737H153.378V255.346ZM254.752 255.346H204.362V305.737H254.752V255.346ZM255.346 255.346H305.736V305.737H255.346V255.346ZM356.654 0.425H306.263V50.8154H356.654V0.425ZM407.638 0.425H357.248V50.8154H407.638V0.425ZM408.232 0.425H458.622V50.8154H408.232V0.425ZM509.606 0.425H459.216V50.8154H509.606V0.425ZM510.2 0.425H560.591V50.8154H510.2V0.425ZM611.575 0.425H561.185V50.8154H611.575V0.425ZM306.263 51.4092H356.654V101.8H306.263V51.4092ZM357.248 51.4093H407.638V101.8H357.248V51.4093ZM458.622 51.4093H408.232V101.8H458.622V51.4093ZM459.216 51.4093H509.606V101.8H459.216V51.4093ZM560.591 51.4093H510.2V101.8H560.591V51.4093ZM561.185 51.4093H611.575V101.8H561.185V51.4093ZM356.654 102.394H306.263V152.784H356.654V102.394ZM407.638 102.394H357.248V152.784H407.638V102.394ZM408.232 102.394H458.622V152.784H408.232V102.394ZM509.606 102.394H459.216V152.784H509.606V102.394ZM510.2 102.394H560.591V152.784H510.2V102.394ZM611.575 102.394H561.185V152.784H611.575V102.394ZM356.654 153.378H306.263V203.768H356.654V153.378ZM407.638 153.378H357.248V203.768H407.638V153.378ZM408.232 153.378H458.622V203.768H408.232V153.378ZM509.606 153.378H459.216V203.768H509.606V153.378ZM510.2 153.378H560.591V203.768H510.2V153.378ZM611.575 153.378H561.185V203.768H611.575V153.378ZM407.638 204.362H357.248V254.752H407.638V204.362ZM356.654 204.362H306.263V254.752H356.654V204.362ZM408.232 204.362H458.622V254.752H408.232V204.362ZM509.606 204.362H459.216V254.752H509.606V204.362ZM510.2 204.362H560.591V254.752H510.2V204.362ZM611.575 204.362H561.185V254.752H611.575V204.362ZM357.248 255.346H407.638V305.737H357.248V255.346ZM306.263 255.346H356.654V305.737H306.263V255.346ZM458.622 255.346H408.232V305.737H458.622V255.346ZM459.216 255.346H509.607V305.737H459.216V255.346ZM560.591 255.346H510.2V305.737H560.591V255.346ZM561.185 255.346H611.575V305.737H561.185V255.346ZM407.638 306.263H357.248V356.654H407.638V306.263ZM356.654 306.263H306.263V356.654H356.654V306.263ZM408.232 306.263H458.622V356.654H408.232V306.263ZM509.606 306.263H459.216V356.654H509.606V306.263ZM510.2 306.263H560.591V356.654H510.2V306.263ZM611.575 306.263H561.185V356.654H611.575V306.263ZM357.248 357.248H407.638V407.638H357.248V357.248ZM306.263 357.248H356.654V407.638H306.263V357.248ZM458.622 357.248H408.232V407.638H458.622V357.248ZM459.216 357.248H509.606V407.638H459.216V357.248ZM560.591 357.248H510.2V407.638H560.591V357.248ZM561.185 357.248H611.575V407.638H561.185V357.248ZM356.654 408.232H306.263V458.622H356.654V408.232ZM407.638 408.232H357.248V458.622H407.638V408.232ZM408.232 408.232H458.622V458.622H408.232V408.232ZM509.606 408.232H459.216V458.622H509.606V408.232ZM510.2 408.232H560.591V458.622H510.2V408.232ZM611.575 408.232H561.185V458.622H611.575V408.232ZM356.654 459.216H306.263V509.606H356.654V459.216ZM407.638 459.216H357.248V509.606H407.638V459.216ZM408.232 459.216H458.622V509.606H408.232V459.216ZM509.606 459.216H459.216V509.606H509.606V459.216ZM510.2 459.216H560.591V509.606H510.2V459.216ZM611.575 459.216H561.185V509.606H611.575V459.216ZM407.638 510.2H357.248V560.591H407.638V510.2ZM356.654 510.2H306.263V560.591H356.654V510.2ZM408.232 510.2H458.622V560.591H408.232V510.2ZM509.606 510.2H459.216V560.591H509.606V510.2ZM510.2 510.2H560.591V560.591H510.2V510.2ZM611.575 510.2H561.185V560.591H611.575V510.2ZM306.263 561.185H356.654V611.575H306.263V561.185ZM357.248 561.185H407.638V611.575H357.248V561.185ZM458.622 561.185H408.232V611.575H458.622V561.185ZM459.216 561.185H509.606V611.575H459.216V561.185ZM560.591 561.185H510.2V611.575H560.591V561.185ZM561.185 561.185H611.575V611.575H561.185V561.185ZM101.8 306.263H51.4092V356.654H101.8V306.263ZM50.8154 306.263H0.425V356.654H50.8154V306.263ZM102.393 306.263H152.784V356.654H102.393V306.263ZM203.768 306.263H153.378V356.654H203.768V306.263ZM204.362 306.263H254.752V356.654H204.362V306.263ZM305.736 306.263H255.346V356.654H305.736V306.263ZM51.4092 357.248H101.8V407.638H51.4092V357.248ZM0.425 357.248H50.8154V407.638H0.425V357.248ZM152.784 357.248H102.393V407.638H152.784V357.248ZM153.378 357.248H203.768V407.638H153.378V357.248ZM254.752 357.248H204.362V407.638H254.752V357.248ZM255.346 357.248H305.736V407.638H255.346V357.248ZM50.8154 408.232H0.425V458.622H50.8154V408.232ZM101.8 408.232H51.4092V458.622H101.8V408.232ZM102.393 408.232H152.784V458.622H102.393V408.232ZM203.768 408.232H153.378V458.622H203.768V408.232ZM204.362 408.232H254.752V458.622H204.362V408.232ZM305.736 408.232H255.346V458.622H305.736V408.232ZM50.8154 459.216H0.425V509.606H50.8154V459.216ZM101.8 459.216H51.4092V509.607H101.8V459.216ZM102.393 459.216H152.784V509.607H102.393V459.216ZM203.768 459.216H153.378V509.607H203.768V459.216ZM204.362 459.216H254.752V509.607H204.362V459.216ZM305.736 459.216H255.346V509.606H305.736V459.216ZM101.8 510.2H51.4092V560.591H101.8V510.2ZM50.8154 510.2H0.425V560.591H50.8154V510.2ZM102.393 510.2H152.784V560.591H102.393V510.2ZM203.768 510.2H153.378V560.591H203.768V510.2ZM204.362 510.2H254.752V560.591H204.362V510.2ZM305.736 510.2H255.346V560.591H305.736V510.2ZM0.425 561.185H50.8154V611.575H0.425V561.185ZM51.4092 561.185H101.8V611.575H51.4092V561.185ZM152.784 561.185H102.393V611.575H152.784V561.185ZM153.378 561.185H203.768V611.575H153.378V561.185ZM254.752 561.185H204.362V611.575H254.752V561.185ZM255.346 561.185H305.736V611.575H255.346V561.185Z" fill="url(#paint0_radial_434_3016)" fill-opacity="0.2"/>
<defs>
<radialGradient id="paint0_radial_434_3016" cx="0" cy="0" r="1" gradientUnits="userSpaceOnUse" gradientTransform="translate(306 306) rotate(90) scale(306)">
<stop stop-opacity="0.89"/>
<stop offset="0.915108" stop-opacity="0"/>
</radialGradient>
</defs>
</svg>
