<svg width="25" height="25" viewBox="0 0 25 25" fill="none" xmlns="http://www.w3.org/2000/svg">
<g clip-path="url(#clip0_434_3420)">
<path d="M14.3984 0.225044C10.6578 0.698481 7.68588 3.12192 6.99213 6.26723C6.94994 6.46879 6.90307 6.94692 6.889 7.37348C6.86088 8.21254 6.93119 8.80317 7.13275 9.44067C7.19369 9.62817 7.23119 9.78286 7.21713 9.78286C7.09994 9.78286 6.42963 9.90942 6.07807 9.99379C5.09838 10.2422 4.33432 10.5657 4.24994 10.7672C4.14682 11.0157 4.31088 11.2829 4.57338 11.2829C4.639 11.2829 4.89213 11.1985 5.13588 11.1C5.68432 10.875 6.289 10.7016 6.84682 10.6032C7.54994 10.486 7.5265 10.4766 7.76088 10.8891C8.17338 11.611 8.94213 12.4875 9.664 13.0454C11.0234 14.1047 12.8046 14.8032 14.6093 14.986C14.8765 15.0094 15.1156 15.0516 15.1343 15.0704C15.1906 15.1266 15.3124 15.9938 15.3124 16.3219C15.3124 17.2782 14.9421 18.3704 14.3234 19.2516C14.0421 19.6547 13.3437 20.3625 12.9593 20.6344C12.5843 20.9016 12.5093 21.0985 12.6921 21.3329C12.8515 21.5391 13.0765 21.5063 13.4656 21.2157C14.5062 20.4375 15.3968 19.2282 15.7718 18.0797C16.0718 17.1704 16.1374 15.9657 15.9406 15.1454C15.9171 15.0516 15.9359 15.0469 16.4468 15.0141C16.7374 14.9954 17.0703 14.9625 17.1874 14.9391C17.389 14.9016 17.4171 14.911 17.7265 15.1125C18.8281 15.8204 20.7734 16.4954 21.7437 16.5047C22.1281 16.5094 22.1562 16.5 22.3249 16.3641C22.5828 16.1579 22.6953 15.9094 22.6906 15.5719C22.6859 15.3235 22.6296 15.1641 22.2124 14.1891C21.9499 13.5844 21.7343 13.0782 21.7343 13.0641C21.7343 13.05 21.9031 12.8954 22.1093 12.7172C23.0609 11.8922 23.839 10.7204 24.214 9.54379C24.4531 8.78911 24.514 8.29223 24.4859 7.37348C24.4671 6.67973 24.4437 6.49692 24.3218 6.03286C23.9468 4.59379 23.1171 3.30942 21.9265 2.32035C21.5421 2.00629 21.4578 1.95473 21.3031 1.95473C21.0734 1.95473 20.9374 2.08598 20.9374 2.30629C20.9374 2.49379 20.9515 2.51254 21.5281 2.99067C22.5124 3.81098 23.2812 5.02504 23.6093 6.29067C23.7546 6.82973 23.7874 7.9641 23.6843 8.54067C23.4031 10.0313 22.6203 11.2922 21.2796 12.4172C20.9328 12.7032 20.8906 12.7594 20.8906 12.8954C20.8906 12.9938 21.1015 13.5516 21.4343 14.3204C22.1234 15.9375 22.1328 15.886 21.1296 15.661C20.0281 15.4125 18.889 14.9485 18.0453 14.4L17.6374 14.1329L17.3515 14.161C17.1968 14.175 16.9249 14.2079 16.7421 14.236C16.3062 14.2969 15.1484 14.2969 14.6562 14.236C11.4031 13.8422 8.76869 11.9485 7.91088 9.37973C6.94994 6.51567 8.43588 3.41723 11.5062 1.88442C12.8421 1.21879 14.1312 0.923481 15.7015 0.923481C17.164 0.928169 18.3828 1.18598 19.6437 1.76723C20.1031 1.97817 20.2718 1.98286 20.3984 1.80004C20.4828 1.67817 20.4921 1.43911 20.4124 1.33129C20.3187 1.21411 19.5968 0.890669 18.9078 0.665668C18.2609 0.454731 17.5765 0.304731 16.9062 0.220356C16.4374 0.164106 14.8671 0.168793 14.3984 0.225044Z" fill="#FFF001"/>
<path d="M11.6323 5.42656C10.6432 5.55312 9.88383 6.29375 9.73383 7.2875C9.57914 8.2625 10.0807 9.2 10.9854 9.62656C11.3088 9.78594 11.3979 9.80469 11.801 9.81875C12.2979 9.84219 12.6448 9.76719 13.0104 9.56562L13.2166 9.45312L13.4182 9.64062C13.5776 9.78594 13.662 9.82812 13.7885 9.82812C14.0088 9.82812 14.1401 9.69219 14.1401 9.46719C14.1401 9.32656 14.1026 9.25625 13.9526 9.10156L13.7604 8.90937L13.8776 8.69844C14.2245 8.07969 14.2245 7.17969 13.8682 6.53281C13.5916 6.02187 12.8885 5.51094 12.3682 5.44531C12.2463 5.43125 12.0963 5.4125 12.0307 5.40312C11.9651 5.39844 11.787 5.40781 11.6323 5.42656ZM12.5745 6.3125C12.8745 6.4625 13.2166 6.85625 13.3198 7.17969C13.4182 7.49844 13.3995 7.94375 13.2729 8.18281L13.1932 8.3375L12.9729 8.12187C12.7338 7.8875 12.5604 7.84531 12.3729 7.97656C12.1479 8.13125 12.1995 8.44531 12.4948 8.72187C12.5745 8.80156 12.6401 8.87656 12.6401 8.89531C12.6401 8.98437 12.1479 9.0875 11.8245 9.06875C10.601 8.98906 10.0338 7.56406 10.8495 6.63594C11.2573 6.16719 11.9932 6.03125 12.5745 6.3125Z" fill="#FFF001"/>
<path d="M15.5703 6.66406C15.4953 6.73438 15.4531 6.83281 15.4531 6.92188C15.4531 7.01094 15.4953 7.10938 15.5703 7.17969L15.6828 7.29688H18.5469C20.3281 7.29688 21.4437 7.27812 21.5 7.25C21.6172 7.18906 21.6922 6.94531 21.6406 6.80937C21.5375 6.5375 21.6406 6.54688 18.5328 6.54688H15.6828L15.5703 6.66406Z" fill="#FFF001"/>
<path d="M15.5514 8.63776C15.4296 8.79244 15.4249 8.98932 15.5421 9.12994L15.6311 9.24244L18.5046 9.25651C21.6311 9.27057 21.5374 9.27526 21.6405 9.00807C21.6921 8.86744 21.6171 8.62369 21.4999 8.56276C21.4436 8.53463 20.3186 8.51588 18.528 8.51588H15.6452L15.5514 8.63776Z" fill="#FFF001"/>
<path d="M2.95129 11.4874C2.55754 11.7874 1.91066 12.4624 1.60129 12.8983C1.09504 13.6061 0.720039 14.478 0.565351 15.303C0.448164 15.9264 0.495039 17.1077 0.654414 17.703C0.991914 18.9452 1.69973 20.0608 2.70754 20.9186L2.92316 21.1014L2.52941 22.0155C2.31379 22.517 2.11691 23.0139 2.09348 23.117C2.0091 23.4827 2.20598 23.942 2.51535 24.1014C2.71223 24.2045 3.12004 24.1858 3.69191 24.0592C4.69035 23.8342 5.59973 23.4733 6.39191 22.9952L6.78566 22.7608L7.13723 22.8124C7.90129 22.9155 9.25129 22.8639 10.1091 22.6905C10.8919 22.5311 11.9419 22.1608 12.0544 22.0014C12.1575 21.8514 12.1435 21.6545 12.0075 21.5233C11.8575 21.3686 11.745 21.3733 11.2341 21.5702C9.97316 22.0577 8.40754 22.2358 7.07629 22.0342L6.5841 21.9639L6.22316 22.1936C5.42629 22.7092 4.71848 23.0139 3.75285 23.2577C3.07785 23.4311 2.86691 23.4545 2.82941 23.3608C2.82004 23.3327 3.02629 22.7983 3.29348 22.1795C3.56066 21.5608 3.77629 21.017 3.78098 20.9749C3.78098 20.8295 3.72473 20.7452 3.50441 20.5811C3.14816 20.3092 2.56691 19.7186 2.2716 19.3249C1.93879 18.8795 1.57316 18.153 1.40441 17.5858C1.28723 17.192 1.27785 17.103 1.27785 16.2967C1.27785 15.4811 1.28723 15.4061 1.4091 15.0077C1.76066 13.8686 2.40754 12.9217 3.3966 12.1155C3.71066 11.8577 3.7341 11.8249 3.7341 11.6514C3.7341 11.2342 3.38723 11.1592 2.95129 11.4874Z" fill="#FFF001"/>
<path d="M4.48864 14.7359C4.34801 14.8531 2.9652 18.4719 3.0027 18.6219C3.04489 18.7813 3.21364 18.9219 3.36364 18.9219C3.56051 18.9219 3.71051 18.7484 3.85114 18.3688L3.9777 18.0313H4.7652H5.5527L5.67926 18.3688C5.74958 18.5563 5.85739 18.7578 5.92301 18.8141C6.13395 19.0109 6.4527 18.9125 6.52301 18.6266C6.5652 18.4578 5.22458 14.9047 5.0652 14.7594C4.91989 14.6328 4.63395 14.6188 4.48864 14.7359ZM5.15895 16.9625L5.27614 17.2813H4.76989H4.25895L4.48864 16.6813C4.6152 16.3531 4.73239 16.0531 4.74645 16.0156C4.7652 15.9734 4.82614 16.0813 4.90583 16.2969C4.97614 16.4891 5.08864 16.7891 5.15895 16.9625Z" fill="#FFF001"/>
<path d="M7.92012 15.4391C7.68106 15.4859 7.58731 15.8844 7.76543 16.0625C7.85918 16.1562 7.92012 16.1562 10.5076 16.1562C13.0951 16.1562 13.1561 16.1562 13.2498 16.0625C13.3482 15.9641 13.3717 15.7391 13.2967 15.5938C13.2029 15.4156 13.0342 15.4063 10.4889 15.4109C9.13418 15.4156 7.97637 15.4297 7.92012 15.4391Z" fill="#FFF001"/>
<path d="M7.79349 17.4734C7.63411 17.6 7.62005 17.8859 7.77474 18.0312C7.87317 18.125 7.92474 18.125 10.5075 18.125H13.1419L13.2404 18.0172C13.381 17.8672 13.3763 17.6375 13.2263 17.4922L13.1138 17.375H10.5169C7.95755 17.375 7.91536 17.375 7.79349 17.4734Z" fill="#FFF001"/>
</g>
<defs>
<clipPath id="clip0_434_3420">
<rect width="24" height="24" fill="white" transform="translate(0.5 0.171875)"/>
</clipPath>
</defs>
</svg>
