<svg width="25" height="25" viewBox="0 0 25 25" fill="none" xmlns="http://www.w3.org/2000/svg">
<path d="M3.66051 2.76094C3.41523 2.87227 3.20768 3.07637 3.09447 3.31758L3.00391 3.50684L3.00391 12.1719L3.00391 20.8369L3.09447 21.0262C3.20768 21.2674 3.41523 21.4715 3.66051 21.5828L3.85296 21.6719H11.0039L18.1549 21.6719L18.3473 21.5828C18.5926 21.4715 18.8001 21.2674 18.9133 21.0262L19.0039 20.8369V19.2486V17.6566L18.8945 17.549C18.7473 17.408 18.5284 17.4006 18.3737 17.5305L18.2681 17.6195L18.2492 19.1373C18.2303 20.7664 18.2303 20.7553 18.0265 20.8629C17.8869 20.9371 4.11711 20.9334 3.97749 20.8592C3.76617 20.7479 3.77749 21.3119 3.77749 12.1719C3.77749 3.03184 3.76617 3.5959 3.97749 3.48457C4.11711 3.41035 17.8869 3.40664 18.0265 3.48086C18.2341 3.58848 18.2303 3.52168 18.2492 5.85586L18.2681 8.02305L18.3737 8.11211C18.5284 8.24199 18.7473 8.23457 18.8945 8.09355L19.0039 7.98594V5.74453V3.50684L18.9133 3.31758C18.8001 3.07637 18.5926 2.87227 18.3473 2.76094L18.1549 2.67188L11.0039 2.67188H3.85296L3.66051 2.76094Z" fill="#FFF001"/>
<path d="M9.77707 4.72913C9.12971 4.86653 8.58137 5.15661 8.09395 5.61844C7.37805 6.29783 7.04676 7.03447 7.00868 8.03065C6.98583 8.61844 7.04295 8.9963 7.22573 9.46958C7.54179 10.2826 8.24246 11.0268 9.03451 11.3894C9.54478 11.6184 9.81134 11.6719 10.5006 11.6719C11.0413 11.6719 11.1708 11.6604 11.4259 11.5841C12.0809 11.3932 12.5873 11.0879 13.0443 10.6032C13.6955 9.91615 14.0039 9.13371 14.0039 8.17951C14.0039 7.17951 13.6955 6.42378 12.9948 5.71386C12.4579 5.16806 11.9286 4.87417 11.2165 4.72913C10.8547 4.65279 10.1198 4.65279 9.77707 4.72913ZM11.1594 5.5421C12.7587 5.95432 13.6231 7.66806 13.01 9.20623C12.9415 9.37798 12.8272 9.58409 12.7206 9.74058C12.713 9.74821 12.6026 9.63752 12.4731 9.4963C12.3398 9.35126 12.1037 9.14897 11.9476 9.04592C11.7915 8.94287 11.662 8.84745 11.6658 8.836C11.6658 8.82073 11.7077 8.72149 11.7572 8.61844C11.841 8.44668 11.8524 8.37798 11.8524 7.91233C11.8524 7.43523 11.8448 7.3818 11.7534 7.18714C11.4945 6.63371 10.8623 6.30546 10.2721 6.41615C9.81134 6.50012 9.43435 6.78638 9.24776 7.18714C9.15637 7.3818 9.14875 7.43523 9.14875 7.91233C9.14875 8.37798 9.16018 8.44668 9.24395 8.61844C9.29345 8.72149 9.33534 8.82073 9.33534 8.836C9.33915 8.84745 9.20968 8.94287 9.05355 9.04592C8.89743 9.14897 8.66133 9.35126 8.52805 9.4963C8.33385 9.70623 8.28054 9.74821 8.25007 9.70623C8.13964 9.53829 7.90736 9.00775 7.85785 8.80546C7.77027 8.46958 7.77789 7.8818 7.87308 7.51539C8.11299 6.57646 8.88981 5.79401 9.82276 5.54592C10.2036 5.44668 10.7748 5.44668 11.1594 5.5421ZM10.7519 7.26729C10.9918 7.3818 11.0832 7.55355 11.087 7.88943C11.087 8.09936 11.0718 8.19478 11.0108 8.29401C10.7748 8.70241 10.2264 8.70241 9.99031 8.29783C9.93319 8.19859 9.91415 8.09554 9.91415 7.91233C9.91415 7.58409 10.0094 7.39325 10.234 7.27493C10.4358 7.16806 10.5463 7.16424 10.7519 7.26729ZM11.3041 9.62226C11.5592 9.74439 11.681 9.83218 11.8676 10.0307C11.9971 10.1719 12.0999 10.3131 12.0923 10.3436C12.0733 10.4314 11.5135 10.7215 11.186 10.8093C10.6262 10.962 9.86465 10.8971 9.38104 10.6566C9.11067 10.5192 8.90123 10.3742 8.90123 10.3284C8.90123 10.3016 9.00786 10.1681 9.13733 10.0307C9.3163 9.836 9.44197 9.74439 9.67806 9.62989C10.0589 9.44668 10.0855 9.44287 10.5767 9.45432C10.9613 9.46195 10.9956 9.46958 11.3041 9.62226Z" fill="#FFF001"/>
<path d="M20.1155 7.71646C20.0032 7.73803 19.8272 7.79554 19.7223 7.84587C19.3028 8.03997 19.3066 8.02919 16.7412 12.3067C15.4303 14.4886 14.348 16.3038 14.3368 16.3361C14.3255 16.3721 14.2356 17.0658 14.142 17.8782C13.9585 19.4634 13.9585 19.4993 14.1383 19.618C14.1795 19.6467 14.2843 19.6719 14.3705 19.6719C14.5427 19.6719 14.569 19.6539 16.273 18.4425L17.0932 17.8566L19.4489 13.9386C20.7447 11.7819 21.8496 9.93069 21.9057 9.82286C21.9919 9.64673 22.0031 9.58202 22.0031 9.21179C22.0068 8.80201 22.0031 8.79123 21.8645 8.52164C21.6398 8.0831 21.2428 7.79554 20.7297 7.70568C20.4676 7.65895 20.3814 7.65895 20.1155 7.71646ZM20.8384 8.53602C20.9245 8.58274 21.0443 8.68699 21.1043 8.77325C21.1979 8.89906 21.2204 8.97095 21.2316 9.16865C21.2428 9.40589 21.2391 9.41668 21.0219 9.78691C20.902 9.99539 20.7934 10.1643 20.7822 10.1643C20.7709 10.1643 20.4564 9.99539 20.0818 9.78691L19.4077 9.41308L19.5425 9.17584C19.7373 8.83796 19.8833 8.64385 19.9882 8.57915C20.2616 8.40661 20.565 8.39223 20.8384 8.53602ZM19.8459 10.5382C20.138 10.7035 20.3777 10.8401 20.3777 10.8473C20.3777 10.8689 16.6737 17.0227 16.6438 17.0515C16.6026 17.0874 15.2618 16.3397 15.2768 16.2894C15.2805 16.2679 16.1232 14.8624 17.1456 13.1622L19.0032 10.0745L19.1568 10.1571C19.2429 10.2039 19.55 10.3764 19.8459 10.5382ZM15.6663 17.4361C15.8648 17.5475 16.0221 17.6482 16.0108 17.6625C16.0034 17.6769 15.7412 17.8674 15.4341 18.0867C15.0371 18.3671 14.8723 18.4677 14.8723 18.421C14.8723 18.3886 14.906 18.0831 14.9472 17.7488C14.9884 17.4109 15.0221 17.1234 15.0221 17.109C15.0221 17.091 15.0858 17.1126 15.1644 17.1557C15.2393 17.1988 15.4678 17.3246 15.6663 17.4361Z" fill="#FFF001"/>
<path d="M7.10657 12.8019C6.96968 12.9919 6.96968 13.3519 7.10657 13.5419L7.20647 13.6719H10.0071L12.8078 13.6719L12.9077 13.5419C12.9854 13.4369 13.0039 13.3619 13.0039 13.1719C13.0039 12.9819 12.9854 12.9069 12.9077 12.8019L12.8078 12.6719H10.0071H7.20647L7.10657 12.8019Z" fill="#FFF001"/>
<path d="M7.10657 14.8019C6.96968 14.9919 6.96968 15.3519 7.10657 15.5419L7.20647 15.6719H10.0071L12.8078 15.6719L12.9077 15.5419C12.9854 15.4369 13.0039 15.3619 13.0039 15.1719C13.0039 14.9819 12.9854 14.9069 12.9077 14.8019L12.8078 14.6719H10.0071H7.20647L7.10657 14.8019Z" fill="#FFF001"/>
<path d="M7.10657 16.8019C6.96968 16.9919 6.96968 17.3519 7.10657 17.5419L7.20647 17.6719H10.0071H12.8078L12.9077 17.5419C12.9854 17.4369 13.0039 17.3619 13.0039 17.1719C13.0039 16.9819 12.9854 16.9069 12.9077 16.8019L12.8078 16.6719H10.0071H7.20647L7.10657 16.8019Z" fill="#FFF001"/>
<path d="M10.1091 18.8019C10.0241 18.9069 10.0039 18.9819 10.0039 19.1719C10.0039 19.3619 10.0241 19.4369 10.1091 19.5419L10.2183 19.6719H11.5004H12.7825L12.8917 19.5419C13.0413 19.3519 13.0413 18.9919 12.8917 18.8019L12.7825 18.6719H11.5004H10.2183L10.1091 18.8019Z" fill="#FFF001"/>
</svg>
